<svg xmlns="http://www.w3.org/2000/svg" width="2000" height="2000" viewBox="0 0 1220 1220" version="1.1" style="">
<path fill="#ffffff" opacity="1.00" d=" M 0.00 0.00 L 1220.00 0.00 L 1220.00 1220.00 L 0.00 1220.00 L 0.00 0.00 M 766.22 42.13 C 761.22 51.67 757.30 61.75 752.40 71.33 C 743.21 72.50 734.07 74.03 724.91 75.40 C 722.91 75.67 720.79 75.87 719.11 77.08 C 715.40 79.47 715.12 85.72 718.48 88.51 C 725.22 95.19 731.89 101.93 738.74 108.50 C 740.21 109.55 739.51 111.49 739.45 112.96 C 737.88 121.98 736.54 131.03 734.77 140.01 C 733.85 144.22 737.45 149.28 742.01 148.77 C 744.34 148.75 746.32 147.35 748.33 146.34 C 755.19 142.46 762.23 138.92 769.08 135.03 C 770.52 134.42 772.09 132.90 773.72 133.94 C 782.67 138.43 791.21 143.72 800.26 148.05 C 803.22 149.41 806.96 148.49 809.06 146.01 C 811.27 144.06 810.70 140.78 810.51 138.17 C 808.85 131.20 808.04 124.07 806.71 117.03 C 806.46 114.41 805.78 111.66 806.47 109.07 C 813.59 101.97 820.90 95.04 827.73 87.65 C 830.90 84.69 830.17 78.85 826.41 76.69 C 822.94 74.78 818.84 74.84 815.04 74.14 C 807.55 72.78 799.81 72.88 792.48 70.67 C 788.09 61.34 783.49 52.11 779.10 42.78 C 776.91 37.68 768.86 37.19 766.22 42.13 M 540.57 65.89 C 522.91 69.06 506.13 77.65 494.04 91.03 C 479.33 106.66 472.48 128.75 473.48 149.98 C 474.53 168.73 482.85 186.71 495.55 200.42 C 508.32 213.75 525.65 222.83 544.07 224.81 C 558.40 226.77 573.04 223.88 586.30 218.37 C 603.73 211.15 617.62 196.73 625.90 179.95 C 640.91 149.48 634.16 109.20 608.53 86.47 C 590.91 69.13 564.76 61.89 540.57 65.89 M 962.35 135.31 C 959.68 136.01 958.16 138.51 957.06 140.83 C 953.53 148.42 949.82 155.93 946.42 163.58 C 945.57 165.11 944.89 167.48 942.76 167.40 C 933.06 168.78 923.35 170.17 913.71 171.90 C 908.52 172.93 906.57 180.09 910.14 183.79 C 916.92 191.30 924.76 197.83 931.68 205.17 C 931.64 216.26 927.58 226.98 927.24 238.06 C 927.01 241.04 929.53 243.33 932.02 244.47 C 934.74 245.25 937.35 243.89 939.66 242.59 C 946.72 238.60 953.94 234.90 961.03 230.94 C 962.58 230.20 964.39 228.66 966.14 229.86 C 974.92 234.33 983.41 239.36 992.26 243.69 C 995.98 245.89 1001.15 243.53 1002.51 239.61 C 1003.38 234.00 1001.27 228.55 1000.64 223.04 C 1000.00 217.12 998.05 211.31 998.29 205.32 C 1000.17 202.58 1003.02 200.68 1005.33 198.32 C 1010.22 193.53 1015.22 188.84 1019.88 183.82 C 1023.27 180.32 1022.22 173.61 1017.40 171.95 C 1011.71 170.35 1005.76 169.89 999.94 168.96 C 994.88 168.21 989.51 168.34 984.77 166.24 C 980.01 157.20 975.69 147.91 971.13 138.76 C 969.68 135.66 965.51 133.95 962.35 135.31 M 309.49 243.34 C 229.30 277.50 149.08 311.60 68.99 345.98 C 66.07 347.05 63.78 349.81 64.31 353.05 C 64.35 568.39 64.17 783.73 64.43 999.06 C 63.58 1004.17 69.30 1008.11 73.97 1006.40 C 98.69 995.96 123.47 985.60 148.23 975.24 C 178.87 962.10 209.82 949.70 240.43 936.50 C 264.08 926.50 287.82 916.69 311.39 906.53 C 312.43 906.12 313.45 906.20 314.45 906.76 C 331.63 914.28 349.07 921.20 366.27 928.69 C 382.36 935.85 398.76 942.27 414.94 949.20 C 437.98 958.60 460.86 968.39 483.81 978.01 C 506.30 987.67 529.18 996.43 551.52 1006.42 C 553.80 1007.30 556.17 1006.35 558.22 1005.31 C 565.27 1001.75 572.74 999.13 579.99 996.00 C 601.39 987.02 622.90 978.29 644.19 969.06 C 664.86 960.39 685.60 951.89 706.19 943.02 C 709.13 941.71 712.31 940.79 714.98 938.93 C 718.86 936.05 718.60 929.19 714.12 927.00 C 709.76 925.09 705.46 928.12 701.53 929.71 C 662.46 946.40 623.20 962.66 584.06 979.20 C 576.25 982.42 568.64 986.21 560.63 988.85 C 560.53 945.55 560.60 902.25 560.56 858.96 C 560.78 856.18 558.88 853.62 556.46 852.45 C 552.22 849.87 546.30 854.35 546.55 858.97 C 546.52 902.25 546.56 945.52 546.51 988.80 C 526.19 980.30 505.86 971.81 485.52 963.35 C 459.63 952.75 433.99 941.58 408.00 931.23 C 378.34 919.03 348.97 906.16 319.53 893.45 C 319.39 789.95 319.55 686.44 319.43 582.94 C 319.44 577.77 313.29 574.73 308.94 577.05 C 306.94 578.34 305.05 580.37 305.42 582.95 C 305.48 686.51 305.40 790.06 305.45 893.62 C 259.63 913.77 213.19 932.51 167.11 952.05 C 140.12 963.42 113.14 974.81 86.18 986.24 C 83.49 987.38 80.80 988.60 77.89 989.15 C 77.22 979.42 78.66 969.73 78.27 960.00 C 78.34 759.09 78.32 558.18 78.27 357.27 C 152.89 325.08 227.74 293.42 302.40 261.33 C 303.12 261.09 304.57 260.63 305.30 260.40 C 305.39 342.61 305.33 424.82 305.40 507.03 C 304.92 511.78 310.42 515.81 314.77 513.72 C 318.74 512.38 319.78 507.72 319.36 504.01 C 319.30 422.98 319.35 341.94 319.36 260.91 C 322.75 261.94 325.97 263.43 329.24 264.77 C 401.81 295.34 474.24 326.26 546.60 357.33 C 546.49 501.24 546.58 645.15 546.52 789.06 C 546.09 792.59 548.51 796.36 552.08 797.09 C 556.31 798.43 560.81 794.29 560.52 790.04 C 560.50 645.98 560.54 501.92 560.51 357.86 C 560.83 357.59 561.46 357.05 561.78 356.77 C 637.43 324.86 712.78 292.21 788.43 260.30 C 788.54 299.53 788.44 338.76 788.48 377.99 C 788.55 381.15 788.25 384.34 788.70 387.49 C 789.88 389.88 792.13 392.17 795.03 391.84 C 799.37 392.59 802.89 388.11 802.46 384.05 C 802.39 342.99 802.47 301.92 802.39 260.86 C 806.85 262.01 810.96 264.15 815.23 265.84 C 860.83 285.14 906.29 304.77 951.88 324.09 C 977.68 335.32 1003.72 346.00 1029.37 357.56 C 1029.19 473.05 1029.33 588.54 1029.31 704.03 C 1028.72 708.18 1032.82 712.32 1037.01 711.59 C 1041.04 711.14 1043.44 706.84 1043.30 703.06 C 1043.29 586.68 1043.28 470.30 1043.26 353.93 C 1043.47 350.18 1041.09 346.84 1037.58 345.63 C 959.57 312.24 881.55 278.86 803.47 245.63 C 800.24 244.47 796.88 241.71 793.34 243.14 C 713.77 277.03 634.08 310.68 554.49 344.52 C 551.25 345.25 548.42 342.57 545.44 341.63 C 468.78 308.84 392.05 276.22 315.29 243.66 C 313.44 242.86 311.37 242.22 309.49 243.34 M 795.42 416.67 C 790.10 417.35 784.55 417.30 779.51 419.31 C 774.83 421.28 774.30 428.62 778.73 431.17 C 782.17 432.48 785.98 431.63 789.52 431.15 C 794.63 430.11 799.87 430.60 805.04 430.33 C 809.76 429.74 813.09 423.82 810.11 419.75 C 806.90 414.82 800.30 416.92 795.42 416.67 M 835.52 422.67 C 832.55 424.46 830.47 428.46 832.34 431.75 C 833.83 435.57 838.38 436.01 841.72 437.36 C 847.29 439.17 851.95 442.78 857.03 445.54 C 862.87 447.42 868.05 440.11 864.81 435.11 C 861.43 430.94 856.08 429.14 851.54 426.57 C 846.52 424.45 841.16 421.02 835.52 422.67 M 747.51 429.76 C 740.21 433.27 733.40 437.95 727.52 443.53 C 725.20 445.37 725.02 448.60 725.81 451.25 C 727.21 453.74 730.13 455.49 733.01 455.27 C 737.34 454.02 740.14 450.14 743.95 447.91 C 747.66 444.91 752.50 443.36 755.77 439.86 C 759.28 434.63 753.34 427.38 747.51 429.76 M 792.52 455.67 C 790.91 456.55 789.64 457.96 788.74 459.55 C 788.20 462.67 788.55 465.85 788.49 469.00 C 788.51 549.67 788.49 630.35 788.49 711.02 C 787.91 715.13 791.72 719.42 795.97 718.82 C 799.93 719.02 802.80 714.71 802.47 711.05 C 802.47 628.02 802.46 544.98 802.47 461.95 C 802.60 457.00 796.93 453.80 792.52 455.67 M 882.54 455.69 C 878.77 456.93 876.17 461.86 878.58 465.39 C 881.50 470.39 885.12 474.97 887.63 480.22 C 889.06 482.78 890.08 486.09 893.14 487.16 C 898.04 489.39 904.21 484.46 902.68 479.15 C 900.83 473.58 897.04 468.84 894.21 463.72 C 891.67 459.68 888.23 453.85 882.54 455.69 M 706.44 467.48 C 704.37 468.24 703.19 470.23 701.99 471.94 C 698.58 477.09 695.64 482.55 693.05 488.16 C 692.05 490.44 690.83 493.14 692.37 495.50 C 694.13 500.11 701.02 500.76 703.82 496.77 C 706.66 492.47 708.20 487.43 711.20 483.21 C 712.85 480.24 716.00 477.68 715.74 474.00 C 716.36 469.30 710.56 465.34 706.44 467.48 M 905.28 507.14 C 902.26 508.50 900.59 511.74 901.43 515.00 C 902.81 521.24 904.32 527.47 905.59 533.74 C 906.13 536.60 907.28 539.77 910.19 540.99 C 914.99 543.26 920.79 538.15 919.36 533.07 C 917.88 525.91 916.54 518.70 914.49 511.68 C 913.56 507.86 908.89 505.25 905.28 507.14 M 685.19 517.77 C 682.74 518.60 680.71 520.58 680.02 523.09 C 678.39 528.16 677.17 533.34 675.78 538.48 C 675.03 541.42 673.99 544.46 674.66 547.53 C 675.51 550.29 678.34 551.86 681.03 552.33 C 684.56 552.35 687.74 549.53 688.26 546.05 C 689.53 539.18 691.92 532.60 693.59 525.86 C 694.95 521.08 689.78 516.47 685.19 517.77 M 332.43 537.64 C 326.89 539.08 325.78 547.26 330.74 550.17 C 334.76 551.39 339.07 551.16 343.12 552.30 C 347.25 553.16 351.26 555.55 355.60 554.55 C 358.42 553.69 359.91 550.74 360.41 548.02 C 359.50 542.73 353.73 541.13 349.29 539.99 C 343.75 538.83 338.13 536.98 332.43 537.64 M 297.43 539.77 C 292.59 540.93 287.80 542.34 283.14 544.09 C 280.45 545.12 277.41 546.37 276.23 549.24 C 273.98 552.95 276.95 557.87 281.01 558.48 C 284.04 559.09 286.79 557.41 289.49 556.33 C 293.97 554.30 298.82 553.33 303.61 552.36 C 308.10 551.52 310.29 545.26 307.01 541.95 C 304.87 538.80 300.72 539.02 297.43 539.77 M 379.56 556.70 C 376.05 558.32 374.15 562.62 375.85 566.21 C 378.62 570.09 383.21 572.11 386.46 575.54 C 389.38 578.03 391.47 581.62 395.06 583.23 C 400.49 585.10 405.71 578.15 402.56 573.44 C 399.77 569.03 395.58 565.72 391.79 562.21 C 388.27 559.47 384.57 554.98 379.56 556.70 M 914.52 562.67 C 907.04 565.15 908.54 579.51 916.97 578.85 C 922.94 578.72 924.97 570.99 922.60 566.39 C 921.39 563.22 917.67 561.80 914.52 562.67 M 253.50 563.67 C 248.73 566.22 245.32 570.74 241.61 574.60 C 238.91 578.30 234.36 581.75 235.30 586.89 C 235.61 591.62 241.64 592.91 245.29 591.14 C 248.10 588.98 249.84 585.78 252.14 583.14 C 254.90 579.58 258.68 576.96 261.34 573.33 C 262.05 570.61 262.18 567.15 259.75 565.24 C 258.15 563.53 255.69 563.18 253.50 563.67 M 672.46 572.67 C 670.43 573.35 668.88 575.08 668.54 577.21 C 667.26 583.40 666.58 589.69 665.67 595.95 C 665.56 598.91 664.64 602.58 667.24 604.80 C 670.77 608.71 678.63 606.56 678.98 601.03 C 679.69 595.02 680.12 588.95 681.35 583.00 C 681.65 580.03 682.65 576.21 679.96 574.03 C 678.08 571.97 674.94 571.91 672.46 572.67 M 411.54 595.66 C 409.56 596.84 407.50 598.67 407.33 601.13 C 406.73 605.68 410.36 609.16 411.90 613.14 C 414.12 616.99 414.63 621.88 417.88 625.08 C 421.38 628.33 427.29 626.06 428.54 621.73 C 429.64 617.33 426.86 613.41 425.28 609.53 C 423.21 605.42 421.72 600.86 418.64 597.37 C 416.94 595.27 413.99 594.91 411.54 595.66 M 222.58 607.72 C 219.35 608.73 218.05 612.11 216.71 614.88 C 214.02 621.11 211.11 627.34 209.68 634.00 C 210.17 635.98 210.80 638.20 212.61 639.39 C 216.30 642.08 221.92 639.52 223.23 635.39 C 225.10 630.04 226.93 624.65 229.55 619.62 C 230.58 617.32 232.33 614.72 231.08 612.17 C 229.88 608.79 226.04 606.74 222.58 607.72 M 914.94 622.06 C 911.56 623.97 911.40 628.24 910.32 631.54 C 906.95 645.87 903.32 660.13 900.24 674.53 C 897.95 684.63 896.13 694.83 893.56 704.87 C 874.87 707.72 856.40 712.72 839.50 721.35 C 819.30 731.74 800.36 745.19 785.49 762.48 C 767.94 781.52 754.98 804.71 747.33 829.42 C 744.45 838.76 741.51 848.27 741.22 858.11 C 719.16 863.16 697.06 868.03 675.07 873.36 C 670.86 874.56 666.10 874.78 662.51 877.49 C 659.59 879.45 659.95 883.48 660.66 886.48 C 663.42 891.08 669.28 890.58 673.83 891.73 C 695.92 897.44 718.22 902.31 740.46 907.37 C 746.18 942.43 761.03 976.47 785.35 1002.65 C 813.00 1034.09 851.77 1055.65 893.25 1061.82 C 899.15 1087.85 904.98 1113.92 911.44 1139.82 C 912.28 1144.17 917.66 1146.87 921.55 1144.49 C 925.12 1143.11 925.64 1138.95 926.32 1135.69 C 931.35 1110.97 936.82 1086.34 942.83 1061.83 C 951.31 1060.34 959.75 1058.59 968.04 1056.24 C 987.40 1050.30 1005.77 1041.13 1022.02 1029.03 C 1052.44 1007.41 1075.31 975.78 1087.39 940.55 C 1091.12 929.78 1093.20 918.57 1095.47 907.43 C 1107.84 904.29 1120.39 901.88 1132.81 898.90 C 1145.32 895.97 1157.76 892.72 1170.35 890.14 C 1174.82 889.23 1178.21 883.57 1175.45 879.50 C 1172.53 874.91 1166.54 874.94 1161.83 873.71 C 1139.68 868.54 1117.54 863.36 1095.36 858.37 C 1088.42 810.77 1062.38 765.97 1023.41 737.55 C 1008.25 726.72 991.67 717.69 973.93 711.88 C 963.74 708.49 953.18 706.54 942.64 704.67 C 939.34 689.79 935.74 674.98 932.28 660.14 C 929.76 648.86 927.70 637.45 924.60 626.32 C 923.57 622.18 918.62 620.21 914.94 622.06 M 665.47 627.56 C 663.16 628.61 662.01 631.16 661.67 633.55 C 660.91 640.38 660.19 647.21 659.50 654.04 C 658.91 657.85 662.35 661.23 666.01 661.42 C 669.47 661.78 672.39 658.72 673.10 655.52 C 674.12 648.36 674.43 641.12 675.40 633.95 C 675.67 629.20 669.75 624.86 665.47 627.56 M 428.51 643.54 C 426.65 644.68 424.93 646.59 425.18 648.95 C 425.20 654.83 427.57 660.37 428.48 666.14 C 429.16 668.69 429.06 671.83 431.26 673.68 C 433.75 676.03 438.35 676.53 440.67 673.67 C 443.59 671.09 442.62 666.78 441.79 663.47 C 440.21 657.87 439.76 651.92 437.34 646.59 C 435.70 643.43 431.72 642.51 428.51 643.54 M 205.32 659.14 C 202.55 659.89 200.66 662.34 200.09 665.09 C 198.44 671.70 196.83 678.33 195.55 685.02 C 194.20 690.02 200.07 695.17 204.77 692.71 C 207.30 691.96 208.56 689.39 209.05 687.00 C 210.43 681.06 211.50 675.06 213.19 669.20 C 213.78 666.49 214.40 662.97 212.00 660.95 C 210.27 659.40 207.61 658.01 205.32 659.14 M 658.46 681.49 C 656.42 682.56 655.53 684.88 655.33 687.06 C 654.35 693.78 653.09 700.44 651.75 707.09 C 651.08 710.07 653.25 713.18 656.07 714.12 C 660.03 715.85 664.41 712.54 665.18 708.60 C 666.58 701.78 667.69 694.89 668.60 688.00 C 669.75 682.72 662.70 678.78 658.46 681.49 M 437.61 693.73 C 436.09 694.73 434.34 696.12 434.47 698.14 C 434.15 703.43 436.11 708.47 436.94 713.63 C 437.84 716.98 437.47 721.13 440.31 723.61 C 442.79 726.05 447.26 726.38 449.65 723.65 C 452.37 720.97 451.72 716.80 450.97 713.45 C 449.70 708.39 448.86 703.25 447.70 698.18 C 446.76 693.95 441.39 690.95 437.61 693.73 M 194.38 713.31 C 191.64 714.38 190.11 717.08 189.88 719.92 C 189.32 726.30 188.26 732.63 187.57 739.00 C 187.07 742.00 188.44 745.45 191.42 746.58 C 195.59 749.01 200.94 745.26 201.25 740.74 C 202.00 733.48 203.35 726.25 203.54 718.95 C 203.71 714.57 198.25 710.92 194.38 713.31 M 647.52 733.63 C 643.77 735.54 643.19 740.11 641.78 743.66 C 640.33 748.61 637.63 753.15 636.45 758.17 C 635.63 762.04 639.54 765.05 643.03 765.35 C 646.79 765.32 649.46 762.12 650.75 758.89 C 653.38 752.73 655.62 746.37 657.40 739.93 C 657.55 735.00 651.90 731.90 647.52 733.63 M 452.28 741.98 C 449.06 742.51 446.06 745.49 446.66 748.91 C 447.99 754.65 450.37 760.08 452.69 765.47 C 454.10 768.46 455.49 772.20 459.06 773.15 C 462.25 774.25 465.69 772.24 467.28 769.46 C 468.47 765.99 466.88 762.57 465.34 759.52 C 463.21 755.17 461.60 750.59 459.72 746.13 C 458.62 743.25 455.25 741.41 452.28 741.98 M 188.39 768.55 C 186.04 769.20 185.28 771.85 184.76 773.94 C 184.41 778.96 184.44 784.02 184.53 789.06 C 184.47 792.45 187.57 795.56 190.99 795.42 C 194.04 795.50 197.62 793.25 197.57 789.94 C 197.75 783.96 199.04 777.98 198.34 772.00 C 196.82 767.97 191.99 767.58 188.39 768.55 M 625.72 779.86 C 622.88 781.56 620.98 784.38 618.80 786.81 C 615.97 790.28 612.61 793.27 609.75 796.73 C 608.52 798.46 606.95 800.71 608.12 802.88 C 609.03 807.13 614.29 809.08 617.94 806.98 C 622.32 804.46 625.12 800.10 628.39 796.39 C 630.48 793.67 633.11 791.23 634.39 787.98 C 635.72 783.13 630.60 777.75 625.72 779.86 M 475.46 786.66 C 470.95 787.91 469.38 794.09 472.62 797.45 C 477.56 802.76 482.35 808.50 488.57 812.37 C 492.86 815.66 498.82 810.69 498.51 805.99 C 498.64 802.89 495.82 801.00 493.68 799.30 C 489.15 795.88 485.63 791.36 481.44 787.58 C 479.85 786.06 477.43 786.35 475.46 786.66 M 585.55 812.76 C 580.93 814.30 576.52 816.51 571.72 817.52 C 569.65 818.15 567.28 818.21 565.53 819.59 C 563.95 821.71 563.13 824.37 563.65 827.01 C 564.76 829.91 567.89 831.85 570.99 831.29 C 576.23 830.54 581.28 828.90 586.29 827.26 C 588.82 826.32 591.47 825.40 593.48 823.55 C 595.91 821.09 596.12 816.85 593.54 814.41 C 591.70 811.93 588.24 812.02 585.55 812.76 M 516.45 815.55 C 511.99 817.77 511.30 824.63 515.77 827.22 C 521.48 829.90 527.84 830.83 533.96 832.21 C 537.77 833.12 542.61 832.45 544.50 828.56 C 545.24 825.57 544.91 821.75 541.90 820.14 C 538.35 818.52 534.26 818.75 530.55 817.62 C 525.92 816.68 521.24 814.21 516.45 815.55 Z" style="fill: none !important;"/>
<path fill="#010101" opacity="1.00" d=" M 766.22 42.13 C 768.86 37.19 776.91 37.68 779.10 42.78 C 783.49 52.11 788.09 61.34 792.48 70.67 C 799.81 72.88 807.55 72.78 815.04 74.14 C 818.84 74.84 822.94 74.78 826.41 76.69 C 830.17 78.85 830.90 84.69 827.73 87.65 C 820.90 95.04 813.59 101.97 806.47 109.07 C 805.78 111.66 806.46 114.41 806.71 117.03 C 808.04 124.07 808.85 131.20 810.51 138.17 C 810.70 140.78 811.27 144.06 809.06 146.01 C 806.96 148.49 803.22 149.41 800.26 148.05 C 791.21 143.72 782.67 138.43 773.72 133.94 C 772.09 132.90 770.52 134.42 769.08 135.03 C 762.23 138.92 755.19 142.46 748.33 146.34 C 746.32 147.35 744.34 148.75 742.01 148.77 C 737.45 149.28 733.85 144.22 734.77 140.01 C 736.54 131.03 737.88 121.98 739.45 112.96 C 739.51 111.49 740.21 109.55 738.74 108.50 C 731.89 101.93 725.22 95.19 718.48 88.51 C 715.12 85.72 715.40 79.47 719.11 77.08 C 720.79 75.87 722.91 75.67 724.91 75.40 C 734.07 74.03 743.21 72.50 752.40 71.33 C 757.30 61.75 761.22 51.67 766.22 42.13 M 762.69 81.82 C 761.33 84.33 758.26 84.71 755.75 85.22 C 750.11 86.11 744.47 87.03 738.80 87.71 C 739.29 88.66 739.75 89.65 740.57 90.37 C 745.04 94.61 749.66 98.74 753.56 103.52 C 755.00 104.97 754.55 107.13 754.54 108.97 C 753.93 115.40 752.27 121.71 752.19 128.20 C 757.98 125.58 763.26 121.97 768.92 119.09 C 770.72 118.38 772.74 117.13 774.67 118.22 C 781.41 121.05 787.40 125.39 793.91 128.68 C 793.84 120.40 790.13 112.34 791.53 104.04 C 796.03 97.93 802.54 93.61 807.20 87.60 C 800.66 86.26 793.99 85.71 787.47 84.30 C 785.08 83.83 783.19 82.14 782.07 80.04 C 778.68 74.16 775.76 68.02 772.88 61.87 C 768.95 68.23 766.42 75.34 762.69 81.82 Z" style="fill: rgb(0, 0, 0) !important;"/>
<path fill="#ffffff" opacity="1.00" d=" M 762.69 81.82 C 766.42 75.34 768.95 68.23 772.88 61.87 C 775.76 68.02 778.68 74.16 782.07 80.04 C 783.19 82.14 785.08 83.83 787.47 84.30 C 793.99 85.71 800.66 86.26 807.20 87.60 C 802.54 93.61 796.03 97.93 791.53 104.04 C 790.13 112.34 793.84 120.40 793.91 128.68 C 787.40 125.39 781.41 121.05 774.67 118.22 C 772.74 117.13 770.72 118.38 768.92 119.09 C 763.26 121.97 757.98 125.58 752.19 128.20 C 752.27 121.71 753.93 115.40 754.54 108.97 C 754.55 107.13 755.00 104.97 753.56 103.52 C 749.66 98.74 745.04 94.61 740.57 90.37 C 739.75 89.65 739.29 88.66 738.80 87.71 C 744.47 87.03 750.11 86.11 755.75 85.22 C 758.26 84.71 761.33 84.33 762.69 81.82 Z" style="fill: none !important;"/>
<path fill="#010101" opacity="1.00" d=" M 540.57 65.89 C 564.76 61.89 590.91 69.13 608.53 86.47 C 634.16 109.20 640.91 149.48 625.90 179.95 C 617.62 196.73 603.73 211.15 586.30 218.37 C 573.04 223.88 558.40 226.77 544.07 224.81 C 525.65 222.83 508.32 213.75 495.55 200.42 C 482.85 186.71 474.53 168.73 473.48 149.98 C 472.48 128.75 479.33 106.66 494.04 91.03 C 506.13 77.65 522.91 69.06 540.57 65.89 M 535.15 95.21 C 528.10 108.02 526.12 122.73 524.57 137.04 C 524.93 137.34 525.66 137.93 526.02 138.22 C 532.89 138.33 539.77 138.44 546.64 138.16 C 546.57 119.02 546.72 99.87 546.58 80.74 C 541.52 84.40 538.15 89.84 535.15 95.21 M 560.60 80.56 C 560.42 99.80 560.61 119.06 560.66 138.30 C 567.94 138.36 575.23 138.31 582.51 138.33 C 581.94 122.42 578.77 106.14 570.67 92.24 C 567.92 87.90 564.84 83.57 560.60 80.56 M 508.58 96.56 C 496.75 107.28 489.78 122.60 487.54 138.25 C 495.21 138.26 502.89 138.48 510.56 138.12 C 511.09 125.53 513.18 112.93 517.27 100.98 C 518.98 95.80 521.81 91.10 523.95 86.10 C 518.34 88.78 513.21 92.42 508.58 96.56 M 584.05 86.14 C 585.37 89.98 587.46 93.50 588.81 97.34 C 593.65 110.35 596.27 124.22 596.45 138.10 C 602.63 138.55 608.84 138.20 615.03 138.31 C 616.63 138.48 618.13 137.95 619.55 137.26 C 618.69 134.17 618.31 130.99 617.50 127.90 C 612.95 110.08 600.45 94.46 584.05 86.14 M 488.13 152.27 C 489.77 169.93 499.20 187.00 513.75 197.29 C 516.92 199.48 520.05 201.92 523.79 203.04 C 514.84 187.69 511.86 169.79 510.56 152.32 C 503.08 152.25 495.61 152.22 488.13 152.27 M 524.29 152.34 C 525.20 165.72 527.70 179.25 533.30 191.52 C 536.45 198.14 540.44 204.68 546.52 209.01 C 546.73 190.15 546.48 171.28 546.60 152.42 C 539.16 152.46 531.73 152.36 524.29 152.34 M 560.51 152.41 C 560.60 171.28 560.45 190.16 560.65 209.03 C 565.89 205.91 569.14 200.39 572.11 195.23 C 578.83 182.02 581.97 167.13 582.64 152.39 C 575.26 152.42 567.88 152.34 560.51 152.41 M 596.61 152.37 C 595.93 170.22 591.91 188.27 583.20 204.01 C 589.02 201.74 593.93 197.64 598.55 193.54 C 610.24 182.95 617.06 167.99 619.73 152.62 C 612.05 151.96 604.31 152.36 596.61 152.37 Z" style="fill: rgb(0, 0, 0) !important;"/>
<path fill="#ffffff" opacity="1.00" d=" M 535.15 95.21 C 538.15 89.84 541.52 84.40 546.58 80.74 C 546.72 99.87 546.57 119.02 546.64 138.16 C 539.77 138.44 532.89 138.33 526.02 138.22 C 525.66 137.93 524.93 137.34 524.57 137.04 C 526.12 122.73 528.10 108.02 535.15 95.21 Z" style="fill: none !important;"/>
<path fill="#ffffff" opacity="1.00" d=" M 560.60 80.56 C 564.84 83.57 567.92 87.90 570.67 92.24 C 578.77 106.14 581.94 122.42 582.51 138.33 C 575.23 138.31 567.94 138.36 560.66 138.30 C 560.61 119.06 560.42 99.80 560.60 80.56 Z" style="fill: none !important;"/>
<path fill="#fefefe" opacity="1.00" d=" M 508.58 96.56 C 513.21 92.42 518.34 88.78 523.95 86.10 C 521.81 91.10 518.98 95.80 517.27 100.98 C 513.18 112.93 511.09 125.53 510.56 138.12 C 502.89 138.48 495.21 138.26 487.54 138.25 C 489.78 122.60 496.75 107.28 508.58 96.56 Z" style="fill: none !important;"/>
<path fill="#ffffff" opacity="1.00" d=" M 584.05 86.14 C 600.45 94.46 612.95 110.08 617.50 127.90 C 618.31 130.99 618.69 134.17 619.55 137.26 C 618.13 137.95 616.63 138.48 615.03 138.31 C 608.84 138.20 602.63 138.55 596.45 138.10 C 596.27 124.22 593.65 110.35 588.81 97.34 C 587.46 93.50 585.37 89.98 584.05 86.14 Z" style="fill: none !important;"/>
<path fill="#010101" opacity="1.00" d=" M 962.35 135.31 C 965.51 133.95 969.68 135.66 971.13 138.76 C 975.69 147.91 980.01 157.20 984.77 166.24 C 989.51 168.34 994.88 168.21 999.94 168.96 C 1005.76 169.89 1011.71 170.35 1017.40 171.95 C 1022.22 173.61 1023.27 180.32 1019.88 183.82 C 1015.22 188.84 1010.22 193.53 1005.33 198.32 C 1003.02 200.68 1000.17 202.58 998.29 205.32 C 998.05 211.31 1000.00 217.12 1000.64 223.04 C 1001.27 228.55 1003.38 234.00 1002.51 239.61 C 1001.15 243.53 995.98 245.89 992.26 243.69 C 983.41 239.36 974.92 234.33 966.14 229.86 C 964.39 228.66 962.58 230.20 961.03 230.94 C 953.94 234.90 946.72 238.60 939.66 242.59 C 937.35 243.89 934.74 245.25 932.02 244.47 C 929.53 243.33 927.01 241.04 927.24 238.06 C 927.58 226.98 931.64 216.26 931.68 205.17 C 924.76 197.83 916.92 191.30 910.14 183.79 C 906.57 180.09 908.52 172.93 913.71 171.90 C 923.35 170.17 933.06 168.78 942.76 167.40 C 944.89 167.48 945.57 165.11 946.42 163.58 C 949.82 155.93 953.53 148.42 957.06 140.83 C 958.16 138.51 959.68 136.01 962.35 135.31 M 955.73 175.86 C 954.62 177.85 953.03 179.89 950.70 180.43 C 944.14 181.93 937.42 182.50 930.80 183.67 C 935.26 190.09 942.78 194.03 946.58 200.99 C 947.26 208.81 944.27 216.34 944.23 224.13 C 951.36 221.09 957.53 215.77 964.97 213.61 C 972.70 215.84 978.97 221.50 986.50 224.30 C 985.53 216.25 982.43 208.19 983.66 200.04 C 987.97 194.29 993.79 189.84 998.70 184.60 C 998.68 184.16 998.64 183.27 998.61 182.83 C 992.47 182.68 986.45 181.32 980.41 180.33 C 977.96 179.99 975.82 178.53 974.62 176.38 C 970.99 170.41 968.19 163.99 964.96 157.80 C 961.46 163.59 958.96 169.92 955.73 175.86 Z" style="fill: rgb(0, 0, 0) !important;"/>
<path fill="#fefefe" opacity="1.00" d=" M 488.13 152.27 C 495.61 152.22 503.08 152.25 510.56 152.32 C 511.86 169.79 514.84 187.69 523.79 203.04 C 520.05 201.92 516.92 199.48 513.75 197.29 C 499.20 187.00 489.77 169.93 488.13 152.27 Z" style="fill: none !important;"/>
<path fill="#ffffff" opacity="1.00" d=" M 524.29 152.34 C 531.73 152.36 539.16 152.46 546.60 152.42 C 546.48 171.28 546.73 190.15 546.52 209.01 C 540.44 204.68 536.45 198.14 533.30 191.52 C 527.70 179.25 525.20 165.72 524.29 152.34 Z" style="fill: none !important;"/>
<path fill="#fefefe" opacity="1.00" d=" M 560.51 152.41 C 567.88 152.34 575.26 152.42 582.64 152.39 C 581.97 167.13 578.83 182.02 572.11 195.23 C 569.14 200.39 565.89 205.91 560.65 209.03 C 560.45 190.16 560.60 171.28 560.51 152.41 Z" style="fill: none !important;"/>
<path fill="#fefefe" opacity="1.00" d=" M 596.61 152.37 C 604.31 152.36 612.05 151.96 619.73 152.62 C 617.06 167.99 610.24 182.95 598.55 193.54 C 593.93 197.64 589.02 201.74 583.20 204.01 C 591.91 188.27 595.93 170.22 596.61 152.37 Z" style="fill: none !important;"/>
<path fill="#ffffff" opacity="1.00" d=" M 955.73 175.86 C 958.96 169.92 961.46 163.59 964.96 157.80 C 968.19 163.99 970.99 170.41 974.62 176.38 C 975.82 178.53 977.96 179.99 980.41 180.33 C 986.45 181.32 992.47 182.68 998.61 182.83 C 998.64 183.27 998.68 184.16 998.70 184.60 C 993.79 189.84 987.97 194.29 983.66 200.04 C 982.43 208.19 985.53 216.25 986.50 224.30 C 978.97 221.50 972.70 215.84 964.97 213.61 C 957.53 215.77 951.36 221.09 944.23 224.13 C 944.27 216.34 947.26 208.81 946.58 200.99 C 942.78 194.03 935.26 190.09 930.80 183.67 C 937.42 182.50 944.14 181.93 950.70 180.43 C 953.03 179.89 954.62 177.85 955.73 175.86 Z" style="fill: none !important;"/>
<path fill="#000000" opacity="1.00" d=" M 309.49 243.34 C 311.37 242.22 313.44 242.86 315.29 243.66 C 392.05 276.22 468.78 308.84 545.44 341.63 C 548.42 342.57 551.25 345.25 554.49 344.52 C 634.08 310.68 713.77 277.03 793.34 243.14 C 796.88 241.71 800.24 244.47 803.47 245.63 C 881.55 278.86 959.57 312.24 1037.58 345.63 C 1041.09 346.84 1043.47 350.18 1043.26 353.93 C 1043.28 470.30 1043.29 586.68 1043.30 703.06 C 1043.44 706.84 1041.04 711.14 1037.01 711.59 C 1032.82 712.32 1028.72 708.18 1029.31 704.03 C 1029.33 588.54 1029.19 473.05 1029.37 357.56 C 1003.72 346.00 977.68 335.32 951.88 324.09 C 906.29 304.77 860.83 285.14 815.23 265.84 C 810.96 264.15 806.85 262.01 802.39 260.86 C 802.47 301.92 802.39 342.99 802.46 384.05 C 802.89 388.11 799.37 392.59 795.03 391.84 C 792.13 392.17 789.88 389.88 788.70 387.49 C 788.25 384.34 788.55 381.15 788.48 377.99 C 788.44 338.76 788.54 299.53 788.43 260.30 C 712.78 292.21 637.43 324.86 561.78 356.77 C 561.46 357.05 560.83 357.59 560.51 357.86 C 560.54 501.92 560.50 645.98 560.52 790.04 C 560.81 794.29 556.31 798.43 552.08 797.09 C 548.51 796.36 546.09 792.59 546.52 789.06 C 546.58 645.15 546.49 501.24 546.60 357.33 C 474.24 326.26 401.81 295.34 329.24 264.77 C 325.97 263.43 322.75 261.94 319.36 260.91 C 319.35 341.94 319.30 422.98 319.36 504.01 C 319.78 507.72 318.74 512.38 314.77 513.72 C 310.42 515.81 304.92 511.78 305.40 507.03 C 305.33 424.82 305.39 342.61 305.30 260.40 C 304.57 260.63 303.12 261.09 302.40 261.33 C 227.74 293.42 152.89 325.08 78.27 357.27 C 78.32 558.18 78.34 759.09 78.27 960.00 C 78.66 969.73 77.22 979.42 77.89 989.15 C 80.80 988.60 83.49 987.38 86.18 986.24 C 113.14 974.81 140.12 963.42 167.11 952.05 C 213.19 932.51 259.63 913.77 305.45 893.62 C 305.40 790.06 305.48 686.51 305.42 582.95 C 305.05 580.37 306.94 578.34 308.94 577.05 C 313.29 574.73 319.44 577.77 319.43 582.94 C 319.55 686.44 319.39 789.95 319.53 893.45 C 348.97 906.16 378.34 919.03 408.00 931.23 C 433.99 941.58 459.63 952.75 485.52 963.35 C 505.86 971.81 526.19 980.30 546.51 988.80 C 546.56 945.52 546.52 902.25 546.55 858.97 C 546.30 854.35 552.22 849.87 556.46 852.45 C 558.88 853.62 560.78 856.18 560.56 858.96 C 560.60 902.25 560.53 945.55 560.63 988.85 C 568.64 986.21 576.25 982.42 584.06 979.20 C 623.20 962.66 662.46 946.40 701.53 929.71 C 705.46 928.12 709.76 925.09 714.12 927.00 C 718.60 929.19 718.86 936.05 714.98 938.93 C 712.31 940.79 709.13 941.71 706.19 943.02 C 685.60 951.89 664.86 960.39 644.19 969.06 C 622.90 978.29 601.39 987.02 579.99 996.00 C 572.74 999.13 565.27 1001.75 558.22 1005.31 C 556.17 1006.35 553.80 1007.30 551.52 1006.42 C 529.18 996.43 506.30 987.67 483.81 978.01 C 460.86 968.39 437.98 958.60 414.94 949.20 C 398.76 942.27 382.36 935.85 366.27 928.69 C 349.07 921.20 331.63 914.28 314.45 906.76 C 313.45 906.20 312.43 906.12 311.39 906.53 C 287.82 916.69 264.08 926.50 240.43 936.50 C 209.82 949.70 178.87 962.10 148.23 975.24 C 123.47 985.60 98.69 995.96 73.97 1006.40 C 69.30 1008.11 63.58 1004.17 64.43 999.06 C 64.17 783.73 64.35 568.39 64.31 353.05 C 63.78 349.81 66.07 347.05 68.99 345.98 C 149.08 311.60 229.30 277.50 309.49 243.34 Z" style="fill: rgb(0, 0, 0) !important;"/>
<path fill="#010101" opacity="1.00" d=" M 795.42 416.67 C 800.30 416.92 806.90 414.82 810.11 419.75 C 813.09 423.82 809.76 429.74 805.04 430.33 C 799.87 430.60 794.63 430.11 789.52 431.15 C 785.98 431.63 782.17 432.48 778.73 431.17 C 774.30 428.62 774.83 421.28 779.51 419.31 C 784.55 417.30 790.10 417.35 795.42 416.67 Z" style="fill: rgb(0, 0, 0) !important;"/>
<path fill="#010101" opacity="1.00" d=" M 835.52 422.67 C 841.16 421.02 846.52 424.45 851.54 426.57 C 856.08 429.14 861.43 430.94 864.81 435.11 C 868.05 440.11 862.87 447.42 857.03 445.54 C 851.95 442.78 847.29 439.17 841.72 437.36 C 838.38 436.01 833.83 435.57 832.34 431.75 C 830.47 428.46 832.55 424.46 835.52 422.67 Z" style="fill: rgb(0, 0, 0) !important;"/>
<path fill="#010101" opacity="1.00" d=" M 747.51 429.76 C 753.34 427.38 759.28 434.63 755.77 439.86 C 752.50 443.36 747.66 444.91 743.95 447.91 C 740.14 450.14 737.34 454.02 733.01 455.27 C 730.13 455.49 727.21 453.74 725.81 451.25 C 725.02 448.60 725.20 445.37 727.52 443.53 C 733.40 437.95 740.21 433.27 747.51 429.76 Z" style="fill: rgb(0, 0, 0) !important;"/>
<path fill="#000000" opacity="1.00" d=" M 792.52 455.67 C 796.93 453.80 802.60 457.00 802.47 461.95 C 802.46 544.98 802.47 628.02 802.47 711.05 C 802.80 714.71 799.93 719.02 795.97 718.82 C 791.72 719.42 787.91 715.13 788.49 711.02 C 788.49 630.35 788.51 549.67 788.49 469.00 C 788.55 465.85 788.20 462.67 788.74 459.55 C 789.64 457.96 790.91 456.55 792.52 455.67 Z" style="fill: rgb(0, 0, 0) !important;"/>
<path fill="#010101" opacity="1.00" d=" M 882.54 455.69 C 888.23 453.85 891.67 459.68 894.21 463.72 C 897.04 468.84 900.83 473.58 902.68 479.15 C 904.21 484.46 898.04 489.39 893.14 487.16 C 890.08 486.09 889.06 482.78 887.63 480.22 C 885.12 474.97 881.50 470.39 878.58 465.39 C 876.17 461.86 878.77 456.93 882.54 455.69 Z" style="fill: rgb(0, 0, 0) !important;"/>
<path fill="#010101" opacity="1.00" d=" M 706.44 467.48 C 710.56 465.34 716.36 469.30 715.74 474.00 C 716.00 477.68 712.85 480.24 711.20 483.21 C 708.20 487.43 706.66 492.47 703.82 496.77 C 701.02 500.76 694.13 500.11 692.37 495.50 C 690.83 493.14 692.05 490.44 693.05 488.16 C 695.64 482.55 698.58 477.09 701.99 471.94 C 703.19 470.23 704.37 468.24 706.44 467.48 Z" style="fill: rgb(0, 0, 0) !important;"/>
<path fill="#010101" opacity="1.00" d=" M 905.28 507.14 C 908.89 505.25 913.56 507.86 914.49 511.68 C 916.54 518.70 917.88 525.91 919.36 533.07 C 920.79 538.15 914.99 543.26 910.19 540.99 C 907.28 539.77 906.13 536.60 905.59 533.74 C 904.32 527.47 902.81 521.24 901.43 515.00 C 900.59 511.74 902.26 508.50 905.28 507.14 Z" style="fill: rgb(0, 0, 0) !important;"/>
<path fill="#010101" opacity="1.00" d=" M 685.19 517.77 C 689.78 516.47 694.95 521.08 693.59 525.86 C 691.92 532.60 689.53 539.18 688.26 546.05 C 687.74 549.53 684.56 552.35 681.03 552.33 C 678.34 551.86 675.51 550.29 674.66 547.53 C 673.99 544.46 675.03 541.42 675.78 538.48 C 677.17 533.34 678.39 528.16 680.02 523.09 C 680.71 520.58 682.74 518.60 685.19 517.77 Z" style="fill: rgb(0, 0, 0) !important;"/>
<path fill="#010101" opacity="1.00" d=" M 332.43 537.64 C 338.13 536.98 343.75 538.83 349.29 539.99 C 353.73 541.13 359.50 542.73 360.41 548.02 C 359.91 550.74 358.42 553.69 355.60 554.55 C 351.26 555.55 347.25 553.16 343.12 552.30 C 339.07 551.16 334.76 551.39 330.74 550.17 C 325.78 547.26 326.89 539.08 332.43 537.64 Z" style="fill: rgb(0, 0, 0) !important;"/>
<path fill="#010101" opacity="1.00" d=" M 297.43 539.77 C 300.72 539.02 304.87 538.80 307.01 541.95 C 310.29 545.26 308.10 551.52 303.61 552.36 C 298.82 553.33 293.97 554.30 289.49 556.33 C 286.79 557.41 284.04 559.09 281.01 558.48 C 276.95 557.87 273.98 552.95 276.23 549.24 C 277.41 546.37 280.45 545.12 283.14 544.09 C 287.80 542.34 292.59 540.93 297.43 539.77 Z" style="fill: rgb(0, 0, 0) !important;"/>
<path fill="#010101" opacity="1.00" d=" M 379.56 556.70 C 384.57 554.98 388.27 559.47 391.79 562.21 C 395.58 565.72 399.77 569.03 402.56 573.44 C 405.71 578.15 400.49 585.10 395.06 583.23 C 391.47 581.62 389.38 578.03 386.46 575.54 C 383.21 572.11 378.62 570.09 375.85 566.21 C 374.15 562.62 376.05 558.32 379.56 556.70 Z" style="fill: rgb(0, 0, 0) !important;"/>
<path fill="#010101" opacity="1.00" d=" M 914.52 562.67 C 917.67 561.80 921.39 563.22 922.60 566.39 C 924.97 570.99 922.94 578.72 916.97 578.85 C 908.54 579.51 907.04 565.15 914.52 562.67 Z" style="fill: rgb(0, 0, 0) !important;"/>
<path fill="#010101" opacity="1.00" d=" M 253.50 563.67 C 255.69 563.18 258.15 563.53 259.75 565.24 C 262.18 567.15 262.05 570.61 261.34 573.33 C 258.68 576.96 254.90 579.58 252.14 583.14 C 249.84 585.78 248.10 588.98 245.29 591.14 C 241.64 592.91 235.61 591.62 235.30 586.89 C 234.36 581.75 238.91 578.30 241.61 574.60 C 245.32 570.74 248.73 566.22 253.50 563.67 Z" style="fill: rgb(0, 0, 0) !important;"/>
<path fill="#010101" opacity="1.00" d=" M 672.46 572.67 C 674.94 571.91 678.08 571.97 679.96 574.03 C 682.65 576.21 681.65 580.03 681.35 583.00 C 680.12 588.95 679.69 595.02 678.98 601.03 C 678.63 606.56 670.77 608.71 667.24 604.80 C 664.64 602.58 665.56 598.91 665.67 595.95 C 666.58 589.69 667.26 583.40 668.54 577.21 C 668.88 575.08 670.43 573.35 672.46 572.67 Z" style="fill: rgb(0, 0, 0) !important;"/>
<path fill="#010101" opacity="1.00" d=" M 411.54 595.66 C 413.99 594.91 416.94 595.27 418.64 597.37 C 421.72 600.86 423.21 605.42 425.28 609.53 C 426.86 613.41 429.64 617.33 428.54 621.73 C 427.29 626.06 421.38 628.33 417.88 625.08 C 414.63 621.88 414.12 616.99 411.90 613.14 C 410.36 609.16 406.73 605.68 407.33 601.13 C 407.50 598.67 409.56 596.84 411.54 595.66 Z" style="fill: rgb(0, 0, 0) !important;"/>
<path fill="#010101" opacity="1.00" d=" M 222.58 607.72 C 226.04 606.74 229.88 608.79 231.08 612.17 C 232.33 614.72 230.58 617.32 229.55 619.62 C 226.93 624.65 225.10 630.04 223.23 635.39 C 221.92 639.52 216.30 642.08 212.61 639.39 C 210.80 638.20 210.17 635.98 209.68 634.00 C 211.11 627.34 214.02 621.11 216.71 614.88 C 218.05 612.11 219.35 608.73 222.58 607.72 Z" style="fill: rgb(0, 0, 0) !important;"/>
<path fill="#010101" opacity="1.00" d=" M 914.94 622.06 C 918.62 620.21 923.57 622.18 924.60 626.32 C 927.70 637.45 929.76 648.86 932.28 660.14 C 935.74 674.98 939.34 689.79 942.64 704.67 C 953.18 706.54 963.74 708.49 973.93 711.88 C 991.67 717.69 1008.25 726.72 1023.41 737.55 C 1062.38 765.97 1088.42 810.77 1095.36 858.37 C 1117.54 863.36 1139.68 868.54 1161.83 873.71 C 1166.54 874.94 1172.53 874.91 1175.45 879.50 C 1178.21 883.57 1174.82 889.23 1170.35 890.14 C 1157.76 892.72 1145.32 895.97 1132.81 898.90 C 1120.39 901.88 1107.84 904.29 1095.47 907.43 C 1093.20 918.57 1091.12 929.78 1087.39 940.55 C 1075.31 975.78 1052.44 1007.41 1022.02 1029.03 C 1005.77 1041.13 987.40 1050.30 968.04 1056.24 C 959.75 1058.59 951.31 1060.34 942.83 1061.83 C 936.82 1086.34 931.35 1110.97 926.32 1135.69 C 925.64 1138.95 925.12 1143.11 921.55 1144.49 C 917.66 1146.87 912.28 1144.17 911.44 1139.82 C 904.98 1113.92 899.15 1087.85 893.25 1061.82 C 851.77 1055.65 813.00 1034.09 785.35 1002.65 C 761.03 976.47 746.18 942.43 740.46 907.37 C 718.22 902.31 695.92 897.44 673.83 891.73 C 669.28 890.58 663.42 891.08 660.66 886.48 C 659.95 883.48 659.59 879.45 662.51 877.49 C 666.10 874.78 670.86 874.56 675.07 873.36 C 697.06 868.03 719.16 863.16 741.22 858.11 C 741.51 848.27 744.45 838.76 747.33 829.42 C 754.98 804.71 767.94 781.52 785.49 762.48 C 800.36 745.19 819.30 731.74 839.50 721.35 C 856.40 712.72 874.87 707.72 893.56 704.87 C 896.13 694.83 897.95 684.63 900.24 674.53 C 903.32 660.13 906.95 645.87 910.32 631.54 C 911.40 628.24 911.56 623.97 914.94 622.06 M 924.75 687.92 C 924.48 692.27 924.60 696.64 924.60 701.00 C 924.65 755.56 924.77 810.12 924.67 864.67 C 925.10 864.58 925.95 864.40 926.37 864.31 C 926.70 863.72 927.05 863.15 927.41 862.60 C 937.69 853.67 947.11 843.82 956.45 833.92 C 949.15 799.07 941.75 764.23 933.65 729.55 C 931.56 720.72 930.17 711.70 927.86 702.96 C 927.29 697.87 926.27 692.81 924.75 687.92 M 908.27 704.33 C 903.78 724.36 899.29 744.43 894.88 764.49 C 889.95 787.68 884.32 810.71 879.52 833.93 C 889.14 844.08 898.98 854.08 909.31 863.51 C 909.25 864.69 910.73 865.15 911.39 865.98 C 911.48 806.97 911.62 747.94 911.36 688.93 C 909.83 693.95 908.78 699.11 908.27 704.33 M 808.84 759.07 C 821.57 768.32 835.43 775.92 848.73 784.32 C 856.86 789.10 864.66 794.47 873.04 798.81 C 878.72 772.34 884.41 745.87 890.54 719.50 C 860.30 724.59 831.46 738.31 808.84 759.07 M 946.05 719.39 C 951.36 745.67 957.93 771.70 963.19 797.99 C 966.31 797.27 968.88 795.28 971.58 793.68 C 977.61 789.99 983.69 786.37 989.64 782.55 C 1001.88 774.45 1015.13 767.76 1026.85 758.96 C 1021.61 752.94 1014.76 748.45 1008.20 743.96 C 989.33 731.83 968.17 723.23 946.05 719.39 M 766.07 818.85 C 760.82 830.15 757.37 842.27 755.93 854.65 C 759.63 854.56 763.14 853.25 766.74 852.53 C 789.46 847.55 812.04 841.99 834.81 837.22 C 828.42 825.99 821.50 815.07 815.27 803.76 C 809.26 792.84 802.18 782.53 796.69 771.34 C 783.34 784.83 773.64 801.55 766.07 818.85 M 1038.49 772.44 C 1028.05 790.69 1017.74 809.02 1007.25 827.24 C 1005.47 830.61 1002.81 833.57 1001.93 837.35 C 1028.09 842.55 1053.84 849.69 1080.05 854.64 C 1075.41 824.42 1061.06 795.98 1040.84 773.17 C 1040.25 772.27 1039.46 772.03 1038.49 772.44 M 819.24 782.83 C 829.17 799.68 838.52 816.90 849.09 833.37 C 851.61 834.27 854.33 832.65 856.91 832.36 C 859.87 831.41 863.32 831.47 865.97 829.87 C 867.09 824.84 867.96 819.76 869.30 814.78 C 870.05 813.23 868.11 812.53 867.20 811.81 C 857.98 805.95 848.56 800.40 839.24 794.70 C 832.49 790.88 826.22 786.20 819.24 782.83 M 970.20 811.05 C 968.97 811.90 967.43 812.52 966.77 813.95 C 967.93 819.48 969.25 824.97 970.50 830.48 C 975.73 831.80 980.99 832.94 986.29 833.94 C 992.83 824.40 998.30 814.19 1004.02 804.15 C 1007.91 797.09 1012.26 790.27 1015.94 783.09 C 1000.52 792.13 985.45 801.74 970.20 811.05 M 865.62 844.83 C 841.73 850.34 817.76 855.49 793.86 860.89 C 772.16 866.00 750.38 870.81 728.62 875.51 C 747.06 876.29 765.53 876.25 784.00 876.20 C 794.00 876.06 804.02 876.57 813.99 875.80 C 832.64 876.60 851.33 876.04 870.00 876.22 C 880.35 875.99 890.76 876.72 901.08 875.80 C 891.48 865.45 881.35 855.61 871.39 845.60 C 870.01 843.68 867.53 844.48 865.62 844.83 M 964.92 845.93 C 954.65 855.61 944.93 865.85 934.92 875.78 C 943.90 876.73 952.98 875.98 962.00 876.22 C 981.34 876.21 1000.67 876.20 1020.01 876.21 C 1043.34 876.01 1066.69 876.63 1090.00 875.77 C 1096.10 875.89 1102.27 876.86 1108.31 875.40 C 1063.63 866.21 1019.26 855.52 974.71 845.70 C 971.56 845.26 967.37 842.87 964.92 845.93 M 934.35 889.82 C 945.02 899.73 954.93 910.43 965.40 920.55 C 967.47 922.94 970.77 921.02 973.32 920.64 C 997.11 915.33 1020.81 909.59 1044.62 904.33 C 1066.45 899.47 1088.29 894.70 1110.10 889.79 C 1051.52 889.68 992.93 889.63 934.35 889.82 M 728.71 890.05 C 732.15 891.60 735.95 891.93 739.60 892.79 C 760.64 897.43 781.70 902.00 802.72 906.75 C 823.61 911.81 844.57 916.57 865.51 921.43 C 867.26 921.73 869.42 922.30 870.80 920.77 C 876.64 915.63 881.66 909.65 887.12 904.12 C 891.52 899.26 896.66 895.08 900.68 889.88 C 853.46 889.49 806.22 889.83 759.00 889.69 C 748.91 889.94 738.77 889.21 728.71 890.05 M 894.56 916.56 C 889.93 921.57 884.56 925.96 880.43 931.38 C 879.88 936.66 882.11 941.73 883.01 946.88 C 891.58 985.60 900.07 1024.34 908.27 1063.15 C 909.32 1067.48 909.52 1072.06 911.35 1076.18 C 911.50 1073.78 911.48 1071.39 911.47 1069.00 C 911.31 1012.65 911.50 956.30 911.35 899.96 C 905.40 905.11 900.23 911.10 894.56 916.56 M 924.63 901.39 C 924.87 959.64 924.61 1017.90 924.68 1076.15 C 926.00 1073.45 926.87 1070.42 926.61 1067.41 C 931.75 1047.22 935.70 1026.71 940.32 1006.38 C 945.71 982.14 950.57 957.78 956.51 933.66 C 957.29 931.31 954.80 929.98 953.54 928.47 C 944.57 919.79 936.32 910.30 926.60 902.46 C 926.61 902.19 926.65 901.64 926.66 901.36 C 926.15 901.37 925.14 901.38 924.63 901.39 M 1002.10 928.71 C 1003.95 933.86 1007.05 938.43 1009.64 943.23 C 1019.61 960.13 1029.06 977.34 1039.50 993.95 C 1040.63 993.32 1041.65 992.51 1042.45 991.48 C 1054.25 976.86 1064.18 960.64 1071.19 943.18 C 1074.92 932.77 1078.64 922.15 1079.85 911.12 C 1053.92 916.92 1027.91 922.38 1002.10 928.71 M 756.07 911.01 C 757.43 922.47 761.50 933.44 765.47 944.23 C 772.26 961.79 782.46 977.99 794.91 992.08 C 796.60 994.17 797.92 991.08 798.78 989.85 C 807.17 975.62 815.88 961.58 824.04 947.21 C 827.27 941.00 831.39 935.20 833.93 928.66 C 808.03 922.57 782.09 916.57 756.07 911.01 M 848.75 932.58 C 838.46 949.14 829.42 966.45 819.14 983.02 C 830.00 976.22 840.93 969.50 851.82 962.74 C 857.35 958.92 863.45 955.87 868.59 951.52 C 869.16 946.16 866.60 941.02 866.28 935.69 C 860.90 934.53 855.52 933.24 850.10 932.33 C 849.76 932.39 849.08 932.51 848.75 932.58 M 970.44 935.46 C 969.26 941.04 966.78 946.79 967.45 952.49 C 983.57 963.12 1000.52 972.46 1016.67 983.06 C 1006.60 966.38 996.91 949.48 987.39 932.49 C 981.68 931.94 976.08 934.63 970.44 935.46 M 868.79 968.75 C 849.12 981.19 829.07 993.05 809.43 1005.53 C 809.36 1005.86 809.22 1006.51 809.16 1006.83 C 831.94 1026.92 859.90 1041.68 889.97 1046.90 C 889.71 1043.74 889.11 1040.63 888.39 1037.57 C 883.22 1014.01 878.54 990.34 873.12 966.85 C 871.48 965.89 870.20 968.17 868.79 968.75 M 963.33 966.98 C 959.45 983.85 955.95 1000.81 952.11 1017.69 C 950.08 1027.42 947.56 1037.08 946.16 1046.92 C 974.25 1041.81 1000.83 1029.04 1022.61 1010.60 C 1024.25 1009.10 1026.57 1007.94 1026.96 1005.53 C 1008.90 994.38 990.67 983.52 972.60 972.38 C 969.50 970.59 966.80 968.04 963.33 966.98 Z" style="fill: rgb(0, 0, 0) !important;"/>
<path fill="#000000" opacity="1.00" d=" M 665.47 627.56 C 669.75 624.86 675.67 629.20 675.40 633.95 C 674.43 641.12 674.12 648.36 673.10 655.52 C 672.39 658.72 669.47 661.78 666.01 661.42 C 662.35 661.23 658.91 657.85 659.50 654.04 C 660.19 647.21 660.91 640.38 661.67 633.55 C 662.01 631.16 663.16 628.61 665.47 627.56 Z" style="fill: rgb(0, 0, 0) !important;"/>
<path fill="#010101" opacity="1.00" d=" M 428.51 643.54 C 431.72 642.51 435.70 643.43 437.34 646.59 C 439.76 651.92 440.21 657.87 441.79 663.47 C 442.62 666.78 443.59 671.09 440.67 673.67 C 438.35 676.53 433.75 676.03 431.26 673.68 C 429.06 671.83 429.16 668.69 428.48 666.14 C 427.57 660.37 425.20 654.83 425.18 648.95 C 424.93 646.59 426.65 644.68 428.51 643.54 Z" style="fill: rgb(0, 0, 0) !important;"/>
<path fill="#010101" opacity="1.00" d=" M 205.32 659.14 C 207.61 658.01 210.27 659.40 212.00 660.95 C 214.40 662.97 213.78 666.49 213.19 669.20 C 211.50 675.06 210.43 681.06 209.05 687.00 C 208.56 689.39 207.30 691.96 204.77 692.71 C 200.07 695.17 194.20 690.02 195.55 685.02 C 196.83 678.33 198.44 671.70 200.09 665.09 C 200.66 662.34 202.55 659.89 205.32 659.14 Z" style="fill: rgb(0, 0, 0) !important;"/>
<path fill="#010101" opacity="1.00" d=" M 658.46 681.49 C 662.70 678.78 669.75 682.72 668.60 688.00 C 667.69 694.89 666.58 701.78 665.18 708.60 C 664.41 712.54 660.03 715.85 656.07 714.12 C 653.25 713.18 651.08 710.07 651.75 707.09 C 653.09 700.44 654.35 693.78 655.33 687.06 C 655.53 684.88 656.42 682.56 658.46 681.49 Z" style="fill: rgb(0, 0, 0) !important;"/>
<path fill="#e5e5e5" opacity="1.00" d=" M 924.75 687.92 C 926.27 692.81 927.29 697.87 927.86 702.96 C 927.33 701.93 926.76 700.93 926.22 699.94 C 926.12 752.32 926.44 804.71 926.19 857.09 C 926.08 859.00 926.67 860.84 927.41 862.60 C 927.05 863.15 926.70 863.72 926.37 864.31 C 925.95 864.40 925.10 864.58 924.67 864.67 C 924.77 810.12 924.65 755.56 924.60 701.00 C 924.60 696.64 924.48 692.27 924.75 687.92 Z" style="fill: rgb(0, 0, 0) !important;"/>
<path fill="#e4e4e4" opacity="1.00" d=" M 908.27 704.33 C 908.78 699.11 909.83 693.95 911.36 688.93 C 911.62 747.94 911.48 806.97 911.39 865.98 C 910.73 865.15 909.25 864.69 909.31 863.51 C 910.38 852.37 909.72 841.17 909.88 830.00 C 909.89 788.63 910.04 747.26 909.93 705.89 C 909.86 704.44 909.68 703.01 909.49 701.59 C 909.18 702.27 908.57 703.64 908.27 704.33 Z" style="fill: rgb(0, 0, 0) !important;"/>
<path fill="#010101" opacity="1.00" d=" M 437.61 693.73 C 441.39 690.95 446.76 693.95 447.70 698.18 C 448.86 703.25 449.70 708.39 450.97 713.45 C 451.72 716.80 452.37 720.97 449.65 723.65 C 447.26 726.38 442.79 726.05 440.31 723.61 C 437.47 721.13 437.84 716.98 436.94 713.63 C 436.11 708.47 434.15 703.43 434.47 698.14 C 434.34 696.12 436.09 694.73 437.61 693.73 Z" style="fill: rgb(0, 0, 0) !important;"/>
<path fill="#ffffff" opacity="1.00" d=" M 926.22 699.94 C 926.76 700.93 927.33 701.93 927.86 702.96 C 930.17 711.70 931.56 720.72 933.65 729.55 C 941.75 764.23 949.15 799.07 956.45 833.92 C 947.11 843.82 937.69 853.67 927.41 862.60 C 926.67 860.84 926.08 859.00 926.19 857.09 C 926.44 804.71 926.12 752.32 926.22 699.94 Z" style="fill: none !important;"/>
<path fill="#ffffff" opacity="1.00" d=" M 909.49 701.59 C 909.68 703.01 909.86 704.44 909.93 705.89 C 910.04 747.26 909.89 788.63 909.88 830.00 C 909.72 841.17 910.38 852.37 909.31 863.51 C 898.98 854.08 889.14 844.08 879.52 833.93 C 884.32 810.71 889.95 787.68 894.88 764.49 C 899.29 744.43 903.78 724.36 908.27 704.33 C 908.57 703.64 909.18 702.27 909.49 701.59 Z" style="fill: none !important;"/>
<path fill="#010101" opacity="1.00" d=" M 194.38 713.31 C 198.25 710.92 203.71 714.57 203.54 718.95 C 203.35 726.25 202.00 733.48 201.25 740.74 C 200.94 745.26 195.59 749.01 191.42 746.58 C 188.44 745.45 187.07 742.00 187.57 739.00 C 188.26 732.63 189.32 726.30 189.88 719.92 C 190.11 717.08 191.64 714.38 194.38 713.31 Z" style="fill: rgb(0, 0, 0) !important;"/>
<path fill="#ffffff" opacity="1.00" d=" M 808.84 759.07 C 831.46 738.31 860.30 724.59 890.54 719.50 C 884.41 745.87 878.72 772.34 873.04 798.81 C 864.66 794.47 856.86 789.10 848.73 784.32 C 835.43 775.92 821.57 768.32 808.84 759.07 Z" style="fill: none !important;"/>
<path fill="#ffffff" opacity="1.00" d=" M 946.05 719.39 C 968.17 723.23 989.33 731.83 1008.20 743.96 C 1014.76 748.45 1021.61 752.94 1026.85 758.96 C 1015.13 767.76 1001.88 774.45 989.64 782.55 C 983.69 786.37 977.61 789.99 971.58 793.68 C 968.88 795.28 966.31 797.27 963.19 797.99 C 957.93 771.70 951.36 745.67 946.05 719.39 Z" style="fill: none !important;"/>
<path fill="#010101" opacity="1.00" d=" M 647.52 733.63 C 651.90 731.90 657.55 735.00 657.40 739.93 C 655.62 746.37 653.38 752.73 650.75 758.89 C 649.46 762.12 646.79 765.32 643.03 765.35 C 639.54 765.05 635.63 762.04 636.45 758.17 C 637.63 753.15 640.33 748.61 641.78 743.66 C 643.19 740.11 643.77 735.54 647.52 733.63 Z" style="fill: rgb(0, 0, 0) !important;"/>
<path fill="#010101" opacity="1.00" d=" M 452.28 741.98 C 455.25 741.41 458.62 743.25 459.72 746.13 C 461.60 750.59 463.21 755.17 465.34 759.52 C 466.88 762.57 468.47 765.99 467.28 769.46 C 465.69 772.24 462.25 774.25 459.06 773.15 C 455.49 772.20 454.10 768.46 452.69 765.47 C 450.37 760.08 447.99 754.65 446.66 748.91 C 446.06 745.49 449.06 742.51 452.28 741.98 Z" style="fill: rgb(0, 0, 0) !important;"/>
<path fill="#010101" opacity="1.00" d=" M 188.39 768.55 C 191.99 767.58 196.82 767.97 198.34 772.00 C 199.04 777.98 197.75 783.96 197.57 789.94 C 197.62 793.25 194.04 795.50 190.99 795.42 C 187.57 795.56 184.47 792.45 184.53 789.06 C 184.44 784.02 184.41 778.96 184.76 773.94 C 185.28 771.85 186.04 769.20 188.39 768.55 Z" style="fill: rgb(0, 0, 0) !important;"/>
<path fill="#ffffff" opacity="1.00" d=" M 766.07 818.85 C 773.64 801.55 783.34 784.83 796.69 771.34 C 802.18 782.53 809.26 792.84 815.27 803.76 C 821.50 815.07 828.42 825.99 834.81 837.22 C 812.04 841.99 789.46 847.55 766.74 852.53 C 763.14 853.25 759.63 854.56 755.93 854.65 C 757.37 842.27 760.82 830.15 766.07 818.85 Z" style="fill: none !important;"/>
<path fill="#ffffff" opacity="1.00" d=" M 1038.49 772.44 C 1039.46 772.03 1040.25 772.27 1040.84 773.17 C 1061.06 795.98 1075.41 824.42 1080.05 854.64 C 1053.84 849.69 1028.09 842.55 1001.93 837.35 C 1002.81 833.57 1005.47 830.61 1007.25 827.24 C 1017.74 809.02 1028.05 790.69 1038.49 772.44 Z" style="fill: none !important;"/>
<path fill="#010101" opacity="1.00" d=" M 625.72 779.86 C 630.60 777.75 635.72 783.13 634.39 787.98 C 633.11 791.23 630.48 793.67 628.39 796.39 C 625.12 800.10 622.32 804.46 617.94 806.98 C 614.29 809.08 609.03 807.13 608.12 802.88 C 606.95 800.71 608.52 798.46 609.75 796.73 C 612.61 793.27 615.97 790.28 618.80 786.81 C 620.98 784.38 622.88 781.56 625.72 779.86 Z" style="fill: rgb(0, 0, 0) !important;"/>
<path fill="#fefefe" opacity="1.00" d=" M 819.24 782.83 C 826.22 786.20 832.49 790.88 839.24 794.70 C 848.56 800.40 857.98 805.95 867.20 811.81 C 868.11 812.53 870.05 813.23 869.30 814.78 C 867.96 819.76 867.09 824.84 865.97 829.87 C 863.32 831.47 859.87 831.41 856.91 832.36 C 854.33 832.65 851.61 834.27 849.09 833.37 C 838.52 816.90 829.17 799.68 819.24 782.83 Z" style="fill: none !important;"/>
<path fill="#fefefe" opacity="1.00" d=" M 970.20 811.05 C 985.45 801.74 1000.52 792.13 1015.94 783.09 C 1012.26 790.27 1007.91 797.09 1004.02 804.15 C 998.30 814.19 992.83 824.40 986.29 833.94 C 980.99 832.94 975.73 831.80 970.50 830.48 C 969.25 824.97 967.93 819.48 966.77 813.95 C 967.43 812.52 968.97 811.90 970.20 811.05 Z" style="fill: none !important;"/>
<path fill="#010101" opacity="1.00" d=" M 475.46 786.66 C 477.43 786.35 479.85 786.06 481.44 787.58 C 485.63 791.36 489.15 795.88 493.68 799.30 C 495.82 801.00 498.64 802.89 498.51 805.99 C 498.82 810.69 492.86 815.66 488.57 812.37 C 482.35 808.50 477.56 802.76 472.62 797.45 C 469.38 794.09 470.95 787.91 475.46 786.66 Z" style="fill: rgb(0, 0, 0) !important;"/>
<path fill="#010101" opacity="1.00" d=" M 585.55 812.76 C 588.24 812.02 591.70 811.93 593.54 814.41 C 596.12 816.85 595.91 821.09 593.48 823.55 C 591.47 825.40 588.82 826.32 586.29 827.26 C 581.28 828.90 576.23 830.54 570.99 831.29 C 567.89 831.85 564.76 829.91 563.65 827.01 C 563.13 824.37 563.95 821.71 565.53 819.59 C 567.28 818.21 569.65 818.15 571.72 817.52 C 576.52 816.51 580.93 814.30 585.55 812.76 Z" style="fill: rgb(0, 0, 0) !important;"/>
<path fill="#010101" opacity="1.00" d=" M 516.45 815.55 C 521.24 814.21 525.92 816.68 530.55 817.62 C 534.26 818.75 538.35 818.52 541.90 820.14 C 544.91 821.75 545.24 825.57 544.50 828.56 C 542.61 832.45 537.77 833.12 533.96 832.21 C 527.84 830.83 521.48 829.90 515.77 827.22 C 511.30 824.63 511.99 817.77 516.45 815.55 Z" style="fill: rgb(0, 0, 0) !important;"/>
<path fill="#ffffff" opacity="1.00" d=" M 865.62 844.83 C 867.53 844.48 870.01 843.68 871.39 845.60 C 881.35 855.61 891.48 865.45 901.08 875.80 C 890.76 876.72 880.35 875.99 870.00 876.22 C 851.33 876.04 832.64 876.60 813.99 875.80 C 804.02 876.57 794.00 876.06 784.00 876.20 C 765.53 876.25 747.06 876.29 728.62 875.51 C 750.38 870.81 772.16 866.00 793.86 860.89 C 817.76 855.49 841.73 850.34 865.62 844.83 Z" style="fill: none !important;"/>
<path fill="#ffffff" opacity="1.00" d=" M 964.92 845.93 C 967.37 842.87 971.56 845.26 974.71 845.70 C 1019.26 855.52 1063.63 866.21 1108.31 875.40 C 1102.27 876.86 1096.10 875.89 1090.00 875.77 C 1066.69 876.63 1043.34 876.01 1020.01 876.21 C 1000.67 876.20 981.34 876.21 962.00 876.22 C 952.98 875.98 943.90 876.73 934.92 875.78 C 944.93 865.85 954.65 855.61 964.92 845.93 Z" style="fill: none !important;"/>
<path fill="#ffffff" opacity="1.00" d=" M 934.35 889.82 C 992.93 889.63 1051.52 889.68 1110.10 889.79 C 1088.29 894.70 1066.45 899.47 1044.62 904.33 C 1020.81 909.59 997.11 915.33 973.32 920.64 C 970.77 921.02 967.47 922.94 965.40 920.55 C 954.93 910.43 945.02 899.73 934.35 889.82 Z" style="fill: none !important;"/>
<path fill="#ffffff" opacity="1.00" d=" M 728.71 890.05 C 738.77 889.21 748.91 889.94 759.00 889.69 C 806.22 889.83 853.46 889.49 900.68 889.88 C 896.66 895.08 891.52 899.26 887.12 904.12 C 881.66 909.65 876.64 915.63 870.80 920.77 C 869.42 922.30 867.26 921.73 865.51 921.43 C 844.57 916.57 823.61 911.81 802.72 906.75 C 781.70 902.00 760.64 897.43 739.60 892.79 C 735.95 891.93 732.15 891.60 728.71 890.05 Z" style="fill: none !important;"/>
<path fill="#ffffff" opacity="1.00" d=" M 894.56 916.56 C 900.23 911.10 905.40 905.11 911.35 899.96 C 911.50 956.30 911.31 1012.65 911.47 1069.00 C 911.48 1071.39 911.50 1073.78 911.35 1076.18 C 909.52 1072.06 909.32 1067.48 908.27 1063.15 C 900.07 1024.34 891.58 985.60 883.01 946.88 C 882.11 941.73 879.88 936.66 880.43 931.38 C 884.56 925.96 889.93 921.57 894.56 916.56 Z" style="fill: none !important;"/>
<path fill="#e1e1e1" opacity="1.00" d=" M 924.63 901.39 C 925.14 901.38 926.15 901.37 926.66 901.36 C 926.65 901.64 926.61 902.19 926.60 902.46 C 925.86 913.29 926.37 924.15 926.21 935.00 C 926.23 978.03 926.25 1021.08 926.17 1064.10 C 926.27 1065.19 926.45 1066.28 926.61 1067.41 C 926.87 1070.42 926.00 1073.45 924.68 1076.15 C 924.61 1017.90 924.87 959.64 924.63 901.39 Z" style="fill: rgb(0, 0, 0) !important;"/>
<path fill="#ffffff" opacity="1.00" d=" M 926.21 935.00 C 926.37 924.15 925.86 913.29 926.60 902.46 C 936.32 910.30 944.57 919.79 953.54 928.47 C 954.80 929.98 957.29 931.31 956.51 933.66 C 950.57 957.78 945.71 982.14 940.32 1006.38 C 935.70 1026.71 931.75 1047.22 926.61 1067.41 C 926.45 1066.28 926.27 1065.19 926.17 1064.10 C 926.25 1021.08 926.23 978.03 926.21 935.00 Z" style="fill: none !important;"/>
<path fill="#ffffff" opacity="1.00" d=" M 1002.10 928.71 C 1027.91 922.38 1053.92 916.92 1079.85 911.12 C 1078.64 922.15 1074.92 932.77 1071.19 943.18 C 1064.18 960.64 1054.25 976.86 1042.45 991.48 C 1041.65 992.51 1040.63 993.32 1039.50 993.95 C 1029.06 977.34 1019.61 960.13 1009.64 943.23 C 1007.05 938.43 1003.95 933.86 1002.10 928.71 Z" style="fill: none !important;"/>
<path fill="#ffffff" opacity="1.00" d=" M 756.07 911.01 C 782.09 916.57 808.03 922.57 833.93 928.66 C 831.39 935.20 827.27 941.00 824.04 947.21 C 815.88 961.58 807.17 975.62 798.78 989.85 C 797.92 991.08 796.60 994.17 794.91 992.08 C 782.46 977.99 772.26 961.79 765.47 944.23 C 761.50 933.44 757.43 922.47 756.07 911.01 Z" style="fill: none !important;"/>
<path fill="#fefefe" opacity="1.00" d=" M 848.75 932.58 C 849.08 932.51 849.76 932.39 850.10 932.33 C 855.52 933.24 860.90 934.53 866.28 935.69 C 866.60 941.02 869.16 946.16 868.59 951.52 C 863.45 955.87 857.35 958.92 851.82 962.74 C 840.93 969.50 830.00 976.22 819.14 983.02 C 829.42 966.45 838.46 949.14 848.75 932.58 Z" style="fill: none !important;"/>
<path fill="#fefefe" opacity="1.00" d=" M 970.44 935.46 C 976.08 934.63 981.68 931.94 987.39 932.49 C 996.91 949.48 1006.60 966.38 1016.67 983.06 C 1000.52 972.46 983.57 963.12 967.45 952.49 C 966.78 946.79 969.26 941.04 970.44 935.46 Z" style="fill: none !important;"/>
<path fill="#ffffff" opacity="1.00" d=" M 868.79 968.75 C 870.20 968.17 871.48 965.89 873.12 966.85 C 878.54 990.34 883.22 1014.01 888.39 1037.57 C 889.11 1040.63 889.71 1043.74 889.97 1046.90 C 859.90 1041.68 831.94 1026.92 809.16 1006.83 C 809.22 1006.51 809.36 1005.86 809.43 1005.53 C 829.07 993.05 849.12 981.19 868.79 968.75 Z" style="fill: none !important;"/>
<path fill="#ffffff" opacity="1.00" d=" M 963.33 966.98 C 966.80 968.04 969.50 970.59 972.60 972.38 C 990.67 983.52 1008.90 994.38 1026.96 1005.53 C 1026.57 1007.94 1024.25 1009.10 1022.61 1010.60 C 1000.83 1029.04 974.25 1041.81 946.16 1046.92 C 947.56 1037.08 950.08 1027.42 952.11 1017.69 C 955.95 1000.81 959.45 983.85 963.33 966.98 Z" style="fill: none !important;"/>
</svg>