<svg xmlns="http://www.w3.org/2000/svg" width="1885" height="1914" viewBox="30.208000000000002 16.896 965.12 979.9680000000001" version="1.1" style="">
<path fill="#545455" opacity="1.00" d=" M 0.00 0.00 L 1024.00 0.00 L 1024.00 -0.02 L 1023.07 0.90 C 921.73 1.14 820.38 0.93 719.03 1.00 C 479.66 0.98 240.29 1.03 0.92 0.98 C 0.90 131.84 1.14 262.70 0.88 393.55 L 0.00 395.21 L 0.00 0.00 Z" style="fill: rgb(0, 0, 0) !important;"/>
<path fill="#ffffff" opacity="1.00" d=" M 0.92 0.98 C 240.29 1.03 479.66 0.98 719.03 1.00 C 820.38 0.93 921.73 1.14 1023.07 0.90 C 1022.91 287.90 1023.03 574.91 1023.03 861.92 C 1022.96 915.61 1023.01 969.30 1023.08 1022.99 C 682.38 1023.05 341.69 1022.94 0.99 1023.05 C 0.89 949.56 1.18 876.07 0.87 802.59 C 1.11 690.72 0.95 578.85 1.00 466.99 C 0.92 442.51 1.16 418.03 0.88 393.55 C 1.14 262.70 0.90 131.84 0.92 0.98 M 726.36 108.38 C 716.77 111.33 708.70 118.27 703.53 126.78 C 689.20 121.53 672.07 126.78 662.90 138.89 C 655.97 147.82 653.34 160.07 656.54 170.98 C 649.46 175.36 643.47 181.92 641.04 190.01 C 637.63 200.03 639.83 211.47 646.01 219.95 C 650.15 226.11 656.95 229.60 663.75 232.03 C 664.23 235.76 664.68 239.55 666.07 243.08 C 669.72 253.23 679.25 260.97 689.92 262.51 C 696.03 263.67 702.10 262.09 707.88 260.19 C 711.99 266.67 718.10 271.87 725.23 274.76 C 731.47 277.38 738.42 277.71 745.09 277.08 C 755.83 275.78 765.37 268.97 771.10 259.94 C 771.70 258.64 773.20 259.64 774.17 259.79 C 782.25 262.53 791.39 261.89 799.06 258.19 C 809.58 253.00 816.91 241.76 817.05 229.98 C 817.27 228.15 816.56 225.61 818.73 224.71 C 830.34 217.72 836.75 203.21 833.98 189.93 C 832.28 180.55 826.04 172.26 817.75 167.65 C 819.97 157.89 817.72 147.36 811.80 139.31 C 803.28 127.51 786.92 122.22 773.15 127.12 C 768.67 119.44 761.95 112.89 753.68 109.43 C 745.05 105.99 735.22 105.50 726.36 108.38 M 402.07 260.94 C 382.40 269.68 364.56 282.73 351.03 299.54 C 349.08 290.43 349.73 280.93 352.57 272.08 C 354.12 268.64 349.88 264.32 346.55 266.51 C 339.04 271.08 332.32 277.28 327.98 284.98 C 322.76 294.00 321.61 304.81 323.02 315.00 C 317.98 314.39 312.84 314.21 307.85 315.30 C 296.26 317.39 286.48 325.51 280.31 335.29 C 277.70 338.93 281.78 343.91 285.91 342.46 C 293.75 340.64 302.03 340.11 309.82 342.45 C 292.41 358.08 281.25 379.94 277.20 402.87 C 272.42 429.02 275.43 456.43 284.88 481.23 C 291.14 497.79 300.54 513.05 311.80 526.67 C 305.88 531.96 301.60 539.22 300.62 547.16 C 298.83 559.23 302.64 571.55 309.32 581.57 C 317.93 594.75 332.28 604.42 348.05 606.21 C 358.90 607.24 370.56 604.77 378.94 597.48 C 394.42 615.39 414.48 629.26 436.69 637.46 C 436.79 641.29 436.76 645.28 434.91 648.76 C 420.92 652.50 407.00 656.74 393.84 662.83 C 378.06 670.31 364.16 681.67 353.59 695.56 C 343.18 709.01 336.12 724.67 330.38 740.59 C 323.14 760.92 317.14 781.76 313.64 803.08 C 313.31 805.53 315.37 807.99 317.87 808.04 C 322.01 808.10 326.13 807.60 330.26 807.34 C 329.59 835.64 331.71 865.63 346.58 890.48 C 354.39 902.80 366.59 912.83 381.00 916.08 C 394.74 919.42 409.36 916.91 422.07 911.07 C 435.80 904.71 447.32 894.54 457.51 883.52 C 466.88 873.39 475.04 862.19 482.49 850.59 C 499.88 823.50 513.69 794.27 525.68 764.44 C 528.01 758.03 531.04 751.78 532.26 745.04 C 532.60 741.84 529.80 739.88 527.37 738.53 C 529.84 735.36 531.71 731.44 535.38 729.44 C 539.40 727.16 543.93 726.05 548.13 724.18 C 559.47 719.29 570.20 712.71 579.09 704.08 C 584.21 699.01 588.92 692.59 588.93 685.07 C 589.17 680.29 586.89 675.89 583.96 672.29 C 585.35 667.54 585.59 662.29 583.10 657.85 C 597.37 661.57 611.07 667.52 623.47 675.51 C 646.54 690.46 663.22 713.23 676.03 737.19 C 683.46 751.46 690.74 765.88 696.42 780.96 C 673.21 792.64 649.32 803.14 624.54 811.03 C 622.57 794.65 621.03 778.21 618.02 761.98 C 617.80 759.49 615.64 757.10 613.00 757.48 C 610.38 757.66 608.56 760.42 609.15 762.93 C 609.96 768.33 610.94 773.72 611.59 779.16 C 615.97 813.34 619.53 847.64 621.11 882.07 C 620.90 885.06 624.05 887.74 626.96 886.76 C 629.38 886.10 630.65 883.45 630.24 881.08 C 629.10 860.77 627.51 840.49 625.51 820.25 C 645.46 814.26 664.69 806.11 683.59 797.42 C 687.11 813.21 690.33 829.09 692.39 845.14 C 694.14 857.76 695.35 870.45 697.15 883.06 C 697.58 886.80 702.94 888.16 705.22 885.23 C 707.16 882.45 705.55 878.91 705.44 875.84 C 702.04 848.23 698.64 820.54 692.02 793.47 C 696.33 791.31 700.68 789.22 704.86 786.82 C 707.04 785.52 707.41 782.55 706.39 780.41 C 699.60 763.75 692.08 747.37 683.51 731.54 C 670.64 707.67 653.96 685.16 631.39 669.66 C 615.12 658.68 596.63 651.11 577.46 646.98 C 577.03 642.51 575.29 638.14 571.93 635.07 C 577.45 631.69 582.46 627.59 587.53 623.61 C 608.83 611.94 627.28 594.79 639.77 573.89 C 650.23 556.57 655.52 536.29 655.22 516.07 C 665.11 511.11 671.50 500.97 674.30 490.53 C 678.22 475.58 675.59 458.88 666.86 446.08 C 661.81 438.68 653.56 433.10 644.38 433.08 C 649.23 413.28 649.45 392.26 643.67 372.63 C 647.95 374.82 651.97 377.48 656.15 379.85 C 659.29 382.02 663.99 378.63 662.79 374.95 C 659.49 361.29 654.33 348.03 647.27 335.87 C 632.16 309.51 607.59 288.00 578.23 279.24 C 581.69 277.93 585.35 277.22 588.79 275.86 C 591.92 274.57 592.07 269.48 588.98 268.03 C 557.80 253.23 523.60 244.50 489.03 243.89 C 459.31 243.47 429.19 248.44 402.07 260.94 M 687.10 271.17 C 677.47 273.44 670.91 284.44 673.98 293.95 C 676.05 301.84 683.85 307.62 692.01 307.34 C 702.03 307.36 710.60 297.88 709.86 287.93 C 709.59 276.91 697.72 268.19 687.10 271.17 M 658.48 304.63 C 652.54 306.54 649.20 313.18 650.39 319.15 C 651.24 325.17 657.03 329.74 663.05 329.53 C 670.15 329.65 676.39 323.01 675.86 315.93 C 675.83 307.62 666.09 301.28 658.48 304.63 Z" style="fill: none !important;"/>
<path fill="#727274" opacity="1.00" d=" M 1023.07 0.90 L 1024.00 -0.02 L 1024.00 862.01 L 1023.03 861.92 C 1023.03 574.91 1022.91 287.90 1023.07 0.90 Z" style="fill: rgb(0, 0, 0) !important;"/>
<path fill="#020305" opacity="1.00" d=" M 726.36 108.38 C 735.22 105.50 745.05 105.99 753.68 109.43 C 761.95 112.89 768.67 119.44 773.15 127.12 C 786.92 122.22 803.28 127.51 811.80 139.31 C 817.72 147.36 819.97 157.89 817.75 167.65 C 826.04 172.26 832.28 180.55 833.98 189.93 C 836.75 203.21 830.34 217.72 818.73 224.71 C 816.56 225.61 817.27 228.15 817.05 229.98 C 816.91 241.76 809.58 253.00 799.06 258.19 C 791.39 261.89 782.25 262.53 774.17 259.79 C 773.20 259.64 771.70 258.64 771.10 259.94 C 765.37 268.97 755.83 275.78 745.09 277.08 C 738.42 277.71 731.47 277.38 725.23 274.76 C 718.10 271.87 711.99 266.67 707.88 260.19 C 702.10 262.09 696.03 263.67 689.92 262.51 C 679.25 260.97 669.72 253.23 666.07 243.08 C 664.68 239.55 664.23 235.76 663.75 232.03 C 656.95 229.60 650.15 226.11 646.01 219.95 C 639.83 211.47 637.63 200.03 641.04 190.01 C 643.47 181.92 649.46 175.36 656.54 170.98 C 653.34 160.07 655.97 147.82 662.90 138.89 C 672.07 126.78 689.20 121.53 703.53 126.78 C 708.70 118.27 716.77 111.33 726.36 108.38 M 730.56 116.68 C 721.62 119.06 714.05 125.68 710.13 134.02 C 709.29 136.53 706.43 138.31 703.92 136.86 C 697.46 133.82 689.90 132.82 683.08 135.28 C 669.53 139.42 660.88 155.30 665.42 168.85 C 666.41 171.58 668.00 175.87 664.44 177.42 C 656.97 180.45 650.70 186.83 649.11 194.89 C 646.10 206.84 654.29 219.94 666.06 223.08 C 668.17 223.74 670.84 223.71 672.21 225.74 C 673.58 227.91 672.85 230.64 673.15 233.07 C 673.54 242.43 680.55 251.16 689.80 253.11 C 695.92 254.80 702.26 252.83 707.60 249.79 C 709.90 248.26 712.77 249.90 713.83 252.14 C 716.31 256.74 719.50 261.09 724.02 263.87 C 735.72 271.63 753.18 269.04 761.56 257.59 C 763.82 255.03 764.58 251.39 767.07 249.07 C 769.39 247.32 772.09 248.85 774.25 250.05 C 781.95 253.97 791.86 252.99 798.70 247.72 C 805.36 242.79 809.06 234.13 807.84 225.92 C 807.47 223.67 807.32 220.86 809.52 219.48 C 813.16 217.25 817.12 215.31 819.83 211.88 C 826.90 203.79 827.51 190.78 820.84 182.26 C 818.07 178.18 813.61 175.93 809.42 173.63 C 806.23 171.22 808.66 167.13 809.06 164.02 C 811.55 150.98 802.07 137.06 788.95 134.79 C 782.75 133.34 776.67 135.58 770.92 137.61 C 766.68 137.75 766.17 132.64 764.11 129.98 C 757.49 118.65 743.12 113.24 730.56 116.68 Z" style="fill: rgb(0, 0, 0) !important;"/>
<path fill="#fefefe" opacity="1.00" d=" M 730.56 116.68 C 743.12 113.24 757.49 118.65 764.11 129.98 C 766.17 132.64 766.68 137.75 770.92 137.61 C 776.67 135.58 782.75 133.34 788.95 134.79 C 802.07 137.06 811.55 150.98 809.06 164.02 C 808.66 167.13 806.23 171.22 809.42 173.63 C 813.61 175.93 818.07 178.18 820.84 182.26 C 827.51 190.78 826.90 203.79 819.83 211.88 C 817.12 215.31 813.16 217.25 809.52 219.48 C 807.32 220.86 807.47 223.67 807.84 225.92 C 809.06 234.13 805.36 242.79 798.70 247.72 C 791.86 252.99 781.95 253.97 774.25 250.05 C 772.09 248.85 769.39 247.32 767.07 249.07 C 764.58 251.39 763.82 255.03 761.56 257.59 C 753.18 269.04 735.72 271.63 724.02 263.87 C 719.50 261.09 716.31 256.74 713.83 252.14 C 712.77 249.90 709.90 248.26 707.60 249.79 C 702.26 252.83 695.92 254.80 689.80 253.11 C 680.55 251.16 673.54 242.43 673.15 233.07 C 672.85 230.64 673.58 227.91 672.21 225.74 C 670.84 223.71 668.17 223.74 666.06 223.08 C 654.29 219.94 646.10 206.84 649.11 194.89 C 650.70 186.83 656.97 180.45 664.44 177.42 C 668.00 175.87 666.41 171.58 665.42 168.85 C 660.88 155.30 669.53 139.42 683.08 135.28 C 689.90 132.82 697.46 133.82 703.92 136.86 C 706.43 138.31 709.29 136.53 710.13 134.02 C 714.05 125.68 721.62 119.06 730.56 116.68 M 728.53 150.71 C 719.30 153.48 711.62 162.09 711.55 171.96 C 711.84 177.88 721.53 178.69 723.47 173.44 C 724.52 170.89 725.05 168.04 726.90 165.89 C 732.15 159.49 743.62 160.17 748.04 167.17 C 751.08 171.79 750.30 178.43 746.35 182.28 C 742.13 186.43 736.64 189.32 733.40 194.43 C 730.57 198.63 729.80 204.01 730.41 208.96 C 731.34 214.21 740.13 215.03 741.90 209.95 C 742.59 206.98 742.13 203.65 743.96 201.01 C 746.81 196.83 751.42 194.40 755.00 190.94 C 759.67 186.58 762.99 180.50 762.98 174.00 C 763.46 164.97 757.91 155.97 749.69 152.24 C 743.16 149.10 735.45 148.62 728.53 150.71 M 733.21 221.20 C 727.81 223.40 727.08 231.95 732.15 234.92 C 736.55 238.01 743.57 235.40 744.34 229.93 C 745.81 223.90 738.73 218.23 733.21 221.20 Z" style="fill: none !important;"/>
<path fill="#020305" opacity="1.00" d=" M 728.53 150.71 C 735.45 148.62 743.16 149.10 749.69 152.24 C 757.91 155.97 763.46 164.97 762.98 174.00 C 762.99 180.50 759.67 186.58 755.00 190.94 C 751.42 194.40 746.81 196.83 743.96 201.01 C 742.13 203.65 742.59 206.98 741.90 209.95 C 740.13 215.03 731.34 214.21 730.41 208.96 C 729.80 204.01 730.57 198.63 733.40 194.43 C 736.64 189.32 742.13 186.43 746.35 182.28 C 750.30 178.43 751.08 171.79 748.04 167.17 C 743.62 160.17 732.15 159.49 726.90 165.89 C 725.05 168.04 724.52 170.89 723.47 173.44 C 721.53 178.69 711.84 177.88 711.55 171.96 C 711.62 162.09 719.30 153.48 728.53 150.71 Z" style="fill: rgb(0, 0, 0) !important;"/>
<path fill="#020305" opacity="1.00" d=" M 733.21 221.20 C 738.73 218.23 745.81 223.90 744.34 229.93 C 743.57 235.40 736.55 238.01 732.15 234.92 C 727.08 231.95 727.81 223.40 733.21 221.20 Z" style="fill: rgb(0, 0, 0) !important;"/>
<path fill="#020403" opacity="1.00" d=" M 402.07 260.94 C 429.19 248.44 459.31 243.47 489.03 243.89 C 523.60 244.50 557.80 253.23 588.98 268.03 C 592.07 269.48 591.92 274.57 588.79 275.86 C 585.35 277.22 581.69 277.93 578.23 279.24 C 607.59 288.00 632.16 309.51 647.27 335.87 C 654.33 348.03 659.49 361.29 662.79 374.95 C 663.99 378.63 659.29 382.02 656.15 379.85 C 651.97 377.48 647.95 374.82 643.67 372.63 C 649.45 392.26 649.23 413.28 644.38 433.08 C 653.56 433.10 661.81 438.68 666.86 446.08 C 675.59 458.88 678.22 475.58 674.30 490.53 C 671.50 500.97 665.11 511.11 655.22 516.07 C 655.52 536.29 650.23 556.57 639.77 573.89 C 627.28 594.79 608.83 611.94 587.53 623.61 C 582.46 627.59 577.45 631.69 571.93 635.07 C 575.29 638.14 577.03 642.51 577.46 646.98 C 596.63 651.11 615.12 658.68 631.39 669.66 C 653.96 685.16 670.64 707.67 683.51 731.54 C 692.08 747.37 699.60 763.75 706.39 780.41 C 707.41 782.55 707.04 785.52 704.86 786.82 C 700.68 789.22 696.33 791.31 692.02 793.47 C 698.64 820.54 702.04 848.23 705.44 875.84 C 705.55 878.91 707.16 882.45 705.22 885.23 C 702.94 888.16 697.58 886.80 697.15 883.06 C 695.35 870.45 694.14 857.76 692.39 845.14 C 690.33 829.09 687.11 813.21 683.59 797.42 C 664.69 806.11 645.46 814.26 625.51 820.25 C 627.51 840.49 629.10 860.77 630.24 881.08 C 630.65 883.45 629.38 886.10 626.96 886.76 C 624.05 887.74 620.90 885.06 621.11 882.07 C 619.53 847.64 615.97 813.34 611.59 779.16 C 610.94 773.72 609.96 768.33 609.15 762.93 C 608.56 760.42 610.38 757.66 613.00 757.48 C 615.64 757.10 617.80 759.49 618.02 761.98 C 621.03 778.21 622.57 794.65 624.54 811.03 C 649.32 803.14 673.21 792.64 696.42 780.96 C 690.74 765.88 683.46 751.46 676.03 737.19 C 663.22 713.23 646.54 690.46 623.47 675.51 C 611.07 667.52 597.37 661.57 583.10 657.85 C 585.59 662.29 585.35 667.54 583.96 672.29 C 586.89 675.89 589.17 680.29 588.93 685.07 C 588.92 692.59 584.21 699.01 579.09 704.08 C 570.20 712.71 559.47 719.29 548.13 724.18 C 543.93 726.05 539.40 727.16 535.38 729.44 C 531.71 731.44 529.84 735.36 527.37 738.53 C 529.80 739.88 532.60 741.84 532.26 745.04 C 531.04 751.78 528.01 758.03 525.68 764.44 C 513.69 794.27 499.88 823.50 482.49 850.59 C 475.04 862.19 466.88 873.39 457.51 883.52 C 447.32 894.54 435.80 904.71 422.07 911.07 C 409.36 916.91 394.74 919.42 381.00 916.08 C 366.59 912.83 354.39 902.80 346.58 890.48 C 331.71 865.63 329.59 835.64 330.26 807.34 C 326.13 807.60 322.01 808.10 317.87 808.04 C 315.37 807.99 313.31 805.53 313.64 803.08 C 317.14 781.76 323.14 760.92 330.38 740.59 C 336.12 724.67 343.18 709.01 353.59 695.56 C 364.16 681.67 378.06 670.31 393.84 662.83 C 407.00 656.74 420.92 652.50 434.91 648.76 C 436.76 645.28 436.79 641.29 436.69 637.46 C 414.48 629.26 394.42 615.39 378.94 597.48 C 370.56 604.77 358.90 607.24 348.05 606.21 C 332.28 604.42 317.93 594.75 309.32 581.57 C 302.64 571.55 298.83 559.23 300.62 547.16 C 301.60 539.22 305.88 531.96 311.80 526.67 C 300.54 513.05 291.14 497.79 284.88 481.23 C 275.43 456.43 272.42 429.02 277.20 402.87 C 281.25 379.94 292.41 358.08 309.82 342.45 C 302.03 340.11 293.75 340.64 285.91 342.46 C 281.78 343.91 277.70 338.93 280.31 335.29 C 286.48 325.51 296.26 317.39 307.85 315.30 C 312.84 314.21 317.98 314.39 323.02 315.00 C 321.61 304.81 322.76 294.00 327.98 284.98 C 332.32 277.28 339.04 271.08 346.55 266.51 C 349.88 264.32 354.12 268.64 352.57 272.08 C 349.73 280.93 349.08 290.43 351.03 299.54 C 364.56 282.73 382.40 269.68 402.07 260.94 M 404.70 269.85 C 384.67 278.96 366.64 292.88 353.94 310.96 C 352.31 314.12 347.14 315.19 345.37 311.62 C 340.61 302.46 340.05 291.68 341.49 281.61 C 336.74 287.12 332.98 293.72 331.98 301.02 C 330.87 307.33 331.98 313.74 333.56 319.87 C 334.54 322.41 332.97 325.79 330.06 325.92 C 325.69 325.28 321.46 323.73 316.99 323.78 C 308.87 323.29 300.93 326.56 294.96 331.96 C 303.82 331.23 313.11 332.45 320.81 337.14 C 323.67 338.77 323.82 343.19 321.02 344.97 C 300.89 360.60 288.61 384.81 285.30 409.85 C 279.90 449.75 293.23 491.39 319.67 521.58 C 332.05 515.67 346.57 518.67 357.95 525.41 C 352.16 510.81 346.83 495.68 346.14 479.85 C 346.21 476.56 348.86 474.26 350.83 471.93 C 368.93 451.76 379.26 425.53 382.79 398.86 C 383.21 396.53 383.05 393.63 385.25 392.13 C 387.43 390.40 390.91 391.56 391.80 394.15 C 397.53 408.20 399.15 423.79 396.89 438.77 C 407.48 434.17 417.45 428.29 427.04 421.89 C 441.11 412.33 454.24 401.20 465.02 387.99 C 475.69 375.22 483.79 360.33 488.64 344.41 C 489.93 340.49 496.15 340.49 497.36 344.48 C 503.16 364.16 502.08 385.61 495.54 404.98 C 518.52 393.73 537.43 373.75 545.64 349.34 C 548.52 340.91 549.42 331.98 549.72 323.13 C 549.59 320.02 553.21 317.70 556.01 318.94 C 575.31 326.65 592.20 339.68 605.58 355.49 C 616.84 369.07 625.66 384.88 629.92 402.08 C 632.04 410.75 633.82 419.50 635.88 428.19 C 640.48 408.42 639.72 387.24 632.58 368.16 C 631.89 366.15 630.76 363.93 631.75 361.83 C 632.74 359.56 635.59 358.67 637.84 359.45 C 642.32 360.99 646.39 363.48 650.48 365.84 C 642.08 340.74 626.77 317.34 604.73 302.23 C 592.08 293.27 577.27 287.88 562.16 284.80 C 558.42 284.42 556.93 279.23 559.91 276.95 C 563.97 274.15 569.01 273.32 573.40 271.14 C 546.35 260.02 517.31 253.37 488.01 252.98 C 459.51 252.85 430.71 257.95 404.70 269.85 M 558.47 330.20 C 557.80 341.12 555.16 351.91 550.63 361.87 C 539.05 388.11 515.47 407.96 488.84 417.80 C 484.82 419.97 480.62 414.74 483.11 411.12 C 489.89 396.04 493.34 379.31 491.61 362.78 C 480.89 386.60 462.99 406.57 442.29 422.24 C 426.72 433.65 410.16 444.08 391.90 450.63 C 388.83 451.79 385.55 448.13 386.48 445.12 C 388.26 436.33 389.37 427.28 388.47 418.31 C 382.67 441.46 371.68 463.44 355.26 480.89 C 356.76 500.67 365.20 519.02 372.69 537.11 C 373.28 539.89 370.96 543.18 367.95 542.91 C 365.98 542.70 364.53 541.21 362.99 540.13 C 355.39 534.10 346.73 528.74 336.92 527.51 C 329.53 526.53 321.97 529.45 316.64 534.55 C 310.53 540.50 308.25 549.55 309.61 557.84 C 312.33 575.12 325.28 590.48 341.94 595.89 C 353.32 599.60 367.00 597.31 375.38 588.40 C 377.17 585.97 381.24 584.90 383.18 587.74 C 391.75 599.14 402.82 608.49 414.73 616.23 C 430.85 626.56 449.18 633.81 468.25 636.07 C 466.17 630.43 462.75 625.12 462.26 619.03 C 461.75 612.31 467.65 606.52 474.07 605.74 C 480.65 604.88 487.11 607.84 491.98 612.10 C 499.06 618.48 502.49 627.66 506.43 636.10 C 515.50 631.19 523.91 625.13 532.63 619.63 C 545.04 611.71 557.17 603.09 570.90 597.56 C 576.81 595.35 584.19 594.32 589.50 598.49 C 592.73 600.69 594.41 604.42 594.72 608.24 C 614.43 595.24 630.41 576.24 639.21 554.26 C 646.62 536.21 647.63 515.95 643.81 496.94 C 642.09 486.57 638.35 476.71 635.59 466.60 C 629.10 444.69 625.53 422.06 619.88 399.94 C 610.27 369.53 587.05 344.03 558.47 330.20 M 639.45 443.89 C 643.41 464.66 652.01 484.30 654.63 505.35 C 663.75 498.31 667.23 486.12 666.92 475.01 C 666.37 465.61 663.50 455.97 657.31 448.72 C 653.10 443.75 645.60 440.29 639.45 443.89 M 570.58 607.55 C 552.62 616.20 536.59 628.17 519.77 638.74 C 515.20 641.53 510.57 645.37 504.97 645.31 C 499.93 644.94 497.89 639.69 496.20 635.71 C 492.92 628.35 489.36 620.07 481.80 616.20 C 478.90 614.82 474.86 613.65 472.21 616.06 C 470.21 618.14 471.61 621.19 472.57 623.43 C 476.49 631.49 479.75 640.06 480.34 649.08 C 480.61 658.82 476.98 668.34 478.13 678.10 C 478.66 683.76 480.38 689.34 480.14 695.05 C 478.70 699.85 476.45 704.36 474.65 709.02 C 489.46 717.57 504.46 725.77 519.46 733.99 C 521.51 730.91 523.39 727.66 526.01 725.02 C 529.95 721.27 535.12 719.29 540.12 717.39 C 550.34 713.59 560.05 708.27 568.51 701.37 C 572.21 698.19 575.89 694.79 578.30 690.49 C 579.95 687.43 580.74 683.21 578.28 680.36 C 575.72 682.30 573.28 684.88 569.97 685.39 C 566.09 685.89 563.65 680.28 566.88 677.93 C 570.57 674.97 575.01 672.00 576.04 667.03 C 576.92 663.85 574.96 660.73 572.24 659.22 C 569.47 661.50 566.77 663.89 563.73 665.80 C 562.22 666.78 560.19 667.23 558.57 666.28 C 556.11 665.08 555.53 661.35 557.49 659.47 C 560.96 656.28 565.98 654.23 567.69 649.51 C 569.02 646.04 566.80 641.77 563.12 641.06 C 558.63 643.19 554.86 646.73 550.09 648.26 C 545.71 648.98 543.70 642.52 547.33 640.28 C 558.25 632.92 569.73 626.32 580.04 618.08 C 582.73 615.71 585.76 612.87 585.84 609.02 C 586.01 606.38 583.40 604.57 580.99 604.52 C 577.30 604.44 573.85 606.03 570.58 607.55 M 441.93 655.91 C 444.99 669.64 457.67 678.62 469.85 683.97 C 468.87 677.33 468.67 670.54 469.81 663.91 C 470.87 657.94 471.80 651.85 471.05 645.78 C 462.46 644.88 454.01 643.07 445.73 640.64 C 445.68 645.96 444.53 651.24 441.93 655.91 M 409.10 666.43 C 393.90 672.05 379.59 680.61 368.39 692.43 C 356.14 705.20 347.59 721.05 341.36 737.51 C 333.90 757.40 327.63 777.81 323.86 798.74 C 346.81 796.60 369.78 794.21 392.85 794.20 C 412.19 764.55 433.97 736.59 456.09 708.99 C 457.29 707.55 458.38 705.98 459.92 704.88 C 462.00 703.60 464.54 704.13 466.78 704.60 C 467.95 701.02 469.55 697.61 470.94 694.12 C 465.06 691.90 459.24 689.45 454.06 685.84 C 444.46 679.44 435.65 670.37 433.22 658.71 C 425.11 661.07 416.99 663.40 409.10 666.43 M 417.15 775.02 C 404.72 792.30 392.97 810.12 382.97 828.93 C 381.99 830.85 380.45 832.95 378.04 832.90 C 374.75 833.00 372.31 829.01 374.03 826.16 C 378.10 818.45 382.36 810.82 386.96 803.41 C 371.00 803.76 355.07 804.88 339.19 806.43 C 338.81 829.25 339.94 852.71 348.61 874.11 C 353.10 885.36 360.41 895.93 371.01 902.17 C 382.07 908.86 395.92 909.91 408.19 906.24 C 426.02 901.50 440.22 888.77 452.36 875.44 C 470.39 854.92 484.30 831.15 496.59 806.84 C 506.34 787.19 515.31 767.10 522.58 746.39 C 503.17 735.37 483.55 724.71 464.09 713.79 C 447.84 733.73 432.09 754.08 417.15 775.02 Z" style="fill: rgb(0, 0, 0) !important;"/>
<path fill="#fefefe" opacity="1.00" d=" M 404.70 269.85 C 430.71 257.95 459.51 252.85 488.01 252.98 C 517.31 253.37 546.35 260.02 573.40 271.14 C 569.01 273.32 563.97 274.15 559.91 276.95 C 556.93 279.23 558.42 284.42 562.16 284.80 C 577.27 287.88 592.08 293.27 604.73 302.23 C 626.77 317.34 642.08 340.74 650.48 365.84 C 646.39 363.48 642.32 360.99 637.84 359.45 C 635.59 358.67 632.74 359.56 631.75 361.83 C 630.76 363.93 631.89 366.15 632.58 368.16 C 639.72 387.24 640.48 408.42 635.88 428.19 C 633.82 419.50 632.04 410.75 629.92 402.08 C 625.66 384.88 616.84 369.07 605.58 355.49 C 592.20 339.68 575.31 326.65 556.01 318.94 C 553.21 317.70 549.59 320.02 549.72 323.13 C 549.42 331.98 548.52 340.91 545.64 349.34 C 537.43 373.75 518.52 393.73 495.54 404.98 C 502.08 385.61 503.16 364.16 497.36 344.48 C 496.15 340.49 489.93 340.49 488.64 344.41 C 483.79 360.33 475.69 375.22 465.02 387.99 C 454.24 401.20 441.11 412.33 427.04 421.89 C 417.45 428.29 407.48 434.17 396.89 438.77 C 399.15 423.79 397.53 408.20 391.80 394.15 C 390.91 391.56 387.43 390.40 385.25 392.13 C 383.05 393.63 383.21 396.53 382.79 398.86 C 379.26 425.53 368.93 451.76 350.83 471.93 C 348.86 474.26 346.21 476.56 346.14 479.85 C 346.83 495.68 352.16 510.81 357.95 525.41 C 346.57 518.67 332.05 515.67 319.67 521.58 C 293.23 491.39 279.90 449.75 285.30 409.85 C 288.61 384.81 300.89 360.60 321.02 344.97 C 323.82 343.19 323.67 338.77 320.81 337.14 C 313.11 332.45 303.82 331.23 294.96 331.96 C 300.93 326.56 308.87 323.29 316.99 323.78 C 321.46 323.73 325.69 325.28 330.06 325.92 C 332.97 325.79 334.54 322.41 333.56 319.87 C 331.98 313.74 330.87 307.33 331.98 301.02 C 332.98 293.72 336.74 287.12 341.49 281.61 C 340.05 291.68 340.61 302.46 345.37 311.62 C 347.14 315.19 352.31 314.12 353.94 310.96 C 366.64 292.88 384.67 278.96 404.70 269.85 Z" style="fill: none !important;"/>
<path fill="#020404" opacity="1.00" d=" M 687.10 271.17 C 697.72 268.19 709.59 276.91 709.86 287.93 C 710.60 297.88 702.03 307.36 692.01 307.34 C 683.85 307.62 676.05 301.84 673.98 293.95 C 670.91 284.44 677.47 273.44 687.10 271.17 M 687.45 280.67 C 681.86 283.26 680.61 291.57 685.32 295.60 C 689.95 300.61 699.47 297.96 700.60 291.17 C 702.81 283.90 694.02 276.93 687.45 280.67 Z" style="fill: rgb(0, 0, 0) !important;"/>
<path fill="#fefefe" opacity="1.00" d=" M 687.45 280.67 C 694.02 276.93 702.81 283.90 700.60 291.17 C 699.47 297.96 689.95 300.61 685.32 295.60 C 680.61 291.57 681.86 283.26 687.45 280.67 Z" style="fill: none !important;"/>
<path fill="#020403" opacity="1.00" d=" M 658.48 304.63 C 666.09 301.28 675.83 307.62 675.86 315.93 C 676.39 323.01 670.15 329.65 663.05 329.53 C 657.03 329.74 651.24 325.17 650.39 319.15 C 649.20 313.18 652.54 306.54 658.48 304.63 M 661.31 313.33 C 659.00 314.44 658.44 317.87 660.41 319.56 C 662.28 321.59 665.85 320.40 666.64 317.91 C 667.74 314.95 664.11 311.69 661.31 313.33 Z" style="fill: rgb(0, 0, 0) !important;"/>
<path fill="#ffffff" opacity="1.00" d=" M 661.31 313.33 C 664.11 311.69 667.74 314.95 666.64 317.91 C 665.85 320.40 662.28 321.59 660.41 319.56 C 658.44 317.87 659.00 314.44 661.31 313.33 Z" style="fill: none !important;"/>
<path fill="#ffffff" opacity="1.00" d=" M 558.47 330.20 C 587.05 344.03 610.27 369.53 619.88 399.94 C 625.53 422.06 629.10 444.69 635.59 466.60 C 638.35 476.71 642.09 486.57 643.81 496.94 C 647.63 515.95 646.62 536.21 639.21 554.26 C 630.41 576.24 614.43 595.24 594.72 608.24 C 594.41 604.42 592.73 600.69 589.50 598.49 C 584.19 594.32 576.81 595.35 570.90 597.56 C 557.17 603.09 545.04 611.71 532.63 619.63 C 523.91 625.13 515.50 631.19 506.43 636.10 C 502.49 627.66 499.06 618.48 491.98 612.10 C 487.11 607.84 480.65 604.88 474.07 605.74 C 467.65 606.52 461.75 612.31 462.26 619.03 C 462.75 625.12 466.17 630.43 468.25 636.07 C 449.18 633.81 430.85 626.56 414.73 616.23 C 402.82 608.49 391.75 599.14 383.18 587.74 C 381.24 584.90 377.17 585.97 375.38 588.40 C 367.00 597.31 353.32 599.60 341.94 595.89 C 325.28 590.48 312.33 575.12 309.61 557.84 C 308.25 549.55 310.53 540.50 316.64 534.55 C 321.97 529.45 329.53 526.53 336.92 527.51 C 346.73 528.74 355.39 534.10 362.99 540.13 C 364.53 541.21 365.98 542.70 367.95 542.91 C 370.96 543.18 373.28 539.89 372.69 537.11 C 365.20 519.02 356.76 500.67 355.26 480.89 C 371.68 463.44 382.67 441.46 388.47 418.31 C 389.37 427.28 388.26 436.33 386.48 445.12 C 385.55 448.13 388.83 451.79 391.90 450.63 C 410.16 444.08 426.72 433.65 442.29 422.24 C 462.99 406.57 480.89 386.60 491.61 362.78 C 493.34 379.31 489.89 396.04 483.11 411.12 C 480.62 414.74 484.82 419.97 488.84 417.80 C 515.47 407.96 539.05 388.11 550.63 361.87 C 555.16 351.91 557.80 341.12 558.47 330.20 M 566.41 395.63 C 559.94 397.24 553.61 400.14 548.64 404.62 C 545.70 407.63 549.12 413.07 553.11 411.93 C 556.55 410.56 559.40 408.02 562.86 406.65 C 573.16 401.81 585.66 402.87 595.40 408.54 C 597.37 409.55 599.60 411.43 601.90 410.11 C 605.00 408.78 605.82 404.05 602.77 402.19 C 592.36 394.88 578.72 392.60 566.41 395.63 M 478.25 426.06 C 475.33 427.68 476.07 431.23 477.13 433.79 C 478.53 437.13 477.24 440.63 476.63 443.97 C 476.71 447.77 482.21 449.68 484.43 446.49 C 487.64 440.76 487.35 433.34 484.30 427.60 C 483.19 425.47 480.23 424.72 478.25 426.06 M 555.43 469.72 C 556.54 472.76 560.93 473.46 563.13 471.19 C 564.65 469.46 564.09 466.92 564.51 464.83 C 565.13 456.55 570.12 448.66 577.55 444.86 C 573.40 451.26 574.71 460.52 580.81 465.23 C 586.36 470.21 595.78 468.95 600.16 463.02 C 603.26 459.40 603.68 454.44 603.07 449.90 C 604.70 452.27 606.04 454.84 607.83 457.11 C 610.57 460.26 616.36 456.91 615.36 452.99 C 610.83 439.68 595.80 431.04 582.00 433.89 C 565.56 436.40 553.35 453.40 555.43 469.72 M 460.36 437.45 C 457.84 439.32 456.95 442.62 454.73 444.81 C 445.01 455.76 430.10 459.96 416.06 461.80 C 412.87 462.49 408.44 461.14 406.49 464.53 C 404.58 467.48 407.43 471.87 410.94 471.24 C 423.71 470.95 436.55 467.96 447.76 461.73 C 455.59 457.29 463.05 451.23 466.90 442.89 C 468.55 439.27 463.60 435.36 460.36 437.45 M 418.12 511.20 C 418.76 515.07 424.50 515.93 426.31 512.45 C 427.16 509.06 426.83 505.45 427.92 502.09 C 430.13 493.47 436.94 486.63 445.01 483.20 C 440.86 489.15 440.57 497.84 445.64 503.35 C 450.47 509.06 459.91 509.43 465.33 504.38 C 469.57 500.85 470.70 495.03 470.07 489.79 C 472.02 492.25 473.33 495.22 475.56 497.44 C 478.58 499.85 483.34 496.68 482.65 493.00 C 477.65 479.73 463.04 471.07 448.96 473.08 C 430.73 475.00 416.64 493.18 418.12 511.20 M 523.23 474.28 C 521.12 475.22 520.01 477.65 520.66 479.88 C 521.79 485.96 524.58 492.53 530.46 495.36 C 534.02 497.24 538.39 495.92 541.84 498.11 C 545.78 500.13 546.37 505.57 544.39 509.19 C 542.95 512.59 539.63 514.52 537.40 517.30 C 535.12 521.10 540.40 525.49 543.88 523.00 C 552.19 518.20 557.22 506.99 553.13 497.87 C 550.95 492.07 545.02 488.32 538.98 487.85 C 536.92 487.47 534.33 488.02 532.90 486.13 C 530.71 483.60 530.19 480.24 529.36 477.13 C 528.87 474.50 525.57 472.76 523.23 474.28 M 329.55 545.66 C 326.66 546.34 323.03 547.03 321.73 550.08 C 320.26 553.39 324.20 557.17 327.44 555.53 C 332.64 553.57 338.74 553.39 343.62 556.34 C 349.13 559.70 353.44 565.37 354.46 571.83 C 354.79 573.94 355.26 576.46 357.49 577.41 C 360.39 579.11 364.49 576.32 363.95 572.99 C 362.69 563.61 357.78 554.34 349.52 549.36 C 343.66 545.58 336.37 544.20 329.55 545.66 M 545.54 546.74 C 533.76 549.63 523.12 556.17 514.16 564.23 C 511.54 566.66 508.78 569.06 506.88 572.13 C 504.54 575.97 510.23 580.92 513.56 577.64 C 523.67 566.39 536.91 556.95 552.17 554.66 C 557.17 553.70 562.06 555.30 566.96 555.96 C 571.26 555.65 572.66 549.13 568.47 547.43 C 561.24 544.44 553.02 545.14 545.54 546.74 Z" style="fill: none !important;"/>
<path fill="#686869" opacity="1.00" d=" M 0.00 395.21 L 0.88 393.55 C 1.16 418.03 0.92 442.51 1.00 466.99 C 0.95 578.85 1.11 690.72 0.87 802.59 L 0.00 801.17 L 0.00 395.21 Z" style="fill: rgb(0, 0, 0) !important;"/>
<path fill="#020403" opacity="1.00" d=" M 566.41 395.63 C 578.72 392.60 592.36 394.88 602.77 402.19 C 605.82 404.05 605.00 408.78 601.90 410.11 C 599.60 411.43 597.37 409.55 595.40 408.54 C 585.66 402.87 573.16 401.81 562.86 406.65 C 559.40 408.02 556.55 410.56 553.11 411.93 C 549.12 413.07 545.70 407.63 548.64 404.62 C 553.61 400.14 559.94 397.24 566.41 395.63 Z" style="fill: rgb(0, 0, 0) !important;"/>
<path fill="#020403" opacity="1.00" d=" M 478.25 426.06 C 480.23 424.72 483.19 425.47 484.30 427.60 C 487.35 433.34 487.64 440.76 484.43 446.49 C 482.21 449.68 476.71 447.77 476.63 443.97 C 477.24 440.63 478.53 437.13 477.13 433.79 C 476.07 431.23 475.33 427.68 478.25 426.06 Z" style="fill: rgb(0, 0, 0) !important;"/>
<path fill="#020403" opacity="1.00" d=" M 555.43 469.72 C 553.35 453.40 565.56 436.40 582.00 433.89 C 595.80 431.04 610.83 439.68 615.36 452.99 C 616.36 456.91 610.57 460.26 607.83 457.11 C 606.04 454.84 604.70 452.27 603.07 449.90 C 603.68 454.44 603.26 459.40 600.16 463.02 C 595.78 468.95 586.36 470.21 580.81 465.23 C 574.71 460.52 573.40 451.26 577.55 444.86 C 570.12 448.66 565.13 456.55 564.51 464.83 C 564.09 466.92 564.65 469.46 563.13 471.19 C 560.93 473.46 556.54 472.76 555.43 469.72 Z" style="fill: rgb(0, 0, 0) !important;"/>
<path fill="#020403" opacity="1.00" d=" M 460.36 437.45 C 463.60 435.36 468.55 439.27 466.90 442.89 C 463.05 451.23 455.59 457.29 447.76 461.73 C 436.55 467.96 423.71 470.95 410.94 471.24 C 407.43 471.87 404.58 467.48 406.49 464.53 C 408.44 461.14 412.87 462.49 416.06 461.80 C 430.10 459.96 445.01 455.76 454.73 444.81 C 456.95 442.62 457.84 439.32 460.36 437.45 Z" style="fill: rgb(0, 0, 0) !important;"/>
<path fill="#ffffff" opacity="1.00" d=" M 639.45 443.89 C 645.60 440.29 653.10 443.75 657.31 448.72 C 663.50 455.97 666.37 465.61 666.92 475.01 C 667.23 486.12 663.75 498.31 654.63 505.35 C 652.01 484.30 643.41 464.66 639.45 443.89 Z" style="fill: none !important;"/>
<path fill="#020403" opacity="1.00" d=" M 418.12 511.20 C 416.64 493.18 430.73 475.00 448.96 473.08 C 463.04 471.07 477.65 479.73 482.65 493.00 C 483.34 496.68 478.58 499.85 475.56 497.44 C 473.33 495.22 472.02 492.25 470.07 489.79 C 470.70 495.03 469.57 500.85 465.33 504.38 C 459.91 509.43 450.47 509.06 445.64 503.35 C 440.57 497.84 440.86 489.15 445.01 483.20 C 436.94 486.63 430.13 493.47 427.92 502.09 C 426.83 505.45 427.16 509.06 426.31 512.45 C 424.50 515.93 418.76 515.07 418.12 511.20 Z" style="fill: rgb(0, 0, 0) !important;"/>
<path fill="#020403" opacity="1.00" d=" M 523.23 474.28 C 525.57 472.76 528.87 474.50 529.36 477.13 C 530.19 480.24 530.71 483.60 532.90 486.13 C 534.33 488.02 536.92 487.47 538.98 487.85 C 545.02 488.32 550.95 492.07 553.13 497.87 C 557.22 506.99 552.19 518.20 543.88 523.00 C 540.40 525.49 535.12 521.10 537.40 517.30 C 539.63 514.52 542.95 512.59 544.39 509.19 C 546.37 505.57 545.78 500.13 541.84 498.11 C 538.39 495.92 534.02 497.24 530.46 495.36 C 524.58 492.53 521.79 485.96 520.66 479.88 C 520.01 477.65 521.12 475.22 523.23 474.28 Z" style="fill: rgb(0, 0, 0) !important;"/>
<path fill="#020403" opacity="1.00" d=" M 329.55 545.66 C 336.37 544.20 343.66 545.58 349.52 549.36 C 357.78 554.34 362.69 563.61 363.95 572.99 C 364.49 576.32 360.39 579.11 357.49 577.41 C 355.26 576.46 354.79 573.94 354.46 571.83 C 353.44 565.37 349.13 559.70 343.62 556.34 C 338.74 553.39 332.64 553.57 327.44 555.53 C 324.20 557.17 320.26 553.39 321.73 550.08 C 323.03 547.03 326.66 546.34 329.55 545.66 Z" style="fill: rgb(0, 0, 0) !important;"/>
<path fill="#020403" opacity="1.00" d=" M 545.54 546.74 C 553.02 545.14 561.24 544.44 568.47 547.43 C 572.66 549.13 571.26 555.65 566.96 555.96 C 562.06 555.30 557.17 553.70 552.17 554.66 C 536.91 556.95 523.67 566.39 513.56 577.64 C 510.23 580.92 504.54 575.97 506.88 572.13 C 508.78 569.06 511.54 566.66 514.16 564.23 C 523.12 556.17 533.76 549.63 545.54 546.74 Z" style="fill: rgb(0, 0, 0) !important;"/>
<path fill="#ffffff" opacity="1.00" d=" M 570.58 607.55 C 573.85 606.03 577.30 604.44 580.99 604.52 C 583.40 604.57 586.01 606.38 585.84 609.02 C 585.76 612.87 582.73 615.71 580.04 618.08 C 569.73 626.32 558.25 632.92 547.33 640.28 C 543.70 642.52 545.71 648.98 550.09 648.26 C 554.86 646.73 558.63 643.19 563.12 641.06 C 566.80 641.77 569.02 646.04 567.69 649.51 C 565.98 654.23 560.96 656.28 557.49 659.47 C 555.53 661.35 556.11 665.08 558.57 666.28 C 560.19 667.23 562.22 666.78 563.73 665.80 C 566.77 663.89 569.47 661.50 572.24 659.22 C 574.96 660.73 576.92 663.85 576.04 667.03 C 575.01 672.00 570.57 674.97 566.88 677.93 C 563.65 680.28 566.09 685.89 569.97 685.39 C 573.28 684.88 575.72 682.30 578.28 680.36 C 580.74 683.21 579.95 687.43 578.30 690.49 C 575.89 694.79 572.21 698.19 568.51 701.37 C 560.05 708.27 550.34 713.59 540.12 717.39 C 535.12 719.29 529.95 721.27 526.01 725.02 C 523.39 727.66 521.51 730.91 519.46 733.99 C 504.46 725.77 489.46 717.57 474.65 709.02 C 476.45 704.36 478.70 699.85 480.14 695.05 C 480.38 689.34 478.66 683.76 478.13 678.10 C 476.98 668.34 480.61 658.82 480.34 649.08 C 479.75 640.06 476.49 631.49 472.57 623.43 C 471.61 621.19 470.21 618.14 472.21 616.06 C 474.86 613.65 478.90 614.82 481.80 616.20 C 489.36 620.07 492.92 628.35 496.20 635.71 C 497.89 639.69 499.93 644.94 504.97 645.31 C 510.57 645.37 515.20 641.53 519.77 638.74 C 536.59 628.17 552.62 616.20 570.58 607.55 Z" style="fill: none !important;"/>
<path fill="#ffffff" opacity="1.00" d=" M 441.93 655.91 C 444.53 651.24 445.68 645.96 445.73 640.64 C 454.01 643.07 462.46 644.88 471.05 645.78 C 471.80 651.85 470.87 657.94 469.81 663.91 C 468.67 670.54 468.87 677.33 469.85 683.97 C 457.67 678.62 444.99 669.64 441.93 655.91 Z" style="fill: none !important;"/>
<path fill="#ffffff" opacity="1.00" d=" M 409.10 666.43 C 416.99 663.40 425.11 661.07 433.22 658.71 C 435.65 670.37 444.46 679.44 454.06 685.84 C 459.24 689.45 465.06 691.90 470.94 694.12 C 469.55 697.61 467.95 701.02 466.78 704.60 C 464.54 704.13 462.00 703.60 459.92 704.88 C 458.38 705.98 457.29 707.55 456.09 708.99 C 433.97 736.59 412.19 764.55 392.85 794.20 C 369.78 794.21 346.81 796.60 323.86 798.74 C 327.63 777.81 333.90 757.40 341.36 737.51 C 347.59 721.05 356.14 705.20 368.39 692.43 C 379.59 680.61 393.90 672.05 409.10 666.43 Z" style="fill: none !important;"/>
<path fill="#ffffff" opacity="1.00" d=" M 417.15 775.02 C 432.09 754.08 447.84 733.73 464.09 713.79 C 483.55 724.71 503.17 735.37 522.58 746.39 C 515.31 767.10 506.34 787.19 496.59 806.84 C 484.30 831.15 470.39 854.92 452.36 875.44 C 440.22 888.77 426.02 901.50 408.19 906.24 C 395.92 909.91 382.07 908.86 371.01 902.17 C 360.41 895.93 353.10 885.36 348.61 874.11 C 339.94 852.71 338.81 829.25 339.19 806.43 C 355.07 804.88 371.00 803.76 386.96 803.41 C 382.36 810.82 378.10 818.45 374.03 826.16 C 372.31 829.01 374.75 833.00 378.04 832.90 C 380.45 832.95 381.99 830.85 382.97 828.93 C 392.97 810.12 404.72 792.30 417.15 775.02 Z" style="fill: none !important;"/>
<path fill="#79797b" opacity="1.00" d=" M 0.00 801.17 L 0.87 802.59 C 1.18 876.07 0.89 949.56 0.99 1023.05 L 1.00 1024.00 L 0.00 1024.00 L 0.00 801.17 Z" style="fill: rgb(0, 0, 0) !important;"/>
<path fill="#7f8080" opacity="1.00" d=" M 1023.03 861.92 L 1024.00 862.01 L 1024.00 1024.00 L 1.00 1024.00 L 0.99 1023.05 C 341.69 1022.94 682.38 1023.05 1023.08 1022.99 C 1023.01 969.30 1022.96 915.61 1023.03 861.92 Z" style="fill: rgb(0, 0, 0) !important;"/>
</svg>