<svg xmlns="http://www.w3.org/2000/svg" width="2000" height="2000" viewBox="0 0 1024 1024" version="1.1" style="">
<path fill="#fefefe" opacity="1.00" d=" M 0.00 0.00 L 1024.00 0.00 L 1024.00 1024.00 L 0.00 1024.00 L 0.00 0.00 M 658.91 159.53 C 645.97 163.02 633.01 166.84 620.97 172.82 C 617.11 174.74 613.33 177.38 611.33 181.32 C 609.26 185.51 609.03 190.33 609.45 194.91 C 574.91 205.27 541.69 221.61 514.62 245.69 C 500.46 258.13 488.51 272.93 478.89 289.11 C 465.93 283.32 452.02 279.67 437.93 278.11 C 411.29 275.16 384.32 279.99 359.39 289.38 C 356.66 280.50 354.46 271.45 351.59 262.61 C 349.34 255.67 345.49 248.60 338.67 245.26 C 330.62 240.99 321.11 242.82 312.89 245.58 C 233.45 269.07 153.92 292.24 74.45 315.64 C 59.52 320.01 46.10 332.09 43.31 347.84 C 40.75 360.10 45.11 372.20 48.00 383.98 C 52.86 402.30 57.91 420.56 63.23 438.75 C 76.90 487.51 90.99 536.16 104.76 584.90 C 116.02 625.29 127.52 665.61 138.95 705.96 C 140.83 712.47 142.25 719.27 145.81 725.14 C 150.26 732.92 157.35 739.48 166.04 742.08 C 173.89 744.57 182.28 743.31 189.98 740.92 C 228.02 729.74 266.00 718.35 304.08 707.32 C 313.06 726.94 322.90 746.16 332.14 765.67 C 336.15 774.73 345.10 781.70 355.09 782.46 C 362.12 782.94 368.68 779.83 374.83 776.82 C 422.65 754.01 470.38 731.01 518.17 708.13 C 556.53 690.02 594.55 671.19 632.92 653.10 C 648.16 659.48 666.11 656.45 679.85 647.84 C 689.77 641.93 697.00 632.11 700.27 621.08 C 778.82 586.18 857.25 550.97 935.45 515.29 C 940.44 512.96 945.82 510.51 948.91 505.72 C 951.79 501.45 951.98 495.89 950.47 491.09 C 949.12 485.32 944.58 481.23 941.47 476.42 C 932.52 463.88 924.61 450.64 916.05 437.84 C 907.86 425.40 899.99 412.74 891.63 400.42 C 851.82 339.87 811.99 279.34 772.42 218.63 C 761.57 202.71 751.64 186.18 740.54 170.44 C 737.73 166.35 732.08 164.67 727.45 166.38 C 721.45 168.37 715.44 170.34 709.41 172.23 C 706.19 167.30 703.06 162.27 699.11 157.88 C 695.89 154.25 690.74 152.98 686.05 153.62 C 676.85 154.80 667.88 157.25 658.91 159.53 M 952.53 556.64 C 943.69 559.47 935.76 564.49 927.19 567.98 C 890.44 585.59 853.66 603.15 816.83 620.61 C 760.06 647.50 703.58 674.99 646.76 701.79 C 643.21 703.35 639.90 705.46 637.20 708.25 C 621.90 723.23 606.60 738.22 591.47 753.37 C 589.10 754.98 589.73 759.46 592.99 759.19 C 616.40 756.78 639.68 753.17 662.99 749.97 C 670.23 747.22 677.11 743.51 684.14 740.23 C 724.45 721.18 764.61 701.80 804.85 682.60 C 849.03 661.71 892.92 640.21 937.12 619.36 C 948.23 614.22 959.38 609.10 969.99 602.98 C 974.15 600.56 977.40 596.71 979.28 592.29 C 984.29 581.51 980.31 567.93 970.99 560.82 C 965.95 556.53 958.92 555.00 952.53 556.64 M 975.03 816.07 C 962.60 849.91 938.77 880.40 906.52 897.27 C 886.75 907.66 864.28 912.70 841.97 912.15 C 820.96 911.35 800.29 906.11 780.95 898.02 C 760.95 889.57 741.92 879.10 722.36 869.73 C 695.93 856.74 667.53 846.75 637.96 844.73 C 606.12 842.53 573.13 850.97 547.50 870.31 C 537.99 860.04 525.81 852.48 512.85 847.34 C 491.04 838.75 466.84 837.82 443.89 841.61 C 410.75 846.82 380.10 861.16 349.89 875.06 C 312.47 892.74 273.38 908.38 232.08 913.71 C 194.98 918.51 156.12 911.22 124.00 891.82 C 97.24 875.58 75.39 851.33 62.24 822.90 C 60.69 820.29 60.10 817.06 58.06 814.80 C 56.10 813.63 54.43 815.26 53.45 816.82 C 59.97 834.38 70.33 850.41 82.56 864.53 C 105.04 890.33 135.82 908.64 169.14 916.31 C 193.28 922.01 218.57 922.04 242.97 917.91 C 259.04 915.54 274.59 910.76 290.04 905.91 C 308.71 899.71 326.90 892.15 344.74 883.89 C 358.16 877.49 371.70 871.35 385.41 865.61 C 401.41 858.59 417.99 852.76 435.11 849.17 C 456.29 844.36 478.70 843.47 499.78 849.20 C 515.95 853.52 531.36 861.69 542.88 873.98 C 533.90 881.52 525.66 891.12 523.25 902.90 C 521.65 910.56 523.08 919.47 529.11 924.93 C 534.17 929.97 542.06 932.21 548.85 929.60 C 557.55 926.75 562.92 917.79 563.47 908.95 C 564.72 896.42 558.89 884.55 551.36 874.94 C 563.15 865.97 576.67 859.27 590.93 855.25 C 620.03 846.83 651.35 849.78 679.95 858.79 C 722.89 871.88 759.68 899.68 802.98 911.79 C 824.32 918.07 847.10 919.58 869.06 915.93 C 886.78 913.24 903.69 906.35 918.86 896.90 C 945.35 879.76 965.80 853.97 977.76 824.87 C 978.78 821.92 980.77 819.08 980.61 815.87 C 979.78 815.06 978.92 814.30 978.05 813.59 C 976.90 814.20 975.31 814.56 975.03 816.07 Z" style="fill: none !important;"/>
<path fill="#000000" opacity="1.00" d=" M 658.91 159.53 C 667.88 157.25 676.85 154.80 686.05 153.62 C 690.74 152.98 695.89 154.25 699.11 157.88 C 703.06 162.27 706.19 167.30 709.41 172.23 C 715.44 170.34 721.45 168.37 727.45 166.38 C 732.08 164.67 737.73 166.35 740.54 170.44 C 751.64 186.18 761.57 202.71 772.42 218.63 C 811.99 279.34 851.82 339.87 891.63 400.42 C 899.99 412.74 907.86 425.40 916.05 437.84 C 924.61 450.64 932.52 463.88 941.47 476.42 C 944.58 481.23 949.12 485.32 950.47 491.09 C 951.98 495.89 951.79 501.45 948.91 505.72 C 945.82 510.51 940.44 512.96 935.45 515.29 C 857.25 550.97 778.82 586.18 700.27 621.08 C 697.00 632.11 689.77 641.93 679.85 647.84 C 666.11 656.45 648.16 659.48 632.92 653.10 C 594.55 671.19 556.53 690.02 518.17 708.13 C 470.38 731.01 422.65 754.01 374.83 776.82 C 368.68 779.83 362.12 782.94 355.09 782.46 C 345.10 781.70 336.15 774.73 332.14 765.67 C 322.90 746.16 313.06 726.94 304.08 707.32 C 266.00 718.35 228.02 729.74 189.98 740.92 C 182.28 743.31 173.89 744.57 166.04 742.08 C 157.35 739.48 150.26 732.92 145.81 725.14 C 142.25 719.27 140.83 712.47 138.95 705.96 C 127.52 665.61 116.02 625.29 104.76 584.90 C 90.99 536.16 76.90 487.51 63.23 438.75 C 57.91 420.56 52.86 402.30 48.00 383.98 C 45.11 372.20 40.75 360.10 43.31 347.84 C 46.10 332.09 59.52 320.01 74.45 315.64 C 153.92 292.24 233.45 269.07 312.89 245.58 C 321.11 242.82 330.62 240.99 338.67 245.26 C 345.49 248.60 349.34 255.67 351.59 262.61 C 354.46 271.45 356.66 280.50 359.39 289.38 C 384.32 279.99 411.29 275.16 437.93 278.11 C 452.02 279.67 465.93 283.32 478.89 289.11 C 488.51 272.93 500.46 258.13 514.62 245.69 C 541.69 221.61 574.91 205.27 609.45 194.91 C 609.03 190.33 609.26 185.51 611.33 181.32 C 613.33 177.38 617.11 174.74 620.97 172.82 C 633.01 166.84 645.97 163.02 658.91 159.53 M 668.89 163.13 C 653.56 166.74 638.31 171.10 624.01 177.78 C 631.90 182.92 635.86 191.77 640.19 199.76 C 658.48 235.78 676.19 272.10 694.11 308.31 C 699.72 293.33 704.94 278.19 710.43 263.16 C 710.91 261.37 713.15 260.30 714.83 261.24 C 730.01 267.45 745.12 273.83 760.26 280.12 C 749.38 258.38 738.04 236.86 726.75 215.33 C 717.97 198.97 709.33 182.45 698.87 167.09 C 696.33 163.39 693.15 158.63 687.99 159.27 C 681.54 160.08 675.18 161.51 668.89 163.13 M 715.78 182.87 C 734.57 216.42 751.97 250.74 769.43 285.00 C 770.73 287.48 767.36 290.06 765.13 288.59 C 748.53 281.40 731.72 274.71 715.06 267.66 C 709.28 283.72 703.52 299.78 697.79 315.85 C 697.26 317.15 696.57 318.88 694.88 318.80 C 691.42 318.88 690.95 314.68 689.56 312.36 C 670.94 275.11 652.91 237.58 633.93 200.51 C 610.34 206.44 586.96 213.92 565.42 225.38 C 534.05 241.60 505.91 265.60 488.48 296.64 C 519.67 353.03 551.07 409.31 582.00 465.83 C 606.01 509.54 630.08 553.22 654.48 596.72 C 659.93 576.84 671.39 559.17 685.07 543.97 C 706.23 521.05 733.61 504.59 762.56 493.42 C 781.73 486.06 801.82 481.48 821.91 477.47 C 852.46 471.50 883.89 467.39 912.40 454.18 C 893.87 425.58 875.10 397.13 856.32 368.69 C 814.59 305.06 772.95 241.37 731.27 177.71 C 726.14 179.56 720.84 180.87 715.78 182.87 M 615.01 193.45 C 619.39 192.39 623.73 191.12 628.15 190.18 C 625.55 186.81 622.58 182.94 618.14 182.16 C 614.84 184.59 615.29 189.71 615.01 193.45 M 318.24 250.17 C 238.49 273.75 158.63 296.95 78.89 320.53 C 68.45 323.34 58.25 329.25 52.94 338.99 C 47.87 347.42 47.61 357.79 49.88 367.14 C 55.48 391.29 62.73 415.01 69.38 438.89 C 82.67 486.39 96.51 533.74 109.80 581.25 C 122.19 625.50 134.86 669.67 147.35 713.89 C 149.90 723.05 156.37 731.12 164.88 735.42 C 171.44 738.63 179.17 738.01 185.97 735.92 C 224.40 724.71 262.79 713.39 301.16 701.98 C 278.24 654.29 255.03 606.74 232.00 559.11 C 213.19 519.66 193.75 480.52 174.89 441.11 C 170.80 432.76 168.92 421.29 175.93 413.94 C 181.06 408.11 188.59 405.61 195.53 402.70 C 198.15 401.41 201.49 400.27 202.43 397.18 C 204.28 391.47 205.32 385.53 206.82 379.73 C 207.46 377.16 209.17 374.84 211.56 373.66 C 224.39 367.32 237.33 361.13 249.52 353.58 C 284.22 332.80 316.11 306.92 353.80 291.45 C 350.93 281.85 348.39 272.16 345.23 262.66 C 343.56 257.36 340.28 252.07 334.86 250.01 C 329.57 247.66 323.60 248.55 318.24 250.17 M 372.42 297.58 C 342.98 307.06 316.58 323.71 291.22 341.03 C 268.50 356.10 245.54 371.06 220.65 382.35 C 271.73 486.00 323.47 589.31 373.66 693.40 C 385.21 687.95 396.52 681.99 407.46 675.40 C 422.88 665.73 437.63 655.04 452.61 644.71 C 480.82 624.82 509.81 604.84 542.93 594.06 C 565.08 586.67 588.96 583.91 612.10 587.50 C 622.02 589.40 631.75 592.42 640.92 596.66 C 633.42 585.54 627.86 573.29 621.19 561.69 C 573.58 475.36 525.79 389.13 478.21 302.78 C 477.68 301.27 476.20 300.66 474.85 300.10 C 465.59 296.30 456.04 293.09 446.16 291.43 C 421.57 286.60 396.06 289.90 372.42 297.58 M 210.21 409.44 C 243.81 477.45 276.77 545.78 310.13 613.91 C 327.41 649.05 344.27 684.40 361.75 719.43 C 362.54 714.20 363.71 709.05 364.49 703.83 C 365.01 702.20 363.88 700.84 363.26 699.47 C 359.03 691.32 355.18 682.98 351.14 674.73 C 319.95 610.72 288.47 546.84 256.89 483.01 C 242.45 454.30 228.64 425.25 213.91 396.68 C 212.92 401.00 211.78 405.28 210.21 409.44 M 183.63 423.83 C 182.07 427.75 184.15 431.93 185.65 435.54 C 238.51 544.91 291.68 654.13 344.65 763.43 C 347.42 767.90 352.66 770.83 357.95 770.56 C 362.51 769.97 366.60 767.68 370.71 765.77 C 442.75 731.07 514.86 696.53 586.94 661.92 C 601.72 654.99 616.16 647.35 631.14 640.87 C 633.77 639.43 636.18 641.76 638.56 642.63 C 648.48 646.54 659.90 644.89 669.25 640.15 C 677.97 635.96 685.56 628.57 688.35 619.13 C 689.25 616.63 689.37 613.30 692.12 612.04 C 699.75 608.16 707.68 604.90 715.47 601.37 C 787.42 569.16 859.32 536.83 931.06 504.14 C 934.04 502.62 937.96 501.49 939.16 497.98 C 940.08 495.17 938.21 492.63 936.67 490.48 C 932.58 484.99 929.19 479.01 925.07 473.55 C 925.79 478.86 927.73 483.97 930.71 488.43 C 932.86 491.55 932.24 496.86 928.41 498.36 C 834.68 542.33 740.08 584.43 646.15 627.98 C 553.02 670.27 459.84 712.45 366.70 754.74 C 363.31 756.04 359.92 758.53 356.12 757.70 C 352.08 756.69 350.75 752.27 348.93 749.05 C 332.47 715.87 316.38 682.51 299.69 649.45 C 263.74 577.25 227.97 504.95 192.35 432.59 C 188.61 426.71 194.48 421.04 196.09 415.48 C 191.72 417.81 185.85 418.85 183.63 423.83 M 207.58 416.97 C 206.39 420.62 204.88 424.15 203.46 427.71 C 210.67 442.15 217.59 456.74 224.98 471.09 C 229.91 481.13 234.55 491.33 239.83 501.20 C 278.60 580.07 318.12 658.57 356.98 737.40 C 357.83 734.55 358.59 731.68 359.35 728.81 C 354.69 718.46 349.55 708.35 344.60 698.15 C 309.40 625.50 273.64 553.14 238.51 480.47 C 228.23 459.28 217.49 438.33 207.58 416.97 M 784.41 498.57 C 766.54 503.55 749.43 511.09 733.52 520.62 C 706.28 536.28 682.54 559.38 669.84 588.45 C 672.82 584.53 675.29 580.26 678.31 576.36 C 698.11 549.40 726.77 529.58 758.15 518.41 C 778.87 510.60 800.51 505.62 822.10 500.89 C 842.04 496.52 861.84 491.41 881.29 485.21 C 892.71 481.60 903.57 476.51 914.13 470.91 C 914.13 469.25 914.15 467.61 914.19 465.97 C 873.08 484.37 827.15 485.69 784.41 498.57 M 881.11 491.29 C 844.86 503.75 806.44 508.17 770.14 520.44 C 742.77 528.81 716.73 542.99 696.72 563.68 C 684.84 575.90 674.45 589.84 667.54 605.47 C 671.58 601.78 674.31 596.93 678.09 592.99 C 691.98 577.32 708.66 564.16 727.03 554.11 C 758.42 537.18 793.40 529.02 827.03 517.85 C 844.36 512.41 861.30 505.78 878.11 498.90 C 890.71 493.78 902.91 487.73 915.34 482.21 C 915.12 480.53 914.92 478.85 914.74 477.18 C 904.07 483.06 892.63 487.40 881.11 491.29 M 916.76 487.88 C 886.55 502.03 855.74 515.09 823.78 524.78 C 790.65 535.76 756.04 543.75 725.64 561.51 C 708.66 571.35 693.33 584.08 680.48 598.92 C 736.10 573.88 791.52 548.39 847.00 523.02 C 870.74 512.21 894.30 501.00 918.12 490.35 C 917.65 489.51 917.21 488.69 916.76 487.88 M 560.83 601.49 C 542.09 605.55 524.36 613.37 507.71 622.76 C 477.08 640.03 449.63 662.19 420.12 681.20 C 405.70 690.20 390.87 698.66 375.19 705.28 C 374.88 707.10 374.56 708.91 374.26 710.74 C 382.09 708.10 389.65 704.73 397.06 701.09 C 430.20 685.23 460.10 663.74 490.83 643.83 C 506.48 633.75 522.48 623.99 539.76 616.93 C 555.80 610.54 572.78 606.44 589.99 605.00 C 607.86 603.52 625.95 605.69 643.12 610.80 C 637.16 607.87 631.08 605.11 624.75 603.10 C 604.23 596.07 581.76 596.65 560.83 601.49 M 563.94 615.14 C 546.35 619.39 529.80 627.06 514.23 636.17 C 481.81 655.55 451.46 678.24 418.39 696.55 C 403.74 704.51 388.86 712.37 372.81 717.10 C 372.11 720.68 371.40 724.26 370.63 727.83 C 413.15 710.57 452.97 687.55 492.63 664.64 C 509.08 655.14 525.74 645.93 543.06 638.09 C 574.36 624.07 608.60 615.53 643.05 616.71 C 617.51 608.73 589.83 608.80 563.94 615.14 M 578.87 630.95 C 545.03 640.80 514.36 658.63 484.06 676.18 C 447.49 697.13 410.67 718.04 371.41 733.62 C 367.64 734.39 368.15 739.06 366.74 741.86 C 378.84 736.22 390.98 730.68 403.14 725.16 C 439.20 708.90 475.10 692.26 511.26 676.21 C 550.80 658.29 590.33 640.34 629.83 622.33 C 612.59 623.30 595.49 626.31 578.87 630.95 Z" style="fill: rgb(0, 0, 0) !important;"/>
<path fill="#fefefe" opacity="1.00" d=" M 668.89 163.13 C 675.18 161.51 681.54 160.08 687.99 159.27 C 693.15 158.63 696.33 163.39 698.87 167.09 C 709.33 182.45 717.97 198.97 726.75 215.33 C 738.04 236.86 749.38 258.38 760.26 280.12 C 745.12 273.83 730.01 267.45 714.83 261.24 C 713.15 260.30 710.91 261.37 710.43 263.16 C 704.94 278.19 699.72 293.33 694.11 308.31 C 676.19 272.10 658.48 235.78 640.19 199.76 C 635.86 191.77 631.90 182.92 624.01 177.78 C 638.31 171.10 653.56 166.74 668.89 163.13 M 673.27 189.05 C 672.95 194.34 672.87 199.65 672.63 204.95 C 668.14 207.75 663.40 210.12 658.99 213.03 C 657.05 214.27 657.60 217.61 659.88 218.09 C 664.70 219.99 669.57 221.79 674.37 223.77 C 675.54 228.81 676.29 233.94 677.56 238.96 C 677.89 241.16 681.11 242.14 682.57 240.38 C 686.15 236.43 689.19 232.00 692.80 228.06 C 697.88 228.54 702.94 229.26 708.04 229.64 C 710.33 230.18 712.20 227.08 710.81 225.25 C 708.10 220.81 705.06 216.59 702.30 212.19 C 704.11 207.37 706.32 202.70 708.26 197.93 C 709.18 195.98 707.05 193.35 704.98 194.04 C 699.97 195.27 695.02 196.70 690.02 197.93 C 685.80 194.49 681.93 190.65 677.62 187.33 C 676.16 186.05 673.42 187.11 673.27 189.05 Z" style="fill: none !important;"/>
<path fill="#fefefe" opacity="1.00" d=" M 715.78 182.87 C 720.84 180.87 726.14 179.56 731.27 177.71 C 772.95 241.37 814.59 305.06 856.32 368.69 C 875.10 397.13 893.87 425.58 912.40 454.18 C 883.89 467.39 852.46 471.50 821.91 477.47 C 801.82 481.48 781.73 486.06 762.56 493.42 C 733.61 504.59 706.23 521.05 685.07 543.97 C 671.39 559.17 659.93 576.84 654.48 596.72 C 630.08 553.22 606.01 509.54 582.00 465.83 C 551.07 409.31 519.67 353.03 488.48 296.64 C 505.91 265.60 534.05 241.60 565.42 225.38 C 586.96 213.92 610.34 206.44 633.93 200.51 C 652.91 237.58 670.94 275.11 689.56 312.36 C 690.95 314.68 691.42 318.88 694.88 318.80 C 696.57 318.88 697.26 317.15 697.79 315.85 C 703.52 299.78 709.28 283.72 715.06 267.66 C 731.72 274.71 748.53 281.40 765.13 288.59 C 767.36 290.06 770.73 287.48 769.43 285.00 C 751.97 250.74 734.57 216.42 715.78 182.87 M 640.41 252.43 C 633.00 257.22 623.21 254.92 615.77 259.78 C 610.62 262.63 608.64 268.58 604.35 272.29 C 600.52 275.25 595.89 272.46 591.93 271.36 C 587.77 269.90 582.58 270.00 579.43 273.47 C 574.32 278.09 574.85 285.71 571.08 291.09 C 569.14 293.93 565.61 292.20 562.95 291.72 C 557.13 290.23 551.05 292.79 547.09 297.08 C 541.28 303.24 538.02 311.32 535.39 319.24 C 533.90 322.32 539.17 324.73 540.56 321.66 C 543.14 314.66 545.69 307.38 550.66 301.65 C 553.20 298.68 557.09 296.57 561.09 297.23 C 564.97 297.80 569.24 299.37 572.87 297.03 C 577.93 294.12 578.91 287.90 580.60 282.82 C 581.51 279.85 583.41 276.08 587.06 276.27 C 593.03 276.73 598.78 281.17 604.86 278.61 C 610.79 276.50 612.81 270.02 616.97 265.93 C 623.56 260.52 632.80 262.75 640.16 259.20 C 642.18 258.21 644.69 257.33 645.54 255.02 C 646.12 252.13 642.39 250.28 640.41 252.43 M 663.35 300.40 C 658.53 305.07 652.98 309.19 646.50 311.22 C 639.88 313.45 632.79 311.83 626.00 313.01 C 619.78 313.72 613.76 317.04 610.42 322.43 C 607.39 326.79 606.23 332.07 603.75 336.71 C 602.65 338.86 600.57 340.84 597.99 340.69 C 594.27 340.37 590.66 338.77 586.89 339.43 C 580.29 340.33 575.04 345.26 571.79 350.82 C 568.10 357.26 565.86 364.63 565.63 372.07 C 565.80 375.02 570.97 375.26 570.97 372.12 C 572.36 362.91 575.06 352.69 582.98 346.93 C 589.52 342.11 597.96 349.12 604.55 344.48 C 612.10 339.14 611.15 327.99 618.32 322.29 C 623.47 317.85 630.68 318.20 637.05 318.26 C 647.94 318.59 658.32 313.32 666.00 305.86 C 666.71 305.02 667.80 304.21 667.77 302.99 C 668.07 300.80 665.09 298.76 663.35 300.40 M 783.36 315.40 C 777.12 321.63 770.35 327.39 762.57 331.63 C 744.60 342.23 723.49 345.17 703.08 347.16 C 693.03 348.11 682.89 348.87 673.10 351.43 C 662.36 354.33 652.16 360.36 645.73 369.61 C 641.85 374.46 639.36 380.51 634.43 384.46 C 630.80 387.37 626.05 385.15 621.95 385.08 C 614.64 384.37 607.49 388.44 603.67 394.57 C 598.75 402.35 595.29 411.09 593.50 420.12 C 592.56 423.09 597.44 424.69 598.59 421.92 C 599.93 417.75 600.95 413.47 602.63 409.41 C 605.39 402.86 608.31 395.33 615.01 391.90 C 621.73 388.43 629.53 394.17 636.07 390.05 C 641.24 387.27 644.15 382.00 647.25 377.27 C 651.41 370.93 656.64 365.05 663.41 361.43 C 671.81 356.70 681.51 355.28 690.95 354.19 C 709.52 352.26 728.39 350.91 746.27 345.18 C 761.49 339.97 775.90 331.65 786.89 319.79 C 789.07 317.72 785.86 313.48 783.36 315.40 M 812.24 358.27 C 809.96 360.98 808.26 364.16 805.71 366.65 C 799.97 372.48 792.34 377.07 783.98 377.29 C 775.87 377.55 768.09 373.35 759.96 374.87 C 754.53 375.86 750.38 379.99 747.52 384.48 C 744.87 388.32 741.96 392.99 736.87 393.59 C 729.98 394.12 723.87 388.90 716.89 390.25 C 710.61 391.18 706.66 396.70 703.78 401.85 C 701.14 406.70 696.50 410.81 690.80 411.24 C 681.92 411.73 672.72 411.85 664.50 415.66 C 646.87 423.49 633.65 438.84 624.72 455.58 C 623.29 458.73 621.19 461.67 620.49 465.08 C 619.99 467.80 624.90 469.28 625.77 466.52 C 629.13 458.99 633.17 451.74 638.14 445.14 C 647.21 433.18 659.10 422.08 674.15 418.68 C 683.35 416.32 694.10 419.23 702.04 412.82 C 708.00 408.92 709.24 400.93 715.11 396.99 C 719.23 394.33 724.10 396.67 728.28 397.90 C 733.75 399.77 740.36 399.93 745.07 396.11 C 750.92 391.96 752.93 383.75 759.78 380.86 C 767.21 378.69 774.50 382.93 781.96 382.90 C 796.47 383.47 809.56 373.72 816.54 361.55 C 817.47 359.22 814.26 356.57 812.24 358.27 M 842.38 404.32 C 826.57 417.41 806.64 423.86 786.87 428.09 C 763.93 433.20 740.53 437.42 718.93 447.04 C 689.58 459.53 664.10 480.97 646.82 507.78 C 644.69 510.19 648.38 513.87 650.77 511.81 C 655.35 505.42 660.02 499.07 665.21 493.14 C 686.85 468.02 716.85 450.98 748.79 442.76 C 768.71 437.23 789.31 434.46 809.03 428.15 C 822.38 424.14 835.09 417.66 845.75 408.63 C 847.83 406.71 844.81 402.86 842.38 404.32 Z" style="fill: none !important;"/>
<path fill="#fefffe" opacity="1.00" d=" M 615.01 193.45 C 615.29 189.71 614.84 184.59 618.14 182.16 C 622.58 182.94 625.55 186.81 628.15 190.18 C 623.73 191.12 619.39 192.39 615.01 193.45 Z" style="fill: none !important;"/>
<path fill="#000000" opacity="1.00" d=" M 673.27 189.05 C 673.42 187.11 676.16 186.05 677.62 187.33 C 681.93 190.65 685.80 194.49 690.02 197.93 C 695.02 196.70 699.97 195.27 704.98 194.04 C 707.05 193.35 709.18 195.98 708.26 197.93 C 706.32 202.70 704.11 207.37 702.30 212.19 C 705.06 216.59 708.10 220.81 710.81 225.25 C 712.20 227.08 710.33 230.18 708.04 229.64 C 702.94 229.26 697.88 228.54 692.80 228.06 C 689.19 232.00 686.15 236.43 682.57 240.38 C 681.11 242.14 677.89 241.16 677.56 238.96 C 676.29 233.94 675.54 228.81 674.37 223.77 C 669.57 221.79 664.70 219.99 659.88 218.09 C 657.60 217.61 657.05 214.27 658.99 213.03 C 663.40 210.12 668.14 207.75 672.63 204.95 C 672.87 199.65 672.95 194.34 673.27 189.05 M 678.82 196.06 C 678.53 200.06 678.72 204.11 678.05 208.07 C 675.11 211.01 671.00 212.45 667.60 214.81 C 671.47 216.44 675.66 217.55 679.18 219.91 C 680.88 223.49 680.84 227.65 681.99 231.43 C 685.07 228.40 687.35 224.40 691.01 222.05 C 694.87 222.09 698.67 222.88 702.51 223.22 C 700.28 219.78 697.92 216.43 695.78 212.93 C 697.00 208.93 698.90 205.18 700.46 201.31 C 697.45 202.04 694.46 202.84 691.48 203.64 C 690.14 203.91 688.61 204.63 687.46 203.53 C 684.42 201.23 681.77 198.47 678.82 196.06 Z" style="fill: rgb(0, 0, 0) !important;"/>
<path fill="#fefefe" opacity="1.00" d=" M 678.82 196.06 C 681.77 198.47 684.42 201.23 687.46 203.53 C 688.61 204.63 690.14 203.91 691.48 203.64 C 694.46 202.84 697.45 202.04 700.46 201.31 C 698.90 205.18 697.00 208.93 695.78 212.93 C 697.92 216.43 700.28 219.78 702.51 223.22 C 698.67 222.88 694.87 222.09 691.01 222.05 C 687.35 224.40 685.07 228.40 681.99 231.43 C 680.84 227.65 680.88 223.49 679.18 219.91 C 675.66 217.55 671.47 216.44 667.60 214.81 C 671.00 212.45 675.11 211.01 678.05 208.07 C 678.72 204.11 678.53 200.06 678.82 196.06 Z" style="fill: none !important;"/>
<path fill="#fefefe" opacity="1.00" d=" M 318.24 250.17 C 323.60 248.55 329.57 247.66 334.86 250.01 C 340.28 252.07 343.56 257.36 345.23 262.66 C 348.39 272.16 350.93 281.85 353.80 291.45 C 316.11 306.92 284.22 332.80 249.52 353.58 C 237.33 361.13 224.39 367.32 211.56 373.66 C 209.17 374.84 207.46 377.16 206.82 379.73 C 205.32 385.53 204.28 391.47 202.43 397.18 C 201.49 400.27 198.15 401.41 195.53 402.70 C 188.59 405.61 181.06 408.11 175.93 413.94 C 168.92 421.29 170.80 432.76 174.89 441.11 C 193.75 480.52 213.19 519.66 232.00 559.11 C 255.03 606.74 278.24 654.29 301.16 701.98 C 262.79 713.39 224.40 724.71 185.97 735.92 C 179.17 738.01 171.44 738.63 164.88 735.42 C 156.37 731.12 149.90 723.05 147.35 713.89 C 134.86 669.67 122.19 625.50 109.80 581.25 C 96.51 533.74 82.67 486.39 69.38 438.89 C 62.73 415.01 55.48 391.29 49.88 367.14 C 47.61 357.79 47.87 347.42 52.94 338.99 C 58.25 329.25 68.45 323.34 78.89 320.53 C 158.63 296.95 238.49 273.75 318.24 250.17 M 141.81 373.82 C 138.95 380.74 136.89 387.97 134.16 394.94 C 120.18 399.03 106.28 403.41 92.33 407.60 C 90.33 407.96 88.43 409.66 89.43 411.85 C 93.44 427.22 98.46 442.31 102.59 457.66 C 102.90 459.69 105.12 461.00 107.04 460.09 C 122.25 455.65 137.43 451.11 152.54 446.39 C 155.10 445.75 154.95 442.65 154.13 440.72 C 149.23 425.55 145.77 409.94 140.50 394.90 C 142.61 388.56 145.00 382.31 147.02 375.94 C 148.01 373.03 143.25 371.27 141.81 373.82 M 165.78 457.67 C 163.29 464.36 161.18 471.19 158.65 477.87 C 144.65 482.74 130.21 486.28 116.10 490.82 C 114.19 491.13 112.99 493.08 113.71 494.92 C 117.71 509.90 122.17 524.76 126.54 539.63 C 126.94 541.71 128.59 544.21 131.05 543.03 C 145.46 539.04 159.76 534.62 174.10 530.38 C 175.94 529.61 178.76 529.52 179.22 527.11 C 178.75 523.84 177.46 520.76 176.58 517.60 C 172.45 504.38 168.94 490.98 164.66 477.82 C 166.80 471.55 169.38 465.43 171.18 459.06 C 172.09 455.83 166.63 454.57 165.78 457.67 M 184.53 560.66 C 169.76 565.26 154.81 569.25 140.06 573.88 C 137.79 574.41 137.82 577.07 138.50 578.83 C 142.57 592.97 146.63 607.11 150.76 621.23 C 151.34 623.22 152.33 626.49 155.07 625.75 C 170.69 621.29 186.30 616.74 201.77 611.78 C 203.96 611.20 203.79 608.71 203.05 607.05 C 198.94 593.41 194.92 579.74 191.01 566.03 C 190.45 564.30 190.08 562.45 189.05 560.93 C 187.85 559.62 185.98 560.28 184.53 560.66 Z" style="fill: none !important;"/>
<path fill="#000000" opacity="1.00" d=" M 640.41 252.43 C 642.39 250.28 646.12 252.13 645.54 255.02 C 644.69 257.33 642.18 258.21 640.16 259.20 C 632.80 262.75 623.56 260.52 616.97 265.93 C 612.81 270.02 610.79 276.50 604.86 278.61 C 598.78 281.17 593.03 276.73 587.06 276.27 C 583.41 276.08 581.51 279.85 580.60 282.82 C 578.91 287.90 577.93 294.12 572.87 297.03 C 569.24 299.37 564.97 297.80 561.09 297.23 C 557.09 296.57 553.20 298.68 550.66 301.65 C 545.69 307.38 543.14 314.66 540.56 321.66 C 539.17 324.73 533.90 322.32 535.39 319.24 C 538.02 311.32 541.28 303.24 547.09 297.08 C 551.05 292.79 557.13 290.23 562.95 291.72 C 565.61 292.20 569.14 293.93 571.08 291.09 C 574.85 285.71 574.32 278.09 579.43 273.47 C 582.58 270.00 587.77 269.90 591.93 271.36 C 595.89 272.46 600.52 275.25 604.35 272.29 C 608.64 268.58 610.62 262.63 615.77 259.78 C 623.21 254.92 633.00 257.22 640.41 252.43 Z" style="fill: rgb(0, 0, 0) !important;"/>
<path fill="#fefefe" opacity="1.00" d=" M 372.42 297.58 C 396.06 289.90 421.57 286.60 446.16 291.43 C 456.04 293.09 465.59 296.30 474.85 300.10 C 476.20 300.66 477.68 301.27 478.21 302.78 C 525.79 389.13 573.58 475.36 621.19 561.69 C 627.86 573.29 633.42 585.54 640.92 596.66 C 631.75 592.42 622.02 589.40 612.10 587.50 C 588.96 583.91 565.08 586.67 542.93 594.06 C 509.81 604.84 480.82 624.82 452.61 644.71 C 437.63 655.04 422.88 665.73 407.46 675.40 C 396.52 681.99 385.21 687.95 373.66 693.40 C 323.47 589.31 271.73 486.00 220.65 382.35 C 245.54 371.06 268.50 356.10 291.22 341.03 C 316.58 323.71 342.98 307.06 372.42 297.58 M 419.60 334.76 C 401.61 337.49 384.18 344.53 370.07 356.14 C 362.19 361.95 356.24 370.85 346.44 373.65 C 341.53 375.24 336.79 372.52 331.98 371.92 C 327.42 371.09 322.33 372.64 319.50 376.41 C 315.02 382.18 315.45 390.25 311.05 396.05 C 307.88 399.41 303.00 397.64 299.15 396.79 C 293.18 395.23 286.19 395.19 281.20 399.31 C 275.36 404.07 273.46 411.87 272.87 419.05 C 272.85 420.80 272.21 423.02 273.86 424.28 C 275.56 425.39 278.51 424.31 278.31 422.02 C 278.78 415.79 279.34 408.55 284.42 404.20 C 288.53 400.60 294.43 401.54 299.27 402.83 C 304.37 404.04 310.66 404.79 314.75 400.78 C 319.91 395.48 320.04 387.56 323.26 381.23 C 324.62 378.46 327.88 376.87 330.91 377.53 C 335.93 378.49 340.96 380.60 346.17 379.50 C 354.39 378.02 360.79 372.16 366.70 366.67 C 377.06 356.94 389.26 348.90 402.90 344.64 C 422.82 338.08 445.07 337.00 464.97 344.20 C 466.36 344.97 468.35 344.49 468.93 342.93 C 470.03 341.11 468.33 339.11 466.58 338.65 C 451.64 333.19 435.25 332.35 419.60 334.76 M 459.09 380.10 C 444.04 381.60 429.26 386.23 416.24 393.95 C 409.71 397.71 402.92 402.16 395.07 401.86 C 388.53 401.58 381.52 400.39 375.48 403.66 C 366.83 407.95 363.57 417.67 357.80 424.76 C 353.09 431.02 346.22 435.40 338.80 437.76 C 328.68 441.08 318.10 443.82 309.27 450.02 C 303.47 453.98 298.14 459.32 296.13 466.22 C 295.53 468.78 299.89 470.97 301.14 468.18 C 303.28 464.16 305.59 460.11 309.25 457.26 C 318.32 449.73 330.07 446.86 340.98 443.06 C 347.92 440.67 354.64 437.07 359.55 431.51 C 364.14 426.58 367.46 420.69 371.18 415.11 C 373.65 411.35 377.35 408.10 381.92 407.37 C 388.26 406.39 394.69 408.26 401.01 406.94 C 411.28 405.02 419.20 397.63 428.74 393.88 C 448.02 385.66 470.43 382.30 490.55 389.56 C 492.86 390.44 495.20 387.31 494.01 385.24 C 493.28 384.18 492.02 383.75 490.88 383.37 C 480.62 380.28 469.76 379.00 459.09 380.10 M 511.51 424.72 C 503.77 429.09 494.58 429.62 485.94 428.40 C 475.39 426.93 464.40 424.38 453.92 427.60 C 445.04 430.01 438.35 436.69 432.15 443.10 C 428.34 446.93 424.41 451.27 418.96 452.60 C 411.89 454.12 405.15 449.55 398.08 451.00 C 393.08 451.79 389.11 455.62 387.06 460.10 C 384.86 464.24 384.06 469.31 380.49 472.59 C 377.70 474.93 373.92 473.46 370.85 472.59 C 366.21 471.07 360.33 470.86 356.72 474.68 C 352.48 479.12 352.45 485.69 350.06 491.06 C 348.87 493.65 345.57 494.39 343.08 493.36 C 338.20 491.90 332.27 490.26 327.86 493.78 C 321.79 498.47 320.47 506.83 320.81 514.04 C 321.51 516.68 325.87 516.06 326.22 513.57 C 326.69 509.31 326.53 504.74 328.87 500.97 C 330.02 498.76 332.44 497.26 334.97 497.52 C 339.92 497.98 344.91 500.93 349.87 498.88 C 354.64 497.01 356.41 491.65 357.46 487.08 C 358.39 483.80 358.81 479.67 362.09 477.83 C 366.14 476.40 370.17 478.78 374.16 479.38 C 377.83 480.25 381.82 479.24 384.60 476.70 C 390.26 471.89 389.94 463.27 395.39 458.33 C 399.26 455.17 404.44 456.75 408.82 457.69 C 414.30 459.06 420.48 459.31 425.48 456.26 C 435.71 450.15 441.50 438.28 453.00 434.01 C 463.29 429.83 474.45 432.57 484.98 434.10 C 495.60 435.68 507.50 434.86 516.32 428.20 C 518.12 425.10 514.00 422.17 511.51 424.72 M 498.47 470.85 C 477.06 473.22 456.64 483.18 441.56 498.55 C 436.32 503.80 430.83 510.16 422.85 510.59 C 416.28 510.74 408.95 508.94 403.14 513.02 C 395.17 517.72 394.19 528.56 386.18 533.20 C 379.66 537.42 371.45 534.97 364.42 537.59 C 355.09 540.75 348.63 549.25 345.25 558.18 C 343.95 560.91 348.19 563.12 349.89 560.79 C 351.54 558.10 352.59 555.05 354.54 552.52 C 358.43 546.15 365.50 541.94 373.01 541.85 C 380.65 541.95 388.89 540.06 394.15 534.12 C 399.09 529.46 400.22 521.85 406.03 518.01 C 411.08 514.67 417.33 516.67 422.95 516.41 C 428.86 516.42 434.31 513.44 438.50 509.43 C 445.52 502.83 452.13 495.62 460.42 490.53 C 483.49 475.62 512.76 472.23 539.22 478.54 C 541.48 479.26 543.67 475.95 542.17 474.13 C 541.50 472.97 540.01 472.90 538.87 472.56 C 525.61 469.82 511.90 469.15 498.47 470.85 M 530.51 515.83 C 519.69 517.03 509.02 519.45 498.70 522.87 C 480.87 529.25 463.48 536.87 446.77 545.81 C 439.25 549.89 431.93 554.81 426.70 561.72 C 423.10 566.21 420.36 571.32 416.81 575.85 C 413.82 579.65 408.74 581.28 404.03 580.61 C 397.13 579.78 389.74 579.81 383.58 583.46 C 375.46 588.08 370.43 596.92 368.84 605.95 C 367.96 608.56 371.85 610.57 373.58 608.49 C 374.83 606.57 374.96 604.15 375.83 602.06 C 378.05 595.34 383.01 589.21 389.88 586.94 C 395.76 584.86 401.98 586.79 408.01 586.40 C 413.71 586.08 419.02 582.91 422.29 578.27 C 426.56 572.28 430.09 565.66 435.54 560.60 C 442.05 554.28 450.46 550.55 458.39 546.39 C 467.39 541.68 476.70 537.62 486.16 533.92 C 496.61 529.90 507.09 525.72 518.12 523.55 C 533.18 520.46 549.24 519.26 564.01 524.31 C 567.00 525.63 569.18 520.11 565.86 519.19 C 554.69 514.80 542.31 514.62 530.51 515.83 Z" style="fill: none !important;"/>
<path fill="#000000" opacity="1.00" d=" M 663.35 300.40 C 665.09 298.76 668.07 300.80 667.77 302.99 C 667.80 304.21 666.71 305.02 666.00 305.86 C 658.32 313.32 647.94 318.59 637.05 318.26 C 630.68 318.20 623.47 317.85 618.32 322.29 C 611.15 327.99 612.10 339.14 604.55 344.48 C 597.96 349.12 589.52 342.11 582.98 346.93 C 575.06 352.69 572.36 362.91 570.97 372.12 C 570.97 375.26 565.80 375.02 565.63 372.07 C 565.86 364.63 568.10 357.26 571.79 350.82 C 575.04 345.26 580.29 340.33 586.89 339.43 C 590.66 338.77 594.27 340.37 597.99 340.69 C 600.57 340.84 602.65 338.86 603.75 336.71 C 606.23 332.07 607.39 326.79 610.42 322.43 C 613.76 317.04 619.78 313.72 626.00 313.01 C 632.79 311.83 639.88 313.45 646.50 311.22 C 652.98 309.19 658.53 305.07 663.35 300.40 Z" style="fill: rgb(0, 0, 0) !important;"/>
<path fill="#000000" opacity="1.00" d=" M 783.36 315.40 C 785.86 313.48 789.07 317.72 786.89 319.79 C 775.90 331.65 761.49 339.97 746.27 345.18 C 728.39 350.91 709.52 352.26 690.95 354.19 C 681.51 355.28 671.81 356.70 663.41 361.43 C 656.64 365.05 651.41 370.93 647.25 377.27 C 644.15 382.00 641.24 387.27 636.07 390.05 C 629.53 394.17 621.73 388.43 615.01 391.90 C 608.31 395.33 605.39 402.86 602.63 409.41 C 600.95 413.47 599.93 417.75 598.59 421.92 C 597.44 424.69 592.56 423.09 593.50 420.12 C 595.29 411.09 598.75 402.35 603.67 394.57 C 607.49 388.44 614.64 384.37 621.95 385.08 C 626.05 385.15 630.80 387.37 634.43 384.46 C 639.36 380.51 641.85 374.46 645.73 369.61 C 652.16 360.36 662.36 354.33 673.10 351.43 C 682.89 348.87 693.03 348.11 703.08 347.16 C 723.49 345.17 744.60 342.23 762.57 331.63 C 770.35 327.39 777.12 321.63 783.36 315.40 Z" style="fill: rgb(0, 0, 0) !important;"/>
<path fill="#000000" opacity="1.00" d=" M 419.60 334.76 C 435.25 332.35 451.64 333.19 466.58 338.65 C 468.33 339.11 470.03 341.11 468.93 342.93 C 468.35 344.49 466.36 344.97 464.97 344.20 C 445.07 337.00 422.82 338.08 402.90 344.64 C 389.26 348.90 377.06 356.94 366.70 366.67 C 360.79 372.16 354.39 378.02 346.17 379.50 C 340.96 380.60 335.93 378.49 330.91 377.53 C 327.88 376.87 324.62 378.46 323.26 381.23 C 320.04 387.56 319.91 395.48 314.75 400.78 C 310.66 404.79 304.37 404.04 299.27 402.83 C 294.43 401.54 288.53 400.60 284.42 404.20 C 279.34 408.55 278.78 415.79 278.31 422.02 C 278.51 424.31 275.56 425.39 273.86 424.28 C 272.21 423.02 272.85 420.80 272.87 419.05 C 273.46 411.87 275.36 404.07 281.20 399.31 C 286.19 395.19 293.18 395.23 299.15 396.79 C 303.00 397.64 307.88 399.41 311.05 396.05 C 315.45 390.25 315.02 382.18 319.50 376.41 C 322.33 372.64 327.42 371.09 331.98 371.92 C 336.79 372.52 341.53 375.24 346.44 373.65 C 356.24 370.85 362.19 361.95 370.07 356.14 C 384.18 344.53 401.61 337.49 419.60 334.76 Z" style="fill: rgb(0, 0, 0) !important;"/>
<path fill="#000000" opacity="1.00" d=" M 812.24 358.27 C 814.26 356.57 817.47 359.22 816.54 361.55 C 809.56 373.72 796.47 383.47 781.96 382.90 C 774.50 382.93 767.21 378.69 759.78 380.86 C 752.93 383.75 750.92 391.96 745.07 396.11 C 740.36 399.93 733.75 399.77 728.28 397.90 C 724.10 396.67 719.23 394.33 715.11 396.99 C 709.24 400.93 708.00 408.92 702.04 412.82 C 694.10 419.23 683.35 416.32 674.15 418.68 C 659.10 422.08 647.21 433.18 638.14 445.14 C 633.17 451.74 629.13 458.99 625.77 466.52 C 624.90 469.28 619.99 467.80 620.49 465.08 C 621.19 461.67 623.29 458.73 624.72 455.58 C 633.65 438.84 646.87 423.49 664.50 415.66 C 672.72 411.85 681.92 411.73 690.80 411.24 C 696.50 410.81 701.14 406.70 703.78 401.85 C 706.66 396.70 710.61 391.18 716.89 390.25 C 723.87 388.90 729.98 394.12 736.87 393.59 C 741.96 392.99 744.87 388.32 747.52 384.48 C 750.38 379.99 754.53 375.86 759.96 374.87 C 768.09 373.35 775.87 377.55 783.98 377.29 C 792.34 377.07 799.97 372.48 805.71 366.65 C 808.26 364.16 809.96 360.98 812.24 358.27 Z" style="fill: rgb(0, 0, 0) !important;"/>
<path fill="#000000" opacity="1.00" d=" M 141.81 373.82 C 143.25 371.27 148.01 373.03 147.02 375.94 C 145.00 382.31 142.61 388.56 140.50 394.90 C 145.77 409.94 149.23 425.55 154.13 440.72 C 154.95 442.65 155.10 445.75 152.54 446.39 C 137.43 451.11 122.25 455.65 107.04 460.09 C 105.12 461.00 102.90 459.69 102.59 457.66 C 98.46 442.31 93.44 427.22 89.43 411.85 C 88.43 409.66 90.33 407.96 92.33 407.60 C 106.28 403.41 120.18 399.03 134.16 394.94 C 136.89 387.97 138.95 380.74 141.81 373.82 M 95.73 412.71 C 99.52 426.46 103.71 440.10 107.63 453.81 C 121.21 450.15 134.49 445.47 148.09 441.89 C 144.82 429.16 140.70 416.66 137.32 403.96 C 133.64 415.39 130.17 426.91 126.16 438.23 C 125.60 440.30 122.90 441.40 121.32 439.67 C 115.73 434.93 110.24 430.05 104.78 425.18 C 102.35 422.94 106.34 418.84 108.71 421.14 C 113.31 424.71 117.68 428.60 121.93 432.58 C 125.12 422.24 128.69 412.02 131.90 401.69 C 119.86 405.42 107.71 408.79 95.73 412.71 Z" style="fill: rgb(0, 0, 0) !important;"/>
<path fill="#000000" opacity="1.00" d=" M 459.09 380.10 C 469.76 379.00 480.62 380.28 490.88 383.37 C 492.02 383.75 493.28 384.18 494.01 385.24 C 495.20 387.31 492.86 390.44 490.55 389.56 C 470.43 382.30 448.02 385.66 428.74 393.88 C 419.20 397.63 411.28 405.02 401.01 406.94 C 394.69 408.26 388.26 406.39 381.92 407.37 C 377.35 408.10 373.65 411.35 371.18 415.11 C 367.46 420.69 364.14 426.58 359.55 431.51 C 354.64 437.07 347.92 440.67 340.98 443.06 C 330.07 446.86 318.32 449.73 309.25 457.26 C 305.59 460.11 303.28 464.16 301.14 468.18 C 299.89 470.97 295.53 468.78 296.13 466.22 C 298.14 459.32 303.47 453.98 309.27 450.02 C 318.10 443.82 328.68 441.08 338.80 437.76 C 346.22 435.40 353.09 431.02 357.80 424.76 C 363.57 417.67 366.83 407.95 375.48 403.66 C 381.52 400.39 388.53 401.58 395.07 401.86 C 402.92 402.16 409.71 397.71 416.24 393.95 C 429.26 386.23 444.04 381.60 459.09 380.10 Z" style="fill: rgb(0, 0, 0) !important;"/>
<path fill="#fefefe" opacity="1.00" d=" M 210.21 409.44 C 211.78 405.28 212.92 401.00 213.91 396.68 C 228.64 425.25 242.45 454.30 256.89 483.01 C 288.47 546.84 319.95 610.72 351.14 674.73 C 355.18 682.98 359.03 691.32 363.26 699.47 C 363.88 700.84 365.01 702.20 364.49 703.83 C 363.71 709.05 362.54 714.20 361.75 719.43 C 344.27 684.40 327.41 649.05 310.13 613.91 C 276.77 545.78 243.81 477.45 210.21 409.44 Z" style="fill: none !important;"/>
<path fill="#fefffe" opacity="1.00" d=" M 95.73 412.71 C 107.71 408.79 119.86 405.42 131.90 401.69 C 128.69 412.02 125.12 422.24 121.93 432.58 C 117.68 428.60 113.31 424.71 108.71 421.14 C 106.34 418.84 102.35 422.94 104.78 425.18 C 110.24 430.05 115.73 434.93 121.32 439.67 C 122.90 441.40 125.60 440.30 126.16 438.23 C 130.17 426.91 133.64 415.39 137.32 403.96 C 140.70 416.66 144.82 429.16 148.09 441.89 C 134.49 445.47 121.21 450.15 107.63 453.81 C 103.71 440.10 99.52 426.46 95.73 412.71 Z" style="fill: none !important;"/>
<path fill="#000000" opacity="1.00" d=" M 842.38 404.32 C 844.81 402.86 847.83 406.71 845.75 408.63 C 835.09 417.66 822.38 424.14 809.03 428.15 C 789.31 434.46 768.71 437.23 748.79 442.76 C 716.85 450.98 686.85 468.02 665.21 493.14 C 660.02 499.07 655.35 505.42 650.77 511.81 C 648.38 513.87 644.69 510.19 646.82 507.78 C 664.10 480.97 689.58 459.53 718.93 447.04 C 740.53 437.42 763.93 433.20 786.87 428.09 C 806.64 423.86 826.57 417.41 842.38 404.32 Z" style="fill: rgb(0, 0, 0) !important;"/>
<path fill="#fefefe" opacity="1.00" d=" M 183.63 423.83 C 185.85 418.85 191.72 417.81 196.09 415.48 C 194.48 421.04 188.61 426.71 192.35 432.59 C 227.97 504.95 263.74 577.25 299.69 649.45 C 316.38 682.51 332.47 715.87 348.93 749.05 C 350.75 752.27 352.08 756.69 356.12 757.70 C 359.92 758.53 363.31 756.04 366.70 754.74 C 459.84 712.45 553.02 670.27 646.15 627.98 C 740.08 584.43 834.68 542.33 928.41 498.36 C 932.24 496.86 932.86 491.55 930.71 488.43 C 927.73 483.97 925.79 478.86 925.07 473.55 C 929.19 479.01 932.58 484.99 936.67 490.48 C 938.21 492.63 940.08 495.17 939.16 497.98 C 937.96 501.49 934.04 502.62 931.06 504.14 C 859.32 536.83 787.42 569.16 715.47 601.37 C 707.68 604.90 699.75 608.16 692.12 612.04 C 689.37 613.30 689.25 616.63 688.35 619.13 C 685.56 628.57 677.97 635.96 669.25 640.15 C 659.90 644.89 648.48 646.54 638.56 642.63 C 636.18 641.76 633.77 639.43 631.14 640.87 C 616.16 647.35 601.72 654.99 586.94 661.92 C 514.86 696.53 442.75 731.07 370.71 765.77 C 366.60 767.68 362.51 769.97 357.95 770.56 C 352.66 770.83 347.42 767.90 344.65 763.43 C 291.68 654.13 238.51 544.91 185.65 435.54 C 184.15 431.93 182.07 427.75 183.63 423.83 Z" style="fill: none !important;"/>
<path fill="#fefefe" opacity="1.00" d=" M 207.58 416.97 C 217.49 438.33 228.23 459.28 238.51 480.47 C 273.64 553.14 309.40 625.50 344.60 698.15 C 349.55 708.35 354.69 718.46 359.35 728.81 C 358.59 731.68 357.83 734.55 356.98 737.40 C 318.12 658.57 278.60 580.07 239.83 501.20 C 234.55 491.33 229.91 481.13 224.98 471.09 C 217.59 456.74 210.67 442.15 203.46 427.71 C 204.88 424.15 206.39 420.62 207.58 416.97 Z" style="fill: none !important;"/>
<path fill="#000000" opacity="1.00" d=" M 511.51 424.72 C 514.00 422.17 518.12 425.10 516.32 428.20 C 507.50 434.86 495.60 435.68 484.98 434.10 C 474.45 432.57 463.29 429.83 453.00 434.01 C 441.50 438.28 435.71 450.15 425.48 456.26 C 420.48 459.31 414.30 459.06 408.82 457.69 C 404.44 456.75 399.26 455.17 395.39 458.33 C 389.94 463.27 390.26 471.89 384.60 476.70 C 381.82 479.24 377.83 480.25 374.16 479.38 C 370.17 478.78 366.14 476.40 362.09 477.83 C 358.81 479.67 358.39 483.80 357.46 487.08 C 356.41 491.65 354.64 497.01 349.87 498.88 C 344.91 500.93 339.92 497.98 334.97 497.52 C 332.44 497.26 330.02 498.76 328.87 500.97 C 326.53 504.74 326.69 509.31 326.22 513.57 C 325.87 516.06 321.51 516.68 320.81 514.04 C 320.47 506.83 321.79 498.47 327.86 493.78 C 332.27 490.26 338.20 491.90 343.08 493.36 C 345.57 494.39 348.87 493.65 350.06 491.06 C 352.45 485.69 352.48 479.12 356.72 474.68 C 360.33 470.86 366.21 471.07 370.85 472.59 C 373.92 473.46 377.70 474.93 380.49 472.59 C 384.06 469.31 384.86 464.24 387.06 460.10 C 389.11 455.62 393.08 451.79 398.08 451.00 C 405.15 449.55 411.89 454.12 418.96 452.60 C 424.41 451.27 428.34 446.93 432.15 443.10 C 438.35 436.69 445.04 430.01 453.92 427.60 C 464.40 424.38 475.39 426.93 485.94 428.40 C 494.58 429.62 503.77 429.09 511.51 424.72 Z" style="fill: rgb(0, 0, 0) !important;"/>
<path fill="#000000" opacity="1.00" d=" M 165.78 457.67 C 166.63 454.57 172.09 455.83 171.18 459.06 C 169.38 465.43 166.80 471.55 164.66 477.82 C 168.94 490.98 172.45 504.38 176.58 517.60 C 177.46 520.76 178.75 523.84 179.22 527.11 C 178.76 529.52 175.94 529.61 174.10 530.38 C 159.76 534.62 145.46 539.04 131.05 543.03 C 128.59 544.21 126.94 541.71 126.54 539.63 C 122.17 524.76 117.71 509.90 113.71 494.92 C 112.99 493.08 114.19 491.13 116.10 490.82 C 130.21 486.28 144.65 482.74 158.65 477.87 C 161.18 471.19 163.29 464.36 165.78 457.67 M 120.00 495.63 C 123.84 509.40 127.96 523.10 131.95 536.83 C 145.52 532.96 159.00 528.80 172.54 524.86 C 168.90 512.18 164.83 499.63 161.45 486.88 C 157.96 497.63 154.31 508.33 150.90 519.11 C 150.32 520.75 149.88 522.85 147.98 523.47 C 145.90 523.92 144.45 522.06 143.00 520.92 C 138.38 516.55 133.40 512.56 128.88 508.08 C 126.87 506.09 129.31 502.38 131.97 503.42 C 136.84 507.24 141.36 511.51 145.95 515.67 C 148.98 505.31 152.59 495.14 156.00 484.92 C 144.08 488.74 132.01 492.08 120.00 495.63 Z" style="fill: rgb(0, 0, 0) !important;"/>
<path fill="#fefefe" opacity="1.00" d=" M 784.41 498.57 C 827.15 485.69 873.08 484.37 914.19 465.97 C 914.15 467.61 914.13 469.25 914.13 470.91 C 903.57 476.51 892.71 481.60 881.29 485.21 C 861.84 491.41 842.04 496.52 822.10 500.89 C 800.51 505.62 778.87 510.60 758.15 518.41 C 726.77 529.58 698.11 549.40 678.31 576.36 C 675.29 580.26 672.82 584.53 669.84 588.45 C 682.54 559.38 706.28 536.28 733.52 520.62 C 749.43 511.09 766.54 503.55 784.41 498.57 Z" style="fill: none !important;"/>
<path fill="#000000" opacity="1.00" d=" M 498.47 470.85 C 511.90 469.15 525.61 469.82 538.87 472.56 C 540.01 472.90 541.50 472.97 542.17 474.13 C 543.67 475.95 541.48 479.26 539.22 478.54 C 512.76 472.23 483.49 475.62 460.42 490.53 C 452.13 495.62 445.52 502.83 438.50 509.43 C 434.31 513.44 428.86 516.42 422.95 516.41 C 417.33 516.67 411.08 514.67 406.03 518.01 C 400.22 521.85 399.09 529.46 394.15 534.12 C 388.89 540.06 380.65 541.95 373.01 541.85 C 365.50 541.94 358.43 546.15 354.54 552.52 C 352.59 555.05 351.54 558.10 349.89 560.79 C 348.19 563.12 343.95 560.91 345.25 558.18 C 348.63 549.25 355.09 540.75 364.42 537.59 C 371.45 534.97 379.66 537.42 386.18 533.20 C 394.19 528.56 395.17 517.72 403.14 513.02 C 408.95 508.94 416.28 510.74 422.85 510.59 C 430.83 510.16 436.32 503.80 441.56 498.55 C 456.64 483.18 477.06 473.22 498.47 470.85 Z" style="fill: rgb(0, 0, 0) !important;"/>
<path fill="#fefefe" opacity="1.00" d=" M 881.11 491.29 C 892.63 487.40 904.07 483.06 914.74 477.18 C 914.92 478.85 915.12 480.53 915.34 482.21 C 902.91 487.73 890.71 493.78 878.11 498.90 C 861.30 505.78 844.36 512.41 827.03 517.85 C 793.40 529.02 758.42 537.18 727.03 554.11 C 708.66 564.16 691.98 577.32 678.09 592.99 C 674.31 596.93 671.58 601.78 667.54 605.47 C 674.45 589.84 684.84 575.90 696.72 563.68 C 716.73 542.99 742.77 528.81 770.14 520.44 C 806.44 508.17 844.86 503.75 881.11 491.29 Z" style="fill: none !important;"/>
<path fill="#fefefe" opacity="1.00" d=" M 120.00 495.63 C 132.01 492.08 144.08 488.74 156.00 484.92 C 152.59 495.14 148.98 505.31 145.95 515.67 C 141.36 511.51 136.84 507.24 131.97 503.42 C 129.31 502.38 126.87 506.09 128.88 508.08 C 133.40 512.56 138.38 516.55 143.00 520.92 C 144.45 522.06 145.90 523.92 147.98 523.47 C 149.88 522.85 150.32 520.75 150.90 519.11 C 154.31 508.33 157.96 497.63 161.45 486.88 C 164.83 499.63 168.90 512.18 172.54 524.86 C 159.00 528.80 145.52 532.96 131.95 536.83 C 127.96 523.10 123.84 509.40 120.00 495.63 Z" style="fill: none !important;"/>
<path fill="#fefefe" opacity="1.00" d=" M 916.76 487.88 C 917.21 488.69 917.65 489.51 918.12 490.35 C 894.30 501.00 870.74 512.21 847.00 523.02 C 791.52 548.39 736.10 573.88 680.48 598.92 C 693.33 584.08 708.66 571.35 725.64 561.51 C 756.04 543.75 790.65 535.76 823.78 524.78 C 855.74 515.09 886.55 502.03 916.76 487.88 Z" style="fill: none !important;"/>
<path fill="#000000" opacity="1.00" d=" M 530.51 515.83 C 542.31 514.62 554.69 514.80 565.86 519.19 C 569.18 520.11 567.00 525.63 564.01 524.31 C 549.24 519.26 533.18 520.46 518.12 523.55 C 507.09 525.72 496.61 529.90 486.16 533.92 C 476.70 537.62 467.39 541.68 458.39 546.39 C 450.46 550.55 442.05 554.28 435.54 560.60 C 430.09 565.66 426.56 572.28 422.29 578.27 C 419.02 582.91 413.71 586.08 408.01 586.40 C 401.98 586.79 395.76 584.86 389.88 586.94 C 383.01 589.21 378.05 595.34 375.83 602.06 C 374.96 604.15 374.83 606.57 373.58 608.49 C 371.85 610.57 367.96 608.56 368.84 605.95 C 370.43 596.92 375.46 588.08 383.58 583.46 C 389.74 579.81 397.13 579.78 404.03 580.61 C 408.74 581.28 413.82 579.65 416.81 575.85 C 420.36 571.32 423.10 566.21 426.70 561.72 C 431.93 554.81 439.25 549.89 446.77 545.81 C 463.48 536.87 480.87 529.25 498.70 522.87 C 509.02 519.45 519.69 517.03 530.51 515.83 Z" style="fill: rgb(0, 0, 0) !important;"/>
<path fill="#000000" opacity="1.00" d=" M 952.53 556.64 C 958.92 555.00 965.95 556.53 970.99 560.82 C 980.31 567.93 984.29 581.51 979.28 592.29 C 977.40 596.71 974.15 600.56 969.99 602.98 C 959.38 609.10 948.23 614.22 937.12 619.36 C 892.92 640.21 849.03 661.71 804.85 682.60 C 764.61 701.80 724.45 721.18 684.14 740.23 C 677.11 743.51 670.23 747.22 662.99 749.97 C 639.68 753.17 616.40 756.78 592.99 759.19 C 589.73 759.46 589.10 754.98 591.47 753.37 C 606.60 738.22 621.90 723.23 637.20 708.25 C 639.90 705.46 643.21 703.35 646.76 701.79 C 703.58 674.99 760.06 647.50 816.83 620.61 C 853.66 603.15 890.44 585.59 927.19 567.98 C 935.76 564.49 943.69 559.47 952.53 556.64 M 938.94 569.08 C 949.00 577.88 954.33 591.35 953.98 604.61 C 960.67 600.66 969.55 598.84 973.17 591.18 C 979.64 580.60 972.66 565.32 960.88 562.40 C 952.87 560.69 945.98 566.22 938.94 569.08 M 926.85 574.71 C 929.94 578.12 933.30 581.35 935.72 585.30 C 940.62 592.79 942.36 601.95 941.73 610.80 C 943.75 609.76 945.81 608.80 947.90 607.92 C 949.59 594.36 943.54 580.39 932.95 571.87 C 930.91 572.81 928.87 573.76 926.85 574.71 M 889.39 592.48 C 868.38 602.41 847.41 612.44 826.46 622.49 C 768.39 649.84 710.72 678.00 652.69 705.43 C 658.25 707.33 661.26 713.12 660.46 718.83 C 705.09 697.77 749.40 676.05 793.96 654.86 C 839.84 633.06 885.57 610.91 931.56 589.35 C 928.63 584.93 924.92 581.09 920.89 577.67 C 910.28 582.37 899.83 587.43 889.39 592.48 M 745.42 684.53 C 718.04 697.86 690.60 711.06 663.05 724.02 C 669.49 726.75 671.83 734.56 669.96 740.92 C 684.04 733.32 698.76 727.00 713.13 719.99 C 744.26 705.23 775.27 690.23 806.38 675.43 C 849.48 654.92 892.39 634.00 935.57 613.64 C 936.40 607.25 935.91 600.73 933.91 594.60 C 871.00 624.42 808.23 654.50 745.42 684.53 M 643.31 710.36 C 635.32 718.38 627.34 726.43 619.14 734.26 C 623.04 738.29 625.25 743.64 625.87 749.18 C 637.41 747.30 649.08 746.25 660.60 744.31 C 665.90 740.88 666.01 730.60 659.17 728.87 C 656.53 727.57 652.13 729.32 650.90 725.93 C 650.41 722.44 654.85 720.58 654.52 716.98 C 655.03 711.21 647.79 709.27 643.31 710.36 M 614.61 738.60 C 609.82 743.34 604.94 747.99 600.11 752.68 C 606.73 751.75 613.36 750.84 619.99 749.96 C 619.31 745.75 617.68 741.63 614.61 738.60 Z" style="fill: rgb(0, 0, 0) !important;"/>
<path fill="#000000" opacity="1.00" d=" M 184.53 560.66 C 185.98 560.28 187.85 559.62 189.05 560.93 C 190.08 562.45 190.45 564.30 191.01 566.03 C 194.92 579.74 198.94 593.41 203.05 607.05 C 203.79 608.71 203.96 611.20 201.77 611.78 C 186.30 616.74 170.69 621.29 155.07 625.75 C 152.33 626.49 151.34 623.22 150.76 621.23 C 146.63 607.11 142.57 592.97 138.50 578.83 C 137.82 577.07 137.79 574.41 140.06 573.88 C 154.81 569.25 169.76 565.26 184.53 560.66 M 144.61 578.61 C 148.46 592.19 152.26 605.79 156.38 619.29 C 169.90 615.32 183.44 611.39 196.93 607.31 C 193.23 593.67 188.80 580.24 184.93 566.65 C 171.50 570.67 158.04 574.59 144.61 578.61 Z" style="fill: rgb(0, 0, 0) !important;"/>
<path fill="#fefffe" opacity="1.00" d=" M 938.94 569.08 C 945.98 566.22 952.87 560.69 960.88 562.40 C 972.66 565.32 979.64 580.60 973.17 591.18 C 969.55 598.84 960.67 600.66 953.98 604.61 C 954.33 591.35 949.00 577.88 938.94 569.08 Z" style="fill: none !important;"/>
<path fill="#fefefe" opacity="1.00" d=" M 144.61 578.61 C 158.04 574.59 171.50 570.67 184.93 566.65 C 188.80 580.24 193.23 593.67 196.93 607.31 C 183.44 611.39 169.90 615.32 156.38 619.29 C 152.26 605.79 148.46 592.19 144.61 578.61 Z" style="fill: none !important;"/>
<path fill="#fefffe" opacity="1.00" d=" M 926.85 574.71 C 928.87 573.76 930.91 572.81 932.95 571.87 C 943.54 580.39 949.59 594.36 947.90 607.92 C 945.81 608.80 943.75 609.76 941.73 610.80 C 942.36 601.95 940.62 592.79 935.72 585.30 C 933.30 581.35 929.94 578.12 926.85 574.71 Z" style="fill: none !important;"/>
<path fill="#fefefe" opacity="1.00" d=" M 889.39 592.48 C 899.83 587.43 910.28 582.37 920.89 577.67 C 924.92 581.09 928.63 584.93 931.56 589.35 C 885.57 610.91 839.84 633.06 793.96 654.86 C 749.40 676.05 705.09 697.77 660.46 718.83 C 661.26 713.12 658.25 707.33 652.69 705.43 C 710.72 678.00 768.39 649.84 826.46 622.49 C 847.41 612.44 868.38 602.41 889.39 592.48 Z" style="fill: none !important;"/>
<path fill="#fefefe" opacity="1.00" d=" M 745.42 684.53 C 808.23 654.50 871.00 624.42 933.91 594.60 C 935.91 600.73 936.40 607.25 935.57 613.64 C 892.39 634.00 849.48 654.92 806.38 675.43 C 775.27 690.23 744.26 705.23 713.13 719.99 C 698.76 727.00 684.04 733.32 669.96 740.92 C 671.83 734.56 669.49 726.75 663.05 724.02 C 690.60 711.06 718.04 697.86 745.42 684.53 Z" style="fill: none !important;"/>
<path fill="#fefefe" opacity="1.00" d=" M 560.83 601.49 C 581.76 596.65 604.23 596.07 624.75 603.10 C 631.08 605.11 637.16 607.87 643.12 610.80 C 625.95 605.69 607.86 603.52 589.99 605.00 C 572.78 606.44 555.80 610.54 539.76 616.93 C 522.48 623.99 506.48 633.75 490.83 643.83 C 460.10 663.74 430.20 685.23 397.06 701.09 C 389.65 704.73 382.09 708.10 374.26 710.74 C 374.56 708.91 374.88 707.10 375.19 705.28 C 390.87 698.66 405.70 690.20 420.12 681.20 C 449.63 662.19 477.08 640.03 507.71 622.76 C 524.36 613.37 542.09 605.55 560.83 601.49 Z" style="fill: none !important;"/>
<path fill="#fefefe" opacity="1.00" d=" M 563.94 615.14 C 589.83 608.80 617.51 608.73 643.05 616.71 C 608.60 615.53 574.36 624.07 543.06 638.09 C 525.74 645.93 509.08 655.14 492.63 664.64 C 452.97 687.55 413.15 710.57 370.63 727.83 C 371.40 724.26 372.11 720.68 372.81 717.10 C 388.86 712.37 403.74 704.51 418.39 696.55 C 451.46 678.24 481.81 655.55 514.23 636.17 C 529.80 627.06 546.35 619.39 563.94 615.14 Z" style="fill: none !important;"/>
<path fill="#fefefe" opacity="1.00" d=" M 578.87 630.95 C 595.49 626.31 612.59 623.30 629.83 622.33 C 590.33 640.34 550.80 658.29 511.26 676.21 C 475.10 692.26 439.20 708.90 403.14 725.16 C 390.98 730.68 378.84 736.22 366.74 741.86 C 368.15 739.06 367.64 734.39 371.41 733.62 C 410.67 718.04 447.49 697.13 484.06 676.18 C 514.36 658.63 545.03 640.80 578.87 630.95 Z" style="fill: none !important;"/>
<path fill="#fefffe" opacity="1.00" d=" M 643.31 710.36 C 647.79 709.27 655.03 711.21 654.52 716.98 C 654.85 720.58 650.41 722.44 650.90 725.93 C 652.13 729.32 656.53 727.57 659.17 728.87 C 666.01 730.60 665.90 740.88 660.60 744.31 C 649.08 746.25 637.41 747.30 625.87 749.18 C 625.25 743.64 623.04 738.29 619.14 734.26 C 627.34 726.43 635.32 718.38 643.31 710.36 Z" style="fill: none !important;"/>
<path fill="#feffff" opacity="1.00" d=" M 614.61 738.60 C 617.68 741.63 619.31 745.75 619.99 749.96 C 613.36 750.84 606.73 751.75 600.11 752.68 C 604.94 747.99 609.82 743.34 614.61 738.60 Z" style="fill: none !important;"/>
<path fill="#000000" opacity="1.00" d=" M 975.03 816.07 C 975.31 814.56 976.90 814.20 978.05 813.59 C 978.92 814.30 979.78 815.06 980.61 815.87 C 980.77 819.08 978.78 821.92 977.76 824.87 C 965.80 853.97 945.35 879.76 918.86 896.90 C 903.69 906.35 886.78 913.24 869.06 915.93 C 847.10 919.58 824.32 918.07 802.98 911.79 C 759.68 899.68 722.89 871.88 679.95 858.79 C 651.35 849.78 620.03 846.83 590.93 855.25 C 576.67 859.27 563.15 865.97 551.36 874.94 C 558.89 884.55 564.72 896.42 563.47 908.95 C 562.92 917.79 557.55 926.75 548.85 929.60 C 542.06 932.21 534.17 929.97 529.11 924.93 C 523.08 919.47 521.65 910.56 523.25 902.90 C 525.66 891.12 533.90 881.52 542.88 873.98 C 531.36 861.69 515.95 853.52 499.78 849.20 C 478.70 843.47 456.29 844.36 435.11 849.17 C 417.99 852.76 401.41 858.59 385.41 865.61 C 371.70 871.35 358.16 877.49 344.74 883.89 C 326.90 892.15 308.71 899.71 290.04 905.91 C 274.59 910.76 259.04 915.54 242.97 917.91 C 218.57 922.04 193.28 922.01 169.14 916.31 C 135.82 908.64 105.04 890.33 82.56 864.53 C 70.33 850.41 59.97 834.38 53.45 816.82 C 54.43 815.26 56.10 813.63 58.06 814.80 C 60.10 817.06 60.69 820.29 62.24 822.90 C 75.39 851.33 97.24 875.58 124.00 891.82 C 156.12 911.22 194.98 918.51 232.08 913.71 C 273.38 908.38 312.47 892.74 349.89 875.06 C 380.10 861.16 410.75 846.82 443.89 841.61 C 466.84 837.82 491.04 838.75 512.85 847.34 C 525.81 852.48 537.99 860.04 547.50 870.31 C 573.13 850.97 606.12 842.53 637.96 844.73 C 667.53 846.75 695.93 856.74 722.36 869.73 C 741.92 879.10 760.95 889.57 780.95 898.02 C 800.29 906.11 820.96 911.35 841.97 912.15 C 864.28 912.70 886.75 907.66 906.52 897.27 C 938.77 880.40 962.60 849.91 975.03 816.07 M 528.98 903.96 C 527.50 910.26 528.97 917.68 534.28 921.83 C 539.48 926.24 547.94 925.48 552.48 920.48 C 557.47 915.27 558.58 907.42 557.27 900.56 C 555.99 892.30 551.51 885.06 546.84 878.31 C 538.89 885.11 531.35 893.47 528.98 903.96 Z" style="fill: rgb(0, 0, 0) !important;"/>
<path fill="#fefefe" opacity="1.00" d=" M 528.98 903.96 C 531.35 893.47 538.89 885.11 546.84 878.31 C 551.51 885.06 555.99 892.30 557.27 900.56 C 558.58 907.42 557.47 915.27 552.48 920.48 C 547.94 925.48 539.48 926.24 534.28 921.83 C 528.97 917.68 527.50 910.26 528.98 903.96 Z" style="fill: none !important;"/>
</svg>