<svg xmlns="http://www.w3.org/2000/svg" width="2000" height="2000" viewBox="0 0 2048 2048" version="1.1" style="">
<g id="#fdfefeff" style="fill: rgb(0, 0, 0) !important;">
<path fill="#fdfefe" stroke="#fdfefe" stroke-width="0.09375" opacity="1.00" d=" M 0.00 0.00 L 2048.00 0.00 L 2048.00 2048.00 L 0.00 2048.00 L 0.00 0.00 M 918.04 265.68 C 870.20 268.23 822.35 271.54 774.84 277.83 C 748.94 281.18 723.05 285.06 697.68 291.35 C 690.24 293.26 682.65 295.15 675.97 299.07 C 670.78 302.11 666.54 307.06 665.13 312.99 C 662.78 321.44 665.32 331.10 671.97 336.91 C 675.16 340.15 679.91 341.80 682.05 346.03 C 689.20 358.23 694.14 371.56 698.31 385.03 C 671.92 356.16 630.67 341.95 592.08 348.12 C 570.84 351.56 550.27 359.96 533.30 373.29 C 519.88 383.86 508.22 396.75 499.40 411.40 C 480.87 442.97 474.19 480.87 478.43 517.06 C 482.84 555.15 497.22 591.74 518.38 623.62 C 540.60 657.56 568.41 687.42 597.88 715.15 C 637.53 753.17 682.91 785.35 718.25 827.76 C 727.88 839.88 736.79 853.08 740.99 868.16 C 744.41 879.89 744.11 892.87 739.18 904.14 C 737.46 908.19 734.53 911.54 732.38 915.34 C 729.92 919.74 729.83 925.79 733.24 929.73 C 736.95 933.80 742.56 935.75 747.98 935.83 C 758.27 936.28 767.93 931.10 775.43 924.43 C 786.10 915.00 792.60 901.50 794.76 887.53 C 807.16 910.83 821.81 932.94 838.94 953.03 C 863.07 981.96 890.88 1008.25 923.23 1027.80 C 916.93 1035.32 917.55 1046.98 923.26 1054.66 C 926.99 1060.00 933.30 1062.57 937.61 1067.36 C 950.83 1080.44 958.42 1098.18 961.45 1116.34 C 953.87 1119.75 948.69 1127.71 949.58 1136.13 C 945.24 1137.89 941.08 1140.36 938.13 1144.08 C 931.98 1151.80 930.37 1163.19 934.98 1172.06 C 937.83 1178.04 943.11 1182.78 949.45 1184.78 C 948.66 1193.01 953.11 1201.41 960.81 1204.72 C 957.57 1221.82 952.47 1238.72 943.99 1253.98 C 934.33 1271.80 920.84 1287.42 905.09 1300.12 C 892.59 1309.98 878.86 1318.55 863.79 1323.88 C 860.24 1325.19 855.99 1326.82 855.00 1330.94 C 854.11 1336.74 854.90 1342.68 854.39 1348.53 C 847.83 1351.89 841.03 1355.58 836.76 1361.85 C 831.19 1369.47 831.24 1379.38 831.29 1388.41 C 825.62 1388.77 819.76 1387.76 814.27 1389.45 C 811.09 1390.42 809.62 1393.85 809.60 1396.95 C 809.35 1411.70 809.57 1426.46 809.26 1441.22 C 802.48 1441.44 795.69 1441.10 788.94 1441.53 C 783.77 1442.05 780.72 1447.27 780.59 1452.08 C 780.11 1462.40 780.49 1472.74 780.26 1483.07 C 776.22 1485.37 772.05 1487.49 768.36 1490.35 C 761.11 1495.77 755.62 1503.06 750.22 1510.22 C 748.74 1512.19 747.26 1514.39 747.54 1517.00 C 747.53 1563.78 747.58 1610.55 747.56 1657.32 C 743.39 1657.39 739.20 1657.03 735.05 1657.49 C 731.45 1657.95 729.26 1661.57 729.07 1664.96 C 728.26 1672.50 728.75 1680.10 728.65 1687.68 C 719.56 1690.44 711.86 1696.60 706.04 1703.98 C 700.91 1710.47 698.27 1718.75 698.35 1727.00 C 698.04 1729.13 698.91 1732.20 696.65 1733.50 C 692.87 1734.31 688.93 1733.34 685.12 1733.94 C 681.11 1734.92 678.54 1739.06 678.60 1743.06 C 678.48 1756.71 678.67 1770.37 678.58 1784.03 C 678.41 1788.04 681.54 1792.59 685.92 1792.26 C 908.95 1792.24 1131.99 1792.25 1355.03 1792.26 C 1358.07 1792.21 1361.13 1792.40 1364.19 1792.17 C 1367.75 1791.36 1369.91 1787.57 1369.83 1784.09 C 1369.82 1770.37 1369.86 1756.65 1369.78 1742.93 C 1370.00 1738.78 1367.12 1734.72 1363.01 1733.88 C 1359.23 1733.29 1355.36 1734.14 1351.62 1733.36 C 1349.58 1731.50 1350.35 1728.39 1350.10 1725.97 C 1350.10 1708.16 1336.15 1692.70 1319.67 1687.48 C 1319.64 1680.32 1319.72 1673.16 1319.62 1666.01 C 1319.67 1662.42 1317.66 1658.35 1313.89 1657.60 C 1309.55 1657.07 1305.16 1657.53 1300.81 1657.36 C 1300.70 1611.23 1300.85 1565.09 1300.69 1518.96 C 1300.82 1516.29 1300.17 1513.63 1298.51 1511.52 C 1293.20 1504.30 1287.94 1496.87 1280.98 1491.12 C 1277.08 1487.84 1272.49 1485.57 1268.26 1482.83 C 1267.37 1475.36 1268.11 1467.62 1267.87 1460.05 C 1267.61 1455.08 1268.78 1449.54 1265.81 1445.16 C 1264.38 1442.83 1261.71 1441.55 1259.04 1441.48 C 1252.66 1441.16 1246.27 1441.58 1239.90 1441.25 C 1238.61 1440.23 1238.95 1438.36 1238.87 1436.97 C 1238.86 1423.29 1238.94 1409.60 1238.88 1395.93 C 1238.99 1391.93 1235.36 1388.86 1231.57 1388.63 C 1226.66 1388.28 1221.73 1388.56 1216.82 1388.45 C 1216.79 1380.45 1217.07 1371.99 1213.19 1364.73 C 1209.01 1357.25 1202.07 1351.16 1193.71 1348.91 C 1193.42 1343.05 1193.97 1337.15 1193.34 1331.32 C 1192.71 1327.58 1189.31 1325.23 1185.94 1324.16 C 1171.35 1319.35 1158.14 1311.16 1145.95 1301.95 C 1115.47 1278.43 1093.57 1243.33 1088.03 1205.03 C 1095.69 1201.28 1100.36 1193.03 1099.61 1184.51 C 1111.85 1180.51 1118.75 1166.30 1115.70 1154.07 C 1113.67 1146.56 1108.42 1139.62 1100.97 1136.88 C 1097.98 1136.43 1099.10 1133.00 1098.60 1130.92 C 1097.88 1124.47 1093.18 1119.29 1087.57 1116.42 C 1089.66 1096.57 1099.50 1077.72 1114.32 1064.39 C 1118.03 1061.11 1122.60 1058.68 1125.42 1054.47 C 1131.03 1046.75 1130.95 1035.60 1125.51 1027.81 C 1157.18 1008.49 1184.52 982.78 1208.45 954.59 C 1221.52 939.24 1233.39 922.86 1243.65 905.49 C 1247.25 899.99 1249.95 893.88 1253.87 888.61 C 1255.00 896.99 1258.13 905.01 1262.61 912.16 C 1269.56 922.98 1279.94 932.40 1292.80 935.19 C 1299.13 936.36 1306.23 936.40 1311.78 932.68 C 1316.96 929.67 1319.00 922.73 1316.77 917.28 C 1315.17 913.38 1312.43 910.11 1310.53 906.39 C 1304.63 895.62 1303.95 882.66 1306.52 870.84 C 1310.34 854.50 1320.01 840.30 1330.44 827.45 C 1343.03 812.15 1357.14 798.16 1371.77 784.82 C 1386.42 771.13 1402.14 758.65 1417.11 745.32 C 1457.86 709.04 1498.62 671.59 1528.74 625.66 C 1552.89 589.68 1568.80 547.53 1570.70 504.00 C 1572.32 469.72 1564.19 434.52 1545.26 405.67 C 1524.13 374.03 1489.28 351.03 1451.06 347.41 C 1414.06 343.24 1375.50 357.48 1350.20 384.82 C 1354.41 370.53 1359.75 356.37 1367.93 343.85 C 1372.10 340.07 1377.44 337.41 1380.46 332.43 C 1386.64 322.80 1384.94 308.40 1375.77 301.21 C 1368.56 295.66 1359.47 293.64 1350.88 291.27 C 1330.51 286.26 1309.78 282.84 1289.04 279.85 C 1238.93 272.79 1188.46 268.68 1137.95 266.02 C 1064.71 262.25 991.29 262.41 918.04 265.68 Z" style="fill: none !important;"/>
<path fill="#fdfefe" stroke="#fdfefe" stroke-width="0.09375" opacity="1.00" d=" M 748.04 328.46 C 835.99 314.66 925.11 310.22 1014.04 309.60 C 1109.66 309.23 1205.54 313.42 1300.11 328.22 C 1290.84 346.93 1284.70 366.98 1279.43 387.13 C 1274.32 406.80 1271.52 426.97 1268.71 447.07 C 1261.84 501.77 1260.40 556.93 1257.02 611.91 C 1253.11 679.03 1245.54 746.51 1225.81 811.03 C 1219.30 832.52 1210.97 853.42 1201.56 873.80 C 1192.60 893.10 1181.82 911.48 1170.20 929.29 C 1151.86 957.16 1129.81 982.64 1104.47 1004.37 C 1099.20 1008.84 1093.81 1013.21 1088.00 1016.98 C 1086.17 1018.08 1084.30 1019.52 1082.04 1019.21 C 1042.67 1019.07 1003.29 1019.39 963.93 1019.13 C 958.05 1016.27 953.10 1011.86 948.02 1007.81 C 932.01 994.59 917.00 980.09 903.87 963.99 C 881.03 935.82 861.09 905.15 845.93 872.16 C 826.35 829.55 813.15 784.18 805.01 738.05 C 799.85 708.11 796.57 677.89 794.03 647.63 C 790.52 608.14 789.45 568.49 786.72 528.94 C 784.01 484.37 780.48 439.63 770.88 395.92 C 765.38 372.82 759.35 349.51 748.04 328.46 Z" style="fill: none !important;"/>
<path fill="#fdfefe" stroke="#fdfefe" stroke-width="0.09375" opacity="1.00" d=" M 866.20 1520.85 C 971.42 1520.84 1076.65 1520.87 1181.87 1520.85 C 1182.45 1545.55 1181.94 1570.29 1182.11 1595.01 C 1182.11 1616.48 1182.19 1637.96 1182.10 1659.44 C 1076.75 1659.56 971.41 1659.52 866.06 1659.50 C 866.23 1613.29 865.94 1567.07 866.20 1520.85 Z" style="fill: none !important;"/>
</g>
<g id="#030301ff" style="fill: rgb(0, 0, 0) !important;">
<path fill="#030301" stroke="#030301" stroke-width="0.09375" opacity="1.00" d=" M 918.04 265.68 C 991.29 262.41 1064.71 262.25 1137.95 266.02 C 1188.46 268.68 1238.93 272.79 1289.04 279.85 C 1309.78 282.84 1330.51 286.26 1350.88 291.27 C 1359.47 293.64 1368.56 295.66 1375.77 301.21 C 1384.94 308.40 1386.64 322.80 1380.46 332.43 C 1377.44 337.41 1372.10 340.07 1367.93 343.85 C 1359.75 356.37 1354.41 370.53 1350.20 384.82 C 1375.50 357.48 1414.06 343.24 1451.06 347.41 C 1489.28 351.03 1524.13 374.03 1545.26 405.67 C 1564.19 434.52 1572.32 469.72 1570.70 504.00 C 1568.80 547.53 1552.89 589.68 1528.74 625.66 C 1498.62 671.59 1457.86 709.04 1417.11 745.32 C 1402.14 758.65 1386.42 771.13 1371.77 784.82 C 1357.14 798.16 1343.03 812.15 1330.44 827.45 C 1320.01 840.30 1310.34 854.50 1306.52 870.84 C 1303.95 882.66 1304.63 895.62 1310.53 906.39 C 1312.43 910.11 1315.17 913.38 1316.77 917.28 C 1319.00 922.73 1316.96 929.67 1311.78 932.68 C 1306.23 936.40 1299.13 936.36 1292.80 935.19 C 1279.94 932.40 1269.56 922.98 1262.61 912.16 C 1258.13 905.01 1255.00 896.99 1253.87 888.61 C 1249.95 893.88 1247.25 899.99 1243.65 905.49 C 1233.39 922.86 1221.52 939.24 1208.45 954.59 C 1184.52 982.78 1157.18 1008.49 1125.51 1027.81 C 1130.95 1035.60 1131.03 1046.75 1125.42 1054.47 C 1122.60 1058.68 1118.03 1061.11 1114.32 1064.39 C 1099.50 1077.72 1089.66 1096.57 1087.57 1116.42 C 1093.18 1119.29 1097.88 1124.47 1098.60 1130.92 C 1099.10 1133.00 1097.98 1136.43 1100.97 1136.88 C 1108.42 1139.62 1113.67 1146.56 1115.70 1154.07 C 1118.75 1166.30 1111.85 1180.51 1099.61 1184.51 C 1100.36 1193.03 1095.69 1201.28 1088.03 1205.03 C 1093.57 1243.33 1115.47 1278.43 1145.95 1301.95 C 1158.14 1311.16 1171.35 1319.35 1185.94 1324.16 C 1189.31 1325.23 1192.71 1327.58 1193.34 1331.32 C 1193.97 1337.15 1193.42 1343.05 1193.71 1348.91 C 1202.07 1351.16 1209.01 1357.25 1213.19 1364.73 C 1217.07 1371.99 1216.79 1380.45 1216.82 1388.45 C 1221.73 1388.56 1226.66 1388.28 1231.57 1388.63 C 1235.36 1388.86 1238.99 1391.93 1238.88 1395.93 C 1238.94 1409.60 1238.86 1423.29 1238.87 1436.97 C 1238.95 1438.36 1238.61 1440.23 1239.90 1441.25 C 1246.27 1441.58 1252.66 1441.16 1259.04 1441.48 C 1261.71 1441.55 1264.38 1442.83 1265.81 1445.16 C 1268.78 1449.54 1267.61 1455.08 1267.87 1460.05 C 1268.11 1467.62 1267.37 1475.36 1268.26 1482.83 C 1272.49 1485.57 1277.08 1487.84 1280.98 1491.12 C 1287.94 1496.87 1293.20 1504.30 1298.51 1511.52 C 1300.17 1513.63 1300.82 1516.29 1300.69 1518.96 C 1300.85 1565.09 1300.70 1611.23 1300.81 1657.36 C 1305.16 1657.53 1309.55 1657.07 1313.89 1657.60 C 1317.66 1658.35 1319.67 1662.42 1319.62 1666.01 C 1319.72 1673.16 1319.64 1680.32 1319.67 1687.48 C 1336.15 1692.70 1350.10 1708.16 1350.10 1725.97 C 1350.35 1728.39 1349.58 1731.50 1351.62 1733.36 C 1355.36 1734.14 1359.23 1733.29 1363.01 1733.88 C 1367.12 1734.72 1370.00 1738.78 1369.78 1742.93 C 1369.86 1756.65 1369.82 1770.37 1369.83 1784.09 C 1369.91 1787.57 1367.75 1791.36 1364.19 1792.17 C 1361.13 1792.40 1358.07 1792.21 1355.03 1792.26 C 1131.99 1792.25 908.95 1792.24 685.92 1792.26 C 681.54 1792.59 678.41 1788.04 678.58 1784.03 C 678.67 1770.37 678.48 1756.71 678.60 1743.06 C 678.54 1739.06 681.11 1734.92 685.12 1733.94 C 688.93 1733.34 692.87 1734.31 696.65 1733.50 C 698.91 1732.20 698.04 1729.13 698.35 1727.00 C 698.27 1718.75 700.91 1710.47 706.04 1703.98 C 711.86 1696.60 719.56 1690.44 728.65 1687.68 C 728.75 1680.10 728.26 1672.50 729.07 1664.96 C 729.26 1661.57 731.45 1657.95 735.05 1657.49 C 739.20 1657.03 743.39 1657.39 747.56 1657.32 C 747.58 1610.55 747.53 1563.78 747.54 1517.00 C 747.26 1514.39 748.74 1512.19 750.22 1510.22 C 755.62 1503.06 761.11 1495.77 768.36 1490.35 C 772.05 1487.49 776.22 1485.37 780.26 1483.07 C 780.49 1472.74 780.11 1462.40 780.59 1452.08 C 780.72 1447.27 783.77 1442.05 788.94 1441.53 C 795.69 1441.10 802.48 1441.44 809.26 1441.22 C 809.57 1426.46 809.35 1411.70 809.60 1396.95 C 809.62 1393.85 811.09 1390.42 814.27 1389.45 C 819.76 1387.76 825.62 1388.77 831.29 1388.41 C 831.24 1379.38 831.19 1369.47 836.76 1361.85 C 841.03 1355.58 847.83 1351.89 854.39 1348.53 C 854.90 1342.68 854.11 1336.74 855.00 1330.94 C 855.99 1326.82 860.24 1325.19 863.79 1323.88 C 878.86 1318.55 892.59 1309.98 905.09 1300.12 C 920.84 1287.42 934.33 1271.80 943.99 1253.98 C 952.47 1238.72 957.57 1221.82 960.81 1204.72 C 953.11 1201.41 948.66 1193.01 949.45 1184.78 C 943.11 1182.78 937.83 1178.04 934.98 1172.06 C 930.37 1163.19 931.98 1151.80 938.13 1144.08 C 941.08 1140.36 945.24 1137.89 949.58 1136.13 C 948.69 1127.71 953.87 1119.75 961.45 1116.34 C 958.42 1098.18 950.83 1080.44 937.61 1067.36 C 933.30 1062.57 926.99 1060.00 923.26 1054.66 C 917.55 1046.98 916.93 1035.32 923.23 1027.80 C 890.88 1008.25 863.07 981.96 838.94 953.03 C 821.81 932.94 807.16 910.83 794.76 887.53 C 792.60 901.50 786.10 915.00 775.43 924.43 C 767.93 931.10 758.27 936.28 747.98 935.83 C 742.56 935.75 736.95 933.80 733.24 929.73 C 729.83 925.79 729.92 919.74 732.38 915.34 C 734.53 911.54 737.46 908.19 739.18 904.14 C 744.11 892.87 744.41 879.89 740.99 868.16 C 736.79 853.08 727.88 839.88 718.25 827.76 C 682.91 785.35 637.53 753.17 597.88 715.15 C 568.41 687.42 540.60 657.56 518.38 623.62 C 497.22 591.74 482.84 555.15 478.43 517.06 C 474.19 480.87 480.87 442.97 499.40 411.40 C 508.22 396.75 519.88 383.86 533.30 373.29 C 550.27 359.96 570.84 351.56 592.08 348.12 C 630.67 341.95 671.92 356.16 698.31 385.03 C 694.14 371.56 689.20 358.23 682.05 346.03 C 679.91 341.80 675.16 340.15 671.97 336.91 C 665.32 331.10 662.78 321.44 665.13 312.99 C 666.54 307.06 670.78 302.11 675.97 299.07 C 682.65 295.15 690.24 293.26 697.68 291.35 C 723.05 285.06 748.94 281.18 774.84 277.83 C 822.35 271.54 870.20 268.23 918.04 265.68 M 977.16 276.23 C 908.60 277.65 840.00 281.57 772.00 290.73 C 745.82 294.41 719.55 298.21 694.01 305.22 C 688.77 306.77 682.99 307.98 679.01 312.01 C 675.08 316.27 676.68 322.92 679.87 327.14 C 681.56 329.29 683.96 332.20 687.06 331.18 C 707.29 326.46 727.59 321.91 748.13 318.70 C 813.29 308.58 879.18 304.11 945.03 301.69 C 1014.00 299.46 1083.07 299.89 1151.97 303.64 C 1205.97 306.77 1259.97 311.58 1313.29 320.87 C 1330.00 323.64 1346.42 327.87 1362.93 331.53 C 1369.08 329.34 1373.08 321.75 1371.33 315.41 C 1369.54 310.65 1364.45 308.39 1359.96 306.91 C 1343.29 301.73 1326.11 298.50 1308.93 295.60 C 1260.94 287.85 1212.53 282.82 1164.02 280.02 C 1101.82 276.29 1039.46 274.77 977.16 276.23 M 748.04 328.46 C 759.35 349.51 765.38 372.82 770.88 395.92 C 780.48 439.63 784.01 484.37 786.72 528.94 C 789.45 568.49 790.52 608.14 794.03 647.63 C 796.57 677.89 799.85 708.11 805.01 738.05 C 813.15 784.18 826.35 829.55 845.93 872.16 C 861.09 905.15 881.03 935.82 903.87 963.99 C 917.00 980.09 932.01 994.59 948.02 1007.81 C 953.10 1011.86 958.05 1016.27 963.93 1019.13 C 1003.29 1019.39 1042.67 1019.07 1082.04 1019.21 C 1084.30 1019.52 1086.17 1018.08 1088.00 1016.98 C 1093.81 1013.21 1099.20 1008.84 1104.47 1004.37 C 1129.81 982.64 1151.86 957.16 1170.20 929.29 C 1181.82 911.48 1192.60 893.10 1201.56 873.80 C 1210.97 853.42 1219.30 832.52 1225.81 811.03 C 1245.54 746.51 1253.11 679.03 1257.02 611.91 C 1260.40 556.93 1261.84 501.77 1268.71 447.07 C 1271.52 426.97 1274.32 406.80 1279.43 387.13 C 1284.70 366.98 1290.84 346.93 1300.11 328.22 C 1205.54 313.42 1109.66 309.23 1014.04 309.60 C 925.11 310.22 835.99 314.66 748.04 328.46 M 693.13 339.56 C 706.26 363.17 713.45 389.53 718.53 415.91 C 722.71 436.40 724.97 457.21 727.26 477.98 C 734.89 557.72 738.35 637.99 751.72 717.08 C 756.03 743.58 761.48 769.96 769.59 795.58 C 781.57 835.08 798.24 873.37 821.17 907.78 C 840.99 938.47 864.94 966.53 892.73 990.29 C 905.21 1001.03 918.46 1011.10 933.03 1018.85 C 939.09 1019.82 945.39 1018.97 951.55 1019.35 C 940.71 1012.15 931.14 1003.23 921.80 994.22 C 906.42 979.43 892.86 962.85 880.46 945.50 C 870.05 930.67 859.96 915.56 851.37 899.58 C 833.06 865.19 818.55 828.71 808.91 790.94 C 801.46 762.02 795.58 732.65 792.14 702.97 C 788.20 667.76 785.14 632.44 783.34 597.05 C 780.69 552.67 778.69 508.22 774.29 463.97 C 771.25 436.00 766.45 408.21 759.57 380.93 C 755.20 363.18 748.53 346.11 741.06 329.47 C 724.94 332.09 709.05 335.92 693.13 339.56 M 1307.29 329.46 C 1299.28 348.13 1291.42 367.03 1287.17 386.97 C 1280.92 413.96 1276.45 441.35 1273.60 468.91 C 1266.01 544.75 1266.63 621.21 1256.93 696.87 C 1251.90 741.25 1242.72 785.26 1228.43 827.61 C 1214.64 867.53 1195.92 905.90 1171.54 940.45 C 1160.14 957.11 1147.40 972.83 1133.35 987.31 C 1121.97 998.87 1110.24 1010.31 1096.69 1019.32 C 1101.11 1019.36 1105.53 1019.29 1109.96 1019.32 C 1116.57 1020.26 1121.70 1015.20 1127.05 1012.19 C 1158.53 990.65 1186.12 963.63 1209.46 933.51 C 1233.32 902.21 1252.33 867.36 1266.94 830.85 C 1273.55 813.81 1278.82 796.28 1283.83 778.71 C 1290.75 753.49 1295.03 727.67 1299.29 701.91 C 1307.02 651.54 1310.87 600.71 1315.13 549.96 C 1319.27 498.78 1322.23 447.17 1334.14 397.04 C 1338.79 377.10 1345.21 357.33 1355.67 339.63 C 1339.57 336.13 1323.53 332.25 1307.29 329.46 M 547.43 378.39 C 531.72 389.18 518.35 403.44 508.83 419.97 C 490.95 451.55 486.29 489.51 492.09 525.03 C 496.35 550.65 505.23 575.44 517.77 598.16 C 526.99 614.51 537.67 630.01 549.21 644.80 C 568.97 670.47 592.27 693.13 616.02 715.06 C 642.37 739.05 670.15 761.45 695.98 786.02 C 713.98 803.52 731.90 821.77 744.12 843.92 C 750.82 855.84 755.40 869.21 755.59 882.98 C 755.76 895.35 752.64 908.06 745.23 918.13 C 753.68 913.05 758.13 903.51 760.21 894.21 C 764.18 877.56 760.59 859.94 753.24 844.74 C 743.45 823.83 728.07 806.22 712.38 789.54 C 666.11 741.83 612.71 701.05 571.20 648.78 C 560.12 634.82 550.19 619.95 541.26 604.52 C 521.76 570.82 509.71 532.13 510.37 492.98 C 510.88 472.76 515.33 452.52 524.24 434.31 C 532.27 418.05 544.28 403.63 559.40 393.51 C 576.39 381.75 597.44 375.49 618.13 377.53 C 637.78 379.68 656.75 388.35 670.94 402.17 C 681.72 412.92 689.68 426.85 691.89 442.04 C 694.21 457.06 691.17 473.37 681.60 485.45 C 677.87 490.40 672.99 494.25 668.19 498.08 C 676.86 501.25 686.66 498.14 693.59 492.50 C 703.49 484.23 708.73 471.62 710.67 459.12 C 713.40 441.86 708.99 423.94 699.85 409.18 C 689.57 392.53 674.97 378.21 657.12 369.90 C 638.84 361.16 618.11 357.88 598.00 359.98 C 580.01 361.97 562.48 368.32 547.43 378.39 M 1376.61 378.49 C 1360.15 390.16 1347.10 406.89 1340.65 426.07 C 1335.67 442.07 1335.59 460.00 1342.36 475.49 C 1345.75 483.20 1350.87 490.44 1358.14 494.91 C 1364.59 498.93 1372.85 500.76 1380.16 498.02 C 1375.67 494.46 1371.09 490.95 1367.43 486.50 C 1358.41 475.95 1354.73 461.59 1355.70 447.91 C 1356.92 433.37 1362.51 419.10 1372.04 407.98 C 1384.78 392.98 1402.87 382.80 1422.07 378.79 C 1438.92 375.16 1456.71 377.76 1472.48 384.42 C 1490.85 392.22 1506.55 405.85 1517.38 422.58 C 1526.62 436.35 1532.15 452.32 1535.18 468.56 C 1540.24 495.06 1537.71 522.58 1530.64 548.47 C 1525.67 567.15 1517.89 584.96 1508.59 601.86 C 1490.19 634.68 1466.05 663.96 1439.51 690.51 C 1414.33 716.03 1387.33 739.65 1361.25 764.23 C 1337.90 786.66 1313.77 809.35 1298.11 838.10 C 1288.99 854.58 1283.71 874.09 1287.53 892.87 C 1289.61 902.78 1294.18 912.97 1303.07 918.51 C 1291.05 902.22 1290.11 879.98 1296.23 861.21 C 1302.24 842.53 1314.59 826.85 1327.08 812.06 C 1363.74 770.57 1409.11 738.20 1448.46 699.49 C 1475.09 673.90 1500.30 646.49 1520.34 615.35 C 1541.98 582.54 1556.03 544.37 1558.33 505.00 C 1559.58 482.54 1556.22 459.79 1548.21 438.76 C 1536.30 407.16 1511.50 379.91 1479.87 367.40 C 1446.45 353.92 1406.16 357.45 1376.61 378.49 M 562.64 400.43 C 547.91 410.51 536.53 425.09 529.27 441.32 C 521.19 459.03 517.87 478.61 517.81 497.99 C 518.13 519.41 522.07 540.75 529.43 560.87 C 542.17 596.24 563.20 628.06 587.54 656.50 C 628.77 704.87 679.50 743.83 722.93 790.08 C 739.27 807.76 754.40 827.25 763.13 849.91 C 768.28 864.17 771.00 879.87 767.56 894.86 C 765.39 905.84 760.37 917.02 750.66 923.28 C 760.51 921.91 768.65 915.08 774.05 907.04 C 782.26 894.79 784.33 879.17 781.62 864.86 C 778.64 848.20 770.32 833.08 760.70 819.38 C 748.85 801.59 734.45 785.71 719.45 770.55 C 697.17 748.14 673.99 726.63 651.49 704.44 C 627.82 680.71 604.12 656.73 584.49 629.46 C 562.38 599.27 545.27 564.74 539.09 527.60 C 535.19 505.14 535.52 481.73 541.80 459.73 C 547.16 441.48 557.65 424.44 572.76 412.71 C 584.78 403.47 599.80 397.99 615.02 398.24 C 632.78 398.14 650.24 405.79 662.62 418.44 C 673.99 429.67 679.66 446.08 678.49 461.94 C 678.29 469.35 675.99 476.42 673.45 483.31 C 682.80 472.74 686.96 457.77 684.59 443.87 C 682.51 428.06 673.43 413.77 661.26 403.72 C 648.30 392.85 631.89 386.03 614.97 385.05 C 596.42 383.77 577.73 389.72 562.64 400.43 M 1420.45 386.80 C 1404.41 390.51 1389.50 399.29 1378.71 411.76 C 1367.84 423.97 1361.73 440.67 1363.33 457.05 C 1364.55 466.64 1368.43 476.00 1374.71 483.38 C 1373.10 478.27 1370.83 473.35 1370.09 468.01 C 1368.31 456.22 1369.95 443.87 1375.11 433.10 C 1382.63 418.10 1396.68 406.92 1412.46 401.62 C 1431.47 395.19 1453.30 397.98 1470.17 408.83 C 1485.80 418.53 1497.06 434.12 1503.60 451.12 C 1511.28 471.36 1512.92 493.52 1510.92 514.95 C 1509.02 537.32 1502.37 559.03 1493.32 579.49 C 1478.30 612.33 1456.24 641.49 1431.78 667.85 C 1405.93 695.96 1378.19 722.22 1350.78 748.77 C 1324.62 773.80 1298.61 799.76 1280.17 831.21 C 1272.55 844.27 1266.86 858.82 1265.77 874.01 C 1265.01 887.31 1268.87 901.16 1277.72 911.30 C 1282.66 917.11 1289.30 922.15 1297.05 923.14 C 1286.89 916.19 1281.88 904.13 1279.87 892.38 C 1277.34 878.53 1279.86 864.26 1284.41 851.10 C 1289.24 837.99 1296.37 825.82 1304.63 814.59 C 1317.11 797.65 1331.75 782.44 1346.84 767.83 C 1372.18 743.14 1398.87 719.89 1424.20 695.19 C 1450.99 669.00 1476.06 640.69 1495.75 608.70 C 1515.45 576.56 1529.15 539.91 1530.25 501.94 C 1530.61 480.70 1527.18 459.13 1518.21 439.75 C 1509.66 420.95 1495.05 404.87 1476.85 395.02 C 1459.84 385.70 1439.41 382.45 1420.45 386.80 M 581.06 422.11 C 567.87 431.99 559.12 446.78 554.14 462.28 C 548.70 480.57 548.18 500.03 550.47 518.89 C 553.02 539.90 559.72 560.24 568.78 579.30 C 585.06 613.04 608.94 642.41 634.56 669.47 C 655.20 691.15 676.82 711.86 698.41 732.60 C 717.90 751.67 737.80 770.44 755.40 791.30 C 751.79 778.65 748.49 765.91 745.83 753.03 C 739.24 721.32 734.21 689.29 730.61 657.10 C 726.03 617.48 723.29 577.68 719.98 537.95 C 718.37 520.30 717.62 502.56 715.29 485.00 C 709.94 494.88 702.06 503.82 691.58 508.35 C 681.31 512.97 668.38 513.64 658.70 507.27 C 653.59 503.70 649.89 495.71 654.23 490.23 C 658.65 484.57 662.42 478.30 664.63 471.43 C 668.69 458.75 666.44 444.25 658.73 433.39 C 650.57 421.50 637.21 413.63 623.13 411.05 C 608.30 408.46 593.04 413.38 581.06 422.11 M 1389.79 432.82 C 1380.04 445.97 1378.98 464.74 1386.81 479.06 C 1388.64 482.76 1391.38 485.86 1393.78 489.19 C 1397.17 494.20 1396.21 501.69 1391.54 505.60 C 1384.74 511.69 1374.85 512.86 1366.17 511.25 C 1351.66 508.47 1339.64 497.91 1332.84 485.08 C 1327.32 542.69 1324.07 600.51 1317.60 658.04 C 1312.55 702.55 1305.22 746.92 1293.41 790.17 C 1311.70 769.26 1331.71 749.95 1351.67 730.66 C 1377.48 705.83 1403.34 680.99 1427.36 654.41 C 1451.27 627.48 1472.94 597.85 1486.22 564.14 C 1494.08 544.75 1498.36 523.95 1499.27 503.06 C 1499.66 481.76 1496.29 459.56 1484.75 441.26 C 1475.64 426.25 1460.51 414.75 1443.17 411.27 C 1423.20 407.23 1401.63 416.46 1389.79 432.82 M 931.90 1038.06 C 929.80 1044.57 935.26 1052.07 942.03 1052.29 C 949.54 1052.40 957.06 1052.23 964.58 1052.30 C 960.51 1046.26 959.80 1038.36 962.66 1031.67 C 954.74 1031.77 946.82 1031.65 938.91 1031.72 C 935.29 1031.56 932.88 1034.96 931.90 1038.06 M 971.22 1032.18 C 967.70 1035.13 967.85 1040.41 968.70 1044.54 C 969.64 1048.35 972.50 1052.82 977.00 1052.34 C 1007.32 1052.37 1037.65 1052.33 1067.97 1052.37 C 1070.64 1052.28 1073.69 1052.85 1075.91 1050.97 C 1079.73 1047.89 1080.43 1042.43 1079.98 1037.84 C 1079.73 1035.14 1078.45 1031.49 1075.13 1031.74 C 1042.09 1031.54 1009.04 1031.68 976.00 1031.69 C 974.42 1031.85 972.61 1031.32 971.22 1032.18 M 1086.07 1031.68 C 1088.50 1038.37 1088.38 1046.21 1084.40 1052.30 C 1091.58 1052.28 1098.76 1052.29 1105.95 1052.32 C 1111.29 1052.54 1116.08 1048.10 1117.04 1042.97 C 1118.30 1037.92 1114.55 1031.78 1109.07 1031.75 C 1101.40 1031.54 1093.73 1031.67 1086.07 1031.68 M 950.18 1062.36 C 963.86 1077.39 971.73 1097.06 973.85 1117.15 C 978.68 1117.15 983.51 1117.17 988.35 1117.17 C 986.56 1101.00 984.53 1084.22 976.36 1069.84 C 974.74 1067.19 973.05 1064.46 970.58 1062.53 C 963.80 1062.11 956.98 1062.48 950.18 1062.36 M 979.91 1062.34 C 990.78 1078.43 993.91 1098.27 995.85 1117.21 C 1014.80 1117.29 1033.75 1117.12 1052.71 1117.28 C 1054.67 1098.31 1057.68 1078.42 1068.97 1062.47 C 1039.28 1062.29 1009.59 1062.48 979.91 1062.34 M 1077.78 1062.49 C 1064.92 1077.55 1061.80 1098.08 1060.53 1117.19 C 1065.22 1117.20 1069.91 1117.18 1074.62 1117.17 C 1076.38 1096.90 1085.20 1077.38 1099.03 1062.48 C 1091.94 1062.38 1084.86 1062.38 1077.78 1062.49 M 967.18 1127.22 C 962.83 1128.05 960.01 1136.32 964.99 1137.77 C 1004.34 1138.01 1043.72 1137.76 1083.08 1137.83 C 1084.27 1137.81 1086.54 1137.94 1086.35 1136.06 C 1087.47 1131.57 1083.86 1126.81 1079.21 1126.91 C 1049.13 1126.78 1019.04 1126.94 988.95 1126.85 C 981.70 1127.11 974.35 1126.26 967.18 1127.22 M 950.34 1149.33 C 944.17 1153.07 942.40 1162.31 946.83 1168.03 C 949.53 1171.90 954.44 1173.26 958.93 1173.47 C 965.01 1173.65 971.10 1173.56 977.18 1173.52 C 972.74 1165.43 972.76 1155.21 977.82 1147.39 C 971.88 1147.27 965.93 1147.36 959.99 1147.34 C 956.69 1147.34 953.18 1147.44 950.34 1149.33 M 989.34 1147.44 C 987.30 1147.49 985.71 1148.97 984.47 1150.43 C 980.98 1154.75 980.60 1160.87 982.05 1166.07 C 983.25 1169.89 986.38 1174.20 990.89 1173.70 C 1013.82 1173.56 1036.77 1173.87 1059.68 1173.50 C 1070.26 1169.58 1069.55 1151.73 1059.61 1147.50 C 1036.20 1147.20 1012.75 1147.28 989.34 1147.44 M 1070.24 1147.38 C 1072.49 1151.24 1074.42 1155.48 1074.48 1160.05 C 1074.72 1164.82 1073.04 1169.40 1070.94 1173.61 C 1077.98 1173.49 1085.04 1173.75 1092.08 1173.27 C 1098.25 1172.76 1103.80 1167.44 1103.72 1161.09 C 1104.37 1154.43 1099.07 1147.82 1092.31 1147.49 C 1084.96 1147.20 1077.59 1147.36 1070.24 1147.38 M 962.21 1183.19 C 962.20 1185.98 961.58 1189.15 963.32 1191.60 C 964.50 1193.50 966.67 1194.69 968.94 1194.53 C 1005.97 1194.44 1043.01 1194.55 1080.04 1194.55 C 1085.01 1194.82 1087.95 1188.85 1086.31 1184.61 C 1085.74 1183.32 1084.26 1183.15 1083.06 1183.18 C 1042.78 1183.22 1002.49 1183.06 962.21 1183.19 M 972.93 1204.21 C 967.73 1249.92 940.42 1291.84 902.46 1317.36 C 897.26 1321.25 891.31 1323.93 885.98 1327.61 C 901.00 1327.80 916.03 1327.48 931.05 1327.78 C 932.60 1327.74 934.28 1327.67 935.59 1326.69 C 940.34 1323.53 944.43 1319.49 948.29 1315.31 C 959.60 1302.57 968.72 1287.87 974.91 1271.99 C 983.31 1250.37 987.82 1227.31 988.94 1204.17 C 983.60 1204.11 978.26 1204.05 972.93 1204.21 M 996.42 1204.13 C 995.02 1230.91 989.02 1257.54 978.33 1282.15 C 970.34 1299.17 959.91 1315.57 945.34 1327.69 C 997.80 1327.61 1050.27 1327.64 1102.74 1327.67 C 1098.31 1324.34 1094.70 1320.11 1091.18 1315.89 C 1080.74 1302.94 1072.12 1288.45 1066.33 1272.84 C 1058.23 1250.82 1053.00 1227.64 1052.31 1204.14 C 1033.68 1204.19 1015.05 1204.16 996.42 1204.13 M 1059.79 1204.51 C 1060.95 1227.55 1065.07 1250.65 1073.77 1272.10 C 1081.55 1291.13 1092.84 1308.97 1107.97 1323.00 C 1110.71 1325.52 1114.01 1328.11 1117.99 1327.70 C 1132.87 1327.51 1147.77 1327.95 1162.65 1327.45 C 1132.61 1311.54 1107.41 1286.40 1091.80 1256.16 C 1083.02 1239.97 1077.76 1222.08 1075.28 1203.87 C 1071.53 1203.83 1067.78 1203.83 1064.04 1203.83 C 1062.61 1203.98 1060.91 1203.39 1059.79 1204.51 M 866.28 1337.17 C 866.23 1341.46 866.24 1345.77 866.33 1350.07 C 886.63 1350.31 906.94 1350.17 927.25 1350.17 C 927.26 1345.83 927.30 1341.51 927.38 1337.19 C 907.01 1337.17 886.65 1337.14 866.28 1337.17 M 935.42 1337.35 C 935.29 1341.63 935.27 1345.92 935.45 1350.21 C 994.58 1350.31 1053.71 1350.14 1112.84 1350.22 C 1112.90 1345.89 1113.28 1341.56 1112.86 1337.25 C 1078.57 1337.04 1044.27 1337.22 1009.98 1337.17 C 985.13 1337.28 960.27 1336.92 935.42 1337.35 M 1120.02 1337.20 C 1120.74 1341.55 1121.36 1345.93 1121.37 1350.36 C 1129.20 1349.81 1137.07 1349.76 1144.93 1350.09 C 1155.95 1350.11 1166.98 1350.17 1178.01 1350.17 C 1179.45 1350.10 1181.91 1350.31 1182.09 1348.30 C 1182.26 1344.62 1182.07 1340.94 1182.11 1337.27 C 1161.41 1337.08 1140.71 1337.14 1120.02 1337.20 M 847.76 1367.81 C 843.35 1373.75 844.29 1381.49 844.55 1388.42 C 867.04 1388.69 889.55 1388.49 912.05 1388.52 C 912.33 1381.99 911.48 1375.24 913.69 1368.97 C 914.78 1365.44 916.87 1362.37 919.02 1359.42 C 900.99 1359.11 882.95 1359.28 864.91 1359.59 C 858.37 1359.67 851.49 1362.15 847.76 1367.81 M 921.93 1369.87 C 919.11 1375.70 920.40 1382.33 920.20 1388.57 C 989.53 1388.55 1058.85 1388.66 1128.18 1388.51 C 1127.98 1382.29 1129.18 1375.66 1126.39 1369.85 C 1123.63 1364.01 1117.73 1359.06 1111.02 1359.30 C 1053.35 1359.17 995.68 1359.32 938.02 1359.22 C 931.01 1358.60 924.69 1363.73 921.93 1369.87 M 1128.81 1359.33 C 1131.54 1362.36 1133.96 1365.79 1135.16 1369.75 C 1137.03 1375.80 1136.04 1382.20 1136.28 1388.43 C 1158.91 1388.50 1181.55 1388.67 1204.18 1388.38 C 1204.91 1380.66 1204.25 1372.16 1198.86 1366.11 C 1194.21 1360.78 1186.82 1359.00 1180.00 1359.31 C 1162.93 1359.28 1145.87 1359.21 1128.81 1359.33 M 821.76 1400.70 C 821.75 1414.30 821.81 1427.90 821.82 1441.50 C 847.01 1441.55 872.20 1441.70 897.40 1441.54 C 897.63 1427.92 897.61 1414.31 897.46 1400.70 C 872.23 1400.65 847.00 1400.64 821.76 1400.70 M 905.74 1400.69 C 905.67 1414.33 905.61 1427.97 905.66 1441.61 C 984.58 1441.59 1063.49 1441.63 1142.40 1441.54 C 1142.38 1427.91 1142.27 1414.29 1142.48 1400.66 C 1063.56 1400.70 984.65 1400.61 905.74 1400.69 M 1150.66 1400.72 C 1150.57 1414.34 1150.65 1427.96 1150.60 1441.58 C 1175.94 1441.74 1201.29 1441.60 1226.63 1441.60 C 1226.71 1427.95 1226.65 1414.29 1226.77 1400.65 C 1201.40 1400.71 1176.03 1400.67 1150.66 1400.72 M 792.69 1453.51 C 792.70 1463.17 792.71 1472.84 792.73 1482.51 C 821.54 1482.50 850.34 1482.65 879.15 1482.40 C 879.10 1472.80 879.18 1463.19 879.12 1453.59 C 850.31 1453.52 821.50 1453.54 792.69 1453.51 M 888.49 1482.56 C 978.92 1482.63 1069.35 1482.59 1159.78 1482.64 C 1159.80 1472.98 1159.82 1463.32 1159.85 1453.66 C 1069.37 1453.51 978.88 1453.56 888.40 1453.62 C 888.42 1463.27 888.44 1472.91 888.49 1482.56 M 1169.14 1453.73 C 1169.09 1463.34 1169.14 1472.96 1169.17 1482.58 C 1197.97 1482.67 1226.77 1482.56 1255.58 1482.63 C 1255.58 1472.96 1255.64 1463.28 1255.63 1453.62 C 1226.80 1453.56 1197.97 1453.60 1169.14 1453.73 M 766.39 1511.34 C 796.89 1511.42 827.40 1511.52 857.90 1511.35 C 860.84 1504.30 864.69 1497.63 870.07 1492.16 C 845.40 1492.02 820.73 1492.22 796.07 1491.98 C 783.45 1492.01 772.82 1501.15 766.39 1511.34 M 882.24 1494.24 C 876.11 1498.38 871.92 1504.79 868.85 1511.41 C 972.44 1511.45 1076.02 1511.47 1179.60 1511.37 C 1176.80 1505.55 1173.16 1499.98 1168.19 1495.80 C 1165.40 1493.38 1161.76 1491.95 1158.06 1492.13 C 1069.05 1492.08 980.04 1492.13 891.03 1492.11 C 887.95 1491.95 884.78 1492.41 882.24 1494.24 M 1178.18 1491.85 C 1183.40 1497.51 1187.03 1504.38 1190.07 1511.40 C 1220.83 1511.42 1251.59 1511.43 1282.35 1511.38 C 1276.05 1502.52 1267.10 1494.94 1256.37 1492.34 C 1243.26 1491.37 1230.11 1492.37 1216.99 1491.90 C 1204.05 1492.14 1191.11 1492.24 1178.18 1491.85 M 760.26 1520.83 C 760.06 1567.02 760.15 1613.22 760.21 1659.41 C 792.28 1659.56 824.34 1659.51 856.41 1659.54 C 856.39 1613.31 856.53 1567.08 856.37 1520.85 C 824.33 1520.82 792.29 1520.86 760.26 1520.83 M 866.20 1520.85 C 865.94 1567.07 866.23 1613.29 866.06 1659.50 C 971.41 1659.52 1076.75 1659.56 1182.10 1659.44 C 1182.19 1637.96 1182.11 1616.48 1182.11 1595.01 C 1181.94 1570.29 1182.45 1545.55 1181.87 1520.85 C 1076.65 1520.87 971.42 1520.84 866.20 1520.85 M 1191.62 1520.81 C 1191.57 1567.07 1191.47 1613.33 1191.67 1659.59 C 1223.86 1659.70 1256.07 1659.70 1288.26 1659.57 C 1288.28 1613.33 1288.45 1567.09 1288.21 1520.86 C 1256.01 1520.84 1223.81 1520.89 1191.62 1520.81 M 740.86 1669.61 C 741.02 1675.81 740.38 1682.08 741.28 1688.24 C 775.09 1688.12 808.91 1688.09 842.72 1688.24 C 843.66 1682.08 842.85 1675.79 843.11 1669.59 C 809.02 1669.57 774.94 1669.44 740.86 1669.61 M 853.09 1669.60 C 853.11 1675.77 853.03 1681.96 853.18 1688.15 C 967.26 1688.12 1081.33 1688.14 1195.41 1688.12 C 1195.42 1682.00 1195.60 1675.88 1195.25 1669.77 C 1190.18 1669.53 1185.12 1669.59 1180.06 1669.58 C 1071.07 1669.55 962.08 1669.47 853.09 1669.60 M 1205.43 1688.17 C 1239.39 1688.10 1273.35 1688.14 1307.32 1688.14 C 1307.36 1681.95 1307.42 1675.77 1307.29 1669.59 C 1273.30 1669.40 1239.30 1669.62 1205.31 1669.54 C 1205.36 1675.74 1205.19 1681.96 1205.43 1688.17 M 731.35 1699.61 C 723.01 1703.02 715.76 1709.66 712.39 1718.11 C 710.23 1723.35 710.88 1729.10 710.80 1734.63 C 749.36 1734.68 787.91 1734.72 826.47 1734.58 C 826.63 1728.04 825.99 1721.44 827.18 1714.98 C 828.19 1708.56 831.35 1702.70 835.57 1697.82 C 806.70 1697.83 777.82 1697.81 748.95 1697.83 C 743.06 1697.90 736.93 1697.25 731.35 1699.61 M 837.77 1712.75 C 835.70 1719.86 836.36 1727.40 836.48 1734.72 C 961.59 1734.62 1086.70 1734.75 1211.82 1734.65 C 1211.55 1726.34 1213.16 1717.41 1209.23 1709.71 C 1206.01 1703.24 1199.59 1697.59 1192.02 1697.82 C 1080.36 1697.86 968.71 1697.80 857.06 1697.83 C 848.03 1697.42 840.57 1704.67 837.77 1712.75 M 1213.07 1697.92 C 1215.14 1701.55 1217.85 1704.83 1219.34 1708.79 C 1222.77 1716.95 1221.15 1726.00 1221.68 1734.60 C 1260.35 1734.72 1299.02 1734.66 1337.69 1734.66 C 1337.72 1729.21 1338.41 1723.55 1336.44 1718.34 C 1331.38 1705.11 1317.01 1696.50 1302.95 1697.81 C 1272.99 1697.88 1243.03 1697.71 1213.07 1697.92 M 690.63 1744.54 C 690.49 1756.16 690.52 1767.79 690.63 1779.42 C 730.68 1779.65 770.74 1779.52 810.79 1779.49 C 810.76 1767.79 810.73 1756.08 810.68 1744.38 C 770.66 1744.53 730.64 1744.24 690.63 1744.54 M 820.38 1744.33 C 820.39 1756.05 820.29 1767.78 820.47 1779.52 C 956.25 1779.54 1092.04 1779.57 1227.82 1779.50 C 1227.79 1767.78 1227.86 1756.05 1227.73 1744.33 C 1198.13 1744.50 1168.54 1744.38 1138.95 1744.42 C 1032.76 1744.36 926.57 1744.52 820.38 1744.33 M 1237.60 1744.27 C 1237.47 1756.01 1237.36 1767.76 1237.36 1779.51 C 1277.51 1779.50 1317.66 1779.62 1357.81 1779.45 C 1357.69 1767.78 1358.06 1756.10 1357.63 1744.45 C 1317.62 1744.28 1277.61 1744.61 1237.60 1744.27 Z" style="fill: rgb(0, 0, 0) !important; stroke: rgb(0, 0, 0) !important;"/>
</g>
<g id="#fefffeff" style="fill: rgb(0, 0, 0) !important;">
<path fill="#fefffe" stroke="#fefffe" stroke-width="0.09375" opacity="1.00" d=" M 977.16 276.23 C 1039.46 274.77 1101.82 276.29 1164.02 280.02 C 1212.53 282.82 1260.94 287.85 1308.93 295.60 C 1326.11 298.50 1343.29 301.73 1359.96 306.91 C 1364.45 308.39 1369.54 310.65 1371.33 315.41 C 1373.08 321.75 1369.08 329.34 1362.93 331.53 C 1346.42 327.87 1330.00 323.64 1313.29 320.87 C 1259.97 311.58 1205.97 306.77 1151.97 303.64 C 1083.07 299.89 1014.00 299.46 945.03 301.69 C 879.18 304.11 813.29 308.58 748.13 318.70 C 727.59 321.91 707.29 326.46 687.06 331.18 C 683.96 332.20 681.56 329.29 679.87 327.14 C 676.68 322.92 675.08 316.27 679.01 312.01 C 682.99 307.98 688.77 306.77 694.01 305.22 C 719.55 298.21 745.82 294.41 772.00 290.73 C 840.00 281.57 908.60 277.65 977.16 276.23 Z" style="fill: none !important;"/>
<path fill="#fefffe" stroke="#fefffe" stroke-width="0.09375" opacity="1.00" d=" M 971.22 1032.18 C 972.61 1031.32 974.42 1031.85 976.00 1031.69 C 1009.04 1031.68 1042.09 1031.54 1075.13 1031.74 C 1078.45 1031.49 1079.73 1035.14 1079.98 1037.84 C 1080.43 1042.43 1079.73 1047.89 1075.91 1050.97 C 1073.69 1052.85 1070.64 1052.28 1067.97 1052.37 C 1037.65 1052.33 1007.32 1052.37 977.00 1052.34 C 972.50 1052.82 969.64 1048.35 968.70 1044.54 C 967.85 1040.41 967.70 1035.13 971.22 1032.18 Z" style="fill: none !important;"/>
<path fill="#fefffe" stroke="#fefffe" stroke-width="0.09375" opacity="1.00" d=" M 1086.07 1031.68 C 1093.73 1031.67 1101.40 1031.54 1109.07 1031.75 C 1114.55 1031.78 1118.30 1037.92 1117.04 1042.97 C 1116.08 1048.10 1111.29 1052.54 1105.95 1052.32 C 1098.76 1052.29 1091.58 1052.28 1084.40 1052.30 C 1088.38 1046.21 1088.50 1038.37 1086.07 1031.68 Z" style="fill: none !important;"/>
<path fill="#fefffe" stroke="#fefffe" stroke-width="0.09375" opacity="1.00" d=" M 1077.78 1062.49 C 1084.86 1062.38 1091.94 1062.38 1099.03 1062.48 C 1085.20 1077.38 1076.38 1096.90 1074.62 1117.17 C 1069.91 1117.18 1065.22 1117.20 1060.53 1117.19 C 1061.80 1098.08 1064.92 1077.55 1077.78 1062.49 Z" style="fill: none !important;"/>
<path fill="#fefffe" stroke="#fefffe" stroke-width="0.09375" opacity="1.00" d=" M 950.34 1149.33 C 953.18 1147.44 956.69 1147.34 959.99 1147.34 C 965.93 1147.36 971.88 1147.27 977.82 1147.39 C 972.76 1155.21 972.74 1165.43 977.18 1173.52 C 971.10 1173.56 965.01 1173.65 958.93 1173.47 C 954.44 1173.26 949.53 1171.90 946.83 1168.03 C 942.40 1162.31 944.17 1153.07 950.34 1149.33 Z" style="fill: none !important;"/>
<path fill="#fefffe" stroke="#fefffe" stroke-width="0.09375" opacity="1.00" d=" M 1070.24 1147.38 C 1077.59 1147.36 1084.96 1147.20 1092.31 1147.49 C 1099.07 1147.82 1104.37 1154.43 1103.72 1161.09 C 1103.80 1167.44 1098.25 1172.76 1092.08 1173.27 C 1085.04 1173.75 1077.98 1173.49 1070.94 1173.61 C 1073.04 1169.40 1074.72 1164.82 1074.48 1160.05 C 1074.42 1155.48 1072.49 1151.24 1070.24 1147.38 Z" style="fill: none !important;"/>
<path fill="#fefffe" stroke="#fefffe" stroke-width="0.09375" opacity="1.00" d=" M 921.93 1369.87 C 924.69 1363.73 931.01 1358.60 938.02 1359.22 C 995.68 1359.32 1053.35 1359.17 1111.02 1359.30 C 1117.73 1359.06 1123.63 1364.01 1126.39 1369.85 C 1129.18 1375.66 1127.98 1382.29 1128.18 1388.51 C 1058.85 1388.66 989.53 1388.55 920.20 1388.57 C 920.40 1382.33 919.11 1375.70 921.93 1369.87 Z" style="fill: none !important;"/>
<path fill="#fefffe" stroke="#fefffe" stroke-width="0.09375" opacity="1.00" d=" M 1128.81 1359.33 C 1145.87 1359.21 1162.93 1359.28 1180.00 1359.31 C 1186.82 1359.00 1194.21 1360.78 1198.86 1366.11 C 1204.25 1372.16 1204.91 1380.66 1204.18 1388.38 C 1181.55 1388.67 1158.91 1388.50 1136.28 1388.43 C 1136.04 1382.20 1137.03 1375.80 1135.16 1369.75 C 1133.96 1365.79 1131.54 1362.36 1128.81 1359.33 Z" style="fill: none !important;"/>
<path fill="#fefffe" stroke="#fefffe" stroke-width="0.09375" opacity="1.00" d=" M 821.76 1400.70 C 847.00 1400.64 872.23 1400.65 897.46 1400.70 C 897.61 1414.31 897.63 1427.92 897.40 1441.54 C 872.20 1441.70 847.01 1441.55 821.82 1441.50 C 821.81 1427.90 821.75 1414.30 821.76 1400.70 Z" style="fill: none !important;"/>
<path fill="#fefffe" stroke="#fefffe" stroke-width="0.09375" opacity="1.00" d=" M 905.74 1400.69 C 984.65 1400.61 1063.56 1400.70 1142.48 1400.66 C 1142.27 1414.29 1142.38 1427.91 1142.40 1441.54 C 1063.49 1441.63 984.58 1441.59 905.66 1441.61 C 905.61 1427.97 905.67 1414.33 905.74 1400.69 Z" style="fill: none !important;"/>
<path fill="#fefffe" stroke="#fefffe" stroke-width="0.09375" opacity="1.00" d=" M 1150.66 1400.72 C 1176.03 1400.67 1201.40 1400.71 1226.77 1400.65 C 1226.65 1414.29 1226.71 1427.95 1226.63 1441.60 C 1201.29 1441.60 1175.94 1441.74 1150.60 1441.58 C 1150.65 1427.96 1150.57 1414.34 1150.66 1400.72 Z" style="fill: none !important;"/>
<path fill="#fefffe" stroke="#fefffe" stroke-width="0.09375" opacity="1.00" d=" M 792.69 1453.51 C 821.50 1453.54 850.31 1453.52 879.12 1453.59 C 879.18 1463.19 879.10 1472.80 879.15 1482.40 C 850.34 1482.65 821.54 1482.50 792.73 1482.51 C 792.71 1472.84 792.70 1463.17 792.69 1453.51 Z" style="fill: none !important;"/>
<path fill="#fefffe" stroke="#fefffe" stroke-width="0.09375" opacity="1.00" d=" M 888.49 1482.56 C 888.44 1472.91 888.42 1463.27 888.40 1453.62 C 978.88 1453.56 1069.37 1453.51 1159.85 1453.66 C 1159.82 1463.32 1159.80 1472.98 1159.78 1482.64 C 1069.35 1482.59 978.92 1482.63 888.49 1482.56 Z" style="fill: none !important;"/>
<path fill="#fefffe" stroke="#fefffe" stroke-width="0.09375" opacity="1.00" d=" M 1169.14 1453.73 C 1197.97 1453.60 1226.80 1453.56 1255.63 1453.62 C 1255.64 1463.28 1255.58 1472.96 1255.58 1482.63 C 1226.77 1482.56 1197.97 1482.67 1169.17 1482.58 C 1169.14 1472.96 1169.09 1463.34 1169.14 1453.73 Z" style="fill: none !important;"/>
<path fill="#fefffe" stroke="#fefffe" stroke-width="0.09375" opacity="1.00" d=" M 882.24 1494.24 C 884.78 1492.41 887.95 1491.95 891.03 1492.11 C 980.04 1492.13 1069.05 1492.08 1158.06 1492.13 C 1161.76 1491.95 1165.40 1493.38 1168.19 1495.80 C 1173.16 1499.98 1176.80 1505.55 1179.60 1511.37 C 1076.02 1511.47 972.44 1511.45 868.85 1511.41 C 871.92 1504.79 876.11 1498.38 882.24 1494.24 Z" style="fill: none !important;"/>
<path fill="#fefffe" stroke="#fefffe" stroke-width="0.09375" opacity="1.00" d=" M 1178.18 1491.85 C 1191.11 1492.24 1204.05 1492.14 1216.99 1491.90 C 1230.11 1492.37 1243.26 1491.37 1256.37 1492.34 C 1267.10 1494.94 1276.05 1502.52 1282.35 1511.38 C 1251.59 1511.43 1220.83 1511.42 1190.07 1511.40 C 1187.03 1504.38 1183.40 1497.51 1178.18 1491.85 Z" style="fill: none !important;"/>
<path fill="#fefffe" stroke="#fefffe" stroke-width="0.09375" opacity="1.00" d=" M 853.09 1669.60 C 962.08 1669.47 1071.07 1669.55 1180.06 1669.58 C 1185.12 1669.59 1190.18 1669.53 1195.25 1669.77 C 1195.60 1675.88 1195.42 1682.00 1195.41 1688.12 C 1081.33 1688.14 967.26 1688.12 853.18 1688.15 C 853.03 1681.96 853.11 1675.77 853.09 1669.60 Z" style="fill: none !important;"/>
<path fill="#fefffe" stroke="#fefffe" stroke-width="0.09375" opacity="1.00" d=" M 1205.43 1688.17 C 1205.19 1681.96 1205.36 1675.74 1205.31 1669.54 C 1239.30 1669.62 1273.30 1669.40 1307.29 1669.59 C 1307.42 1675.77 1307.36 1681.95 1307.32 1688.14 C 1273.35 1688.14 1239.39 1688.10 1205.43 1688.17 Z" style="fill: none !important;"/>
<path fill="#fefffe" stroke="#fefffe" stroke-width="0.09375" opacity="1.00" d=" M 1213.07 1697.92 C 1243.03 1697.71 1272.99 1697.88 1302.95 1697.81 C 1317.01 1696.50 1331.38 1705.11 1336.44 1718.34 C 1338.41 1723.55 1337.72 1729.21 1337.69 1734.66 C 1299.02 1734.66 1260.35 1734.72 1221.68 1734.60 C 1221.15 1726.00 1222.77 1716.95 1219.34 1708.79 C 1217.85 1704.83 1215.14 1701.55 1213.07 1697.92 Z" style="fill: none !important;"/>
</g>
<g id="#fefefeff" style="fill: rgb(0, 0, 0) !important;">
<path fill="#fefefe" stroke="#fefefe" stroke-width="0.09375" opacity="1.00" d=" M 693.13 339.56 C 709.05 335.92 724.94 332.09 741.06 329.47 C 748.53 346.11 755.20 363.18 759.57 380.93 C 766.45 408.21 771.25 436.00 774.29 463.97 C 778.69 508.22 780.69 552.67 783.34 597.05 C 785.14 632.44 788.20 667.76 792.14 702.97 C 795.58 732.65 801.46 762.02 808.91 790.94 C 818.55 828.71 833.06 865.19 851.37 899.58 C 859.96 915.56 870.05 930.67 880.46 945.50 C 892.86 962.85 906.42 979.43 921.80 994.22 C 931.14 1003.23 940.71 1012.15 951.55 1019.35 C 945.39 1018.97 939.09 1019.82 933.03 1018.85 C 918.46 1011.10 905.21 1001.03 892.73 990.29 C 864.94 966.53 840.99 938.47 821.17 907.78 C 798.24 873.37 781.57 835.08 769.59 795.58 C 761.48 769.96 756.03 743.58 751.72 717.08 C 738.35 637.99 734.89 557.72 727.26 477.98 C 724.97 457.21 722.71 436.40 718.53 415.91 C 713.45 389.53 706.26 363.17 693.13 339.56 Z" style="fill: none !important;"/>
<path fill="#fefefe" stroke="#fefefe" stroke-width="0.09375" opacity="1.00" d=" M 1307.29 329.46 C 1323.53 332.25 1339.57 336.13 1355.67 339.63 C 1345.21 357.33 1338.79 377.10 1334.14 397.04 C 1322.23 447.17 1319.27 498.78 1315.13 549.96 C 1310.87 600.71 1307.02 651.54 1299.29 701.91 C 1295.03 727.67 1290.75 753.49 1283.83 778.71 C 1278.82 796.28 1273.55 813.81 1266.94 830.85 C 1252.33 867.36 1233.32 902.21 1209.46 933.51 C 1186.12 963.63 1158.53 990.65 1127.05 1012.19 C 1121.70 1015.20 1116.57 1020.26 1109.96 1019.32 C 1105.53 1019.29 1101.11 1019.36 1096.69 1019.32 C 1110.24 1010.31 1121.97 998.87 1133.35 987.31 C 1147.40 972.83 1160.14 957.11 1171.54 940.45 C 1195.92 905.90 1214.64 867.53 1228.43 827.61 C 1242.72 785.26 1251.90 741.25 1256.93 696.87 C 1266.63 621.21 1266.01 544.75 1273.60 468.91 C 1276.45 441.35 1280.92 413.96 1287.17 386.97 C 1291.42 367.03 1299.28 348.13 1307.29 329.46 Z" style="fill: none !important;"/>
<path fill="#fefefe" stroke="#fefefe" stroke-width="0.09375" opacity="1.00" d=" M 547.43 378.39 C 562.48 368.32 580.01 361.97 598.00 359.98 C 618.11 357.88 638.84 361.16 657.12 369.90 C 674.97 378.21 689.57 392.53 699.85 409.18 C 708.99 423.94 713.40 441.86 710.67 459.12 C 708.73 471.62 703.49 484.23 693.59 492.50 C 686.66 498.14 676.86 501.25 668.19 498.08 C 672.99 494.25 677.87 490.40 681.60 485.45 C 691.17 473.37 694.21 457.06 691.89 442.04 C 689.68 426.85 681.72 412.92 670.94 402.17 C 656.75 388.35 637.78 379.68 618.13 377.53 C 597.44 375.49 576.39 381.75 559.40 393.51 C 544.28 403.63 532.27 418.05 524.24 434.31 C 515.33 452.52 510.88 472.76 510.37 492.98 C 509.71 532.13 521.76 570.82 541.26 604.52 C 550.19 619.95 560.12 634.82 571.20 648.78 C 612.71 701.05 666.11 741.83 712.38 789.54 C 728.07 806.22 743.45 823.83 753.24 844.74 C 760.59 859.94 764.18 877.56 760.21 894.21 C 758.13 903.51 753.68 913.05 745.23 918.13 C 752.64 908.06 755.76 895.35 755.59 882.98 C 755.40 869.21 750.82 855.84 744.12 843.92 C 731.90 821.77 713.98 803.52 695.98 786.02 C 670.15 761.45 642.37 739.05 616.02 715.06 C 592.27 693.13 568.97 670.47 549.21 644.80 C 537.67 630.01 526.99 614.51 517.77 598.16 C 505.23 575.44 496.35 550.65 492.09 525.03 C 486.29 489.51 490.95 451.55 508.83 419.97 C 518.35 403.44 531.72 389.18 547.43 378.39 Z" style="fill: none !important;"/>
<path fill="#fefefe" stroke="#fefefe" stroke-width="0.09375" opacity="1.00" d=" M 1376.61 378.49 C 1406.16 357.45 1446.45 353.92 1479.87 367.40 C 1511.50 379.91 1536.30 407.16 1548.21 438.76 C 1556.22 459.79 1559.58 482.54 1558.33 505.00 C 1556.03 544.37 1541.98 582.54 1520.34 615.35 C 1500.30 646.49 1475.09 673.90 1448.46 699.49 C 1409.11 738.20 1363.74 770.57 1327.08 812.06 C 1314.59 826.85 1302.24 842.53 1296.23 861.21 C 1290.11 879.98 1291.05 902.22 1303.07 918.51 C 1294.18 912.97 1289.61 902.78 1287.53 892.87 C 1283.71 874.09 1288.99 854.58 1298.11 838.10 C 1313.77 809.35 1337.90 786.66 1361.25 764.23 C 1387.33 739.65 1414.33 716.03 1439.51 690.51 C 1466.05 663.96 1490.19 634.68 1508.59 601.86 C 1517.89 584.96 1525.67 567.15 1530.64 548.47 C 1537.71 522.58 1540.24 495.06 1535.18 468.56 C 1532.15 452.32 1526.62 436.35 1517.38 422.58 C 1506.55 405.85 1490.85 392.22 1472.48 384.42 C 1456.71 377.76 1438.92 375.16 1422.07 378.79 C 1402.87 382.80 1384.78 392.98 1372.04 407.98 C 1362.51 419.10 1356.92 433.37 1355.70 447.91 C 1354.73 461.59 1358.41 475.95 1367.43 486.50 C 1371.09 490.95 1375.67 494.46 1380.16 498.02 C 1372.85 500.76 1364.59 498.93 1358.14 494.91 C 1350.87 490.44 1345.75 483.20 1342.36 475.49 C 1335.59 460.00 1335.67 442.07 1340.65 426.07 C 1347.10 406.89 1360.15 390.16 1376.61 378.49 Z" style="fill: none !important;"/>
<path fill="#fefefe" stroke="#fefefe" stroke-width="0.09375" opacity="1.00" d=" M 562.64 400.43 C 577.73 389.72 596.42 383.77 614.97 385.05 C 631.89 386.03 648.30 392.85 661.26 403.72 C 673.43 413.77 682.51 428.06 684.59 443.87 C 686.96 457.77 682.80 472.74 673.45 483.31 C 675.99 476.42 678.29 469.35 678.49 461.94 C 679.66 446.08 673.99 429.67 662.62 418.44 C 650.24 405.79 632.78 398.14 615.02 398.24 C 599.80 397.99 584.78 403.47 572.76 412.71 C 557.65 424.44 547.16 441.48 541.80 459.73 C 535.52 481.73 535.19 505.14 539.09 527.60 C 545.27 564.74 562.38 599.27 584.49 629.46 C 604.12 656.73 627.82 680.71 651.49 704.44 C 673.99 726.63 697.17 748.14 719.45 770.55 C 734.45 785.71 748.85 801.59 760.70 819.38 C 770.32 833.08 778.64 848.20 781.62 864.86 C 784.33 879.17 782.26 894.79 774.05 907.04 C 768.65 915.08 760.51 921.91 750.66 923.28 C 760.37 917.02 765.39 905.84 767.56 894.86 C 771.00 879.87 768.28 864.17 763.13 849.91 C 754.40 827.25 739.27 807.76 722.93 790.08 C 679.50 743.83 628.77 704.87 587.54 656.50 C 563.20 628.06 542.17 596.24 529.43 560.87 C 522.07 540.75 518.13 519.41 517.81 497.99 C 517.87 478.61 521.19 459.03 529.27 441.32 C 536.53 425.09 547.91 410.51 562.64 400.43 Z" style="fill: none !important;"/>
<path fill="#fefefe" stroke="#fefefe" stroke-width="0.09375" opacity="1.00" d=" M 1420.45 386.80 C 1439.41 382.45 1459.84 385.70 1476.85 395.02 C 1495.05 404.87 1509.66 420.95 1518.21 439.75 C 1527.18 459.13 1530.61 480.70 1530.25 501.94 C 1529.15 539.91 1515.45 576.56 1495.75 608.70 C 1476.06 640.69 1450.99 669.00 1424.20 695.19 C 1398.87 719.89 1372.18 743.14 1346.84 767.83 C 1331.75 782.44 1317.11 797.65 1304.63 814.59 C 1296.37 825.82 1289.24 837.99 1284.41 851.10 C 1279.86 864.26 1277.34 878.53 1279.87 892.38 C 1281.88 904.13 1286.89 916.19 1297.05 923.14 C 1289.30 922.15 1282.66 917.11 1277.72 911.30 C 1268.87 901.16 1265.01 887.31 1265.77 874.01 C 1266.86 858.82 1272.55 844.27 1280.17 831.21 C 1298.61 799.76 1324.62 773.80 1350.78 748.77 C 1378.19 722.22 1405.93 695.96 1431.78 667.85 C 1456.24 641.49 1478.30 612.33 1493.32 579.49 C 1502.37 559.03 1509.02 537.32 1510.92 514.95 C 1512.92 493.52 1511.28 471.36 1503.60 451.12 C 1497.06 434.12 1485.80 418.53 1470.17 408.83 C 1453.30 397.98 1431.47 395.19 1412.46 401.62 C 1396.68 406.92 1382.63 418.10 1375.11 433.10 C 1369.95 443.87 1368.31 456.22 1370.09 468.01 C 1370.83 473.35 1373.10 478.27 1374.71 483.38 C 1368.43 476.00 1364.55 466.64 1363.33 457.05 C 1361.73 440.67 1367.84 423.97 1378.71 411.76 C 1389.50 399.29 1404.41 390.51 1420.45 386.80 Z" style="fill: none !important;"/>
<path fill="#fefefe" stroke="#fefefe" stroke-width="0.09375" opacity="1.00" d=" M 581.06 422.11 C 593.04 413.38 608.30 408.46 623.13 411.05 C 637.21 413.63 650.57 421.50 658.73 433.39 C 666.44 444.25 668.69 458.75 664.63 471.43 C 662.42 478.30 658.65 484.57 654.23 490.23 C 649.89 495.71 653.59 503.70 658.70 507.27 C 668.38 513.64 681.31 512.97 691.58 508.35 C 702.06 503.82 709.94 494.88 715.29 485.00 C 717.62 502.56 718.37 520.30 719.98 537.95 C 723.29 577.68 726.03 617.48 730.61 657.10 C 734.21 689.29 739.24 721.32 745.83 753.03 C 748.49 765.91 751.79 778.65 755.40 791.30 C 737.80 770.44 717.90 751.67 698.41 732.60 C 676.82 711.86 655.20 691.15 634.56 669.47 C 608.94 642.41 585.06 613.04 568.78 579.30 C 559.72 560.24 553.02 539.90 550.47 518.89 C 548.18 500.03 548.70 480.57 554.14 462.28 C 559.12 446.78 567.87 431.99 581.06 422.11 Z" style="fill: none !important;"/>
<path fill="#fefefe" stroke="#fefefe" stroke-width="0.09375" opacity="1.00" d=" M 1389.79 432.82 C 1401.63 416.46 1423.20 407.23 1443.17 411.27 C 1460.51 414.75 1475.64 426.25 1484.75 441.26 C 1496.29 459.56 1499.66 481.76 1499.27 503.06 C 1498.36 523.95 1494.08 544.75 1486.22 564.14 C 1472.94 597.85 1451.27 627.48 1427.36 654.41 C 1403.34 680.99 1377.48 705.83 1351.67 730.66 C 1331.71 749.95 1311.70 769.26 1293.41 790.17 C 1305.22 746.92 1312.55 702.55 1317.60 658.04 C 1324.07 600.51 1327.32 542.69 1332.84 485.08 C 1339.64 497.91 1351.66 508.47 1366.17 511.25 C 1374.85 512.86 1384.74 511.69 1391.54 505.60 C 1396.21 501.69 1397.17 494.20 1393.78 489.19 C 1391.38 485.86 1388.64 482.76 1386.81 479.06 C 1378.98 464.74 1380.04 445.97 1389.79 432.82 Z" style="fill: none !important;"/>
<path fill="#fefefe" stroke="#fefefe" stroke-width="0.09375" opacity="1.00" d=" M 989.34 1147.44 C 1012.75 1147.28 1036.20 1147.20 1059.61 1147.50 C 1069.55 1151.73 1070.26 1169.58 1059.68 1173.50 C 1036.77 1173.87 1013.82 1173.56 990.89 1173.70 C 986.38 1174.20 983.25 1169.89 982.05 1166.07 C 980.60 1160.87 980.98 1154.75 984.47 1150.43 C 985.71 1148.97 987.30 1147.49 989.34 1147.44 Z" style="fill: none !important;"/>
<path fill="#fefefe" stroke="#fefefe" stroke-width="0.09375" opacity="1.00" d=" M 972.93 1204.21 C 978.26 1204.05 983.60 1204.11 988.94 1204.17 C 987.82 1227.31 983.31 1250.37 974.91 1271.99 C 968.72 1287.87 959.60 1302.57 948.29 1315.31 C 944.43 1319.49 940.34 1323.53 935.59 1326.69 C 934.28 1327.67 932.60 1327.74 931.05 1327.78 C 916.03 1327.48 901.00 1327.80 885.98 1327.61 C 891.31 1323.93 897.26 1321.25 902.46 1317.36 C 940.42 1291.84 967.73 1249.92 972.93 1204.21 Z" style="fill: none !important;"/>
<path fill="#fefefe" stroke="#fefefe" stroke-width="0.09375" opacity="1.00" d=" M 996.42 1204.13 C 1015.05 1204.16 1033.68 1204.19 1052.31 1204.14 C 1053.00 1227.64 1058.23 1250.82 1066.33 1272.84 C 1072.12 1288.45 1080.74 1302.94 1091.18 1315.89 C 1094.70 1320.11 1098.31 1324.34 1102.74 1327.67 C 1050.27 1327.64 997.80 1327.61 945.34 1327.69 C 959.91 1315.57 970.34 1299.17 978.33 1282.15 C 989.02 1257.54 995.02 1230.91 996.42 1204.13 Z" style="fill: none !important;"/>
<path fill="#fefefe" stroke="#fefefe" stroke-width="0.09375" opacity="1.00" d=" M 1059.79 1204.51 C 1060.91 1203.39 1062.61 1203.98 1064.04 1203.83 C 1067.78 1203.83 1071.53 1203.83 1075.28 1203.87 C 1077.76 1222.08 1083.02 1239.97 1091.80 1256.16 C 1107.41 1286.40 1132.61 1311.54 1162.65 1327.45 C 1147.77 1327.95 1132.87 1327.51 1117.99 1327.70 C 1114.01 1328.11 1110.71 1325.52 1107.97 1323.00 C 1092.84 1308.97 1081.55 1291.13 1073.77 1272.10 C 1065.07 1250.65 1060.95 1227.55 1059.79 1204.51 Z" style="fill: none !important;"/>
<path fill="#fefefe" stroke="#fefefe" stroke-width="0.09375" opacity="1.00" d=" M 760.26 1520.83 C 792.29 1520.86 824.33 1520.82 856.37 1520.85 C 856.53 1567.08 856.39 1613.31 856.41 1659.54 C 824.34 1659.51 792.28 1659.56 760.21 1659.41 C 760.15 1613.22 760.06 1567.02 760.26 1520.83 Z" style="fill: none !important;"/>
<path fill="#fefefe" stroke="#fefefe" stroke-width="0.09375" opacity="1.00" d=" M 1191.62 1520.81 C 1223.81 1520.89 1256.01 1520.84 1288.21 1520.86 C 1288.45 1567.09 1288.28 1613.33 1288.26 1659.57 C 1256.07 1659.70 1223.86 1659.70 1191.67 1659.59 C 1191.47 1613.33 1191.57 1567.07 1191.62 1520.81 Z" style="fill: none !important;"/>
<path fill="#fefefe" stroke="#fefefe" stroke-width="0.09375" opacity="1.00" d=" M 731.35 1699.61 C 736.93 1697.25 743.06 1697.90 748.95 1697.83 C 777.82 1697.81 806.70 1697.83 835.57 1697.82 C 831.35 1702.70 828.19 1708.56 827.18 1714.98 C 825.99 1721.44 826.63 1728.04 826.47 1734.58 C 787.91 1734.72 749.36 1734.68 710.80 1734.63 C 710.88 1729.10 710.23 1723.35 712.39 1718.11 C 715.76 1709.66 723.01 1703.02 731.35 1699.61 Z" style="fill: none !important;"/>
<path fill="#fefefe" stroke="#fefefe" stroke-width="0.09375" opacity="1.00" d=" M 837.77 1712.75 C 840.57 1704.67 848.03 1697.42 857.06 1697.83 C 968.71 1697.80 1080.36 1697.86 1192.02 1697.82 C 1199.59 1697.59 1206.01 1703.24 1209.23 1709.71 C 1213.16 1717.41 1211.55 1726.34 1211.82 1734.65 C 1086.70 1734.75 961.59 1734.62 836.48 1734.72 C 836.36 1727.40 835.70 1719.86 837.77 1712.75 Z" style="fill: none !important;"/>
<path fill="#fefefe" stroke="#fefefe" stroke-width="0.09375" opacity="1.00" d=" M 690.63 1744.54 C 730.64 1744.24 770.66 1744.53 810.68 1744.38 C 810.73 1756.08 810.76 1767.79 810.79 1779.49 C 770.74 1779.52 730.68 1779.65 690.63 1779.42 C 690.52 1767.79 690.49 1756.16 690.63 1744.54 Z" style="fill: none !important;"/>
<path fill="#fefefe" stroke="#fefefe" stroke-width="0.09375" opacity="1.00" d=" M 820.38 1744.33 C 926.57 1744.52 1032.76 1744.36 1138.95 1744.42 C 1168.54 1744.38 1198.13 1744.50 1227.73 1744.33 C 1227.86 1756.05 1227.79 1767.78 1227.82 1779.50 C 1092.04 1779.57 956.25 1779.54 820.47 1779.52 C 820.29 1767.78 820.39 1756.05 820.38 1744.33 Z" style="fill: none !important;"/>
<path fill="#fefefe" stroke="#fefefe" stroke-width="0.09375" opacity="1.00" d=" M 1237.60 1744.27 C 1277.61 1744.61 1317.62 1744.28 1357.63 1744.45 C 1358.06 1756.10 1357.69 1767.78 1357.81 1779.45 C 1317.66 1779.62 1277.51 1779.50 1237.36 1779.51 C 1237.36 1767.76 1237.47 1756.01 1237.60 1744.27 Z" style="fill: none !important;"/>
</g>
<g id="#feffffff" style="fill: rgb(0, 0, 0) !important;">
<path fill="#feffff" stroke="#feffff" stroke-width="0.09375" opacity="1.00" d=" M 931.90 1038.06 C 932.88 1034.96 935.29 1031.56 938.91 1031.72 C 946.82 1031.65 954.74 1031.77 962.66 1031.67 C 959.80 1038.36 960.51 1046.26 964.58 1052.30 C 957.06 1052.23 949.54 1052.40 942.03 1052.29 C 935.26 1052.07 929.80 1044.57 931.90 1038.06 Z" style="fill: none !important;"/>
<path fill="#feffff" stroke="#feffff" stroke-width="0.09375" opacity="1.00" d=" M 950.18 1062.36 C 956.98 1062.48 963.80 1062.11 970.58 1062.53 C 973.05 1064.46 974.74 1067.19 976.36 1069.84 C 984.53 1084.22 986.56 1101.00 988.35 1117.17 C 983.51 1117.17 978.68 1117.15 973.85 1117.15 C 971.73 1097.06 963.86 1077.39 950.18 1062.36 Z" style="fill: none !important;"/>
<path fill="#feffff" stroke="#feffff" stroke-width="0.09375" opacity="1.00" d=" M 967.18 1127.22 C 974.35 1126.26 981.70 1127.11 988.95 1126.85 C 1019.04 1126.94 1049.13 1126.78 1079.21 1126.91 C 1083.86 1126.81 1087.47 1131.57 1086.35 1136.06 C 1086.54 1137.94 1084.27 1137.81 1083.08 1137.83 C 1043.72 1137.76 1004.34 1138.01 964.99 1137.77 C 960.01 1136.32 962.83 1128.05 967.18 1127.22 Z" style="fill: none !important;"/>
<path fill="#feffff" stroke="#feffff" stroke-width="0.09375" opacity="1.00" d=" M 866.28 1337.17 C 886.65 1337.14 907.01 1337.17 927.38 1337.19 C 927.30 1341.51 927.26 1345.83 927.25 1350.17 C 906.94 1350.17 886.63 1350.31 866.33 1350.07 C 866.24 1345.77 866.23 1341.46 866.28 1337.17 Z" style="fill: none !important;"/>
<path fill="#feffff" stroke="#feffff" stroke-width="0.09375" opacity="1.00" d=" M 935.42 1337.35 C 960.27 1336.92 985.13 1337.28 1009.98 1337.17 C 1044.27 1337.22 1078.57 1337.04 1112.86 1337.25 C 1113.28 1341.56 1112.90 1345.89 1112.84 1350.22 C 1053.71 1350.14 994.58 1350.31 935.45 1350.21 C 935.27 1345.92 935.29 1341.63 935.42 1337.35 Z" style="fill: none !important;"/>
<path fill="#feffff" stroke="#feffff" stroke-width="0.09375" opacity="1.00" d=" M 1120.02 1337.20 C 1140.71 1337.14 1161.41 1337.08 1182.11 1337.27 C 1182.07 1340.94 1182.26 1344.62 1182.09 1348.30 C 1181.91 1350.31 1179.45 1350.10 1178.01 1350.17 C 1166.98 1350.17 1155.95 1350.11 1144.93 1350.09 C 1137.07 1349.76 1129.20 1349.81 1121.37 1350.36 C 1121.36 1345.93 1120.74 1341.55 1120.02 1337.20 Z" style="fill: none !important;"/>
<path fill="#feffff" stroke="#feffff" stroke-width="0.09375" opacity="1.00" d=" M 847.76 1367.81 C 851.49 1362.15 858.37 1359.67 864.91 1359.59 C 882.95 1359.28 900.99 1359.11 919.02 1359.42 C 916.87 1362.37 914.78 1365.44 913.69 1368.97 C 911.48 1375.24 912.33 1381.99 912.05 1388.52 C 889.55 1388.49 867.04 1388.69 844.55 1388.42 C 844.29 1381.49 843.35 1373.75 847.76 1367.81 Z" style="fill: none !important;"/>
<path fill="#feffff" stroke="#feffff" stroke-width="0.09375" opacity="1.00" d=" M 766.39 1511.34 C 772.82 1501.15 783.45 1492.01 796.07 1491.98 C 820.73 1492.22 845.40 1492.02 870.07 1492.16 C 864.69 1497.63 860.84 1504.30 857.90 1511.35 C 827.40 1511.52 796.89 1511.42 766.39 1511.34 Z" style="fill: none !important;"/>
<path fill="#feffff" stroke="#feffff" stroke-width="0.09375" opacity="1.00" d=" M 740.86 1669.61 C 774.94 1669.44 809.02 1669.57 843.11 1669.59 C 842.85 1675.79 843.66 1682.08 842.72 1688.24 C 808.91 1688.09 775.09 1688.12 741.28 1688.24 C 740.38 1682.08 741.02 1675.81 740.86 1669.61 Z" style="fill: none !important;"/>
</g>
<g id="#fefefdff" style="fill: rgb(0, 0, 0) !important;">
<path fill="#fefefd" stroke="#fefefd" stroke-width="0.09375" opacity="1.00" d=" M 979.91 1062.34 C 1009.59 1062.48 1039.28 1062.29 1068.97 1062.47 C 1057.68 1078.42 1054.67 1098.31 1052.71 1117.28 C 1033.75 1117.12 1014.80 1117.29 995.85 1117.21 C 993.91 1098.27 990.78 1078.43 979.91 1062.34 Z" style="fill: none !important;"/>
</g>
<g id="#ffffffff" style="fill: rgb(0, 0, 0) !important;">
<path fill="#ffffff" stroke="#ffffff" stroke-width="0.09375" opacity="1.00" d=" M 962.21 1183.19 C 1002.49 1183.06 1042.78 1183.22 1083.06 1183.18 C 1084.26 1183.15 1085.74 1183.32 1086.31 1184.61 C 1087.95 1188.85 1085.01 1194.82 1080.04 1194.55 C 1043.01 1194.55 1005.97 1194.44 968.94 1194.53 C 966.67 1194.69 964.50 1193.50 963.32 1191.60 C 961.58 1189.15 962.20 1185.98 962.21 1183.19 Z" style="fill: none !important;"/>
</g>
</svg>