<svg xmlns="http://www.w3.org/2000/svg" width="2000" height="2000" viewBox="0 0 1206 1206" version="1.1" style="">
<path fill="#ffffff" opacity="1.00" d=" M 0.00 0.00 L 1206.00 0.00 L 1206.00 1206.00 L 0.00 1206.00 L 0.00 0.00 M 771.04 64.75 C 749.27 67.90 728.15 74.30 707.50 81.72 C 686.02 89.81 666.25 101.66 647.10 114.15 C 633.09 123.87 619.99 134.88 607.88 146.88 C 601.75 153.00 595.34 158.91 590.11 165.86 C 582.71 165.88 575.40 164.47 568.00 164.69 C 554.91 165.38 542.01 168.42 529.69 172.83 C 507.93 180.95 489.06 195.49 473.82 212.83 C 465.95 221.14 459.37 230.54 452.89 239.94 C 448.19 246.76 444.65 254.28 440.47 261.43 C 437.72 265.92 439.75 272.94 445.00 274.53 C 448.97 275.04 453.02 274.89 456.99 274.40 C 465.55 272.63 474.26 271.69 482.99 271.22 C 499.35 269.41 515.87 271.20 531.90 274.63 C 531.74 280.54 529.04 286.00 527.78 291.72 C 526.36 298.17 523.69 304.38 523.12 310.99 C 522.57 314.79 525.20 317.83 527.64 320.37 C 533.96 327.03 540.45 333.54 547.08 339.91 C 559.92 352.42 572.14 365.53 585.09 377.92 C 587.95 381.05 592.42 381.30 596.30 380.25 C 606.34 377.34 616.03 373.33 626.07 370.42 C 626.26 374.97 627.07 379.47 627.52 384.01 C 630.10 405.15 628.40 426.56 625.19 447.54 C 624.60 451.49 623.31 455.90 625.40 459.63 C 627.55 464.01 633.38 465.84 637.71 463.68 C 649.25 458.05 659.76 450.61 670.25 443.28 C 677.87 436.90 686.32 431.43 692.91 423.91 C 702.13 413.31 711.36 402.48 717.82 389.91 C 730.00 367.13 735.35 340.60 731.74 314.94 C 731.30 313.45 731.74 311.95 733.03 311.04 C 747.75 297.38 761.45 282.59 773.63 266.61 C 789.98 244.81 803.27 220.73 813.15 195.33 C 827.39 155.96 835.14 113.85 832.74 71.92 C 832.88 66.96 829.56 61.03 824.02 61.24 C 806.29 61.02 788.60 62.46 771.04 64.75 M 1032.57 319.55 C 1022.24 342.68 1012.27 365.99 1002.51 389.37 C 983.65 390.58 964.90 393.23 946.05 394.68 C 939.01 395.67 931.87 395.56 924.86 396.79 C 920.37 397.86 917.50 402.55 917.85 407.02 C 918.31 410.04 920.46 412.38 922.66 414.33 C 932.20 422.79 941.82 431.17 951.25 439.76 C 960.25 447.90 969.74 455.52 978.50 463.92 C 973.08 488.30 967.61 512.68 961.74 536.97 C 960.27 542.96 965.49 550.16 971.95 549.31 C 977.22 547.63 981.61 544.08 986.44 541.48 C 1003.86 531.73 1020.91 521.35 1037.94 510.94 C 1039.28 510.28 1040.81 508.74 1042.37 509.80 C 1064.07 522.74 1085.61 536.03 1107.70 548.28 C 1115.49 552.77 1123.13 542.21 1119.86 535.22 C 1115.09 516.33 1111.03 497.27 1106.93 478.23 C 1106.18 473.65 1104.49 469.09 1104.49 464.46 C 1109.92 458.56 1116.19 453.52 1122.07 448.08 C 1135.53 436.58 1148.47 424.48 1161.42 412.42 C 1166.16 408.30 1165.28 399.19 1158.97 397.15 C 1152.81 395.52 1146.32 395.85 1140.05 394.87 C 1119.84 393.35 1099.70 390.84 1079.48 389.43 C 1070.18 365.94 1060.54 342.57 1050.65 319.32 C 1049.21 315.87 1045.89 312.93 1041.96 313.29 C 1037.81 312.94 1034.30 316.03 1032.57 319.55 M 494.55 334.72 C 484.24 337.87 475.21 344.16 467.07 351.07 C 455.76 361.48 447.24 374.51 440.01 387.97 C 438.00 391.35 438.61 395.82 441.41 398.57 C 444.40 402.06 449.44 401.95 453.61 401.53 C 457.33 400.08 460.39 397.35 464.12 395.88 C 461.60 400.97 458.15 405.55 455.92 410.79 C 450.92 422.13 447.58 434.12 442.63 445.49 C 439.83 451.74 437.02 458.19 432.24 463.23 C 430.26 465.57 427.29 467.68 427.30 471.06 C 426.77 476.65 432.74 481.23 438.02 480.42 C 440.53 479.78 442.71 478.30 444.86 476.92 C 457.20 468.82 470.63 462.56 484.30 457.08 C 492.47 453.77 500.29 449.63 507.65 444.79 C 506.53 448.30 505.01 451.67 503.85 455.17 C 502.38 459.44 504.99 464.45 509.19 465.98 C 513.17 467.73 517.30 465.50 520.85 463.74 C 530.60 458.60 539.95 452.56 548.18 445.19 C 560.39 434.57 568.61 419.77 571.66 403.91 C 573.13 396.06 574.89 387.54 572.02 379.82 C 568.82 372.26 556.03 374.92 555.55 382.98 C 556.07 395.65 553.12 408.61 546.26 419.37 C 541.65 426.79 534.97 432.65 528.01 437.81 C 529.25 430.21 532.16 422.42 530.24 414.70 C 528.49 408.93 521.23 406.75 516.10 409.16 C 513.48 410.88 512.02 413.75 510.26 416.24 C 506.14 422.35 500.63 427.39 494.59 431.56 C 484.30 438.92 471.93 442.30 460.77 448.01 C 463.25 441.89 465.56 435.70 467.56 429.41 C 471.10 418.39 476.64 407.97 484.09 399.09 C 486.66 395.94 490.21 393.89 493.24 391.25 C 495.68 388.64 497.18 384.88 496.41 381.30 C 495.70 378.32 493.17 375.62 490.03 375.37 C 483.27 375.03 476.53 375.75 469.86 376.69 C 472.38 372.13 476.25 368.55 479.80 364.81 C 489.16 355.86 501.65 348.74 515.00 350.00 C 519.65 350.31 525.37 351.93 528.91 347.89 C 533.58 343.10 530.88 334.41 524.48 332.79 C 514.60 330.39 504.20 331.99 494.55 334.72 M 414.41 413.73 C 402.40 417.25 390.32 420.52 378.36 424.19 C 360.04 429.52 341.58 434.42 323.36 440.11 C 301.73 446.13 280.17 452.39 258.73 459.06 C 238.10 464.93 217.50 470.94 196.87 476.83 C 177.22 482.62 157.62 488.55 137.87 493.98 C 129.56 496.11 121.01 497.60 113.06 500.94 C 104.30 504.45 96.47 510.15 90.06 517.04 C 77.25 531.29 71.05 550.25 68.82 569.00 C 67.17 589.14 70.61 609.66 78.61 628.22 C 84.32 642.27 93.13 655.61 105.97 664.08 C 113.26 669.04 121.88 671.32 130.16 674.06 C 124.01 677.80 117.88 681.66 112.62 686.62 C 98.62 700.41 91.38 719.68 89.39 738.97 C 87.13 758.90 89.75 779.36 96.63 798.20 C 102.88 813.23 112.78 827.32 126.58 836.26 C 107.80 846.71 86.28 852.55 69.56 866.56 C 57.57 878.72 52.60 896.25 52.61 913.01 C 52.86 930.72 57.53 948.33 66.12 963.83 C 73.18 976.87 85.44 986.82 99.54 991.31 C 116.41 996.56 132.96 1002.73 149.73 1008.27 C 166.05 1013.39 182.08 1019.40 198.45 1024.38 C 239.90 1038.63 281.61 1052.13 322.94 1066.76 C 335.01 1070.26 346.81 1074.63 358.75 1078.60 C 378.48 1085.51 398.46 1091.71 418.11 1098.89 C 429.93 1102.77 441.81 1106.50 453.56 1110.61 C 470.96 1117.06 488.87 1122.00 506.23 1128.59 C 515.33 1132.15 524.89 1134.33 534.00 1137.88 C 536.67 1138.95 539.77 1139.19 542.54 1138.34 C 585.80 1114.01 628.91 1089.37 672.17 1065.02 C 705.48 1046.01 739.12 1027.56 772.22 1008.19 C 790.34 998.00 808.66 988.15 826.48 977.45 C 833.81 973.00 841.55 969.28 848.95 964.96 C 857.53 959.96 866.20 955.12 874.77 950.11 C 867.97 960.19 860.12 969.71 855.00 980.82 C 851.91 996.50 848.98 1012.25 846.19 1028.00 C 844.16 1041.29 841.06 1054.38 838.76 1067.61 C 836.74 1078.88 834.60 1090.13 832.54 1101.39 C 831.88 1104.84 831.96 1108.81 834.51 1111.53 C 837.07 1114.21 841.06 1116.60 844.84 1115.14 C 850.73 1112.49 856.14 1108.90 861.77 1105.74 C 876.62 1097.34 891.24 1088.53 906.16 1080.25 C 921.66 1071.07 937.46 1062.40 952.64 1052.70 C 956.13 1050.54 958.48 1047.09 960.78 1043.79 C 979.51 1017.83 998.30 991.91 1016.71 965.72 C 1040.59 931.97 1064.74 898.41 1088.81 864.81 C 1110.48 834.47 1131.96 804.01 1153.80 773.80 C 1162.56 760.53 1174.26 748.93 1179.72 733.69 C 1186.67 715.95 1182.15 694.02 1167.65 681.35 C 1158.76 673.04 1148.60 666.25 1138.50 659.53 C 1130.43 654.15 1120.68 651.30 1110.99 651.65 C 1102.48 652.37 1093.95 654.88 1086.96 659.91 C 1079.22 665.17 1074.01 673.11 1068.39 680.41 C 1055.37 696.93 1043.93 714.61 1031.69 731.70 C 1019.67 748.66 1007.73 765.68 995.67 782.61 C 973.58 813.81 950.50 844.32 928.92 875.88 C 917.39 892.31 904.96 908.08 893.50 924.55 C 892.66 925.37 891.91 927.62 890.41 926.63 C 881.88 922.11 872.35 919.67 863.88 915.11 C 859.46 903.41 857.87 890.65 859.59 878.24 C 861.02 868.86 863.33 859.06 869.70 851.71 C 873.38 847.24 878.67 844.66 883.10 841.09 C 888.04 836.94 886.04 828.21 880.31 825.77 C 874.81 823.41 869.05 821.72 863.63 819.18 C 877.61 812.80 891.25 805.69 905.07 798.99 C 909.09 796.78 909.59 791.48 908.23 787.53 C 906.47 783.54 901.86 782.51 898.41 780.51 C 893.08 777.47 887.50 774.94 882.12 772.02 C 880.87 771.26 879.46 770.62 878.66 769.36 C 868.17 751.19 867.60 729.06 871.81 708.96 C 875.61 693.18 883.01 677.27 896.44 667.46 C 899.35 665.12 903.38 663.58 904.70 659.77 C 906.53 656.19 904.95 651.42 901.31 649.73 C 889.16 643.52 875.69 640.67 862.91 636.12 C 868.99 633.10 875.16 630.28 881.17 627.11 C 884.55 625.36 887.76 622.15 887.67 618.09 C 887.72 614.19 884.49 611.34 881.37 609.58 C 873.13 604.95 864.50 601.07 856.10 596.78 C 852.89 595.32 852.63 591.34 851.52 588.43 C 846.43 569.29 846.26 548.71 851.64 529.61 C 854.76 517.67 861.07 506.56 869.99 498.00 C 873.80 494.80 879.24 493.50 881.94 489.01 C 884.54 483.80 881.45 476.56 875.67 475.24 C 867.43 473.42 859.55 470.35 851.51 467.86 C 812.90 455.76 774.38 443.36 735.77 431.25 C 729.80 429.44 723.94 427.27 717.89 425.75 C 714.21 424.91 709.50 424.69 707.07 428.17 C 702.98 433.05 705.95 441.32 712.05 442.85 C 752.62 455.76 793.14 468.83 833.84 481.30 C 838.59 482.78 843.46 484.00 847.97 486.15 C 765.62 525.11 683.03 563.55 600.15 601.37 C 579.31 611.38 558.07 620.50 537.16 630.36 C 533.91 631.73 530.84 634.26 527.11 633.78 C 525.26 633.71 523.64 632.73 521.97 632.07 C 502.76 624.56 483.12 618.23 463.81 611.02 C 455.32 607.80 446.60 605.24 438.10 602.04 C 426.75 597.70 415.04 594.39 403.69 590.06 C 385.55 583.52 367.50 576.75 349.25 570.53 C 326.15 562.52 303.22 554.02 280.17 545.87 C 260.79 539.33 241.56 532.37 222.28 525.57 C 203.64 518.48 184.68 512.24 166.03 505.17 C 189.30 497.88 212.92 491.79 236.15 484.39 C 256.89 478.49 277.58 472.39 298.23 466.17 C 316.37 461.24 334.31 455.61 352.43 450.62 C 372.66 445.10 392.71 438.94 412.87 433.17 C 416.40 432.06 420.18 431.42 423.32 429.35 C 428.67 425.99 428.07 416.46 422.20 413.93 C 419.73 413.02 416.94 413.11 414.41 413.73 Z" style="fill: none !important;"/>
<path fill="#000000" opacity="1.00" d=" M 771.04 64.75 C 788.60 62.46 806.29 61.02 824.02 61.24 C 829.56 61.03 832.88 66.96 832.74 71.92 C 835.14 113.85 827.39 155.96 813.15 195.33 C 803.27 220.73 789.98 244.81 773.63 266.61 C 761.45 282.59 747.75 297.38 733.03 311.04 C 731.74 311.95 731.30 313.45 731.74 314.94 C 735.35 340.60 730.00 367.13 717.82 389.91 C 711.36 402.48 702.13 413.31 692.91 423.91 C 686.32 431.43 677.87 436.90 670.25 443.28 C 659.76 450.61 649.25 458.05 637.71 463.68 C 633.38 465.84 627.55 464.01 625.40 459.63 C 623.31 455.90 624.60 451.49 625.19 447.54 C 628.40 426.56 630.10 405.15 627.52 384.01 C 627.07 379.47 626.26 374.97 626.07 370.42 C 616.03 373.33 606.34 377.34 596.30 380.25 C 592.42 381.30 587.95 381.05 585.09 377.92 C 572.14 365.53 559.92 352.42 547.08 339.91 C 540.45 333.54 533.96 327.03 527.64 320.37 C 525.20 317.83 522.57 314.79 523.12 310.99 C 523.69 304.38 526.36 298.17 527.78 291.72 C 529.04 286.00 531.74 280.54 531.90 274.63 C 515.87 271.20 499.35 269.41 482.99 271.22 C 474.26 271.69 465.55 272.63 456.99 274.40 C 453.02 274.89 448.97 275.04 445.00 274.53 C 439.75 272.94 437.72 265.92 440.47 261.43 C 444.65 254.28 448.19 246.76 452.89 239.94 C 459.37 230.54 465.95 221.14 473.82 212.83 C 489.06 195.49 507.93 180.95 529.69 172.83 C 542.01 168.42 554.91 165.38 568.00 164.69 C 575.40 164.47 582.71 165.88 590.11 165.86 C 595.34 158.91 601.75 153.00 607.88 146.88 C 619.99 134.88 633.09 123.87 647.10 114.15 C 666.25 101.66 686.02 89.81 707.50 81.72 C 728.15 74.30 749.27 67.90 771.04 64.75 M 738.90 90.53 C 742.50 95.08 747.07 98.75 751.00 103.00 C 763.17 115.83 776.46 127.54 788.68 140.32 C 794.47 145.77 800.26 151.23 805.89 156.85 C 812.40 131.68 815.94 105.59 814.85 79.57 C 809.20 79.52 803.56 79.63 797.96 80.33 C 777.92 81.06 758.13 84.98 738.90 90.53 M 688.84 110.85 C 674.81 118.03 661.29 126.19 648.73 135.73 C 632.21 147.99 617.66 162.64 603.54 177.54 C 580.91 203.94 562.08 233.77 549.10 266.06 C 552.59 269.52 556.02 273.03 559.50 276.49 C 583.80 301.55 609.05 325.67 632.99 351.07 C 633.99 352.40 635.76 351.47 637.03 351.13 C 648.96 346.70 660.42 341.01 671.22 334.29 C 688.84 324.13 704.64 311.23 720.03 298.03 C 730.37 288.37 739.92 277.92 749.41 267.44 C 771.41 240.68 789.14 210.15 799.89 177.14 C 787.98 165.04 775.83 153.17 763.63 141.37 C 748.84 126.65 733.95 112.04 719.18 97.31 C 708.72 101.00 698.70 105.80 688.84 110.85 M 548.65 186.13 C 529.38 190.61 512.21 201.52 497.74 214.75 C 485.23 226.39 474.10 239.71 465.94 254.76 C 488.20 251.52 511.02 251.24 533.13 255.82 C 543.88 230.17 558.37 206.24 574.18 183.44 C 565.57 182.91 556.95 183.82 548.65 186.13 M 546.99 290.14 C 545.20 295.96 543.42 301.83 542.16 307.78 C 543.24 310.90 546.55 312.82 548.66 315.34 C 563.15 329.84 577.55 344.43 591.90 359.08 C 592.76 359.81 593.62 361.24 594.98 360.74 C 600.50 359.42 605.80 357.30 611.28 355.79 C 609.77 353.34 607.58 351.46 605.62 349.39 C 597.94 341.08 589.96 333.05 581.95 325.06 C 570.13 313.58 558.85 301.57 546.99 290.14 M 684.28 348.31 C 675.14 353.54 666.17 359.15 656.48 363.33 C 652.42 365.22 648.11 366.49 644.11 368.51 C 648.85 391.07 648.02 414.28 646.06 437.11 C 654.64 432.32 662.33 426.11 669.94 419.94 C 681.54 409.78 692.18 398.24 699.76 384.73 C 709.64 367.12 715.85 347.10 715.20 326.76 C 705.11 334.24 695.07 341.84 684.28 348.31 Z" style="fill: rgb(0, 0, 0) !important;"/>
<path fill="#ffffff" opacity="1.00" d=" M 738.90 90.53 C 758.13 84.98 777.92 81.06 797.96 80.33 C 803.56 79.63 809.20 79.52 814.85 79.57 C 815.94 105.59 812.40 131.68 805.89 156.85 C 800.26 151.23 794.47 145.77 788.68 140.32 C 776.46 127.54 763.17 115.83 751.00 103.00 C 747.07 98.75 742.50 95.08 738.90 90.53 Z" style="fill: none !important;"/>
<path fill="#ffffff" opacity="1.00" d=" M 688.84 110.85 C 698.70 105.80 708.72 101.00 719.18 97.31 C 733.95 112.04 748.84 126.65 763.63 141.37 C 775.83 153.17 787.98 165.04 799.89 177.14 C 789.14 210.15 771.41 240.68 749.41 267.44 C 739.92 277.92 730.37 288.37 720.03 298.03 C 704.64 311.23 688.84 324.13 671.22 334.29 C 660.42 341.01 648.96 346.70 637.03 351.13 C 635.76 351.47 633.99 352.40 632.99 351.07 C 609.05 325.67 583.80 301.55 559.50 276.49 C 556.02 273.03 552.59 269.52 549.10 266.06 C 562.08 233.77 580.91 203.94 603.54 177.54 C 617.66 162.64 632.21 147.99 648.73 135.73 C 661.29 126.19 674.81 118.03 688.84 110.85 M 696.36 146.21 C 687.33 147.48 678.40 150.55 671.14 156.19 C 660.55 164.59 652.41 176.67 650.50 190.22 C 648.54 202.26 651.51 214.84 657.76 225.23 C 666.97 240.20 684.51 249.30 702.01 248.82 C 724.20 250.05 745.37 233.87 751.69 212.84 C 754.04 205.23 754.11 197.11 753.44 189.23 C 750.18 162.72 722.82 141.84 696.36 146.21 Z" style="fill: none !important;"/>
<path fill="#000000" opacity="1.00" d=" M 696.36 146.21 C 722.82 141.84 750.18 162.72 753.44 189.23 C 754.11 197.11 754.04 205.23 751.69 212.84 C 745.37 233.87 724.20 250.05 702.01 248.82 C 684.51 249.30 666.97 240.20 657.76 225.23 C 651.51 214.84 648.54 202.26 650.50 190.22 C 652.41 176.67 660.55 164.59 671.14 156.19 C 678.40 150.55 687.33 147.48 696.36 146.21 M 691.47 165.78 C 681.56 169.05 673.12 176.80 669.72 186.75 C 666.43 195.04 667.39 204.61 671.51 212.43 C 678.35 225.73 694.51 233.57 709.17 230.00 C 721.19 227.23 731.12 217.37 734.48 205.57 C 738.42 192.21 731.89 177.10 720.43 169.60 C 712.11 163.80 701.00 162.71 691.47 165.78 Z" style="fill: rgb(0, 0, 0) !important;"/>
<path fill="#ffffff" opacity="1.00" d=" M 691.47 165.78 C 701.00 162.71 712.11 163.80 720.43 169.60 C 731.89 177.10 738.42 192.21 734.48 205.57 C 731.12 217.37 721.19 227.23 709.17 230.00 C 694.51 233.57 678.35 225.73 671.51 212.43 C 667.39 204.61 666.43 195.04 669.72 186.75 C 673.12 176.80 681.56 169.05 691.47 165.78 Z" style="fill: none !important;"/>
<path fill="#ffffff" opacity="1.00" d=" M 548.65 186.13 C 556.95 183.82 565.57 182.91 574.18 183.44 C 558.37 206.24 543.88 230.17 533.13 255.82 C 511.02 251.24 488.20 251.52 465.94 254.76 C 474.10 239.71 485.23 226.39 497.74 214.75 C 512.21 201.52 529.38 190.61 548.65 186.13 Z" style="fill: none !important;"/>
<path fill="#fefefe" opacity="1.00" d=" M 546.99 290.14 C 558.85 301.57 570.13 313.58 581.95 325.06 C 589.96 333.05 597.94 341.08 605.62 349.39 C 607.58 351.46 609.77 353.34 611.28 355.79 C 605.80 357.30 600.50 359.42 594.98 360.74 C 593.62 361.24 592.76 359.81 591.90 359.08 C 577.55 344.43 563.15 329.84 548.66 315.34 C 546.55 312.82 543.24 310.90 542.16 307.78 C 543.42 301.83 545.20 295.96 546.99 290.14 Z" style="fill: none !important;"/>
<path fill="#000000" opacity="1.00" d=" M 1032.57 319.55 C 1034.30 316.03 1037.81 312.94 1041.96 313.29 C 1045.89 312.93 1049.21 315.87 1050.65 319.32 C 1060.54 342.57 1070.18 365.94 1079.48 389.43 C 1099.70 390.84 1119.84 393.35 1140.05 394.87 C 1146.32 395.85 1152.81 395.52 1158.97 397.15 C 1165.28 399.19 1166.16 408.30 1161.42 412.42 C 1148.47 424.48 1135.53 436.58 1122.07 448.08 C 1116.19 453.52 1109.92 458.56 1104.49 464.46 C 1104.49 469.09 1106.18 473.65 1106.93 478.23 C 1111.03 497.27 1115.09 516.33 1119.86 535.22 C 1123.13 542.21 1115.49 552.77 1107.70 548.28 C 1085.61 536.03 1064.07 522.74 1042.37 509.80 C 1040.81 508.74 1039.28 510.28 1037.94 510.94 C 1020.91 521.35 1003.86 531.73 986.44 541.48 C 981.61 544.08 977.22 547.63 971.95 549.31 C 965.49 550.16 960.27 542.96 961.74 536.97 C 967.61 512.68 973.08 488.30 978.50 463.92 C 969.74 455.52 960.25 447.90 951.25 439.76 C 941.82 431.17 932.20 422.79 922.66 414.33 C 920.46 412.38 918.31 410.04 917.85 407.02 C 917.50 402.55 920.37 397.86 924.86 396.79 C 931.87 395.56 939.01 395.67 946.05 394.68 C 964.90 393.23 983.65 390.58 1002.51 389.37 C 1012.27 365.99 1022.24 342.68 1032.57 319.55 M 1041.40 344.95 C 1034.12 361.85 1027.16 378.88 1019.97 395.82 C 1017.80 400.52 1015.47 406.79 1009.40 407.20 C 989.21 408.76 969.11 411.40 948.90 412.75 C 954.91 418.87 961.63 424.24 967.99 430.00 C 976.63 437.71 985.40 445.28 994.22 452.79 C 997.78 455.50 998.13 460.35 997.22 464.41 C 993.13 483.20 988.96 501.97 984.54 520.68 C 1002.18 511.68 1018.55 500.41 1035.79 490.69 C 1038.57 489.08 1041.94 488.13 1044.85 490.01 C 1062.70 500.10 1080.09 510.99 1097.90 521.14 C 1092.96 501.89 1088.68 482.48 1084.68 463.02 C 1083.70 458.87 1085.82 454.61 1089.11 452.12 C 1102.03 441.42 1114.62 430.34 1126.97 418.97 C 1129.06 416.90 1131.70 415.31 1133.21 412.71 C 1126.80 412.80 1120.50 411.63 1114.12 411.29 C 1100.25 409.67 1086.30 408.80 1072.43 407.16 C 1067.05 406.60 1064.96 401.04 1062.94 396.83 C 1055.28 379.74 1048.66 362.20 1041.40 344.95 Z" style="fill: rgb(0, 0, 0) !important;"/>
<path fill="#ffffff" opacity="1.00" d=" M 684.28 348.31 C 695.07 341.84 705.11 334.24 715.20 326.76 C 715.85 347.10 709.64 367.12 699.76 384.73 C 692.18 398.24 681.54 409.78 669.94 419.94 C 662.33 426.11 654.64 432.32 646.06 437.11 C 648.02 414.28 648.85 391.07 644.11 368.51 C 648.11 366.49 652.42 365.22 656.48 363.33 C 666.17 359.15 675.14 353.54 684.28 348.31 Z" style="fill: none !important;"/>
<path fill="#000000" opacity="1.00" d=" M 494.55 334.72 C 504.20 331.99 514.60 330.39 524.48 332.79 C 530.88 334.41 533.58 343.10 528.91 347.89 C 525.37 351.93 519.65 350.31 515.00 350.00 C 501.65 348.74 489.16 355.86 479.80 364.81 C 476.25 368.55 472.38 372.13 469.86 376.69 C 476.53 375.75 483.27 375.03 490.03 375.37 C 493.17 375.62 495.70 378.32 496.41 381.30 C 497.18 384.88 495.68 388.64 493.24 391.25 C 490.21 393.89 486.66 395.94 484.09 399.09 C 476.64 407.97 471.10 418.39 467.56 429.41 C 465.56 435.70 463.25 441.89 460.77 448.01 C 471.93 442.30 484.30 438.92 494.59 431.56 C 500.63 427.39 506.14 422.35 510.26 416.24 C 512.02 413.75 513.48 410.88 516.10 409.16 C 521.23 406.75 528.49 408.93 530.24 414.70 C 532.16 422.42 529.25 430.21 528.01 437.81 C 534.97 432.65 541.65 426.79 546.26 419.37 C 553.12 408.61 556.07 395.65 555.55 382.98 C 556.03 374.92 568.82 372.26 572.02 379.82 C 574.89 387.54 573.13 396.06 571.66 403.91 C 568.61 419.77 560.39 434.57 548.18 445.19 C 539.95 452.56 530.60 458.60 520.85 463.74 C 517.30 465.50 513.17 467.73 509.19 465.98 C 504.99 464.45 502.38 459.44 503.85 455.17 C 505.01 451.67 506.53 448.30 507.65 444.79 C 500.29 449.63 492.47 453.77 484.30 457.08 C 470.63 462.56 457.20 468.82 444.86 476.92 C 442.71 478.30 440.53 479.78 438.02 480.42 C 432.74 481.23 426.77 476.65 427.30 471.06 C 427.29 467.68 430.26 465.57 432.24 463.23 C 437.02 458.19 439.83 451.74 442.63 445.49 C 447.58 434.12 450.92 422.13 455.92 410.79 C 458.15 405.55 461.60 400.97 464.12 395.88 C 460.39 397.35 457.33 400.08 453.61 401.53 C 449.44 401.95 444.40 402.06 441.41 398.57 C 438.61 395.82 438.00 391.35 440.01 387.97 C 447.24 374.51 455.76 361.48 467.07 351.07 C 475.21 344.16 484.24 337.87 494.55 334.72 Z" style="fill: rgb(0, 0, 0) !important;"/>
<path fill="#ffffff" opacity="1.00" d=" M 1041.40 344.95 C 1048.66 362.20 1055.28 379.74 1062.94 396.83 C 1064.96 401.04 1067.05 406.60 1072.43 407.16 C 1086.30 408.80 1100.25 409.67 1114.12 411.29 C 1120.50 411.63 1126.80 412.80 1133.21 412.71 C 1131.70 415.31 1129.06 416.90 1126.97 418.97 C 1114.62 430.34 1102.03 441.42 1089.11 452.12 C 1085.82 454.61 1083.70 458.87 1084.68 463.02 C 1088.68 482.48 1092.96 501.89 1097.90 521.14 C 1080.09 510.99 1062.70 500.10 1044.85 490.01 C 1041.94 488.13 1038.57 489.08 1035.79 490.69 C 1018.55 500.41 1002.18 511.68 984.54 520.68 C 988.96 501.97 993.13 483.20 997.22 464.41 C 998.13 460.35 997.78 455.50 994.22 452.79 C 985.40 445.28 976.63 437.71 967.99 430.00 C 961.63 424.24 954.91 418.87 948.90 412.75 C 969.11 411.40 989.21 408.76 1009.40 407.20 C 1015.47 406.79 1017.80 400.52 1019.97 395.82 C 1027.16 378.88 1034.12 361.85 1041.40 344.95 Z" style="fill: none !important;"/>
<path fill="#000000" opacity="1.00" d=" M 414.41 413.73 C 416.94 413.11 419.73 413.02 422.20 413.93 C 428.07 416.46 428.67 425.99 423.32 429.35 C 420.18 431.42 416.40 432.06 412.87 433.17 C 392.71 438.94 372.66 445.10 352.43 450.62 C 334.31 455.61 316.37 461.24 298.23 466.17 C 277.58 472.39 256.89 478.49 236.15 484.39 C 212.92 491.79 189.30 497.88 166.03 505.17 C 184.68 512.24 203.64 518.48 222.28 525.57 C 241.56 532.37 260.79 539.33 280.17 545.87 C 303.22 554.02 326.15 562.52 349.25 570.53 C 367.50 576.75 385.55 583.52 403.69 590.06 C 415.04 594.39 426.75 597.70 438.10 602.04 C 446.60 605.24 455.32 607.80 463.81 611.02 C 483.12 618.23 502.76 624.56 521.97 632.07 C 523.64 632.73 525.26 633.71 527.11 633.78 C 530.84 634.26 533.91 631.73 537.16 630.36 C 558.07 620.50 579.31 611.38 600.15 601.37 C 683.03 563.55 765.62 525.11 847.97 486.15 C 843.46 484.00 838.59 482.78 833.84 481.30 C 793.14 468.83 752.62 455.76 712.05 442.85 C 705.95 441.32 702.98 433.05 707.07 428.17 C 709.50 424.69 714.21 424.91 717.89 425.75 C 723.94 427.27 729.80 429.44 735.77 431.25 C 774.38 443.36 812.90 455.76 851.51 467.86 C 859.55 470.35 867.43 473.42 875.67 475.24 C 881.45 476.56 884.54 483.80 881.94 489.01 C 879.24 493.50 873.80 494.80 869.99 498.00 C 861.07 506.56 854.76 517.67 851.64 529.61 C 846.26 548.71 846.43 569.29 851.52 588.43 C 852.63 591.34 852.89 595.32 856.10 596.78 C 864.50 601.07 873.13 604.95 881.37 609.58 C 884.49 611.34 887.72 614.19 887.67 618.09 C 887.76 622.15 884.55 625.36 881.17 627.11 C 875.16 630.28 868.99 633.10 862.91 636.12 C 875.69 640.67 889.16 643.52 901.31 649.73 C 904.95 651.42 906.53 656.19 904.70 659.77 C 903.38 663.58 899.35 665.12 896.44 667.46 C 883.01 677.27 875.61 693.18 871.81 708.96 C 867.60 729.06 868.17 751.19 878.66 769.36 C 879.46 770.62 880.87 771.26 882.12 772.02 C 887.50 774.94 893.08 777.47 898.41 780.51 C 901.86 782.51 906.47 783.54 908.23 787.53 C 909.59 791.48 909.09 796.78 905.07 798.99 C 891.25 805.69 877.61 812.80 863.63 819.18 C 869.05 821.72 874.81 823.41 880.31 825.77 C 886.04 828.21 888.04 836.94 883.10 841.09 C 878.67 844.66 873.38 847.24 869.70 851.71 C 863.33 859.06 861.02 868.86 859.59 878.24 C 857.87 890.65 859.46 903.41 863.88 915.11 C 872.35 919.67 881.88 922.11 890.41 926.63 C 891.91 927.62 892.66 925.37 893.50 924.55 C 904.96 908.08 917.39 892.31 928.92 875.88 C 950.50 844.32 973.58 813.81 995.67 782.61 C 1007.73 765.68 1019.67 748.66 1031.69 731.70 C 1043.93 714.61 1055.37 696.93 1068.39 680.41 C 1074.01 673.11 1079.22 665.17 1086.96 659.91 C 1093.95 654.88 1102.48 652.37 1110.99 651.65 C 1120.68 651.30 1130.43 654.15 1138.50 659.53 C 1148.60 666.25 1158.76 673.04 1167.65 681.35 C 1182.15 694.02 1186.67 715.95 1179.72 733.69 C 1174.26 748.93 1162.56 760.53 1153.80 773.80 C 1131.96 804.01 1110.48 834.47 1088.81 864.81 C 1064.74 898.41 1040.59 931.97 1016.71 965.72 C 998.30 991.91 979.51 1017.83 960.78 1043.79 C 958.48 1047.09 956.13 1050.54 952.64 1052.70 C 937.46 1062.40 921.66 1071.07 906.16 1080.25 C 891.24 1088.53 876.62 1097.34 861.77 1105.74 C 856.14 1108.90 850.73 1112.49 844.84 1115.14 C 841.06 1116.60 837.07 1114.21 834.51 1111.53 C 831.96 1108.81 831.88 1104.84 832.54 1101.39 C 834.60 1090.13 836.74 1078.88 838.76 1067.61 C 841.06 1054.38 844.16 1041.29 846.19 1028.00 C 848.98 1012.25 851.91 996.50 855.00 980.82 C 860.12 969.71 867.97 960.19 874.77 950.11 C 866.20 955.12 857.53 959.96 848.95 964.96 C 841.55 969.28 833.81 973.00 826.48 977.45 C 808.66 988.15 790.34 998.00 772.22 1008.19 C 739.12 1027.56 705.48 1046.01 672.17 1065.02 C 628.91 1089.37 585.80 1114.01 542.54 1138.34 C 539.77 1139.19 536.67 1138.95 534.00 1137.88 C 524.89 1134.33 515.33 1132.15 506.23 1128.59 C 488.87 1122.00 470.96 1117.06 453.56 1110.61 C 441.81 1106.50 429.93 1102.77 418.11 1098.89 C 398.46 1091.71 378.48 1085.51 358.75 1078.60 C 346.81 1074.63 335.01 1070.26 322.94 1066.76 C 281.61 1052.13 239.90 1038.63 198.45 1024.38 C 182.08 1019.40 166.05 1013.39 149.73 1008.27 C 132.96 1002.73 116.41 996.56 99.54 991.31 C 85.44 986.82 73.18 976.87 66.12 963.83 C 57.53 948.33 52.86 930.72 52.61 913.01 C 52.60 896.25 57.57 878.72 69.56 866.56 C 86.28 852.55 107.80 846.71 126.58 836.26 C 112.78 827.32 102.88 813.23 96.63 798.20 C 89.75 779.36 87.13 758.90 89.39 738.97 C 91.38 719.68 98.62 700.41 112.62 686.62 C 117.88 681.66 124.01 677.80 130.16 674.06 C 121.88 671.32 113.26 669.04 105.97 664.08 C 93.13 655.61 84.32 642.27 78.61 628.22 C 70.61 609.66 67.17 589.14 68.82 569.00 C 71.05 550.25 77.25 531.29 90.06 517.04 C 96.47 510.15 104.30 504.45 113.06 500.94 C 121.01 497.60 129.56 496.11 137.87 493.98 C 157.62 488.55 177.22 482.62 196.87 476.83 C 217.50 470.94 238.10 464.93 258.73 459.06 C 280.17 452.39 301.73 446.13 323.36 440.11 C 341.58 434.42 360.04 429.52 378.36 424.19 C 390.32 420.52 402.40 417.25 414.41 413.73 M 813.50 522.39 C 784.15 535.55 755.30 549.82 726.00 563.10 C 687.93 581.24 649.41 598.39 611.27 616.38 C 586.06 627.78 560.72 638.91 535.84 651.00 C 529.76 654.38 527.01 661.13 524.06 667.04 C 510.32 695.05 509.05 727.90 516.28 757.89 C 537.45 747.95 558.62 737.97 579.56 727.54 C 598.41 718.89 616.84 709.38 635.59 700.50 C 649.44 693.53 663.57 687.14 677.50 680.34 C 730.47 654.32 783.59 628.62 836.93 603.39 C 836.24 599.61 834.62 596.09 833.74 592.36 C 828.42 571.70 828.13 549.76 832.77 528.94 C 834.31 522.41 837.02 516.25 839.65 510.11 C 830.97 514.27 822.38 518.66 813.50 522.39 M 129.05 531.02 C 119.82 546.18 117.45 564.54 118.81 581.98 C 120.24 595.83 123.98 610.10 132.93 621.07 C 138.01 627.38 145.94 629.94 153.22 632.74 C 160.79 635.69 168.50 638.22 176.20 640.80 C 196.56 648.06 216.70 655.92 237.18 662.84 C 269.80 674.94 302.36 687.22 335.14 698.89 C 355.66 706.22 375.93 714.24 396.54 721.35 C 414.22 728.25 432.32 734.06 450.02 740.92 C 465.82 746.87 481.85 752.20 497.72 757.99 C 489.63 721.17 493.90 680.66 513.94 648.23 C 507.19 645.55 500.34 643.11 493.45 640.83 C 475.43 634.87 457.70 628.06 439.70 622.03 C 421.66 615.90 403.83 609.16 385.78 603.05 C 366.95 595.73 347.69 589.57 328.73 582.63 C 285.02 567.15 241.21 551.98 197.59 536.26 C 181.31 530.11 164.69 524.93 148.44 518.72 C 146.44 518.01 144.42 517.12 142.26 517.19 C 137.00 520.86 132.31 525.45 129.05 531.02 M 92.58 547.48 C 85.93 564.60 86.03 583.57 89.30 601.42 C 92.76 617.40 99.58 633.07 111.04 644.97 C 116.06 650.29 123.19 652.66 129.84 655.22 C 188.90 675.20 247.35 696.88 306.01 717.97 C 322.06 724.07 338.49 729.13 354.52 735.29 C 390.98 748.74 427.78 761.25 464.20 774.83 C 477.22 779.42 490.31 783.86 503.33 788.46 C 506.23 789.63 508.61 786.93 511.18 786.05 C 525.22 780.54 538.60 773.55 552.22 767.11 C 580.48 752.87 609.29 739.74 637.43 725.26 C 655.39 716.73 673.21 707.91 691.14 699.32 C 720.24 684.81 749.75 671.17 778.91 656.80 C 805.06 644.21 831.12 631.42 857.28 618.84 C 856.21 616.99 854.20 615.81 852.15 615.44 C 825.58 629.04 798.33 641.25 771.56 654.44 C 753.42 663.45 734.90 671.68 716.90 680.98 C 651.13 712.70 585.61 744.93 519.86 776.68 C 515.25 778.68 510.33 782.23 505.11 780.01 C 416.35 748.56 328.14 715.60 239.65 683.40 C 210.29 671.92 180.37 661.98 150.78 651.14 C 141.77 647.58 131.85 645.24 124.61 638.38 C 113.93 628.19 107.07 614.49 103.52 600.28 C 99.52 582.52 98.74 563.63 104.16 546.08 C 106.13 537.40 109.60 529.23 113.22 521.16 C 103.49 527.11 96.57 536.92 92.58 547.48 M 712.14 709.32 C 682.30 724.18 652.00 738.11 622.24 753.14 C 602.84 762.46 583.38 771.65 564.18 781.37 C 552.66 787.29 540.75 792.40 529.20 798.24 C 535.73 800.40 542.17 802.86 548.68 805.12 C 550.70 805.86 553.04 806.08 555.00 804.98 C 638.37 765.58 722.49 727.82 806.26 689.30 C 827.88 679.67 849.02 669.01 870.57 659.22 C 870.59 658.85 870.63 658.12 870.65 657.75 C 860.83 654.75 851.08 651.19 841.94 646.49 C 798.63 667.34 755.46 688.48 712.14 709.32 M 1094.91 676.91 C 1090.00 682.05 1085.90 687.94 1082.18 693.97 C 1104.92 710.13 1127.34 726.72 1149.84 743.20 C 1150.68 744.15 1152.24 744.13 1152.97 743.03 C 1157.82 736.69 1163.13 730.07 1164.39 721.94 C 1165.44 714.01 1165.03 704.91 1159.23 698.77 C 1153.29 692.64 1146.34 687.61 1139.61 682.40 C 1134.43 678.55 1129.54 674.11 1123.55 671.56 C 1114.11 667.47 1102.12 669.46 1094.91 676.91 M 800.16 712.36 C 780.27 721.44 760.28 730.28 740.48 739.56 C 723.71 747.57 706.51 754.66 689.73 762.65 C 677.04 768.18 664.70 774.50 652.01 780.04 C 620.58 794.57 588.94 808.65 557.81 823.82 C 554.42 825.25 552.13 828.21 550.33 831.30 C 541.61 846.77 535.72 863.96 534.31 881.73 C 532.44 898.03 534.83 914.38 537.60 930.44 C 561.94 919.54 585.81 907.60 609.81 895.97 C 631.29 885.88 652.55 875.35 673.89 864.96 C 693.67 855.22 713.79 846.22 733.51 836.37 C 755.79 825.57 778.29 815.25 800.57 804.46 C 820.63 794.96 840.35 784.75 860.78 776.05 C 853.30 760.22 850.58 742.43 851.42 725.03 C 852.36 710.99 855.05 696.96 860.74 684.03 C 840.49 693.35 820.27 702.75 800.16 712.36 M 160.82 691.79 C 154.48 696.38 148.61 702.27 145.86 709.75 C 140.00 724.55 137.03 740.79 139.24 756.66 C 140.73 770.49 145.81 784.31 155.52 794.50 C 159.77 798.97 166.02 800.22 171.54 802.42 C 181.79 806.39 192.20 809.91 202.44 813.89 C 223.44 822.06 244.79 829.29 265.90 837.17 C 303.17 850.80 340.52 864.19 377.69 878.09 C 411.51 890.10 445.26 902.35 478.77 915.23 C 492.50 919.87 505.93 925.39 519.66 930.02 C 514.66 908.92 514.24 886.66 518.69 865.41 C 520.93 854.26 525.10 843.63 529.06 833.01 C 530.62 828.63 533.41 824.82 534.99 820.46 C 524.50 816.42 513.85 812.84 503.47 808.53 C 487.04 801.78 470.01 796.64 453.43 790.30 C 433.59 783.27 413.73 776.32 394.03 768.93 C 373.31 762.03 353.04 753.88 332.37 746.85 C 319.64 742.59 307.20 737.51 294.44 733.33 C 253.08 718.02 211.50 703.27 169.83 688.83 C 166.54 687.75 163.58 690.36 160.82 691.79 M 120.05 705.02 C 112.67 715.22 109.42 727.77 107.70 740.07 C 105.90 759.24 108.31 779.14 116.30 796.76 C 121.83 807.78 129.88 818.81 142.01 822.96 C 162.91 830.19 183.71 837.74 204.46 845.42 C 223.91 852.41 243.45 859.15 262.85 866.27 C 282.57 873.69 302.60 880.25 322.33 887.64 C 354.10 898.81 385.79 910.22 417.51 921.56 C 435.84 927.65 453.94 934.42 472.08 941.06 C 484.70 945.35 497.23 949.92 509.76 954.46 C 515.89 956.40 521.73 959.38 528.03 960.66 C 532.96 959.00 537.43 956.13 542.20 954.05 C 587.37 932.74 632.26 910.84 677.23 889.12 C 736.90 860.57 796.16 831.20 855.86 802.71 C 863.98 798.73 872.07 794.70 880.36 791.08 C 877.75 789.81 874.68 788.26 871.91 790.02 C 853.48 798.87 835.18 807.99 816.58 816.48 C 774.41 836.57 732.35 856.89 690.19 877.01 C 671.84 885.56 653.71 894.55 635.65 903.68 C 601.57 919.49 568.06 936.49 534.09 952.52 C 532.06 953.06 529.90 952.91 527.86 952.55 C 510.72 946.72 493.91 939.93 476.79 934.02 C 446.05 922.07 414.84 911.37 383.95 899.81 C 345.38 885.97 307.07 871.45 268.50 857.63 C 229.70 843.43 190.91 829.23 152.15 814.91 C 147.09 813.48 143.97 809.07 140.78 805.22 C 134.40 797.47 129.10 788.76 125.68 779.30 C 118.73 760.93 118.61 740.44 123.37 721.53 C 126.25 710.97 129.43 700.19 135.98 691.23 C 129.83 694.71 124.40 699.47 120.05 705.02 M 1062.36 720.35 C 1061.37 721.50 1063.22 722.38 1063.89 723.10 C 1077.51 733.54 1091.57 743.40 1105.26 753.76 C 1114.00 760.52 1123.30 766.52 1132.17 773.11 C 1135.21 768.55 1138.76 764.27 1141.14 759.31 C 1134.64 754.67 1128.35 749.78 1121.84 745.16 C 1105.07 732.53 1087.60 720.84 1070.84 708.19 C 1067.94 712.19 1065.01 716.18 1062.36 720.35 M 1049.07 739.07 C 1044.28 746.23 1039.34 753.31 1034.31 760.31 C 1022.30 776.36 1011.06 792.96 999.09 809.05 C 975.22 841.94 951.94 875.24 928.31 908.30 C 915.65 925.68 902.96 943.04 890.65 960.67 C 886.46 966.97 881.53 972.83 878.09 979.60 C 881.75 982.38 885.39 985.21 889.08 987.96 C 889.79 988.71 891.32 989.23 891.91 988.02 C 898.68 978.45 905.50 968.92 912.48 959.52 C 924.00 944.25 934.20 928.03 945.88 912.87 C 968.13 880.61 991.69 849.27 1014.11 817.13 C 1026.15 800.17 1038.33 783.31 1050.31 766.31 C 1054.78 759.63 1059.87 753.34 1063.94 746.42 C 1059.72 743.60 1055.82 740.32 1051.60 737.50 C 1050.45 736.49 1049.67 738.39 1049.07 739.07 M 1079.17 757.70 C 1069.13 772.40 1057.99 786.32 1048.18 801.19 C 1025.43 833.38 1002.64 865.55 979.45 897.43 C 954.94 931.63 930.96 966.20 906.24 1000.24 C 910.16 1003.95 914.93 1006.62 919.06 1010.10 C 931.74 992.74 944.30 975.29 956.85 957.84 C 966.61 943.68 976.93 929.92 987.04 916.02 C 999.98 897.07 1013.86 878.80 1027.08 860.04 C 1038.79 843.79 1050.21 827.32 1062.33 811.37 C 1072.57 796.84 1082.94 782.40 1093.19 767.88 C 1088.64 764.32 1084.01 760.84 1079.17 757.70 M 1078.31 820.27 C 1054.27 853.59 1030.11 886.83 1006.48 920.45 C 983.63 952.30 960.79 984.17 938.09 1016.13 C 936.80 1017.87 935.58 1019.69 934.87 1021.76 C 939.16 1024.42 942.73 1028.35 947.57 1030.07 C 973.17 995.36 997.77 959.92 1022.89 924.86 C 1034.05 909.36 1044.68 893.47 1056.30 878.30 C 1066.25 864.87 1075.80 851.14 1085.60 837.61 C 1097.16 820.97 1109.53 804.89 1120.75 788.02 C 1116.45 784.98 1112.28 781.76 1107.94 778.77 C 1097.75 792.37 1088.28 806.50 1078.31 820.27 M 769.16 864.97 C 732.74 882.59 696.34 900.25 659.90 917.83 C 618.48 937.43 577.48 957.94 535.81 977.01 C 532.70 978.29 529.48 980.46 525.98 979.34 C 519.82 977.64 513.79 975.53 507.81 973.31 C 486.72 965.46 465.43 958.15 444.24 950.57 C 427.83 944.00 410.67 939.49 394.35 932.68 C 384.85 928.95 374.94 926.40 365.48 922.56 C 358.48 919.61 351.18 917.50 344.11 914.74 C 333.43 910.64 322.36 907.61 311.81 903.17 C 298.36 898.14 284.61 893.95 271.19 888.81 C 251.17 881.33 230.78 874.87 210.84 867.16 C 192.05 860.70 173.48 853.60 154.68 847.14 C 152.80 846.56 150.71 845.60 148.78 846.54 C 138.71 850.82 128.69 855.21 118.92 860.12 C 133.44 864.65 147.59 870.27 162.12 874.79 C 183.52 882.13 204.84 889.73 226.33 896.81 C 264.92 910.29 303.65 923.37 342.27 936.75 C 371.82 947.60 401.75 957.35 431.50 967.62 C 467.85 980.65 504.69 992.26 540.91 1005.62 C 572.48 988.08 604.43 971.22 636.17 954.00 C 675.68 932.94 714.94 911.45 754.41 890.33 C 769.25 881.62 784.84 874.27 799.75 865.68 C 809.14 860.42 818.77 855.62 828.13 850.31 C 836.77 845.35 845.85 841.18 854.37 835.99 C 849.89 834.10 845.22 832.66 840.84 830.55 C 816.80 841.71 793.00 853.38 769.16 864.97 M 834.21 868.25 C 826.50 873.11 818.24 876.99 810.19 881.23 C 738.32 920.10 666.14 958.42 594.21 997.18 C 578.58 1005.91 562.37 1013.74 547.13 1023.09 C 544.06 1030.05 542.48 1037.61 540.77 1045.00 C 537.57 1059.86 538.48 1075.38 542.42 1090.01 C 547.60 1088.47 551.90 1084.97 556.76 1082.69 C 582.77 1068.06 608.65 1053.20 634.87 1038.95 C 643.47 1033.75 652.63 1029.53 661.13 1024.14 C 686.78 1009.75 712.51 995.50 738.14 981.08 C 772.80 961.28 807.74 941.97 842.50 922.35 C 843.64 921.42 846.48 921.06 845.82 919.07 C 843.85 912.71 841.86 906.30 841.13 899.66 C 839.10 887.32 841.60 874.86 844.43 862.86 C 840.87 864.36 837.50 866.24 834.21 868.25 M 78.50 884.48 C 72.39 892.17 70.96 902.46 71.22 912.00 C 70.84 926.49 74.66 940.88 81.19 953.75 C 84.03 959.28 88.04 964.26 93.02 968.00 C 99.09 972.18 106.22 974.40 113.20 976.57 C 130.58 982.13 147.69 988.51 165.09 994.06 C 176.00 997.80 186.82 1001.80 197.84 1005.20 C 215.28 1011.10 232.68 1017.13 250.21 1022.72 C 297.36 1039.24 344.90 1054.62 392.07 1071.10 C 412.69 1078.22 433.48 1084.80 454.08 1091.99 C 474.74 1099.13 495.45 1106.16 516.20 1113.05 C 523.19 1115.41 530.34 1117.44 537.05 1120.57 C 577.88 1097.63 618.62 1074.51 659.34 1051.35 C 675.75 1041.54 692.81 1032.89 709.36 1023.33 C 728.32 1012.67 747.28 1002.03 766.08 991.10 C 798.83 972.41 831.86 954.22 864.33 935.05 C 862.99 934.46 861.77 933.28 860.25 933.43 C 827.49 950.61 795.58 969.38 763.17 987.21 C 724.72 1009.09 685.93 1030.38 647.56 1052.41 C 612.59 1071.39 578.36 1091.71 543.22 1110.38 C 540.39 1111.79 537.29 1113.99 533.99 1112.96 C 492.27 1100.14 451.44 1084.52 409.83 1071.33 C 391.98 1064.87 373.88 1059.14 355.93 1052.94 C 330.61 1043.67 304.72 1036.11 279.46 1026.67 C 266.49 1022.82 253.97 1017.62 240.92 1014.00 C 230.74 1010.07 220.13 1007.40 209.98 1003.37 C 200.53 999.71 190.65 997.29 181.22 993.54 C 161.44 987.24 141.91 980.14 122.19 973.64 C 117.00 971.80 111.46 970.42 107.04 966.98 C 96.74 958.66 91.21 946.16 87.31 933.84 C 82.90 918.28 81.50 901.05 87.65 885.76 C 89.30 881.26 91.83 877.17 93.71 872.78 C 87.87 875.49 82.68 879.59 78.50 884.48 M 112.56 877.24 C 105.19 886.42 100.63 898.13 101.66 910.02 C 102.85 923.13 105.70 936.65 113.42 947.58 C 115.28 950.42 118.00 952.63 121.24 953.69 C 156.98 965.89 192.63 978.38 228.47 990.28 C 243.66 995.08 258.74 1000.22 273.76 1005.51 C 299.00 1014.56 324.60 1022.50 349.94 1031.26 C 372.58 1039.36 395.35 1047.10 418.18 1054.68 C 429.95 1058.37 441.41 1062.96 453.21 1066.56 C 472.06 1072.99 490.86 1079.58 509.70 1086.02 C 514.39 1087.41 518.94 1089.55 523.88 1089.81 C 523.74 1085.69 522.20 1081.81 521.73 1077.75 C 520.89 1069.83 520.10 1061.81 521.31 1053.89 C 522.24 1042.64 525.91 1031.94 529.04 1021.18 C 513.44 1015.19 497.63 1009.77 481.81 1004.40 C 469.21 999.82 456.58 995.30 443.82 991.16 C 431.04 987.30 418.70 982.15 405.92 978.27 C 388.34 972.70 371.22 965.82 353.69 960.13 C 337.60 954.69 321.57 949.09 305.50 943.58 C 272.89 932.78 240.67 920.85 208.06 910.04 C 185.96 902.28 163.71 894.96 141.57 887.29 C 131.98 883.72 122.34 880.26 112.56 877.24 M 870.38 996.99 C 868.61 1006.00 867.11 1015.07 865.39 1024.09 C 864.17 1032.60 861.53 1040.90 861.10 1049.51 C 871.31 1054.34 880.33 1061.37 888.82 1068.75 C 903.32 1060.13 918.10 1051.94 932.45 1043.07 C 917.93 1031.27 902.35 1020.84 887.47 1009.51 C 881.71 1005.42 876.43 1000.66 870.38 996.99 M 857.45 1067.91 C 856.13 1075.25 854.32 1082.48 853.06 1089.83 C 858.95 1086.41 864.93 1083.15 870.77 1079.64 C 872.00 1079.27 872.11 1077.64 871.02 1077.06 C 866.57 1073.91 862.07 1070.80 857.45 1067.91 Z" style="fill: rgb(0, 0, 0) !important;"/>
<path fill="#ffffff" opacity="1.00" d=" M 813.50 522.39 C 822.38 518.66 830.97 514.27 839.65 510.11 C 837.02 516.25 834.31 522.41 832.77 528.94 C 828.13 549.76 828.42 571.70 833.74 592.36 C 834.62 596.09 836.24 599.61 836.93 603.39 C 783.59 628.62 730.47 654.32 677.50 680.34 C 663.57 687.14 649.44 693.53 635.59 700.50 C 616.84 709.38 598.41 718.89 579.56 727.54 C 558.62 737.97 537.45 747.95 516.28 757.89 C 509.05 727.90 510.32 695.05 524.06 667.04 C 527.01 661.13 529.76 654.38 535.84 651.00 C 560.72 638.91 586.06 627.78 611.27 616.38 C 649.41 598.39 687.93 581.24 726.00 563.10 C 755.30 549.82 784.15 535.55 813.50 522.39 Z" style="fill: none !important;"/>
<path fill="#ffffff" opacity="1.00" d=" M 129.05 531.02 C 132.31 525.45 137.00 520.86 142.26 517.19 C 144.42 517.12 146.44 518.01 148.44 518.72 C 164.69 524.93 181.31 530.11 197.59 536.26 C 241.21 551.98 285.02 567.15 328.73 582.63 C 347.69 589.57 366.95 595.73 385.78 603.05 C 403.83 609.16 421.66 615.90 439.70 622.03 C 457.70 628.06 475.43 634.87 493.45 640.83 C 500.34 643.11 507.19 645.55 513.94 648.23 C 493.90 680.66 489.63 721.17 497.72 757.99 C 481.85 752.20 465.82 746.87 450.02 740.92 C 432.32 734.06 414.22 728.25 396.54 721.35 C 375.93 714.24 355.66 706.22 335.14 698.89 C 302.36 687.22 269.80 674.94 237.18 662.84 C 216.70 655.92 196.56 648.06 176.20 640.80 C 168.50 638.22 160.79 635.69 153.22 632.74 C 145.94 629.94 138.01 627.38 132.93 621.07 C 123.98 610.10 120.24 595.83 118.81 581.98 C 117.45 564.54 119.82 546.18 129.05 531.02 Z" style="fill: none !important;"/>
<path fill="#fefefe" opacity="1.00" d=" M 92.58 547.48 C 96.57 536.92 103.49 527.11 113.22 521.16 C 109.60 529.23 106.13 537.40 104.16 546.08 C 98.74 563.63 99.52 582.52 103.52 600.28 C 107.07 614.49 113.93 628.19 124.61 638.38 C 131.85 645.24 141.77 647.58 150.78 651.14 C 180.37 661.98 210.29 671.92 239.65 683.40 C 328.14 715.60 416.35 748.56 505.11 780.01 C 510.33 782.23 515.25 778.68 519.86 776.68 C 585.61 744.93 651.13 712.70 716.90 680.98 C 734.90 671.68 753.42 663.45 771.56 654.44 C 798.33 641.25 825.58 629.04 852.15 615.44 C 854.20 615.81 856.21 616.99 857.28 618.84 C 831.12 631.42 805.06 644.21 778.91 656.80 C 749.75 671.17 720.24 684.81 691.14 699.32 C 673.21 707.91 655.39 716.73 637.43 725.26 C 609.29 739.74 580.48 752.87 552.22 767.11 C 538.60 773.55 525.22 780.54 511.18 786.05 C 508.61 786.93 506.23 789.63 503.33 788.46 C 490.31 783.86 477.22 779.42 464.20 774.83 C 427.78 761.25 390.98 748.74 354.52 735.29 C 338.49 729.13 322.06 724.07 306.01 717.97 C 247.35 696.88 188.90 675.20 129.84 655.22 C 123.19 652.66 116.06 650.29 111.04 644.97 C 99.58 633.07 92.76 617.40 89.30 601.42 C 86.03 583.57 85.93 564.60 92.58 547.48 Z" style="fill: none !important;"/>
<path fill="#ffffff" opacity="1.00" d=" M 712.14 709.32 C 755.46 688.48 798.63 667.34 841.94 646.49 C 851.08 651.19 860.83 654.75 870.65 657.75 C 870.63 658.12 870.59 658.85 870.57 659.22 C 849.02 669.01 827.88 679.67 806.26 689.30 C 722.49 727.82 638.37 765.58 555.00 804.98 C 553.04 806.08 550.70 805.86 548.68 805.12 C 542.17 802.86 535.73 800.40 529.20 798.24 C 540.75 792.40 552.66 787.29 564.18 781.37 C 583.38 771.65 602.84 762.46 622.24 753.14 C 652.00 738.11 682.30 724.18 712.14 709.32 Z" style="fill: none !important;"/>
<path fill="#ffffff" opacity="1.00" d=" M 1094.91 676.91 C 1102.12 669.46 1114.11 667.47 1123.55 671.56 C 1129.54 674.11 1134.43 678.55 1139.61 682.40 C 1146.34 687.61 1153.29 692.64 1159.23 698.77 C 1165.03 704.91 1165.44 714.01 1164.39 721.94 C 1163.13 730.07 1157.82 736.69 1152.97 743.03 C 1152.24 744.13 1150.68 744.15 1149.84 743.20 C 1127.34 726.72 1104.92 710.13 1082.18 693.97 C 1085.90 687.94 1090.00 682.05 1094.91 676.91 Z" style="fill: none !important;"/>
<path fill="#ffffff" opacity="1.00" d=" M 800.16 712.36 C 820.27 702.75 840.49 693.35 860.74 684.03 C 855.05 696.96 852.36 710.99 851.42 725.03 C 850.58 742.43 853.30 760.22 860.78 776.05 C 840.35 784.75 820.63 794.96 800.57 804.46 C 778.29 815.25 755.79 825.57 733.51 836.37 C 713.79 846.22 693.67 855.22 673.89 864.96 C 652.55 875.35 631.29 885.88 609.81 895.97 C 585.81 907.60 561.94 919.54 537.60 930.44 C 534.83 914.38 532.44 898.03 534.31 881.73 C 535.72 863.96 541.61 846.77 550.33 831.30 C 552.13 828.21 554.42 825.25 557.81 823.82 C 588.94 808.65 620.58 794.57 652.01 780.04 C 664.70 774.50 677.04 768.18 689.73 762.65 C 706.51 754.66 723.71 747.57 740.48 739.56 C 760.28 730.28 780.27 721.44 800.16 712.36 Z" style="fill: none !important;"/>
<path fill="#ffffff" opacity="1.00" d=" M 160.82 691.79 C 163.58 690.36 166.54 687.75 169.83 688.83 C 211.50 703.27 253.08 718.02 294.44 733.33 C 307.20 737.51 319.64 742.59 332.37 746.85 C 353.04 753.88 373.31 762.03 394.03 768.93 C 413.73 776.32 433.59 783.27 453.43 790.30 C 470.01 796.64 487.04 801.78 503.47 808.53 C 513.85 812.84 524.50 816.42 534.99 820.46 C 533.41 824.82 530.62 828.63 529.06 833.01 C 525.10 843.63 520.93 854.26 518.69 865.41 C 514.24 886.66 514.66 908.92 519.66 930.02 C 505.93 925.39 492.50 919.87 478.77 915.23 C 445.26 902.35 411.51 890.10 377.69 878.09 C 340.52 864.19 303.17 850.80 265.90 837.17 C 244.79 829.29 223.44 822.06 202.44 813.89 C 192.20 809.91 181.79 806.39 171.54 802.42 C 166.02 800.22 159.77 798.97 155.52 794.50 C 145.81 784.31 140.73 770.49 139.24 756.66 C 137.03 740.79 140.00 724.55 145.86 709.75 C 148.61 702.27 154.48 696.38 160.82 691.79 Z" style="fill: none !important;"/>
<path fill="#fefefe" opacity="1.00" d=" M 120.05 705.02 C 124.40 699.47 129.83 694.71 135.98 691.23 C 129.43 700.19 126.25 710.97 123.37 721.53 C 118.61 740.44 118.73 760.93 125.68 779.30 C 129.10 788.76 134.40 797.47 140.78 805.22 C 143.97 809.07 147.09 813.48 152.15 814.91 C 190.91 829.23 229.70 843.43 268.50 857.63 C 307.07 871.45 345.38 885.97 383.95 899.81 C 414.84 911.37 446.05 922.07 476.79 934.02 C 493.91 939.93 510.72 946.72 527.86 952.55 C 529.90 952.91 532.06 953.06 534.09 952.52 C 568.06 936.49 601.57 919.49 635.65 903.68 C 653.71 894.55 671.84 885.56 690.19 877.01 C 732.35 856.89 774.41 836.57 816.58 816.48 C 835.18 807.99 853.48 798.87 871.91 790.02 C 874.68 788.26 877.75 789.81 880.36 791.08 C 872.07 794.70 863.98 798.73 855.86 802.71 C 796.16 831.20 736.90 860.57 677.23 889.12 C 632.26 910.84 587.37 932.74 542.20 954.05 C 537.43 956.13 532.96 959.00 528.03 960.66 C 521.73 959.38 515.89 956.40 509.76 954.46 C 497.23 949.92 484.70 945.35 472.08 941.06 C 453.94 934.42 435.84 927.65 417.51 921.56 C 385.79 910.22 354.10 898.81 322.33 887.64 C 302.60 880.25 282.57 873.69 262.85 866.27 C 243.45 859.15 223.91 852.41 204.46 845.42 C 183.71 837.74 162.91 830.19 142.01 822.96 C 129.88 818.81 121.83 807.78 116.30 796.76 C 108.31 779.14 105.90 759.24 107.70 740.07 C 109.42 727.77 112.67 715.22 120.05 705.02 Z" style="fill: none !important;"/>
<path fill="#fefefe" opacity="1.00" d=" M 1062.36 720.35 C 1065.01 716.18 1067.94 712.19 1070.84 708.19 C 1087.60 720.84 1105.07 732.53 1121.84 745.16 C 1128.35 749.78 1134.64 754.67 1141.14 759.31 C 1138.76 764.27 1135.21 768.55 1132.17 773.11 C 1123.30 766.52 1114.00 760.52 1105.26 753.76 C 1091.57 743.40 1077.51 733.54 1063.89 723.10 C 1063.22 722.38 1061.37 721.50 1062.36 720.35 Z" style="fill: none !important;"/>
<path fill="#fefefe" opacity="1.00" d=" M 1049.07 739.07 C 1049.67 738.39 1050.45 736.49 1051.60 737.50 C 1055.82 740.32 1059.72 743.60 1063.94 746.42 C 1059.87 753.34 1054.78 759.63 1050.31 766.31 C 1038.33 783.31 1026.15 800.17 1014.11 817.13 C 991.69 849.27 968.13 880.61 945.88 912.87 C 934.20 928.03 924.00 944.25 912.48 959.52 C 905.50 968.92 898.68 978.45 891.91 988.02 C 891.32 989.23 889.79 988.71 889.08 987.96 C 885.39 985.21 881.75 982.38 878.09 979.60 C 881.53 972.83 886.46 966.97 890.65 960.67 C 902.96 943.04 915.65 925.68 928.31 908.30 C 951.94 875.24 975.22 841.94 999.09 809.05 C 1011.06 792.96 1022.30 776.36 1034.31 760.31 C 1039.34 753.31 1044.28 746.23 1049.07 739.07 Z" style="fill: none !important;"/>
<path fill="#fefefe" opacity="1.00" d=" M 1079.17 757.70 C 1084.01 760.84 1088.64 764.32 1093.19 767.88 C 1082.94 782.40 1072.57 796.84 1062.33 811.37 C 1050.21 827.32 1038.79 843.79 1027.08 860.04 C 1013.86 878.80 999.98 897.07 987.04 916.02 C 976.93 929.92 966.61 943.68 956.85 957.84 C 944.30 975.29 931.74 992.74 919.06 1010.10 C 914.93 1006.62 910.16 1003.95 906.24 1000.24 C 930.96 966.20 954.94 931.63 979.45 897.43 C 1002.64 865.55 1025.43 833.38 1048.18 801.19 C 1057.99 786.32 1069.13 772.40 1079.17 757.70 Z" style="fill: none !important;"/>
<path fill="#fefefe" opacity="1.00" d=" M 1078.31 820.27 C 1088.28 806.50 1097.75 792.37 1107.94 778.77 C 1112.28 781.76 1116.45 784.98 1120.75 788.02 C 1109.53 804.89 1097.16 820.97 1085.60 837.61 C 1075.80 851.14 1066.25 864.87 1056.30 878.30 C 1044.68 893.47 1034.05 909.36 1022.89 924.86 C 997.77 959.92 973.17 995.36 947.57 1030.07 C 942.73 1028.35 939.16 1024.42 934.87 1021.76 C 935.58 1019.69 936.80 1017.87 938.09 1016.13 C 960.79 984.17 983.63 952.30 1006.48 920.45 C 1030.11 886.83 1054.27 853.59 1078.31 820.27 Z" style="fill: none !important;"/>
<path fill="#ffffff" opacity="1.00" d=" M 769.16 864.97 C 793.00 853.38 816.80 841.71 840.84 830.55 C 845.22 832.66 849.89 834.10 854.37 835.99 C 845.85 841.18 836.77 845.35 828.13 850.31 C 818.77 855.62 809.14 860.42 799.75 865.68 C 784.84 874.27 769.25 881.62 754.41 890.33 C 714.94 911.45 675.68 932.94 636.17 954.00 C 604.43 971.22 572.48 988.08 540.91 1005.62 C 504.69 992.26 467.85 980.65 431.50 967.62 C 401.75 957.35 371.82 947.60 342.27 936.75 C 303.65 923.37 264.92 910.29 226.33 896.81 C 204.84 889.73 183.52 882.13 162.12 874.79 C 147.59 870.27 133.44 864.65 118.92 860.12 C 128.69 855.21 138.71 850.82 148.78 846.54 C 150.71 845.60 152.80 846.56 154.68 847.14 C 173.48 853.60 192.05 860.70 210.84 867.16 C 230.78 874.87 251.17 881.33 271.19 888.81 C 284.61 893.95 298.36 898.14 311.81 903.17 C 322.36 907.61 333.43 910.64 344.11 914.74 C 351.18 917.50 358.48 919.61 365.48 922.56 C 374.94 926.40 384.85 928.95 394.35 932.68 C 410.67 939.49 427.83 944.00 444.24 950.57 C 465.43 958.15 486.72 965.46 507.81 973.31 C 513.79 975.53 519.82 977.64 525.98 979.34 C 529.48 980.46 532.70 978.29 535.81 977.01 C 577.48 957.94 618.48 937.43 659.90 917.83 C 696.34 900.25 732.74 882.59 769.16 864.97 Z" style="fill: none !important;"/>
<path fill="#ffffff" opacity="1.00" d=" M 834.21 868.25 C 837.50 866.24 840.87 864.36 844.43 862.86 C 841.60 874.86 839.10 887.32 841.13 899.66 C 841.86 906.30 843.85 912.71 845.82 919.07 C 846.48 921.06 843.64 921.42 842.50 922.35 C 807.74 941.97 772.80 961.28 738.14 981.08 C 712.51 995.50 686.78 1009.75 661.13 1024.14 C 652.63 1029.53 643.47 1033.75 634.87 1038.95 C 608.65 1053.20 582.77 1068.06 556.76 1082.69 C 551.90 1084.97 547.60 1088.47 542.42 1090.01 C 538.48 1075.38 537.57 1059.86 540.77 1045.00 C 542.48 1037.61 544.06 1030.05 547.13 1023.09 C 562.37 1013.74 578.58 1005.91 594.21 997.18 C 666.14 958.42 738.32 920.10 810.19 881.23 C 818.24 876.99 826.50 873.11 834.21 868.25 Z" style="fill: none !important;"/>
<path fill="#fdfdfd" opacity="1.00" d=" M 78.50 884.48 C 82.68 879.59 87.87 875.49 93.71 872.78 C 91.83 877.17 89.30 881.26 87.65 885.76 C 81.50 901.05 82.90 918.28 87.31 933.84 C 91.21 946.16 96.74 958.66 107.04 966.98 C 111.46 970.42 117.00 971.80 122.19 973.64 C 141.91 980.14 161.44 987.24 181.22 993.54 C 190.65 997.29 200.53 999.71 209.98 1003.37 C 220.13 1007.40 230.74 1010.07 240.92 1014.00 C 253.97 1017.62 266.49 1022.82 279.46 1026.67 C 304.72 1036.11 330.61 1043.67 355.93 1052.94 C 373.88 1059.14 391.98 1064.87 409.83 1071.33 C 451.44 1084.52 492.27 1100.14 533.99 1112.96 C 537.29 1113.99 540.39 1111.79 543.22 1110.38 C 578.36 1091.71 612.59 1071.39 647.56 1052.41 C 685.93 1030.38 724.72 1009.09 763.17 987.21 C 795.58 969.38 827.49 950.61 860.25 933.43 C 861.77 933.28 862.99 934.46 864.33 935.05 C 831.86 954.22 798.83 972.41 766.08 991.10 C 747.28 1002.03 728.32 1012.67 709.36 1023.33 C 692.81 1032.89 675.75 1041.54 659.34 1051.35 C 618.62 1074.51 577.88 1097.63 537.05 1120.57 C 530.34 1117.44 523.19 1115.41 516.20 1113.05 C 495.45 1106.16 474.74 1099.13 454.08 1091.99 C 433.48 1084.80 412.69 1078.22 392.07 1071.10 C 344.90 1054.62 297.36 1039.24 250.21 1022.72 C 232.68 1017.13 215.28 1011.10 197.84 1005.20 C 186.82 1001.80 176.00 997.80 165.09 994.06 C 147.69 988.51 130.58 982.13 113.20 976.57 C 106.22 974.40 99.09 972.18 93.02 968.00 C 88.04 964.26 84.03 959.28 81.19 953.75 C 74.66 940.88 70.84 926.49 71.22 912.00 C 70.96 902.46 72.39 892.17 78.50 884.48 Z" style="fill: none !important;"/>
<path fill="#ffffff" opacity="1.00" d=" M 112.56 877.24 C 122.34 880.26 131.98 883.72 141.57 887.29 C 163.71 894.96 185.96 902.28 208.06 910.04 C 240.67 920.85 272.89 932.78 305.50 943.58 C 321.57 949.09 337.60 954.69 353.69 960.13 C 371.22 965.82 388.34 972.70 405.92 978.27 C 418.70 982.15 431.04 987.30 443.82 991.16 C 456.58 995.30 469.21 999.82 481.81 1004.40 C 497.63 1009.77 513.44 1015.19 529.04 1021.18 C 525.91 1031.94 522.24 1042.64 521.31 1053.89 C 520.10 1061.81 520.89 1069.83 521.73 1077.75 C 522.20 1081.81 523.74 1085.69 523.88 1089.81 C 518.94 1089.55 514.39 1087.41 509.70 1086.02 C 490.86 1079.58 472.06 1072.99 453.21 1066.56 C 441.41 1062.96 429.95 1058.37 418.18 1054.68 C 395.35 1047.10 372.58 1039.36 349.94 1031.26 C 324.60 1022.50 299.00 1014.56 273.76 1005.51 C 258.74 1000.22 243.66 995.08 228.47 990.28 C 192.63 978.38 156.98 965.89 121.24 953.69 C 118.00 952.63 115.28 950.42 113.42 947.58 C 105.70 936.65 102.85 923.13 101.66 910.02 C 100.63 898.13 105.19 886.42 112.56 877.24 Z" style="fill: none !important;"/>
<path fill="#ffffff" opacity="1.00" d=" M 870.38 996.99 C 876.43 1000.66 881.71 1005.42 887.47 1009.51 C 902.35 1020.84 917.93 1031.27 932.45 1043.07 C 918.10 1051.94 903.32 1060.13 888.82 1068.75 C 880.33 1061.37 871.31 1054.34 861.10 1049.51 C 861.53 1040.90 864.17 1032.60 865.39 1024.09 C 867.11 1015.07 868.61 1006.00 870.38 996.99 Z" style="fill: none !important;"/>
<path fill="#fefefe" opacity="1.00" d=" M 857.45 1067.91 C 862.07 1070.80 866.57 1073.91 871.02 1077.06 C 872.11 1077.64 872.00 1079.27 870.77 1079.64 C 864.93 1083.15 858.95 1086.41 853.06 1089.83 C 854.32 1082.48 856.13 1075.25 857.45 1067.91 Z" style="fill: none !important;"/>
</svg>