<svg xmlns="http://www.w3.org/2000/svg" width="2000" height="2000" viewBox="0 0 2048 2048" version="1.1" style="">
<g id="#fdfefdff" style="fill: rgb(0, 0, 0) !important;">
<path fill="#fdfefd" stroke="#fdfefd" stroke-width="0.09375" opacity="1.00" d=" M 0.00 0.00 L 2048.00 0.00 L 2048.00 2048.00 L 0.00 2048.00 L 0.00 0.00 M 615.85 274.66 C 612.11 276.50 612.30 281.23 611.71 284.76 C 610.93 291.46 611.03 299.63 605.22 304.22 C 598.41 308.74 589.75 308.04 582.17 310.32 C 579.66 310.94 577.91 313.48 578.28 316.05 C 578.23 318.74 580.76 320.20 582.84 321.28 C 590.44 322.56 598.61 322.67 605.46 326.58 C 610.89 330.97 610.82 338.70 611.70 345.03 C 612.32 349.09 612.10 354.79 616.93 356.24 C 620.85 357.54 623.88 353.80 624.21 350.24 C 624.37 345.53 625.44 340.92 626.11 336.28 C 626.82 331.65 628.95 326.28 633.85 324.80 C 640.14 323.08 646.64 322.22 653.04 321.01 C 655.93 320.30 657.77 317.76 658.45 314.98 C 657.56 312.64 656.07 310.31 653.43 309.81 C 647.24 308.52 640.93 307.90 634.81 306.26 C 632.54 305.05 630.19 303.74 628.77 301.52 C 625.69 297.01 625.94 291.30 624.89 286.15 C 624.21 282.70 624.49 278.75 622.11 275.91 C 620.65 274.01 617.93 274.07 615.85 274.66 M 1392.04 303.03 C 1396.40 310.65 1407.70 313.01 1414.73 307.76 C 1417.40 305.97 1418.89 303.04 1420.37 300.28 C 1420.95 295.91 1421.41 291.04 1418.79 287.19 C 1415.21 280.82 1407.05 277.86 1400.18 280.23 C 1391.07 282.94 1387.05 295.15 1392.04 303.03 M 951.90 293.88 C 933.36 296.24 914.98 299.65 896.77 303.81 L 896.17 304.17 C 889.75 305.54 883.43 307.34 877.12 309.11 C 874.77 309.76 872.42 310.43 870.08 311.12 C 866.98 312.02 863.91 313.00 860.79 313.84 L 860.22 314.21 C 858.39 314.71 856.58 315.26 854.77 315.77 L 854.12 316.15 C 820.85 327.30 788.43 341.34 758.14 359.13 C 707.98 388.27 662.40 425.76 625.80 470.89 C 599.07 502.98 577.10 538.91 559.71 576.85 C 559.48 577.36 559.01 578.37 558.77 578.87 C 546.17 607.44 535.90 637.14 529.83 667.81 C 526.54 684.02 524.45 700.46 523.67 716.98 C 522.66 754.47 532.12 792.66 552.82 824.16 C 562.37 839.19 575.04 851.96 588.59 863.40 C 617.85 887.23 654.51 901.15 691.88 905.14 C 721.78 908.13 752.36 905.96 781.19 897.19 C 783.17 896.50 785.16 895.82 787.15 895.16 C 809.77 887.27 831.17 875.15 848.34 858.33 C 862.02 844.88 873.28 829.05 881.80 811.88 C 882.26 810.94 882.74 810.02 883.23 809.11 C 884.81 805.73 886.40 802.36 887.81 798.91 C 892.80 786.72 897.25 774.32 902.22 762.13 C 903.33 759.34 904.57 756.60 905.77 753.85 C 912.39 739.63 920.71 725.99 931.82 714.81 C 948.50 697.64 970.48 685.82 993.86 680.83 C 1017.13 676.69 1041.58 677.39 1064.12 684.84 C 1081.44 691.23 1097.65 701.16 1110.13 714.88 C 1122.46 727.75 1131.27 743.78 1136.18 760.88 C 1136.83 763.53 1137.47 766.20 1138.16 768.86 C 1144.44 799.45 1139.03 832.01 1124.31 859.45 C 1115.26 876.26 1103.30 891.38 1089.98 905.00 C 1064.25 931.46 1034.93 954.00 1007.00 978.01 C 978.54 1002.43 951.34 1028.63 928.51 1058.47 C 904.72 1089.29 886.13 1124.13 874.21 1161.21 C 867.09 1183.38 861.36 1206.06 858.09 1229.14 C 854.14 1253.94 853.58 1279.13 854.79 1304.19 L 855.19 1304.83 C 856.56 1326.15 862.31 1347.20 871.68 1366.39 C 885.55 1395.72 911.41 1418.32 940.92 1431.13 C 965.76 1441.83 993.03 1446.12 1019.97 1445.52 C 1058.21 1444.92 1097.29 1433.63 1127.06 1408.95 C 1142.57 1396.21 1155.07 1379.92 1163.82 1361.88 C 1171.60 1345.72 1177.12 1328.48 1180.39 1310.85 C 1184.49 1291.13 1188.33 1271.14 1196.47 1252.60 C 1204.90 1232.77 1218.07 1215.32 1233.08 1200.01 C 1258.78 1173.97 1288.93 1153.04 1317.82 1130.79 C 1334.82 1117.54 1351.56 1103.94 1367.62 1089.55 C 1394.63 1065.99 1419.36 1039.80 1441.23 1011.40 C 1453.50 995.18 1464.43 977.97 1474.28 960.18 C 1478.60 951.83 1482.97 943.49 1486.77 934.88 C 1488.14 931.89 1489.50 928.90 1490.78 925.87 C 1491.59 923.96 1492.41 922.05 1493.24 920.14 C 1499.95 903.54 1505.53 886.49 1510.19 869.20 C 1511.91 862.46 1513.54 855.69 1514.91 848.87 C 1515.29 847.19 1515.56 845.49 1515.83 843.80 L 1516.20 843.16 C 1518.51 830.54 1520.57 817.86 1522.16 805.12 C 1523.98 787.80 1525.05 770.41 1524.77 752.98 C 1525.08 731.83 1522.87 710.77 1520.15 689.82 C 1516.51 665.81 1511.36 642.02 1504.24 618.80 C 1496.70 595.36 1487.67 572.37 1476.54 550.40 C 1458.89 514.54 1435.81 481.50 1409.24 451.70 C 1383.43 423.03 1353.81 397.91 1322.01 376.12 C 1286.79 352.55 1248.38 333.92 1208.56 319.54 C 1188.22 312.15 1167.25 306.69 1146.19 301.83 C 1114.52 295.05 1082.24 290.79 1049.84 290.19 L 1049.18 289.79 C 1016.70 288.98 984.17 290.11 951.90 293.88 M 1529.00 299.89 C 1524.47 308.98 1520.47 318.36 1515.66 327.30 C 1513.59 328.39 1511.21 328.43 1508.99 328.82 C 1501.03 330.05 1493.01 330.84 1485.09 332.26 C 1482.13 332.61 1480.61 335.51 1479.58 337.96 C 1480.20 340.02 1480.41 342.38 1482.09 343.94 C 1488.95 351.19 1496.75 357.47 1503.60 364.73 C 1502.19 374.90 1500.14 384.98 1498.46 395.11 C 1497.50 400.12 1503.45 404.32 1507.93 401.91 C 1517.10 397.47 1525.84 392.16 1534.99 387.65 C 1541.28 390.06 1547.02 393.92 1553.09 396.92 C 1557.66 399.03 1561.84 402.64 1567.15 402.45 C 1569.90 400.99 1572.45 398.41 1571.80 395.00 C 1570.43 384.88 1568.17 374.88 1566.58 364.79 C 1572.02 358.84 1578.24 353.66 1583.87 347.90 C 1586.34 345.31 1589.71 343.03 1590.25 339.21 C 1590.41 335.62 1587.44 332.38 1583.89 332.05 C 1574.19 330.34 1564.36 329.39 1554.69 327.47 C 1550.49 320.08 1547.02 312.30 1543.27 304.68 C 1542.02 302.32 1541.21 299.56 1539.04 297.86 C 1536.02 295.34 1530.76 296.30 1529.00 299.89 M 506.51 384.67 C 502.57 386.55 501.24 390.99 500.78 395.00 C 501.04 399.91 503.96 404.75 508.85 406.19 C 512.17 406.88 516.03 407.20 518.99 405.19 C 523.77 402.18 525.78 395.53 523.48 390.37 C 521.23 383.73 512.33 380.70 506.51 384.67 M 462.46 477.74 C 457.40 478.83 452.75 481.52 449.02 485.07 C 440.23 493.45 438.81 508.19 445.91 518.05 C 452.82 528.61 467.91 532.96 479.18 526.98 C 487.97 523.02 493.55 513.50 493.51 503.96 C 493.82 496.43 490.22 489.19 484.89 484.05 C 478.94 478.56 470.39 476.24 462.46 477.74 M 1582.55 483.83 C 1571.46 486.21 1562.12 496.49 1562.14 508.07 C 1561.50 514.99 1564.43 521.82 1569.04 526.89 C 1573.91 532.04 1580.95 534.83 1587.94 535.34 C 1595.03 535.21 1602.33 532.54 1607.17 527.21 C 1613.99 520.21 1616.29 509.25 1612.82 500.12 C 1608.74 488.17 1594.75 480.36 1582.55 483.83 M 1596.40 628.67 C 1591.67 630.29 1587.52 634.72 1588.18 640.02 C 1587.55 648.08 1596.96 654.88 1604.32 651.32 C 1610.74 649.15 1613.81 641.17 1610.75 635.17 C 1608.71 629.53 1601.92 626.92 1596.40 628.67 M 508.37 930.45 C 502.59 933.11 500.00 940.83 502.57 946.56 C 504.53 951.38 509.93 954.28 515.05 953.42 C 522.50 952.90 527.35 944.10 524.57 937.37 C 522.58 930.88 514.43 927.54 508.37 930.45 M 750.53 1003.60 C 742.82 1009.52 743.34 1023.20 751.81 1028.22 C 755.61 1031.14 760.63 1031.19 765.14 1030.31 C 769.12 1028.52 773.10 1025.97 774.75 1021.72 C 777.65 1015.80 775.76 1008.40 770.95 1004.06 C 765.46 998.99 756.23 998.75 750.53 1003.60 M 604.50 1006.39 C 599.78 1015.56 595.71 1025.08 591.03 1034.28 C 581.74 1035.86 572.39 1037.10 563.07 1038.52 C 560.47 1038.88 557.88 1040.26 556.65 1042.67 C 555.56 1045.89 557.25 1049.21 559.46 1051.51 C 565.24 1057.42 571.18 1063.17 577.43 1068.58 C 578.57 1069.68 580.29 1070.85 579.72 1072.71 C 578.17 1082.18 576.07 1091.57 574.49 1101.04 C 573.47 1105.70 578.76 1109.91 583.13 1108.25 C 592.95 1104.53 601.47 1098.09 611.12 1094.02 C 620.36 1098.11 628.78 1103.93 638.15 1107.79 C 640.84 1109.05 644.30 1108.67 646.38 1106.44 C 648.37 1104.47 647.85 1101.39 647.61 1098.89 C 646.03 1089.55 644.03 1080.28 642.32 1070.96 C 649.63 1064.08 657.06 1057.29 663.94 1049.99 C 667.61 1046.36 665.69 1039.69 660.62 1038.66 C 650.75 1036.81 640.77 1035.54 630.82 1034.23 C 625.78 1025.10 621.61 1015.51 616.70 1006.33 C 614.26 1001.52 606.89 1001.51 604.50 1006.39 M 1450.43 1146.67 C 1441.47 1148.33 1433.71 1155.08 1430.75 1163.68 C 1427.60 1172.62 1429.27 1183.31 1435.60 1190.49 C 1440.58 1195.84 1447.77 1198.93 1455.04 1199.26 C 1466.72 1199.10 1477.76 1190.50 1480.51 1179.09 C 1483.99 1167.28 1477.27 1153.82 1466.21 1148.78 C 1461.35 1146.31 1455.74 1145.86 1450.43 1146.67 M 711.46 1166.68 C 702.90 1168.03 695.23 1174.08 692.20 1182.23 C 688.52 1191.62 690.71 1203.00 697.67 1210.32 C 706.27 1219.33 721.46 1221.02 731.63 1213.68 C 743.95 1205.57 746.49 1186.38 736.62 1175.41 C 730.58 1168.20 720.64 1164.95 711.46 1166.68 M 1338.75 1268.44 C 1337.77 1273.69 1337.15 1279.00 1336.14 1284.25 C 1335.17 1288.58 1334.43 1294.01 1329.96 1296.16 C 1322.70 1299.46 1314.52 1299.38 1306.81 1300.86 C 1304.39 1301.47 1303.37 1303.90 1302.56 1306.00 C 1303.26 1308.42 1304.24 1311.39 1307.15 1311.85 C 1314.04 1313.20 1321.23 1313.56 1327.84 1316.17 C 1331.27 1317.46 1334.20 1320.29 1335.25 1323.87 C 1337.24 1330.78 1337.63 1338.02 1338.84 1345.09 C 1340.28 1350.05 1348.62 1350.05 1349.91 1345.00 C 1351.37 1337.70 1351.81 1330.16 1354.04 1323.02 C 1355.10 1319.50 1358.00 1316.85 1361.43 1315.69 C 1367.77 1313.52 1374.56 1313.21 1381.11 1312.03 C 1385.13 1311.25 1386.91 1305.84 1384.24 1302.78 C 1381.54 1299.49 1376.81 1300.35 1373.07 1299.52 C 1367.29 1298.40 1360.60 1298.19 1356.16 1293.84 C 1352.41 1288.75 1352.22 1282.07 1351.01 1276.08 C 1350.23 1272.63 1350.71 1268.55 1348.30 1265.70 C 1345.45 1262.80 1339.48 1264.26 1338.75 1268.44 M 1464.44 1316.68 C 1456.38 1319.90 1454.73 1332.12 1461.76 1337.28 C 1468.13 1342.65 1479.11 1339.10 1480.87 1330.88 C 1483.94 1321.79 1472.99 1312.24 1464.44 1316.68 M 1270.42 1410.64 C 1261.97 1412.16 1255.38 1421.44 1258.18 1429.87 C 1259.52 1435.42 1264.27 1439.63 1269.74 1440.95 C 1278.85 1443.40 1288.96 1435.43 1288.62 1425.97 C 1288.91 1416.70 1279.42 1408.92 1270.42 1410.64 M 937.44 1506.36 C 918.54 1517.07 901.89 1531.76 889.22 1549.42 C 878.42 1565.04 870.44 1582.63 866.11 1601.14 C 863.63 1611.93 861.20 1622.89 861.51 1634.04 C 860.88 1656.37 866.38 1678.52 875.06 1698.98 C 891.76 1735.34 923.39 1764.43 960.78 1778.56 C 1001.31 1794.10 1048.30 1791.80 1087.04 1772.17 C 1105.68 1763.29 1121.74 1749.71 1135.23 1734.22 C 1147.37 1720.59 1156.32 1704.32 1162.39 1687.16 C 1169.08 1668.32 1172.43 1648.11 1170.90 1628.13 C 1168.70 1590.16 1151.73 1553.09 1124.14 1526.84 C 1113.41 1516.45 1100.56 1508.61 1087.44 1501.64 C 1065.97 1491.03 1042.05 1484.96 1018.03 1485.36 C 989.94 1484.83 961.55 1491.78 937.44 1506.36 Z" style="fill: none !important;"/>
<path fill="#fdfefd" stroke="#fdfefd" stroke-width="0.09375" opacity="1.00" d=" M 998.11 310.07 C 1012.37 309.19 1026.70 309.51 1040.99 309.55 C 1051.40 309.47 1061.76 310.58 1072.18 310.77 L 1072.83 311.21 C 1079.66 311.20 1086.38 312.48 1093.18 312.79 L 1093.83 313.21 C 1116.60 315.42 1139.07 320.18 1161.23 325.84 C 1162.52 326.20 1163.84 326.53 1165.18 326.87 C 1169.85 328.24 1174.53 329.58 1179.23 330.85 C 1191.98 334.83 1204.68 338.98 1217.13 343.84 C 1253.08 358.31 1287.89 376.02 1319.47 398.60 C 1352.28 421.43 1381.75 448.95 1407.22 479.73 C 1448.47 530.38 1478.43 590.33 1493.26 654.00 C 1499.40 681.26 1503.42 709.02 1505.11 736.90 C 1506.02 758.29 1505.40 779.76 1502.60 800.99 C 1499.80 823.97 1496.05 846.91 1489.73 869.20 C 1478.85 908.04 1462.19 945.29 1439.83 978.89 C 1409.19 1025.78 1368.17 1064.78 1325.05 1100.07 C 1295.78 1123.90 1264.53 1145.24 1236.11 1170.12 C 1219.18 1184.95 1203.42 1201.39 1191.34 1220.47 C 1180.26 1237.57 1172.60 1256.71 1167.78 1276.47 C 1162.79 1295.85 1160.83 1316.00 1153.84 1334.85 C 1147.58 1352.65 1138.24 1369.51 1125.29 1383.33 C 1115.03 1394.01 1103.00 1403.00 1089.84 1409.78 C 1066.03 1421.21 1039.37 1426.18 1013.06 1425.66 C 992.94 1425.84 972.75 1422.36 953.96 1415.14 C 935.21 1407.42 917.93 1395.73 904.62 1380.36 C 885.34 1357.42 875.79 1327.47 874.19 1297.84 L 873.78 1297.19 C 872.41 1272.90 874.72 1248.60 878.58 1224.64 C 885.68 1182.24 899.71 1140.77 921.70 1103.73 C 939.66 1073.39 962.78 1046.41 988.04 1021.93 C 1016.59 994.02 1048.29 969.66 1078.11 943.17 C 1092.00 931.07 1105.47 918.40 1117.27 904.22 C 1131.97 887.10 1144.32 867.64 1151.68 846.22 C 1162.42 816.08 1163.58 782.50 1154.14 751.86 C 1148.05 731.87 1137.18 713.41 1122.50 698.52 C 1106.29 682.45 1085.97 670.60 1064.19 663.85 C 1045.23 658.64 1025.42 657.27 1005.85 658.79 L 1005.21 659.19 C 981.30 661.21 958.11 669.95 938.30 683.42 C 917.81 696.75 902.29 716.50 891.22 738.07 C 882.36 755.77 876.47 774.72 868.78 792.91 C 866.86 797.46 864.61 801.86 862.27 806.21 C 862.01 806.69 861.50 807.65 861.25 808.13 C 852.04 825.14 840.12 840.93 824.64 852.70 C 812.51 862.36 798.76 869.87 784.20 875.17 C 781.21 876.20 778.21 877.20 775.22 878.19 C 751.22 885.08 725.99 887.93 701.09 885.90 C 697.99 885.62 694.89 885.48 691.81 885.18 C 679.29 883.48 666.89 880.86 654.80 877.21 C 629.50 868.87 606.17 854.48 587.50 835.46 C 576.86 823.77 567.33 810.95 560.23 796.79 C 550.63 778.31 546.43 757.60 543.86 737.10 C 542.75 725.34 543.57 713.55 544.86 701.85 C 545.73 696.30 546.11 690.69 547.15 685.17 C 548.04 678.34 549.73 671.65 550.84 664.87 L 551.21 664.29 C 552.35 657.73 554.39 651.37 555.86 644.89 L 556.28 644.32 C 556.40 643.71 556.64 642.47 556.76 641.85 C 568.83 601.19 586.58 562.20 609.50 526.50 C 651.08 461.28 710.31 408.03 777.89 370.77 C 788.75 364.83 799.84 359.30 811.15 354.28 C 829.28 346.00 847.97 338.98 866.95 332.91 C 872.35 331.28 877.72 329.51 883.21 328.18 L 883.83 327.84 C 885.16 327.53 886.49 327.21 887.83 326.86 C 894.26 325.22 900.65 323.39 907.18 322.17 L 907.78 321.76 C 908.91 321.59 910.04 321.40 911.18 321.21 C 927.20 317.31 943.57 315.05 959.89 312.85 C 962.89 312.55 965.92 312.43 968.91 311.90 C 972.64 311.52 976.39 311.35 980.15 311.19 L 980.80 310.78 C 986.57 310.55 992.34 310.35 998.11 310.07 M 867.57 352.86 C 852.50 356.09 838.39 363.65 827.30 374.34 C 823.81 377.41 823.05 383.20 826.13 386.82 C 828.49 390.16 833.23 390.49 836.82 389.25 C 839.28 388.10 841.07 385.97 843.18 384.32 C 855.81 373.75 872.53 367.92 889.03 369.23 C 892.94 369.60 897.60 369.77 900.23 366.24 C 904.35 361.72 901.78 353.66 895.86 352.27 C 886.61 349.84 876.83 351.10 867.57 352.86 M 1150.18 353.31 C 1145.27 355.89 1144.70 363.63 1148.96 367.08 C 1151.91 369.97 1156.34 369.27 1160.08 369.14 C 1177.66 367.89 1195.44 374.73 1208.00 387.03 C 1212.22 391.64 1221.17 390.60 1223.48 384.54 C 1225.30 380.96 1223.72 376.71 1220.96 374.12 C 1205.88 359.52 1185.01 351.01 1164.00 351.10 C 1159.35 351.28 1154.36 350.91 1150.18 353.31 M 1157.53 396.03 C 1147.58 396.72 1137.81 399.39 1128.81 403.67 C 1110.98 411.84 1097.06 427.24 1088.91 444.89 C 1078.68 468.00 1079.02 495.64 1090.61 518.19 C 1098.93 535.05 1113.00 549.08 1130.19 556.81 C 1152.06 567.17 1178.58 566.71 1200.22 555.95 C 1213.31 549.63 1224.46 539.56 1232.48 527.47 C 1245.25 508.46 1249.47 484.15 1244.69 461.83 C 1241.36 446.05 1233.58 431.17 1222.12 419.77 C 1205.65 402.60 1181.07 394.22 1157.53 396.03 M 879.92 395.91 C 857.92 397.13 836.21 407.06 822.14 424.23 C 809.55 438.79 802.13 457.70 801.65 476.95 C 800.92 495.11 806.23 513.48 816.57 528.43 C 826.94 543.59 842.50 555.18 860.04 560.68 C 883.37 568.13 909.86 564.04 930.05 550.24 C 952.84 534.79 966.94 507.48 966.60 479.97 C 966.95 451.99 952.60 424.14 929.01 408.88 C 914.56 399.53 897.09 394.98 879.92 395.91 M 730.56 448.72 C 729.52 449.19 728.61 449.89 727.75 450.61 C 717.10 460.03 705.77 468.71 695.88 478.97 C 683.19 491.99 670.76 505.34 659.90 519.95 C 634.59 552.33 614.75 588.90 600.91 627.58 C 595.52 644.08 590.78 660.84 587.64 677.92 C 587.26 680.66 586.33 683.38 586.65 686.19 C 587.64 688.73 590.11 690.85 592.98 690.64 C 596.62 690.92 599.47 687.45 599.74 684.05 C 604.50 654.46 614.39 625.89 626.75 598.66 C 651.53 546.03 688.70 499.45 733.61 462.58 C 735.97 460.52 738.75 458.43 739.30 455.13 C 740.17 450.55 734.66 446.75 730.56 448.72 M 1079.33 564.44 C 1075.48 565.95 1073.62 570.00 1071.06 572.98 C 1058.53 589.09 1036.88 596.38 1016.96 594.06 C 1000.95 592.34 985.61 584.09 975.85 571.21 C 973.42 568.00 970.32 564.28 965.85 564.70 C 959.37 565.21 955.42 573.40 959.19 578.76 C 973.43 600.25 999.35 613.09 1025.01 612.57 C 1047.25 612.74 1069.47 602.71 1083.77 585.64 C 1087.15 581.46 1091.33 576.77 1090.49 570.97 C 1089.82 565.86 1084.02 563.02 1079.33 564.44 M 1414.02 592.91 C 1427.32 620.01 1437.54 648.65 1443.86 678.19 C 1453.99 726.38 1454.25 776.62 1444.53 824.90 C 1440.76 844.19 1434.89 863.02 1428.27 881.50 C 1413.45 919.90 1391.80 955.62 1364.65 986.55 C 1359.28 993.31 1352.53 998.85 1347.53 1005.88 C 1347.76 1009.82 1350.95 1013.55 1355.07 1013.48 C 1357.92 1012.59 1360.10 1010.39 1362.21 1008.37 C 1404.47 964.96 1435.58 910.67 1451.22 852.12 C 1470.13 783.73 1469.01 709.93 1447.78 642.20 C 1442.42 623.69 1434.74 605.97 1426.52 588.58 C 1425.41 585.96 1423.15 583.51 1420.12 583.51 C 1415.50 583.19 1411.69 588.75 1414.02 592.91 M 1032.85 1029.59 C 1023.51 1035.83 1015.89 1044.24 1007.90 1052.07 C 977.69 1082.19 951.99 1117.33 935.45 1156.82 C 917.81 1197.43 910.50 1242.00 910.81 1286.10 C 910.55 1289.68 912.85 1294.04 916.94 1293.70 C 920.69 1294.24 923.95 1290.71 923.45 1287.05 C 922.88 1232.31 935.57 1176.80 963.67 1129.52 C 982.61 1096.80 1008.07 1068.38 1035.63 1042.71 C 1037.44 1041.04 1039.44 1039.43 1040.56 1037.18 C 1041.25 1032.64 1036.87 1029.77 1032.85 1029.59 Z" style="fill: none !important;"/>
<path fill="#fdfefd" stroke="#fdfefd" stroke-width="0.09375" opacity="1.00" d=" M 1155.48 408.75 C 1175.36 405.81 1195.72 413.30 1210.60 426.41 C 1222.19 436.93 1229.94 451.48 1232.66 466.86 C 1236.00 484.61 1232.33 503.49 1222.83 518.83 C 1212.84 534.44 1196.79 546.46 1178.48 550.14 C 1159.70 554.50 1139.27 549.68 1123.93 538.15 C 1105.86 524.67 1094.21 502.64 1094.47 479.96 C 1094.07 458.97 1103.81 438.31 1119.85 424.86 C 1129.88 416.27 1142.38 410.55 1155.48 408.75 M 1142.66 435.05 C 1126.34 438.70 1112.30 451.20 1107.10 467.14 C 1102.59 480.27 1103.75 495.25 1110.48 507.43 C 1117.31 520.50 1130.38 530.08 1144.90 532.67 C 1165.31 536.87 1187.43 525.43 1196.63 506.91 C 1204.32 492.45 1204.25 474.14 1196.09 459.89 C 1186.37 440.95 1163.38 430.49 1142.66 435.05 Z" style="fill: none !important;"/>
<path fill="#fdfefd" stroke="#fdfefd" stroke-width="0.09375" opacity="1.00" d=" M 1159.52 455.60 C 1164.23 447.05 1178.71 444.47 1184.41 453.32 C 1188.62 454.39 1188.50 459.50 1188.79 462.96 C 1189.81 473.02 1178.46 481.11 1169.12 478.13 C 1159.62 476.05 1154.48 463.88 1159.52 455.60 Z" style="fill: none !important;"/>
<path fill="#fdfefd" stroke="#fdfefd" stroke-width="0.09375" opacity="1.00" d=" M 992.13 1507.12 C 1017.09 1502.10 1043.17 1505.38 1066.97 1514.02 C 1099.26 1526.48 1126.30 1552.05 1140.32 1583.73 C 1148.99 1603.85 1153.05 1626.07 1151.34 1647.95 C 1149.29 1668.38 1142.61 1688.39 1131.71 1705.81 C 1123.02 1719.93 1111.30 1732.04 1098.24 1742.16 C 1082.52 1753.41 1064.68 1761.86 1045.82 1766.21 C 1019.67 1772.02 991.72 1769.97 966.85 1759.92 C 937.03 1748.19 911.56 1725.71 896.49 1697.41 C 884.42 1674.47 879.05 1647.93 882.05 1622.13 C 884.28 1604.19 889.75 1586.55 898.99 1570.96 C 918.21 1536.95 953.93 1513.74 992.13 1507.12 M 1005.95 1533.81 C 975.88 1536.89 946.91 1552.63 929.31 1577.43 C 916.41 1595.53 909.37 1617.86 909.71 1640.09 C 909.50 1644.25 914.28 1647.51 918.09 1645.96 C 920.55 1645.16 922.47 1642.72 922.37 1640.10 C 922.04 1615.73 931.94 1591.37 949.08 1574.07 C 963.41 1559.79 982.34 1550.45 1002.19 1546.89 C 1006.59 1546.03 1011.16 1546.48 1015.54 1545.46 C 1019.13 1543.96 1020.67 1538.99 1018.03 1535.94 C 1015.18 1532.12 1009.96 1533.75 1005.95 1533.81 M 1114.10 1627.94 C 1111.69 1628.91 1109.76 1631.20 1110.26 1633.95 C 1111.04 1662.18 1097.64 1690.09 1075.70 1707.74 C 1059.57 1720.91 1038.79 1727.60 1018.15 1728.55 C 1012.24 1730.00 1012.90 1740.16 1019.09 1740.60 C 1050.78 1741.04 1081.91 1725.23 1101.16 1700.20 C 1114.25 1683.36 1122.16 1662.37 1122.80 1641.01 C 1122.93 1638.02 1123.74 1634.91 1122.64 1632.03 C 1121.82 1628.41 1117.38 1626.58 1114.10 1627.94 Z" style="fill: none !important;"/>
</g>
<g id="#020303ff" style="fill: rgb(0, 0, 0) !important;">
<path fill="#020303" stroke="#020303" stroke-width="0.09375" opacity="1.00" d=" M 615.85 274.66 C 617.93 274.07 620.65 274.01 622.11 275.91 C 624.49 278.75 624.21 282.70 624.89 286.15 C 625.94 291.30 625.69 297.01 628.77 301.52 C 630.19 303.74 632.54 305.05 634.81 306.26 C 640.93 307.90 647.24 308.52 653.43 309.81 C 656.07 310.31 657.56 312.64 658.45 314.98 C 657.77 317.76 655.93 320.30 653.04 321.01 C 646.64 322.22 640.14 323.08 633.85 324.80 C 628.95 326.28 626.82 331.65 626.11 336.28 C 625.44 340.92 624.37 345.53 624.21 350.24 C 623.88 353.80 620.85 357.54 616.93 356.24 C 612.10 354.79 612.32 349.09 611.70 345.03 C 610.82 338.70 610.89 330.97 605.46 326.58 C 598.61 322.67 590.44 322.56 582.84 321.28 C 580.76 320.20 578.23 318.74 578.28 316.05 C 577.91 313.48 579.66 310.94 582.17 310.32 C 589.75 308.04 598.41 308.74 605.22 304.22 C 611.03 299.63 610.93 291.46 611.71 284.76 C 612.30 281.23 612.11 276.50 615.85 274.66 M 610.57 315.09 C 610.60 315.30 610.67 315.73 610.71 315.95 C 613.42 317.94 615.86 320.29 618.04 322.88 C 620.26 320.29 622.56 317.69 625.60 316.05 C 625.64 315.77 625.72 315.22 625.76 314.95 C 622.83 313.07 620.50 310.48 618.10 308.00 C 615.84 310.61 613.39 313.08 610.57 315.09 Z" style="fill: rgb(0, 0, 0) !important; stroke: rgb(0, 0, 0) !important;"/>
<path fill="#020303" stroke="#020303" stroke-width="0.09375" opacity="1.00" d=" M 1392.04 303.03 C 1387.05 295.15 1391.07 282.94 1400.18 280.23 C 1407.05 277.86 1415.21 280.82 1418.79 287.19 C 1421.41 291.04 1420.95 295.91 1420.37 300.28 C 1418.89 303.04 1417.40 305.97 1414.73 307.76 C 1407.70 313.01 1396.40 310.65 1392.04 303.03 Z" style="fill: rgb(0, 0, 0) !important; stroke: rgb(0, 0, 0) !important;"/>
<path fill="#020303" stroke="#020303" stroke-width="0.09375" opacity="1.00" d=" M 867.57 352.86 C 876.83 351.10 886.61 349.84 895.86 352.27 C 901.78 353.66 904.35 361.72 900.23 366.24 C 897.60 369.77 892.94 369.60 889.03 369.23 C 872.53 367.92 855.81 373.75 843.18 384.32 C 841.07 385.97 839.28 388.10 836.82 389.25 C 833.23 390.49 828.49 390.16 826.13 386.82 C 823.05 383.20 823.81 377.41 827.30 374.34 C 838.39 363.65 852.50 356.09 867.57 352.86 Z" style="fill: rgb(0, 0, 0) !important; stroke: rgb(0, 0, 0) !important;"/>
<path fill="#020303" stroke="#020303" stroke-width="0.09375" opacity="1.00" d=" M 506.51 384.67 C 512.33 380.70 521.23 383.73 523.48 390.37 C 525.78 395.53 523.77 402.18 518.99 405.19 C 516.03 407.20 512.17 406.88 508.85 406.19 C 503.96 404.75 501.04 399.91 500.78 395.00 C 501.24 390.99 502.57 386.55 506.51 384.67 Z" style="fill: rgb(0, 0, 0) !important; stroke: rgb(0, 0, 0) !important;"/>
</g>
<g id="#040404ff" style="fill: rgb(0, 0, 0) !important;">
<path fill="#040404" stroke="#040404" stroke-width="0.09375" opacity="1.00" d=" M 951.90 293.88 C 984.17 290.11 1016.70 288.98 1049.18 289.79 L 1049.84 290.19 C 1082.24 290.79 1114.52 295.05 1146.19 301.83 C 1167.25 306.69 1188.22 312.15 1208.56 319.54 C 1248.38 333.92 1286.79 352.55 1322.01 376.12 C 1353.81 397.91 1383.43 423.03 1409.24 451.70 C 1435.81 481.50 1458.89 514.54 1476.54 550.40 C 1487.67 572.37 1496.70 595.36 1504.24 618.80 C 1511.36 642.02 1516.51 665.81 1520.15 689.82 C 1522.87 710.77 1525.08 731.83 1524.77 752.98 C 1525.05 770.41 1523.98 787.80 1522.16 805.12 C 1520.57 817.86 1518.51 830.54 1516.20 843.16 L 1515.83 843.80 C 1515.56 845.49 1515.29 847.19 1514.91 848.87 C 1513.54 855.69 1511.91 862.46 1510.19 869.20 C 1505.53 886.49 1499.95 903.54 1493.24 920.14 C 1492.41 922.05 1491.59 923.96 1490.78 925.87 C 1489.50 928.90 1488.14 931.89 1486.77 934.88 C 1482.97 943.49 1478.60 951.83 1474.28 960.18 C 1464.43 977.97 1453.50 995.18 1441.23 1011.40 C 1419.36 1039.80 1394.63 1065.99 1367.62 1089.55 C 1351.56 1103.94 1334.82 1117.54 1317.82 1130.79 C 1288.93 1153.04 1258.78 1173.97 1233.08 1200.01 C 1218.07 1215.32 1204.90 1232.77 1196.47 1252.60 C 1188.33 1271.14 1184.49 1291.13 1180.39 1310.85 C 1177.12 1328.48 1171.60 1345.72 1163.82 1361.88 C 1155.07 1379.92 1142.57 1396.21 1127.06 1408.95 C 1097.29 1433.63 1058.21 1444.92 1019.97 1445.52 C 993.03 1446.12 965.76 1441.83 940.92 1431.13 C 911.41 1418.32 885.55 1395.72 871.68 1366.39 C 862.31 1347.20 856.56 1326.15 855.19 1304.83 L 854.79 1304.19 C 853.58 1279.13 854.14 1253.94 858.09 1229.14 C 861.36 1206.06 867.09 1183.38 874.21 1161.21 C 886.13 1124.13 904.72 1089.29 928.51 1058.47 C 951.34 1028.63 978.54 1002.43 1007.00 978.01 C 1034.93 954.00 1064.25 931.46 1089.98 905.00 C 1103.30 891.38 1115.26 876.26 1124.31 859.45 C 1139.03 832.01 1144.44 799.45 1138.16 768.86 C 1137.47 766.20 1136.83 763.53 1136.18 760.88 C 1131.27 743.78 1122.46 727.75 1110.13 714.88 C 1097.65 701.16 1081.44 691.23 1064.12 684.84 C 1041.58 677.39 1017.13 676.69 993.86 680.83 C 970.48 685.82 948.50 697.64 931.82 714.81 C 920.71 725.99 912.39 739.63 905.77 753.85 C 904.57 756.60 903.33 759.34 902.22 762.13 C 897.25 774.32 892.80 786.72 887.81 798.91 C 886.40 802.36 884.81 805.73 883.23 809.11 C 882.74 810.02 882.26 810.94 881.80 811.88 C 873.28 829.05 862.02 844.88 848.34 858.33 C 831.17 875.15 809.77 887.27 787.15 895.16 C 785.16 895.82 783.17 896.50 781.19 897.19 C 752.36 905.96 721.78 908.13 691.88 905.14 C 654.51 901.15 617.85 887.23 588.59 863.40 C 575.04 851.96 562.37 839.19 552.82 824.16 C 532.12 792.66 522.66 754.47 523.67 716.98 C 524.45 700.46 526.54 684.02 529.83 667.81 C 535.90 637.14 546.17 607.44 558.77 578.87 C 559.01 578.37 559.48 577.36 559.71 576.85 C 577.10 538.91 599.07 502.98 625.80 470.89 C 662.40 425.76 707.98 388.27 758.14 359.13 C 788.43 341.34 820.85 327.30 854.12 316.15 L 854.77 315.77 C 856.58 315.26 858.39 314.71 860.22 314.21 L 860.79 313.84 C 863.91 313.00 866.98 312.02 870.08 311.12 C 872.42 310.43 874.77 309.76 877.12 309.11 C 883.43 307.34 889.75 305.54 896.17 304.17 L 896.77 303.81 C 914.98 299.65 933.36 296.24 951.90 293.88 M 998.11 310.07 C 992.34 310.35 986.57 310.55 980.80 310.78 L 980.15 311.19 C 976.39 311.35 972.64 311.52 968.91 311.90 C 965.92 312.43 962.89 312.55 959.89 312.85 C 943.57 315.05 927.20 317.31 911.18 321.21 C 910.04 321.40 908.91 321.59 907.78 321.76 L 907.18 322.17 C 900.65 323.39 894.26 325.22 887.83 326.86 C 886.49 327.21 885.16 327.53 883.83 327.84 L 883.21 328.18 C 877.72 329.51 872.35 331.28 866.95 332.91 C 847.97 338.98 829.28 346.00 811.15 354.28 C 799.84 359.30 788.75 364.83 777.89 370.77 C 710.31 408.03 651.08 461.28 609.50 526.50 C 586.58 562.20 568.83 601.19 556.76 641.85 C 556.64 642.47 556.40 643.71 556.28 644.32 L 555.86 644.89 C 554.39 651.37 552.35 657.73 551.21 664.29 L 550.84 664.87 C 549.73 671.65 548.04 678.34 547.15 685.17 C 546.11 690.69 545.73 696.30 544.86 701.85 C 543.57 713.55 542.75 725.34 543.86 737.10 C 546.43 757.60 550.63 778.31 560.23 796.79 C 567.33 810.95 576.86 823.77 587.50 835.46 C 606.17 854.48 629.50 868.87 654.80 877.21 C 666.89 880.86 679.29 883.48 691.81 885.18 C 694.89 885.48 697.99 885.62 701.09 885.90 C 725.99 887.93 751.22 885.08 775.22 878.19 C 778.21 877.20 781.21 876.20 784.20 875.17 C 798.76 869.87 812.51 862.36 824.64 852.70 C 840.12 840.93 852.04 825.14 861.25 808.13 C 861.50 807.65 862.01 806.69 862.27 806.21 C 864.61 801.86 866.86 797.46 868.78 792.91 C 876.47 774.72 882.36 755.77 891.22 738.07 C 902.29 716.50 917.81 696.75 938.30 683.42 C 958.11 669.95 981.30 661.21 1005.21 659.19 L 1005.85 658.79 C 1025.42 657.27 1045.23 658.64 1064.19 663.85 C 1085.97 670.60 1106.29 682.45 1122.50 698.52 C 1137.18 713.41 1148.05 731.87 1154.14 751.86 C 1163.58 782.50 1162.42 816.08 1151.68 846.22 C 1144.32 867.64 1131.97 887.10 1117.27 904.22 C 1105.47 918.40 1092.00 931.07 1078.11 943.17 C 1048.29 969.66 1016.59 994.02 988.04 1021.93 C 962.78 1046.41 939.66 1073.39 921.70 1103.73 C 899.71 1140.77 885.68 1182.24 878.58 1224.64 C 874.72 1248.60 872.41 1272.90 873.78 1297.19 L 874.19 1297.84 C 875.79 1327.47 885.34 1357.42 904.62 1380.36 C 917.93 1395.73 935.21 1407.42 953.96 1415.14 C 972.75 1422.36 992.94 1425.84 1013.06 1425.66 C 1039.37 1426.18 1066.03 1421.21 1089.84 1409.78 C 1103.00 1403.00 1115.03 1394.01 1125.29 1383.33 C 1138.24 1369.51 1147.58 1352.65 1153.84 1334.85 C 1160.83 1316.00 1162.79 1295.85 1167.78 1276.47 C 1172.60 1256.71 1180.26 1237.57 1191.34 1220.47 C 1203.42 1201.39 1219.18 1184.95 1236.11 1170.12 C 1264.53 1145.24 1295.78 1123.90 1325.05 1100.07 C 1368.17 1064.78 1409.19 1025.78 1439.83 978.89 C 1462.19 945.29 1478.85 908.04 1489.73 869.20 C 1496.05 846.91 1499.80 823.97 1502.60 800.99 C 1505.40 779.76 1506.02 758.29 1505.11 736.90 C 1503.42 709.02 1499.40 681.26 1493.26 654.00 C 1478.43 590.33 1448.47 530.38 1407.22 479.73 C 1381.75 448.95 1352.28 421.43 1319.47 398.60 C 1287.89 376.02 1253.08 358.31 1217.13 343.84 C 1204.68 338.98 1191.98 334.83 1179.23 330.85 C 1174.53 329.58 1169.85 328.24 1165.18 326.87 C 1163.84 326.53 1162.52 326.20 1161.23 325.84 C 1139.07 320.18 1116.60 315.42 1093.83 313.21 L 1093.18 312.79 C 1086.38 312.48 1079.66 311.20 1072.83 311.21 L 1072.18 310.77 C 1061.76 310.58 1051.40 309.47 1040.99 309.55 C 1026.70 309.51 1012.37 309.19 998.11 310.07 Z" style="fill: rgb(0, 0, 0) !important; stroke: rgb(0, 0, 0) !important;"/>
<path fill="#040404" stroke="#040404" stroke-width="0.09375" opacity="1.00" d=" M 1414.02 592.91 C 1411.69 588.75 1415.50 583.19 1420.12 583.51 C 1423.15 583.51 1425.41 585.96 1426.52 588.58 C 1434.74 605.97 1442.42 623.69 1447.78 642.20 C 1469.01 709.93 1470.13 783.73 1451.22 852.12 C 1435.58 910.67 1404.47 964.96 1362.21 1008.37 C 1360.10 1010.39 1357.92 1012.59 1355.07 1013.48 C 1350.95 1013.55 1347.76 1009.82 1347.53 1005.88 C 1352.53 998.85 1359.28 993.31 1364.65 986.55 C 1391.80 955.62 1413.45 919.90 1428.27 881.50 C 1434.89 863.02 1440.76 844.19 1444.53 824.90 C 1454.25 776.62 1453.99 726.38 1443.86 678.19 C 1437.54 648.65 1427.32 620.01 1414.02 592.91 Z" style="fill: rgb(0, 0, 0) !important; stroke: rgb(0, 0, 0) !important;"/>
<path fill="#040404" stroke="#040404" stroke-width="0.09375" opacity="1.00" d=" M 750.53 1003.60 C 756.23 998.75 765.46 998.99 770.95 1004.06 C 775.76 1008.40 777.65 1015.80 774.75 1021.72 C 773.10 1025.97 769.12 1028.52 765.14 1030.31 C 760.63 1031.19 755.61 1031.14 751.81 1028.22 C 743.34 1023.20 742.82 1009.52 750.53 1003.60 Z" style="fill: rgb(0, 0, 0) !important; stroke: rgb(0, 0, 0) !important;"/>
<path fill="#040404" stroke="#040404" stroke-width="0.09375" opacity="1.00" d=" M 604.50 1006.39 C 606.89 1001.51 614.26 1001.52 616.70 1006.33 C 621.61 1015.51 625.78 1025.10 630.82 1034.23 C 640.77 1035.54 650.75 1036.81 660.62 1038.66 C 665.69 1039.69 667.61 1046.36 663.94 1049.99 C 657.06 1057.29 649.63 1064.08 642.32 1070.96 C 644.03 1080.28 646.03 1089.55 647.61 1098.89 C 647.85 1101.39 648.37 1104.47 646.38 1106.44 C 644.30 1108.67 640.84 1109.05 638.15 1107.79 C 628.78 1103.93 620.36 1098.11 611.12 1094.02 C 601.47 1098.09 592.95 1104.53 583.13 1108.25 C 578.76 1109.91 573.47 1105.70 574.49 1101.04 C 576.07 1091.57 578.17 1082.18 579.72 1072.71 C 580.29 1070.85 578.57 1069.68 577.43 1068.58 C 571.18 1063.17 565.24 1057.42 559.46 1051.51 C 557.25 1049.21 555.56 1045.89 556.65 1042.67 C 557.88 1040.26 560.47 1038.88 563.07 1038.52 C 572.39 1037.10 581.74 1035.86 591.03 1034.28 C 595.71 1025.08 599.78 1015.56 604.50 1006.39 M 610.99 1022.03 C 608.66 1027.02 606.22 1031.95 603.82 1036.91 C 601.99 1040.72 599.86 1045.29 595.21 1046.12 C 588.52 1047.17 581.81 1048.15 575.08 1048.95 C 579.53 1053.81 584.48 1058.20 589.08 1062.92 C 591.22 1064.97 592.61 1067.98 592.22 1070.99 C 591.25 1077.75 590.10 1084.49 589.17 1091.27 C 594.62 1088.37 599.94 1085.24 605.50 1082.54 C 608.74 1080.81 612.81 1080.76 616.07 1082.49 C 621.95 1085.39 627.59 1088.75 633.37 1091.85 C 632.18 1085.59 631.03 1079.32 629.88 1073.06 C 629.40 1070.61 629.33 1067.92 630.73 1065.76 C 635.26 1059.29 642.18 1054.95 647.16 1048.93 C 642.35 1048.44 637.59 1047.68 632.80 1047.12 C 629.66 1046.55 626.25 1046.52 623.51 1044.70 C 620.95 1043.03 619.67 1040.14 618.39 1037.50 C 615.99 1032.31 613.40 1027.21 610.99 1022.03 Z" style="fill: rgb(0, 0, 0) !important; stroke: rgb(0, 0, 0) !important;"/>
<path fill="#040404" stroke="#040404" stroke-width="0.09375" opacity="1.00" d=" M 1032.85 1029.59 C 1036.87 1029.77 1041.25 1032.64 1040.56 1037.18 C 1039.44 1039.43 1037.44 1041.04 1035.63 1042.71 C 1008.07 1068.38 982.61 1096.80 963.67 1129.52 C 935.57 1176.80 922.88 1232.31 923.45 1287.05 C 923.95 1290.71 920.69 1294.24 916.94 1293.70 C 912.85 1294.04 910.55 1289.68 910.81 1286.10 C 910.50 1242.00 917.81 1197.43 935.45 1156.82 C 951.99 1117.33 977.69 1082.19 1007.90 1052.07 C 1015.89 1044.24 1023.51 1035.83 1032.85 1029.59 Z" style="fill: rgb(0, 0, 0) !important; stroke: rgb(0, 0, 0) !important;"/>
<path fill="#040404" stroke="#040404" stroke-width="0.09375" opacity="1.00" d=" M 1450.43 1146.67 C 1455.74 1145.86 1461.35 1146.31 1466.21 1148.78 C 1477.27 1153.82 1483.99 1167.28 1480.51 1179.09 C 1477.76 1190.50 1466.72 1199.10 1455.04 1199.26 C 1447.77 1198.93 1440.58 1195.84 1435.60 1190.49 C 1429.27 1183.31 1427.60 1172.62 1430.75 1163.68 C 1433.71 1155.08 1441.47 1148.33 1450.43 1146.67 M 1450.48 1159.67 C 1446.72 1161.12 1443.64 1164.30 1442.45 1168.16 C 1439.44 1176.34 1446.00 1186.81 1454.98 1186.67 C 1462.71 1187.13 1469.50 1179.54 1468.73 1171.95 C 1468.60 1163.26 1458.66 1156.05 1450.48 1159.67 Z" style="fill: rgb(0, 0, 0) !important; stroke: rgb(0, 0, 0) !important;"/>
<path fill="#040404" stroke="#040404" stroke-width="0.09375" opacity="1.00" d=" M 1338.75 1268.44 C 1339.48 1264.26 1345.45 1262.80 1348.30 1265.70 C 1350.71 1268.55 1350.23 1272.63 1351.01 1276.08 C 1352.22 1282.07 1352.41 1288.75 1356.16 1293.84 C 1360.60 1298.19 1367.29 1298.40 1373.07 1299.52 C 1376.81 1300.35 1381.54 1299.49 1384.24 1302.78 C 1386.91 1305.84 1385.13 1311.25 1381.11 1312.03 C 1374.56 1313.21 1367.77 1313.52 1361.43 1315.69 C 1358.00 1316.85 1355.10 1319.50 1354.04 1323.02 C 1351.81 1330.16 1351.37 1337.70 1349.91 1345.00 C 1348.62 1350.05 1340.28 1350.05 1338.84 1345.09 C 1337.63 1338.02 1337.24 1330.78 1335.25 1323.87 C 1334.20 1320.29 1331.27 1317.46 1327.84 1316.17 C 1321.23 1313.56 1314.04 1313.20 1307.15 1311.85 C 1304.24 1311.39 1303.26 1308.42 1302.56 1306.00 C 1303.37 1303.90 1304.39 1301.47 1306.81 1300.86 C 1314.52 1299.38 1322.70 1299.46 1329.96 1296.16 C 1334.43 1294.01 1335.17 1288.58 1336.14 1284.25 C 1337.15 1279.00 1337.77 1273.69 1338.75 1268.44 M 1342.57 1300.51 C 1341.07 1303.40 1338.31 1305.25 1335.59 1306.85 C 1339.50 1308.42 1342.29 1311.66 1344.74 1314.98 C 1346.90 1311.63 1349.74 1308.74 1353.20 1306.73 C 1349.82 1304.48 1346.85 1301.73 1344.79 1298.22 C 1343.39 1297.87 1343.31 1299.81 1342.57 1300.51 Z" style="fill: rgb(0, 0, 0) !important; stroke: rgb(0, 0, 0) !important;"/>
<path fill="#040404" stroke="#040404" stroke-width="0.09375" opacity="1.00" d=" M 1464.44 1316.68 C 1472.99 1312.24 1483.94 1321.79 1480.87 1330.88 C 1479.11 1339.10 1468.13 1342.65 1461.76 1337.28 C 1454.73 1332.12 1456.38 1319.90 1464.44 1316.68 Z" style="fill: rgb(0, 0, 0) !important; stroke: rgb(0, 0, 0) !important;"/>
</g>
<g id="#020302ff" style="fill: rgb(0, 0, 0) !important;">
<path fill="#020302" stroke="#020302" stroke-width="0.09375" opacity="1.00" d=" M 1529.00 299.89 C 1530.76 296.30 1536.02 295.34 1539.04 297.86 C 1541.21 299.56 1542.02 302.32 1543.27 304.68 C 1547.02 312.30 1550.49 320.08 1554.69 327.47 C 1564.36 329.39 1574.19 330.34 1583.89 332.05 C 1587.44 332.38 1590.41 335.62 1590.25 339.21 C 1589.71 343.03 1586.34 345.31 1583.87 347.90 C 1578.24 353.66 1572.02 358.84 1566.58 364.79 C 1568.17 374.88 1570.43 384.88 1571.80 395.00 C 1572.45 398.41 1569.90 400.99 1567.15 402.45 C 1561.84 402.64 1557.66 399.03 1553.09 396.92 C 1547.02 393.92 1541.28 390.06 1534.99 387.65 C 1525.84 392.16 1517.10 397.47 1507.93 401.91 C 1503.45 404.32 1497.50 400.12 1498.46 395.11 C 1500.14 384.98 1502.19 374.90 1503.60 364.73 C 1496.75 357.47 1488.95 351.19 1482.09 343.94 C 1480.41 342.38 1480.20 340.02 1479.58 337.96 C 1480.61 335.51 1482.13 332.61 1485.09 332.26 C 1493.01 330.84 1501.03 330.05 1508.99 328.82 C 1511.21 328.43 1513.59 328.39 1515.66 327.30 C 1520.47 318.36 1524.47 308.98 1529.00 299.89 M 1525.69 334.78 C 1524.19 338.20 1520.52 339.53 1517.14 340.21 C 1510.74 341.17 1504.35 342.16 1497.93 342.80 C 1498.57 343.09 1499.23 343.38 1499.91 343.68 C 1504.01 348.04 1508.52 352.00 1512.63 356.35 C 1514.56 358.42 1516.33 361.06 1516.19 364.00 C 1515.31 371.01 1513.74 377.93 1513.12 384.99 C 1519.26 382.02 1525.24 378.73 1531.30 375.61 C 1533.09 374.57 1535.16 374.60 1537.18 374.67 C 1544.05 377.91 1550.57 381.86 1557.48 385.03 C 1556.37 377.01 1553.61 369.00 1554.52 360.86 C 1558.20 353.99 1565.01 349.55 1570.01 343.70 C 1570.55 343.50 1571.63 343.11 1572.17 342.92 C 1569.84 342.64 1567.51 342.33 1565.24 341.88 C 1560.19 341.25 1555.12 340.61 1550.18 339.39 C 1547.32 338.64 1545.15 336.41 1543.98 333.78 C 1540.94 327.59 1537.99 321.36 1535.04 315.13 C 1532.37 321.87 1528.74 328.20 1525.69 334.78 Z" style="fill: rgb(0, 0, 0) !important; stroke: rgb(0, 0, 0) !important;"/>
</g>
<g id="#fefffeff" style="fill: rgb(0, 0, 0) !important;">
<path fill="#fefffe" stroke="#fefffe" stroke-width="0.09375" opacity="1.00" d=" M 610.57 315.09 C 613.39 313.08 615.84 310.61 618.10 308.00 C 620.50 310.48 622.83 313.07 625.76 314.95 C 625.72 315.22 625.64 315.77 625.60 316.05 C 622.56 317.69 620.26 320.29 618.04 322.88 C 615.86 320.29 613.42 317.94 610.71 315.95 C 610.67 315.73 610.60 315.30 610.57 315.09 Z" style="fill: none !important;"/>
<path fill="#fefffe" stroke="#fefffe" stroke-width="0.09375" opacity="1.00" d=" M 462.41 490.67 C 469.22 487.52 477.88 491.54 480.39 498.48 C 484.10 506.56 477.62 516.76 468.96 517.57 C 462.36 518.24 455.72 513.51 454.24 507.04 C 452.16 500.57 456.23 493.14 462.41 490.67 Z" style="fill: none !important;"/>
<path fill="#fefffe" stroke="#fefffe" stroke-width="0.09375" opacity="1.00" d=" M 1584.56 495.76 C 1592.48 493.45 1601.78 499.40 1602.30 507.79 C 1603.23 515.67 1595.96 523.58 1587.96 522.73 C 1579.68 522.96 1572.34 513.99 1574.94 505.99 C 1575.86 501.08 1579.81 497.10 1584.56 495.76 Z" style="fill: none !important;"/>
<path fill="#fefffe" stroke="#fefffe" stroke-width="0.09375" opacity="1.00" d=" M 610.99 1022.03 C 613.40 1027.21 615.99 1032.31 618.39 1037.50 C 619.67 1040.14 620.95 1043.03 623.51 1044.70 C 626.25 1046.52 629.66 1046.55 632.80 1047.12 C 637.59 1047.68 642.35 1048.44 647.16 1048.93 C 642.18 1054.95 635.26 1059.29 630.73 1065.76 C 629.33 1067.92 629.40 1070.61 629.88 1073.06 C 631.03 1079.32 632.18 1085.59 633.37 1091.85 C 627.59 1088.75 621.95 1085.39 616.07 1082.49 C 612.81 1080.76 608.74 1080.81 605.50 1082.54 C 599.94 1085.24 594.62 1088.37 589.17 1091.27 C 590.10 1084.49 591.25 1077.75 592.22 1070.99 C 592.61 1067.98 591.22 1064.97 589.08 1062.92 C 584.48 1058.20 579.53 1053.81 575.08 1048.95 C 581.81 1048.15 588.52 1047.17 595.21 1046.12 C 599.86 1045.29 601.99 1040.72 603.82 1036.91 C 606.22 1031.95 608.66 1027.02 610.99 1022.03 Z" style="fill: none !important;"/>
<path fill="#fefffe" stroke="#fefffe" stroke-width="0.09375" opacity="1.00" d=" M 1450.48 1159.67 C 1458.66 1156.05 1468.60 1163.26 1468.73 1171.95 C 1469.50 1179.54 1462.71 1187.13 1454.98 1186.67 C 1446.00 1186.81 1439.44 1176.34 1442.45 1168.16 C 1443.64 1164.30 1446.72 1161.12 1450.48 1159.67 Z" style="fill: none !important;"/>
<path fill="#fefffe" stroke="#fefffe" stroke-width="0.09375" opacity="1.00" d=" M 712.61 1178.77 C 719.61 1176.50 727.54 1181.22 729.46 1188.17 C 731.89 1195.27 727.29 1203.96 719.88 1205.61 C 714.17 1207.43 707.62 1204.33 704.81 1199.16 C 700.50 1191.91 704.47 1181.24 712.61 1178.77 Z" style="fill: none !important;"/>
</g>
<g id="#fefefeff" style="fill: rgb(0, 0, 0) !important;">
<path fill="#fefefe" stroke="#fefefe" stroke-width="0.09375" opacity="1.00" d=" M 1525.69 334.78 C 1528.74 328.20 1532.37 321.87 1535.04 315.13 C 1537.99 321.36 1540.94 327.59 1543.98 333.78 C 1545.15 336.41 1547.32 338.64 1550.18 339.39 C 1555.12 340.61 1560.19 341.25 1565.24 341.88 C 1567.51 342.33 1569.84 342.64 1572.17 342.92 C 1571.63 343.11 1570.55 343.50 1570.01 343.70 C 1565.01 349.55 1558.20 353.99 1554.52 360.86 C 1553.61 369.00 1556.37 377.01 1557.48 385.03 C 1550.57 381.86 1544.05 377.91 1537.18 374.67 C 1535.16 374.60 1533.09 374.57 1531.30 375.61 C 1525.24 378.73 1519.26 382.02 1513.12 384.99 C 1513.74 377.93 1515.31 371.01 1516.19 364.00 C 1516.33 361.06 1514.56 358.42 1512.63 356.35 C 1508.52 352.00 1504.01 348.04 1499.91 343.68 C 1499.23 343.38 1498.57 343.09 1497.93 342.80 C 1504.35 342.16 1510.74 341.17 1517.14 340.21 C 1520.52 339.53 1524.19 338.20 1525.69 334.78 Z" style="fill: none !important;"/>
<path fill="#fefefe" stroke="#fefefe" stroke-width="0.09375" opacity="1.00" d=" M 873.65 409.02 C 901.38 404.35 930.70 419.36 944.23 443.78 C 952.58 458.25 955.61 475.65 952.75 492.10 C 950.89 503.65 945.93 514.59 939.00 523.97 C 928.38 538.12 912.22 548.10 894.70 550.86 C 880.73 553.26 866.10 550.71 853.51 544.32 C 826.54 530.72 810.23 498.98 815.10 469.13 C 817.33 453.63 825.02 439.11 836.06 428.08 C 846.43 418.32 859.62 411.52 873.65 409.02 M 884.58 435.05 C 862.21 439.48 845.09 461.26 845.38 483.94 C 845.07 500.64 854.33 516.80 868.16 525.92 C 879.29 532.99 893.30 535.55 906.10 532.03 C 914.80 529.48 923.35 525.29 929.52 518.48 C 940.32 507.08 945.31 490.37 942.32 474.93 C 940.34 462.80 933.36 451.83 923.84 444.19 C 912.87 435.68 898.17 432.37 884.58 435.05 Z" style="fill: none !important;"/>
</g>
<g id="#030303ff" style="fill: rgb(0, 0, 0) !important;">
<path fill="#030303" stroke="#030303" stroke-width="0.09375" opacity="1.00" d=" M 1150.18 353.31 C 1154.36 350.91 1159.35 351.28 1164.00 351.10 C 1185.01 351.01 1205.88 359.52 1220.96 374.12 C 1223.72 376.71 1225.30 380.96 1223.48 384.54 C 1221.17 390.60 1212.22 391.64 1208.00 387.03 C 1195.44 374.73 1177.66 367.89 1160.08 369.14 C 1156.34 369.27 1151.91 369.97 1148.96 367.08 C 1144.70 363.63 1145.27 355.89 1150.18 353.31 Z" style="fill: rgb(0, 0, 0) !important; stroke: rgb(0, 0, 0) !important;"/>
<path fill="#030303" stroke="#030303" stroke-width="0.09375" opacity="1.00" d=" M 462.46 477.74 C 470.39 476.24 478.94 478.56 484.89 484.05 C 490.22 489.19 493.82 496.43 493.51 503.96 C 493.55 513.50 487.97 523.02 479.18 526.98 C 467.91 532.96 452.82 528.61 445.91 518.05 C 438.81 508.19 440.23 493.45 449.02 485.07 C 452.75 481.52 457.40 478.83 462.46 477.74 M 462.41 490.67 C 456.23 493.14 452.16 500.57 454.24 507.04 C 455.72 513.51 462.36 518.24 468.96 517.57 C 477.62 516.76 484.10 506.56 480.39 498.48 C 477.88 491.54 469.22 487.52 462.41 490.67 Z" style="fill: rgb(0, 0, 0) !important; stroke: rgb(0, 0, 0) !important;"/>
<path fill="#030303" stroke="#030303" stroke-width="0.09375" opacity="1.00" d=" M 1582.55 483.83 C 1594.75 480.36 1608.74 488.17 1612.82 500.12 C 1616.29 509.25 1613.99 520.21 1607.17 527.21 C 1602.33 532.54 1595.03 535.21 1587.94 535.34 C 1580.95 534.83 1573.91 532.04 1569.04 526.89 C 1564.43 521.82 1561.50 514.99 1562.14 508.07 C 1562.12 496.49 1571.46 486.21 1582.55 483.83 M 1584.56 495.76 C 1579.81 497.10 1575.86 501.08 1574.94 505.99 C 1572.34 513.99 1579.68 522.96 1587.96 522.73 C 1595.96 523.58 1603.23 515.67 1602.30 507.79 C 1601.78 499.40 1592.48 493.45 1584.56 495.76 Z" style="fill: rgb(0, 0, 0) !important; stroke: rgb(0, 0, 0) !important;"/>
<path fill="#030303" stroke="#030303" stroke-width="0.09375" opacity="1.00" d=" M 1596.40 628.67 C 1601.92 626.92 1608.71 629.53 1610.75 635.17 C 1613.81 641.17 1610.74 649.15 1604.32 651.32 C 1596.96 654.88 1587.55 648.08 1588.18 640.02 C 1587.52 634.72 1591.67 630.29 1596.40 628.67 Z" style="fill: rgb(0, 0, 0) !important; stroke: rgb(0, 0, 0) !important;"/>
</g>
<g id="#020202ff" style="fill: rgb(0, 0, 0) !important;">
<path fill="#020202" stroke="#020202" stroke-width="0.09375" opacity="1.00" d=" M 1157.53 396.03 C 1181.07 394.22 1205.65 402.60 1222.12 419.77 C 1233.58 431.17 1241.36 446.05 1244.69 461.83 C 1249.47 484.15 1245.25 508.46 1232.48 527.47 C 1224.46 539.56 1213.31 549.63 1200.22 555.95 C 1178.58 566.71 1152.06 567.17 1130.19 556.81 C 1113.00 549.08 1098.93 535.05 1090.61 518.19 C 1079.02 495.64 1078.68 468.00 1088.91 444.89 C 1097.06 427.24 1110.98 411.84 1128.81 403.67 C 1137.81 399.39 1147.58 396.72 1157.53 396.03 M 1155.48 408.75 C 1142.38 410.55 1129.88 416.27 1119.85 424.86 C 1103.81 438.31 1094.07 458.97 1094.47 479.96 C 1094.21 502.64 1105.86 524.67 1123.93 538.15 C 1139.27 549.68 1159.70 554.50 1178.48 550.14 C 1196.79 546.46 1212.84 534.44 1222.83 518.83 C 1232.33 503.49 1236.00 484.61 1232.66 466.86 C 1229.94 451.48 1222.19 436.93 1210.60 426.41 C 1195.72 413.30 1175.36 405.81 1155.48 408.75 Z" style="fill: rgb(0, 0, 0) !important; stroke: rgb(0, 0, 0) !important;"/>
<path fill="#020202" stroke="#020202" stroke-width="0.09375" opacity="1.00" d=" M 879.92 395.91 C 897.09 394.98 914.56 399.53 929.01 408.88 C 952.60 424.14 966.95 451.99 966.60 479.97 C 966.94 507.48 952.84 534.79 930.05 550.24 C 909.86 564.04 883.37 568.13 860.04 560.68 C 842.50 555.18 826.94 543.59 816.57 528.43 C 806.23 513.48 800.92 495.11 801.65 476.95 C 802.13 457.70 809.55 438.79 822.14 424.23 C 836.21 407.06 857.92 397.13 879.92 395.91 M 873.65 409.02 C 859.62 411.52 846.43 418.32 836.06 428.08 C 825.02 439.11 817.33 453.63 815.10 469.13 C 810.23 498.98 826.54 530.72 853.51 544.32 C 866.10 550.71 880.73 553.26 894.70 550.86 C 912.22 548.10 928.38 538.12 939.00 523.97 C 945.93 514.59 950.89 503.65 952.75 492.10 C 955.61 475.65 952.58 458.25 944.23 443.78 C 930.70 419.36 901.38 404.35 873.65 409.02 Z" style="fill: rgb(0, 0, 0) !important; stroke: rgb(0, 0, 0) !important;"/>
</g>
<g id="#030404ff" style="fill: rgb(0, 0, 0) !important;">
<path fill="#030404" stroke="#030404" stroke-width="0.09375" opacity="1.00" d=" M 884.58 435.05 C 898.17 432.37 912.87 435.68 923.84 444.19 C 933.36 451.83 940.34 462.80 942.32 474.93 C 945.31 490.37 940.32 507.08 929.52 518.48 C 923.35 525.29 914.80 529.48 906.10 532.03 C 893.30 535.55 879.29 532.99 868.16 525.92 C 854.33 516.80 845.07 500.64 845.38 483.94 C 845.09 461.26 862.21 439.48 884.58 435.05 M 902.32 450.99 C 894.60 456.59 895.04 469.01 902.19 474.90 C 906.20 478.43 911.93 479.38 917.04 478.15 C 924.63 475.99 929.84 467.57 928.17 459.82 C 927.22 457.38 926.49 454.30 923.75 453.33 C 919.42 446.04 908.58 446.67 902.32 450.99 Z" style="fill: rgb(0, 0, 0) !important; stroke: rgb(0, 0, 0) !important;"/>
<path fill="#030404" stroke="#030404" stroke-width="0.09375" opacity="1.00" d=" M 1142.66 435.05 C 1163.38 430.49 1186.37 440.95 1196.09 459.89 C 1204.25 474.14 1204.32 492.45 1196.63 506.91 C 1187.43 525.43 1165.31 536.87 1144.90 532.67 C 1130.38 530.08 1117.31 520.50 1110.48 507.43 C 1103.75 495.25 1102.59 480.27 1107.10 467.14 C 1112.30 451.20 1126.34 438.70 1142.66 435.05 M 1159.52 455.60 C 1154.48 463.88 1159.62 476.05 1169.12 478.13 C 1178.46 481.11 1189.81 473.02 1188.79 462.96 C 1188.50 459.50 1188.62 454.39 1184.41 453.32 C 1178.71 444.47 1164.23 447.05 1159.52 455.60 Z" style="fill: rgb(0, 0, 0) !important; stroke: rgb(0, 0, 0) !important;"/>
<path fill="#030404" stroke="#030404" stroke-width="0.09375" opacity="1.00" d=" M 1079.33 564.44 C 1084.02 563.02 1089.82 565.86 1090.49 570.97 C 1091.33 576.77 1087.15 581.46 1083.77 585.64 C 1069.47 602.71 1047.25 612.74 1025.01 612.57 C 999.35 613.09 973.43 600.25 959.19 578.76 C 955.42 573.40 959.37 565.21 965.85 564.70 C 970.32 564.28 973.42 568.00 975.85 571.21 C 985.61 584.09 1000.95 592.34 1016.96 594.06 C 1036.88 596.38 1058.53 589.09 1071.06 572.98 C 1073.62 570.00 1075.48 565.95 1079.33 564.44 Z" style="fill: rgb(0, 0, 0) !important; stroke: rgb(0, 0, 0) !important;"/>
</g>
<g id="#030403ff" style="fill: rgb(0, 0, 0) !important;">
<path fill="#030403" stroke="#030403" stroke-width="0.09375" opacity="1.00" d=" M 730.56 448.72 C 734.66 446.75 740.17 450.55 739.30 455.13 C 738.75 458.43 735.97 460.52 733.61 462.58 C 688.70 499.45 651.53 546.03 626.75 598.66 C 614.39 625.89 604.50 654.46 599.74 684.05 C 599.47 687.45 596.62 690.92 592.98 690.64 C 590.11 690.85 587.64 688.73 586.65 686.19 C 586.33 683.38 587.26 680.66 587.64 677.92 C 590.78 660.84 595.52 644.08 600.91 627.58 C 614.75 588.90 634.59 552.33 659.90 519.95 C 670.76 505.34 683.19 491.99 695.88 478.97 C 705.77 468.71 717.10 460.03 727.75 450.61 C 728.61 449.89 729.52 449.19 730.56 448.72 Z" style="fill: rgb(0, 0, 0) !important; stroke: rgb(0, 0, 0) !important;"/>
</g>
<g id="#fdfefeff" style="fill: rgb(0, 0, 0) !important;">
<path fill="#fdfefe" stroke="#fdfefe" stroke-width="0.09375" opacity="1.00" d=" M 902.32 450.99 C 908.58 446.67 919.42 446.04 923.75 453.33 C 926.49 454.30 927.22 457.38 928.17 459.82 C 929.84 467.57 924.63 475.99 917.04 478.15 C 911.93 479.38 906.20 478.43 902.19 474.90 C 895.04 469.01 894.60 456.59 902.32 450.99 Z" style="fill: none !important;"/>
<path fill="#fdfefe" stroke="#fdfefe" stroke-width="0.09375" opacity="1.00" d=" M 1342.57 1300.51 C 1343.31 1299.81 1343.39 1297.87 1344.79 1298.22 C 1346.85 1301.73 1349.82 1304.48 1353.20 1306.73 C 1349.74 1308.74 1346.90 1311.63 1344.74 1314.98 C 1342.29 1311.66 1339.50 1308.42 1335.59 1306.85 C 1338.31 1305.25 1341.07 1303.40 1342.57 1300.51 Z" style="fill: none !important;"/>
</g>
<g id="#040505ff" style="fill: rgb(0, 0, 0) !important;">
<path fill="#040505" stroke="#040505" stroke-width="0.09375" opacity="1.00" d=" M 508.37 930.45 C 514.43 927.54 522.58 930.88 524.57 937.37 C 527.35 944.10 522.50 952.90 515.05 953.42 C 509.93 954.28 504.53 951.38 502.57 946.56 C 500.00 940.83 502.59 933.11 508.37 930.45 Z" style="fill: rgb(0, 0, 0) !important; stroke: rgb(0, 0, 0) !important;"/>
<path fill="#040505" stroke="#040505" stroke-width="0.09375" opacity="1.00" d=" M 1270.42 1410.64 C 1279.42 1408.92 1288.91 1416.70 1288.62 1425.97 C 1288.96 1435.43 1278.85 1443.40 1269.74 1440.95 C 1264.27 1439.63 1259.52 1435.42 1258.18 1429.87 C 1255.38 1421.44 1261.97 1412.16 1270.42 1410.64 Z" style="fill: rgb(0, 0, 0) !important; stroke: rgb(0, 0, 0) !important;"/>
<path fill="#040505" stroke="#040505" stroke-width="0.09375" opacity="1.00" d=" M 937.44 1506.36 C 961.55 1491.78 989.94 1484.83 1018.03 1485.36 C 1042.05 1484.96 1065.97 1491.03 1087.44 1501.64 C 1100.56 1508.61 1113.41 1516.45 1124.14 1526.84 C 1151.73 1553.09 1168.70 1590.16 1170.90 1628.13 C 1172.43 1648.11 1169.08 1668.32 1162.39 1687.16 C 1156.32 1704.32 1147.37 1720.59 1135.23 1734.22 C 1121.74 1749.71 1105.68 1763.29 1087.04 1772.17 C 1048.30 1791.80 1001.31 1794.10 960.78 1778.56 C 923.39 1764.43 891.76 1735.34 875.06 1698.98 C 866.38 1678.52 860.88 1656.37 861.51 1634.04 C 861.20 1622.89 863.63 1611.93 866.11 1601.14 C 870.44 1582.63 878.42 1565.04 889.22 1549.42 C 901.89 1531.76 918.54 1517.07 937.44 1506.36 M 992.13 1507.12 C 953.93 1513.74 918.21 1536.95 898.99 1570.96 C 889.75 1586.55 884.28 1604.19 882.05 1622.13 C 879.05 1647.93 884.42 1674.47 896.49 1697.41 C 911.56 1725.71 937.03 1748.19 966.85 1759.92 C 991.72 1769.97 1019.67 1772.02 1045.82 1766.21 C 1064.68 1761.86 1082.52 1753.41 1098.24 1742.16 C 1111.30 1732.04 1123.02 1719.93 1131.71 1705.81 C 1142.61 1688.39 1149.29 1668.38 1151.34 1647.95 C 1153.05 1626.07 1148.99 1603.85 1140.32 1583.73 C 1126.30 1552.05 1099.26 1526.48 1066.97 1514.02 C 1043.17 1505.38 1017.09 1502.10 992.13 1507.12 Z" style="fill: rgb(0, 0, 0) !important; stroke: rgb(0, 0, 0) !important;"/>
<path fill="#040505" stroke="#040505" stroke-width="0.09375" opacity="1.00" d=" M 1005.95 1533.81 C 1009.96 1533.75 1015.18 1532.12 1018.03 1535.94 C 1020.67 1538.99 1019.13 1543.96 1015.54 1545.46 C 1011.16 1546.48 1006.59 1546.03 1002.19 1546.89 C 982.34 1550.45 963.41 1559.79 949.08 1574.07 C 931.94 1591.37 922.04 1615.73 922.37 1640.10 C 922.47 1642.72 920.55 1645.16 918.09 1645.96 C 914.28 1647.51 909.50 1644.25 909.71 1640.09 C 909.37 1617.86 916.41 1595.53 929.31 1577.43 C 946.91 1552.63 975.88 1536.89 1005.95 1533.81 Z" style="fill: rgb(0, 0, 0) !important; stroke: rgb(0, 0, 0) !important;"/>
<path fill="#040505" stroke="#040505" stroke-width="0.09375" opacity="1.00" d=" M 1114.10 1627.94 C 1117.38 1626.58 1121.82 1628.41 1122.64 1632.03 C 1123.74 1634.91 1122.93 1638.02 1122.80 1641.01 C 1122.16 1662.37 1114.25 1683.36 1101.16 1700.20 C 1081.91 1725.23 1050.78 1741.04 1019.09 1740.60 C 1012.90 1740.16 1012.24 1730.00 1018.15 1728.55 C 1038.79 1727.60 1059.57 1720.91 1075.70 1707.74 C 1097.64 1690.09 1111.04 1662.18 1110.26 1633.95 C 1109.76 1631.20 1111.69 1628.91 1114.10 1627.94 Z" style="fill: rgb(0, 0, 0) !important; stroke: rgb(0, 0, 0) !important;"/>
</g>
<g id="#040504ff" style="fill: rgb(0, 0, 0) !important;">
<path fill="#040504" stroke="#040504" stroke-width="0.09375" opacity="1.00" d=" M 711.46 1166.68 C 720.64 1164.95 730.58 1168.20 736.62 1175.41 C 746.49 1186.38 743.95 1205.57 731.63 1213.68 C 721.46 1221.02 706.27 1219.33 697.67 1210.32 C 690.71 1203.00 688.52 1191.62 692.20 1182.23 C 695.23 1174.08 702.90 1168.03 711.46 1166.68 M 712.61 1178.77 C 704.47 1181.24 700.50 1191.91 704.81 1199.16 C 707.62 1204.33 714.17 1207.43 719.88 1205.61 C 727.29 1203.96 731.89 1195.27 729.46 1188.17 C 727.54 1181.22 719.61 1176.50 712.61 1178.77 Z" style="fill: rgb(0, 0, 0) !important; stroke: rgb(0, 0, 0) !important;"/>
</g>
</svg>