<svg xmlns="http://www.w3.org/2000/svg" width="2000" height="2000" viewBox="0 0 791 791" version="1.1" style="">
<path fill="#fefefe" opacity="1.00" d=" M 0.00 0.00 L 791.00 0.00 L 791.00 791.00 L 0.00 791.00 L 0.00 0.00 M 182.24 92.21 C 180.84 92.72 180.05 94.08 179.66 95.44 C 177.19 103.93 175.26 112.62 171.99 120.86 C 170.20 124.76 168.39 129.30 164.20 131.18 C 155.51 135.44 146.16 138.12 136.84 140.61 C 132.06 141.58 132.11 149.44 136.78 150.53 C 145.23 152.55 153.64 154.97 161.59 158.52 C 164.72 160.08 168.18 161.82 169.79 165.11 C 174.69 174.92 176.79 185.77 179.88 196.21 C 181.05 200.47 187.89 200.77 189.36 196.58 C 191.60 187.13 194.04 177.67 197.79 168.69 C 199.01 165.91 200.27 162.82 203.06 161.26 C 210.14 156.77 218.32 154.56 226.28 152.21 C 229.04 151.32 232.11 151.03 234.52 149.32 C 237.45 146.93 236.35 141.52 232.59 140.67 C 222.93 137.84 213.09 135.24 204.11 130.60 C 201.49 129.31 199.69 126.87 198.60 124.23 C 194.60 114.93 192.09 105.09 189.48 95.33 C 188.87 92.16 184.96 90.73 182.24 92.21 M 611.63 92.67 C 610.41 93.54 609.96 95.04 609.53 96.39 C 606.57 106.50 604.50 117.05 599.27 126.32 C 598.15 128.44 596.37 130.16 594.18 131.15 C 585.46 135.30 576.19 138.18 566.85 140.57 C 562.12 141.46 562.03 148.93 566.43 150.34 C 575.26 152.56 584.14 154.91 592.43 158.75 C 595.12 160.15 598.13 161.58 599.61 164.39 C 604.79 174.29 606.96 185.34 609.86 196.02 C 610.89 200.33 617.89 200.80 619.41 196.61 C 622.29 185.84 624.76 174.80 629.78 164.76 C 631.17 161.84 634.15 160.27 636.90 158.87 C 645.05 154.93 653.93 152.92 662.56 150.33 C 666.70 149.05 667.04 142.40 662.91 140.86 C 653.22 137.99 643.34 135.35 634.31 130.70 C 630.07 128.70 628.51 123.98 626.94 119.93 C 623.84 112.00 622.02 103.66 619.61 95.51 C 618.93 92.04 614.35 90.48 611.63 92.67 M 307.48 106.62 C 306.52 107.15 305.69 107.99 305.38 109.07 C 303.74 114.14 302.90 119.57 300.23 124.24 C 295.95 128.97 289.07 129.22 283.46 131.38 C 280.21 132.74 280.44 138.10 283.80 139.20 C 289.32 141.09 295.58 141.89 300.14 145.84 C 303.37 150.69 303.62 156.83 305.93 162.08 C 307.44 165.05 312.53 165.02 313.77 161.85 C 315.45 156.40 316.11 150.38 319.45 145.61 C 324.07 141.61 330.43 141.11 335.96 139.11 C 339.33 137.50 338.53 131.93 335.05 130.97 C 329.71 129.20 323.48 128.59 319.24 124.58 C 316.13 119.74 315.60 113.78 313.48 108.52 C 312.54 106.32 309.52 105.56 307.48 106.62 M 477.37 106.48 C 475.06 107.58 475.12 110.48 474.40 112.59 C 473.15 116.67 472.24 121.03 469.86 124.63 C 465.54 128.73 459.31 129.50 453.81 131.04 C 450.04 132.11 449.98 137.92 453.61 139.24 C 458.98 141.04 465.00 141.82 469.53 145.49 C 473.11 150.31 473.58 156.64 475.88 162.07 C 477.29 164.75 481.62 165.05 483.32 162.49 C 485.32 157.04 486.02 151.01 489.08 145.99 C 493.72 141.71 500.33 141.13 505.98 138.92 C 509.08 137.54 508.52 132.54 505.53 131.36 C 500.08 129.29 493.61 128.84 489.24 124.62 C 486.06 119.80 485.38 113.90 483.50 108.54 C 482.60 106.17 479.52 105.47 477.37 106.48 M 362.72 178.73 C 353.61 189.66 350.87 205.55 356.07 218.83 C 359.73 228.80 367.52 236.80 376.80 241.77 C 375.22 247.20 373.54 252.61 371.80 258.00 C 356.57 304.23 338.66 349.98 313.11 391.57 C 287.13 368.37 264.73 341.22 246.52 311.54 C 248.80 309.08 251.18 306.66 253.01 303.83 C 260.66 291.75 259.49 274.92 250.34 263.95 C 244.10 256.53 234.71 251.76 224.98 251.54 C 215.37 251.11 205.79 255.25 199.17 262.15 C 189.75 271.78 187.02 287.18 192.50 299.47 C 196.89 309.67 206.45 317.26 217.28 319.59 C 215.68 350.76 210.81 382.05 199.64 411.32 C 188.37 403.06 177.68 394.04 167.59 384.39 C 154.95 372.43 142.86 359.82 132.17 346.08 C 142.13 336.04 146.20 320.76 142.65 307.08 C 140.30 296.77 133.38 287.82 124.52 282.20 C 113.89 275.53 100.15 274.31 88.41 278.62 C 78.93 282.05 71.12 289.38 66.41 298.20 C 60.78 308.80 60.30 321.88 64.87 332.94 C 71.74 349.93 90.90 360.82 109.03 357.74 C 127.26 413.22 144.04 469.22 157.44 526.08 C 162.56 549.63 167.62 573.35 168.86 597.48 C 160.67 601.66 156.86 611.22 157.10 620.03 C 157.12 628.50 160.96 637.65 168.92 641.49 C 168.86 647.18 168.12 652.83 167.19 658.44 C 163.16 660.90 158.62 663.92 157.76 668.95 C 156.83 674.42 161.16 678.92 165.59 681.35 C 175.00 686.63 185.63 689.15 196.08 691.41 C 209.33 694.15 222.70 696.32 236.13 697.94 C 287.85 704.17 339.99 706.16 392.05 706.36 C 441.76 706.36 491.51 704.49 540.97 699.32 C 562.31 696.93 583.69 694.11 604.52 688.72 C 611.74 686.72 619.07 684.49 625.38 680.33 C 629.09 677.90 632.29 673.77 631.56 669.09 C 630.83 664.08 626.33 660.99 622.34 658.55 C 621.07 652.99 620.50 647.30 620.19 641.62 C 636.43 633.18 636.18 605.95 620.18 597.40 C 622.76 561.48 631.42 526.36 640.28 491.57 C 652.00 446.50 665.76 402.00 680.09 357.71 C 691.31 359.35 703.28 356.52 712.09 349.23 C 724.05 339.96 729.86 323.61 726.56 308.85 C 724.52 298.53 718.22 289.19 709.59 283.23 C 695.88 273.59 676.14 273.82 662.58 283.63 C 652.94 290.75 646.12 301.97 645.45 314.07 C 644.35 325.81 649.03 337.54 657.10 345.98 C 649.93 355.41 641.89 364.15 633.62 372.61 C 620.02 386.63 605.31 399.58 589.69 411.31 C 578.44 382.04 573.35 350.70 572.07 319.46 C 589.39 316.38 602.16 298.47 599.32 281.09 C 597.55 265.46 583.65 252.46 567.99 251.57 C 557.52 250.71 547.00 255.22 540.00 262.95 C 532.32 270.97 529.74 283.02 532.18 293.70 C 533.73 300.59 537.71 306.68 542.73 311.55 C 524.41 341.15 502.22 368.52 476.09 391.58 C 468.27 379.16 461.54 366.10 455.02 352.97 C 437.66 317.22 423.91 279.77 412.49 241.73 C 424.67 235.62 433.52 223.41 435.36 209.89 C 437.00 197.89 432.89 185.26 424.52 176.50 C 416.73 168.19 405.37 163.26 393.96 163.56 C 381.98 163.71 370.29 169.48 362.72 178.73 M 220.18 170.99 C 217.68 172.50 217.95 176.39 220.38 177.84 C 244.11 194.53 263.43 217.22 276.96 242.82 C 290.17 267.18 297.49 294.32 301.33 321.63 C 302.39 325.83 309.57 324.39 308.67 320.02 C 306.18 297.73 300.52 275.77 291.65 255.15 C 277.58 222.08 254.79 192.48 225.30 171.76 C 223.88 170.65 221.81 169.79 220.18 170.99 M 565.19 170.94 C 546.88 183.27 531.38 199.48 518.58 217.39 C 497.55 247.70 484.29 283.43 480.51 320.11 C 479.77 324.67 487.40 325.75 488.04 321.25 C 490.70 299.48 496.24 277.99 504.94 257.84 C 518.41 227.15 538.98 199.02 566.54 179.59 C 568.13 178.31 570.37 177.24 570.67 174.99 C 571.38 172.10 567.75 169.19 565.19 170.94 M 685.23 205.19 C 679.57 207.43 677.40 215.62 681.89 220.02 C 686.30 225.41 696.27 223.04 697.58 216.12 C 699.62 209.21 691.91 201.98 685.23 205.19 M 309.16 213.03 C 302.41 214.86 300.43 224.72 305.97 229.00 C 310.86 233.58 319.74 230.62 320.97 224.05 C 322.93 217.38 315.70 210.62 309.16 213.03 M 150.44 226.54 C 143.64 227.91 140.83 237.36 146.04 242.05 C 150.67 247.06 160.22 244.72 161.58 237.89 C 163.55 231.41 156.89 224.74 150.44 226.54 M 635.57 231.75 C 628.84 233.87 627.53 243.99 633.44 247.80 C 638.78 252.29 647.85 247.96 647.95 241.07 C 648.86 234.60 641.53 229.22 635.57 231.75 M 43.44 381.58 C 40.51 382.68 40.34 387.44 43.34 388.59 C 67.05 399.45 87.73 417.18 101.46 439.42 C 102.53 441.11 103.70 443.26 105.98 443.36 C 108.73 443.93 111.33 440.52 109.85 438.06 C 95.65 413.90 73.93 394.34 48.58 382.44 C 46.99 381.76 45.18 380.71 43.44 381.58 M 742.51 381.63 C 716.42 393.06 694.33 413.06 679.71 437.44 C 677.92 439.88 679.80 443.77 682.88 443.65 C 686.17 443.63 687.22 440.08 688.81 437.85 C 702.29 416.86 721.83 399.73 744.50 389.27 C 746.29 388.53 748.23 387.14 747.95 384.92 C 748.07 382.19 744.87 380.32 742.51 381.63 M 66.16 445.06 C 64.68 445.50 63.32 446.55 62.89 448.08 C 59.93 456.58 58.26 465.71 53.62 473.52 C 46.37 479.38 36.65 480.69 28.12 483.92 C 24.54 485.83 24.79 491.85 28.74 493.18 C 35.46 495.48 42.43 497.15 48.90 500.14 C 51.28 501.24 53.63 502.79 54.70 505.28 C 58.20 512.68 60.20 520.66 62.43 528.50 C 63.07 531.67 67.03 533.36 69.80 531.75 C 71.69 531.00 72.16 528.82 72.63 527.08 C 74.14 520.80 76.07 514.63 78.37 508.60 C 79.45 505.88 80.73 502.91 83.42 501.44 C 90.68 497.30 99.02 495.75 106.72 492.71 C 110.36 490.98 109.82 485.09 106.07 483.81 C 98.71 481.30 91.06 479.43 84.13 475.79 C 82.49 474.92 80.84 473.83 80.00 472.11 C 76.17 464.50 74.63 456.03 71.77 448.06 C 71.13 445.77 68.39 444.35 66.16 445.06 M 719.46 450.68 C 717.87 451.61 717.10 453.36 716.68 455.07 C 714.60 462.35 712.70 469.72 709.51 476.61 C 708.65 478.53 707.08 480.05 705.19 480.96 C 698.11 484.55 690.31 486.32 682.86 488.87 C 679.08 490.48 679.13 496.52 682.90 498.13 C 690.52 500.68 698.56 502.40 705.61 506.44 C 707.26 507.31 708.57 508.73 709.31 510.46 C 712.99 518.12 714.93 526.44 717.36 534.54 C 718.92 538.72 725.66 538.22 726.64 533.89 C 728.29 527.31 729.96 520.71 732.55 514.42 C 733.75 511.64 734.65 508.31 737.49 506.72 C 744.63 502.62 752.71 500.68 760.49 498.18 C 764.43 496.87 764.62 490.65 760.87 488.99 C 753.35 486.27 745.45 484.46 738.32 480.75 C 736.57 479.88 735.15 478.44 734.34 476.68 C 730.77 469.24 728.73 461.21 726.51 453.31 C 725.79 450.31 721.96 449.14 719.46 450.68 M 114.17 535.02 C 109.82 536.39 106.94 541.37 108.19 545.82 C 109.12 550.22 113.62 553.36 118.07 552.83 C 123.59 552.52 127.60 546.30 125.90 541.11 C 124.71 536.21 118.84 533.30 114.17 535.02 M 669.35 542.54 C 663.83 544.07 660.67 551.15 664.02 556.06 C 667.29 561.92 676.86 561.92 679.83 555.76 C 683.96 549.20 676.76 539.91 669.35 542.54 Z" style="fill: none !important;"/>
<path fill="#000201" opacity="1.00" d=" M 182.24 92.21 C 184.96 90.73 188.87 92.16 189.48 95.33 C 192.09 105.09 194.60 114.93 198.60 124.23 C 199.69 126.87 201.49 129.31 204.11 130.60 C 213.09 135.24 222.93 137.84 232.59 140.67 C 236.35 141.52 237.45 146.93 234.52 149.32 C 232.11 151.03 229.04 151.32 226.28 152.21 C 218.32 154.56 210.14 156.77 203.06 161.26 C 200.27 162.82 199.01 165.91 197.79 168.69 C 194.04 177.67 191.60 187.13 189.36 196.58 C 187.89 200.77 181.05 200.47 179.88 196.21 C 176.79 185.77 174.69 174.92 169.79 165.11 C 168.18 161.82 164.72 160.08 161.59 158.52 C 153.64 154.97 145.23 152.55 136.78 150.53 C 132.11 149.44 132.06 141.58 136.84 140.61 C 146.16 138.12 155.51 135.44 164.20 131.18 C 168.39 129.30 170.20 124.76 171.99 120.86 C 175.26 112.62 177.19 103.93 179.66 95.44 C 180.05 94.08 180.84 92.72 182.24 92.21 M 184.72 115.44 C 181.89 122.89 179.78 131.17 173.80 136.84 C 168.45 141.01 161.85 143.08 155.56 145.39 C 162.18 148.20 169.59 149.99 175.01 154.98 C 179.94 160.48 181.68 167.92 184.38 174.61 L 183.54 175.30 C 184.06 175.33 184.59 175.37 185.12 175.36 C 186.28 169.24 188.96 163.44 192.05 158.07 C 196.85 150.68 206.16 149.25 213.30 145.21 C 207.18 142.72 200.66 140.71 195.39 136.60 C 189.44 131.08 187.17 122.91 184.72 115.44 Z" style="fill: rgb(0, 0, 0) !important;"/>
<path fill="#000201" opacity="1.00" d=" M 611.63 92.67 C 614.35 90.48 618.93 92.04 619.61 95.51 C 622.02 103.66 623.84 112.00 626.94 119.93 C 628.51 123.98 630.07 128.70 634.31 130.70 C 643.34 135.35 653.22 137.99 662.91 140.86 C 667.04 142.40 666.70 149.05 662.56 150.33 C 653.93 152.92 645.05 154.93 636.90 158.87 C 634.15 160.27 631.17 161.84 629.78 164.76 C 624.76 174.80 622.29 185.84 619.41 196.61 C 617.89 200.80 610.89 200.33 609.86 196.02 C 606.96 185.34 604.79 174.29 599.61 164.39 C 598.13 161.58 595.12 160.15 592.43 158.75 C 584.14 154.91 575.26 152.56 566.43 150.34 C 562.03 148.93 562.12 141.46 566.85 140.57 C 576.19 138.18 585.46 135.30 594.18 131.15 C 596.37 130.16 598.15 128.44 599.27 126.32 C 604.50 117.05 606.57 106.50 609.53 96.39 C 609.96 95.04 610.41 93.54 611.63 92.67 M 605.78 134.83 C 600.48 140.48 592.72 142.70 585.67 145.31 C 592.45 148.30 600.27 149.93 605.64 155.36 C 610.39 161.19 612.21 168.72 614.74 175.66 C 616.97 169.26 619.10 162.69 622.86 156.99 C 627.86 150.60 636.18 148.60 643.33 145.60 C 637.08 142.20 629.52 140.81 624.39 135.55 C 619.34 129.95 617.06 122.53 614.66 115.53 C 612.17 122.14 610.33 129.26 605.78 134.83 Z" style="fill: rgb(0, 0, 0) !important;"/>
<path fill="#000201" opacity="1.00" d=" M 307.48 106.62 C 309.52 105.56 312.54 106.32 313.48 108.52 C 315.60 113.78 316.13 119.74 319.24 124.58 C 323.48 128.59 329.71 129.20 335.05 130.97 C 338.53 131.93 339.33 137.50 335.96 139.11 C 330.43 141.11 324.07 141.61 319.45 145.61 C 316.11 150.38 315.45 156.40 313.77 161.85 C 312.53 165.02 307.44 165.05 305.93 162.08 C 303.62 156.83 303.37 150.69 300.14 145.84 C 295.58 141.89 289.32 141.09 283.80 139.20 C 280.44 138.10 280.21 132.74 283.46 131.38 C 289.07 129.22 295.95 128.97 300.23 124.24 C 302.90 119.57 303.74 114.14 305.38 109.07 C 305.69 107.99 306.52 107.15 307.48 106.62 M 300.02 135.22 C 304.53 136.81 308.38 140.29 309.65 145.01 C 310.78 140.16 314.89 136.96 319.36 135.30 C 314.95 133.76 311.03 130.50 309.68 125.90 C 308.07 130.33 304.48 133.74 300.02 135.22 Z" style="fill: rgb(0, 0, 0) !important;"/>
<path fill="#000201" opacity="1.00" d=" M 477.37 106.48 C 479.52 105.47 482.60 106.17 483.50 108.54 C 485.38 113.90 486.06 119.80 489.24 124.62 C 493.61 128.84 500.08 129.29 505.53 131.36 C 508.52 132.54 509.08 137.54 505.98 138.92 C 500.33 141.13 493.72 141.71 489.08 145.99 C 486.02 151.01 485.32 157.04 483.32 162.49 C 481.62 165.05 477.29 164.75 475.88 162.07 C 473.58 156.64 473.11 150.31 469.53 145.49 C 465.00 141.82 458.98 141.04 453.61 139.24 C 449.98 137.92 450.04 132.11 453.81 131.04 C 459.31 129.50 465.54 128.73 469.86 124.63 C 472.24 121.03 473.15 116.67 474.40 112.59 C 475.12 110.48 475.06 107.58 477.37 106.48 M 469.98 135.26 C 474.48 136.90 478.22 140.35 479.52 145.05 C 480.99 140.32 484.74 136.69 489.47 135.25 C 484.82 133.87 481.06 130.16 479.71 125.49 C 478.19 130.09 474.60 133.75 469.98 135.26 Z" style="fill: rgb(0, 0, 0) !important;"/>
<path fill="#fefefe" opacity="1.00" d=" M 184.72 115.44 C 187.17 122.91 189.44 131.08 195.39 136.60 C 200.66 140.71 207.18 142.72 213.30 145.21 C 206.16 149.25 196.85 150.68 192.05 158.07 C 188.96 163.44 186.28 169.24 185.12 175.36 C 184.59 175.37 184.06 175.33 183.54 175.30 L 184.38 174.61 C 181.68 167.92 179.94 160.48 175.01 154.98 C 169.59 149.99 162.18 148.20 155.56 145.39 C 161.85 143.08 168.45 141.01 173.80 136.84 C 179.78 131.17 181.89 122.89 184.72 115.44 Z" style="fill: none !important;"/>
<path fill="#fefefe" opacity="1.00" d=" M 605.78 134.83 C 610.33 129.26 612.17 122.14 614.66 115.53 C 617.06 122.53 619.34 129.95 624.39 135.55 C 629.52 140.81 637.08 142.20 643.33 145.60 C 636.18 148.60 627.86 150.60 622.86 156.99 C 619.10 162.69 616.97 169.26 614.74 175.66 C 612.21 168.72 610.39 161.19 605.64 155.36 C 600.27 149.93 592.45 148.30 585.67 145.31 C 592.72 142.70 600.48 140.48 605.78 134.83 Z" style="fill: none !important;"/>
<path fill="#fdfffe" opacity="1.00" d=" M 300.02 135.22 C 304.48 133.74 308.07 130.33 309.68 125.90 C 311.03 130.50 314.95 133.76 319.36 135.30 C 314.89 136.96 310.78 140.16 309.65 145.01 C 308.38 140.29 304.53 136.81 300.02 135.22 Z" style="fill: none !important;"/>
<path fill="#fdfefe" opacity="1.00" d=" M 469.98 135.26 C 474.60 133.75 478.19 130.09 479.71 125.49 C 481.06 130.16 484.82 133.87 489.47 135.25 C 484.74 136.69 480.99 140.32 479.52 145.05 C 478.22 140.35 474.48 136.90 469.98 135.26 Z" style="fill: none !important;"/>
<path fill="#000201" opacity="1.00" d=" M 362.72 178.73 C 370.29 169.48 381.98 163.71 393.96 163.56 C 405.37 163.26 416.73 168.19 424.52 176.50 C 432.89 185.26 437.00 197.89 435.36 209.89 C 433.52 223.41 424.67 235.62 412.49 241.73 C 423.91 279.77 437.66 317.22 455.02 352.97 C 461.54 366.10 468.27 379.16 476.09 391.58 C 502.22 368.52 524.41 341.15 542.73 311.55 C 537.71 306.68 533.73 300.59 532.18 293.70 C 529.74 283.02 532.32 270.97 540.00 262.95 C 547.00 255.22 557.52 250.71 567.99 251.57 C 583.65 252.46 597.55 265.46 599.32 281.09 C 602.16 298.47 589.39 316.38 572.07 319.46 C 573.35 350.70 578.44 382.04 589.69 411.31 C 605.31 399.58 620.02 386.63 633.62 372.61 C 641.89 364.15 649.93 355.41 657.10 345.98 C 649.03 337.54 644.35 325.81 645.45 314.07 C 646.12 301.97 652.94 290.75 662.58 283.63 C 676.14 273.82 695.88 273.59 709.59 283.23 C 718.22 289.19 724.52 298.53 726.56 308.85 C 729.86 323.61 724.05 339.96 712.09 349.23 C 703.28 356.52 691.31 359.35 680.09 357.71 C 665.76 402.00 652.00 446.50 640.28 491.57 C 631.42 526.36 622.76 561.48 620.18 597.40 C 636.18 605.95 636.43 633.18 620.19 641.62 C 620.50 647.30 621.07 652.99 622.34 658.55 C 626.33 660.99 630.83 664.08 631.56 669.09 C 632.29 673.77 629.09 677.90 625.38 680.33 C 619.07 684.49 611.74 686.72 604.52 688.72 C 583.69 694.11 562.31 696.93 540.97 699.32 C 491.51 704.49 441.76 706.36 392.05 706.36 C 339.99 706.16 287.85 704.17 236.13 697.94 C 222.70 696.32 209.33 694.15 196.08 691.41 C 185.63 689.15 175.00 686.63 165.59 681.35 C 161.16 678.92 156.83 674.42 157.76 668.95 C 158.62 663.92 163.16 660.90 167.19 658.44 C 168.12 652.83 168.86 647.18 168.92 641.49 C 160.96 637.65 157.12 628.50 157.10 620.03 C 156.86 611.22 160.67 601.66 168.86 597.48 C 167.62 573.35 162.56 549.63 157.44 526.08 C 144.04 469.22 127.26 413.22 109.03 357.74 C 90.90 360.82 71.74 349.93 64.87 332.94 C 60.30 321.88 60.78 308.80 66.41 298.20 C 71.12 289.38 78.93 282.05 88.41 278.62 C 100.15 274.31 113.89 275.53 124.52 282.20 C 133.38 287.82 140.30 296.77 142.65 307.08 C 146.20 320.76 142.13 336.04 132.17 346.08 C 142.86 359.82 154.95 372.43 167.59 384.39 C 177.68 394.04 188.37 403.06 199.64 411.32 C 210.81 382.05 215.68 350.76 217.28 319.59 C 206.45 317.26 196.89 309.67 192.50 299.47 C 187.02 287.18 189.75 271.78 199.17 262.15 C 205.79 255.25 215.37 251.11 224.98 251.54 C 234.71 251.76 244.10 256.53 250.34 263.95 C 259.49 274.92 260.66 291.75 253.01 303.83 C 251.18 306.66 248.80 309.08 246.52 311.54 C 264.73 341.22 287.13 368.37 313.11 391.57 C 338.66 349.98 356.57 304.23 371.80 258.00 C 373.54 252.61 375.22 247.20 376.80 241.77 C 367.52 236.80 359.73 228.80 356.07 218.83 C 350.87 205.55 353.61 189.66 362.72 178.73 M 387.47 174.65 C 375.91 177.34 366.43 187.18 364.47 198.92 C 361.58 212.25 369.34 226.49 381.46 232.30 C 391.70 237.51 404.83 235.90 413.70 228.66 C 424.29 220.28 428.60 204.48 422.64 192.15 C 417.05 178.95 401.46 170.76 387.47 174.65 M 381.40 261.55 C 367.51 303.84 351.47 345.69 329.31 384.42 C 319.07 402.57 307.70 420.22 293.89 435.89 C 288.10 442.18 282.13 448.60 274.50 452.68 C 270.11 455.11 264.90 455.90 259.97 455.03 C 249.98 453.35 240.78 448.82 231.82 444.30 C 218.63 437.60 206.30 429.33 194.49 420.45 C 168.52 400.56 144.45 378.00 124.00 352.43 C 122.35 353.30 120.69 354.16 119.01 355.00 C 128.76 384.26 137.73 413.77 146.37 443.37 C 151.68 461.67 156.78 480.03 161.27 498.54 C 167.64 524.18 173.75 549.95 177.32 576.15 C 195.03 570.15 213.61 567.35 232.06 564.69 C 286.09 557.98 340.57 554.88 395.01 555.18 C 448.18 555.15 501.41 557.73 554.17 564.43 C 573.62 567.07 593.18 569.96 611.91 576.03 C 616.17 545.67 623.46 515.83 631.08 486.17 C 642.68 442.05 655.85 398.35 670.28 355.08 C 668.65 354.18 667.03 353.28 665.43 352.36 C 645.43 376.90 622.43 398.96 597.43 418.37 C 583.28 429.45 568.06 439.19 551.86 447.01 C 543.65 450.83 535.16 454.87 525.98 455.38 C 515.38 455.70 506.95 448.05 499.98 440.98 C 480.21 420.15 465.59 395.13 451.98 370.02 C 431.44 330.16 415.59 288.01 402.73 245.11 C 397.32 245.94 391.81 246.03 386.42 245.05 C 385.01 250.62 383.13 256.06 381.40 261.55 M 217.43 262.74 C 208.36 265.20 201.19 273.53 200.16 282.88 C 198.46 295.41 208.27 308.23 220.92 309.53 C 233.45 311.54 245.98 301.49 247.51 289.07 C 248.84 280.14 244.47 270.84 237.05 265.81 C 231.41 261.90 224.00 260.72 217.43 262.74 M 559.42 262.57 C 551.95 264.67 545.41 270.40 542.91 277.82 C 540.27 285.79 541.80 295.21 547.52 301.50 C 553.30 308.47 563.34 311.44 572.00 308.82 C 583.62 305.69 591.63 292.74 588.90 280.94 C 586.61 267.98 572.13 258.72 559.42 262.57 M 681.52 286.74 C 665.76 289.21 653.49 305.19 656.04 321.11 C 657.77 337.22 674.04 350.14 690.18 347.50 C 707.08 346.12 719.98 328.41 716.79 311.91 C 714.18 295.95 697.58 283.68 681.52 286.74 M 96.08 287.04 C 85.55 289.51 76.50 297.67 73.39 308.09 C 69.27 321.29 75.49 336.80 87.46 343.65 C 97.22 349.58 110.44 349.12 119.82 342.64 C 132.31 334.72 137.28 317.04 130.39 303.87 C 124.72 291.17 109.57 283.86 96.08 287.04 M 227.68 319.99 C 225.96 353.22 220.49 386.58 208.23 417.64 C 222.35 427.30 236.89 436.79 253.08 442.62 C 258.75 444.67 265.47 446.33 271.01 443.02 C 276.90 439.41 281.59 434.19 286.18 429.10 C 294.04 420.12 300.97 410.39 307.63 400.50 C 280.15 376.66 256.95 348.10 237.95 317.15 C 234.61 318.37 231.20 319.43 227.68 319.99 M 551.20 317.17 C 542.75 331.40 533.04 344.85 522.66 357.73 C 510.31 373.15 496.67 387.56 481.64 400.39 C 487.63 409.59 494.06 418.54 501.16 426.93 C 505.72 432.29 510.42 437.66 516.15 441.81 C 519.58 444.26 523.95 445.74 528.16 444.77 C 537.90 442.99 546.74 438.25 555.44 433.73 C 564.24 428.81 572.91 423.62 581.10 417.74 C 568.90 386.61 562.91 353.25 561.64 319.91 C 558.09 319.24 554.62 318.29 551.20 317.17 M 287.10 569.46 C 263.36 571.32 239.62 573.57 216.15 577.63 C 203.43 579.84 190.58 582.01 178.48 586.64 C 178.79 590.15 179.10 593.67 179.39 597.19 C 188.17 600.90 192.07 610.97 191.93 619.96 C 192.12 628.74 187.80 638.13 179.39 641.74 C 179.20 645.90 178.88 650.06 178.24 654.19 C 197.73 648.28 217.98 645.38 238.17 643.08 C 287.90 637.13 337.99 634.64 388.06 634.54 C 441.82 634.23 495.64 636.44 549.04 642.79 C 569.89 645.34 590.89 648.03 611.02 654.26 C 610.42 650.13 610.04 645.98 609.75 641.83 C 599.14 636.90 595.45 623.64 597.99 612.91 C 599.33 606.28 603.42 600.00 609.81 597.30 C 610.10 593.77 610.39 590.25 610.75 586.74 C 604.39 584.16 597.67 582.62 591.00 581.11 C 566.63 575.98 541.89 572.89 517.11 570.68 C 440.64 564.19 363.63 563.58 287.10 569.46 M 173.18 607.22 C 168.21 609.61 167.00 616.02 167.33 621.04 C 167.67 625.39 169.44 630.55 173.91 632.18 C 177.73 632.21 180.07 628.24 181.00 624.97 C 182.30 620.01 181.95 614.34 179.04 610.00 C 177.78 608.14 175.56 606.38 173.18 607.22 M 612.47 607.73 C 607.03 611.93 606.57 620.07 608.65 626.15 C 609.74 628.93 611.78 631.99 615.05 632.25 C 618.75 631.21 620.78 627.42 621.52 623.91 C 622.43 618.76 622.03 612.77 618.26 608.78 C 616.87 607.13 614.33 606.41 612.47 607.73 M 250.85 651.89 C 230.43 654.07 210.06 657.08 190.03 661.61 C 182.27 663.71 174.07 665.48 167.50 670.36 C 172.58 674.64 179.20 676.35 185.42 678.27 C 201.09 682.45 217.15 684.93 233.18 687.21 C 279.20 693.17 325.64 695.01 372.00 695.70 C 424.06 696.46 476.18 694.93 528.05 690.39 C 551.02 688.22 573.97 685.23 596.50 680.17 C 605.21 677.95 614.22 675.83 621.82 670.81 C 617.90 666.89 612.31 665.59 607.25 663.83 C 592.48 659.39 577.18 657.10 561.99 654.69 C 510.63 647.85 458.79 645.38 407.01 644.75 C 354.89 644.45 302.71 646.49 250.85 651.89 Z" style="fill: rgb(0, 0, 0) !important;"/>
<path fill="#010201" opacity="1.00" d=" M 220.18 170.99 C 221.81 169.79 223.88 170.65 225.30 171.76 C 254.79 192.48 277.58 222.08 291.65 255.15 C 300.52 275.77 306.18 297.73 308.67 320.02 C 309.57 324.39 302.39 325.83 301.33 321.63 C 297.49 294.32 290.17 267.18 276.96 242.82 C 263.43 217.22 244.11 194.53 220.38 177.84 C 217.95 176.39 217.68 172.50 220.18 170.99 Z" style="fill: rgb(0, 0, 0) !important;"/>
<path fill="#010201" opacity="1.00" d=" M 565.19 170.94 C 567.75 169.19 571.38 172.10 570.67 174.99 C 570.37 177.24 568.13 178.31 566.54 179.59 C 538.98 199.02 518.41 227.15 504.94 257.84 C 496.24 277.99 490.70 299.48 488.04 321.25 C 487.40 325.75 479.77 324.67 480.51 320.11 C 484.29 283.43 497.55 247.70 518.58 217.39 C 531.38 199.48 546.88 183.27 565.19 170.94 Z" style="fill: rgb(0, 0, 0) !important;"/>
<path fill="#fefefe" opacity="1.00" d=" M 387.47 174.65 C 401.46 170.76 417.05 178.95 422.64 192.15 C 428.60 204.48 424.29 220.28 413.70 228.66 C 404.83 235.90 391.70 237.51 381.46 232.30 C 369.34 226.49 361.58 212.25 364.47 198.92 C 366.43 187.18 375.91 177.34 387.47 174.65 Z" style="fill: none !important;"/>
<path fill="#000201" opacity="1.00" d=" M 685.23 205.19 C 691.91 201.98 699.62 209.21 697.58 216.12 C 696.27 223.04 686.30 225.41 681.89 220.02 C 677.40 215.62 679.57 207.43 685.23 205.19 Z" style="fill: rgb(0, 0, 0) !important;"/>
<path fill="#000201" opacity="1.00" d=" M 309.16 213.03 C 315.70 210.62 322.93 217.38 320.97 224.05 C 319.74 230.62 310.86 233.58 305.97 229.00 C 300.43 224.72 302.41 214.86 309.16 213.03 Z" style="fill: rgb(0, 0, 0) !important;"/>
<path fill="#000201" opacity="1.00" d=" M 150.44 226.54 C 156.89 224.74 163.55 231.41 161.58 237.89 C 160.22 244.72 150.67 247.06 146.04 242.05 C 140.83 237.36 143.64 227.91 150.44 226.54 Z" style="fill: rgb(0, 0, 0) !important;"/>
<path fill="#000201" opacity="1.00" d=" M 635.57 231.75 C 641.53 229.22 648.86 234.60 647.95 241.07 C 647.85 247.96 638.78 252.29 633.44 247.80 C 627.53 243.99 628.84 233.87 635.57 231.75 Z" style="fill: rgb(0, 0, 0) !important;"/>
<path fill="#ffffff" opacity="1.00" d=" M 381.40 261.55 C 383.13 256.06 385.01 250.62 386.42 245.05 C 391.81 246.03 397.32 245.94 402.73 245.11 C 415.59 288.01 431.44 330.16 451.98 370.02 C 465.59 395.13 480.21 420.15 499.98 440.98 C 506.95 448.05 515.38 455.70 525.98 455.38 C 535.16 454.87 543.65 450.83 551.86 447.01 C 568.06 439.19 583.28 429.45 597.43 418.37 C 622.43 398.96 645.43 376.90 665.43 352.36 C 667.03 353.28 668.65 354.18 670.28 355.08 C 655.85 398.35 642.68 442.05 631.08 486.17 C 623.46 515.83 616.17 545.67 611.91 576.03 C 593.18 569.96 573.62 567.07 554.17 564.43 C 501.41 557.73 448.18 555.15 395.01 555.18 C 340.57 554.88 286.09 557.98 232.06 564.69 C 213.61 567.35 195.03 570.15 177.32 576.15 C 173.75 549.95 167.64 524.18 161.27 498.54 C 156.78 480.03 151.68 461.67 146.37 443.37 C 137.73 413.77 128.76 384.26 119.01 355.00 C 120.69 354.16 122.35 353.30 124.00 352.43 C 144.45 378.00 168.52 400.56 194.49 420.45 C 206.30 429.33 218.63 437.60 231.82 444.30 C 240.78 448.82 249.98 453.35 259.97 455.03 C 264.90 455.90 270.11 455.11 274.50 452.68 C 282.13 448.60 288.10 442.18 293.89 435.89 C 307.70 420.22 319.07 402.57 329.31 384.42 C 351.47 345.69 367.51 303.84 381.40 261.55 M 379.69 304.49 C 376.97 310.69 374.71 317.08 372.18 323.35 C 356.48 362.39 336.61 399.88 311.84 433.94 C 309.79 436.65 312.30 439.63 315.00 440.44 C 316.44 439.86 318.01 439.28 318.79 437.83 C 345.53 400.40 366.93 359.25 383.23 316.28 C 384.32 312.53 386.51 308.90 386.46 304.95 C 385.84 301.59 380.84 301.44 379.69 304.49 M 404.56 302.66 C 402.63 303.58 401.95 306.01 402.84 307.91 C 408.53 324.35 415.44 340.35 422.80 356.11 C 436.44 384.79 452.12 412.57 470.79 438.29 C 472.65 441.57 478.25 439.69 477.99 435.98 C 477.48 432.77 474.72 430.57 473.08 427.92 C 446.83 390.19 426.23 348.71 410.21 305.68 C 409.64 303.23 406.99 301.32 404.56 302.66 M 392.46 390.62 C 390.91 391.27 390.10 392.80 389.73 394.36 C 386.41 407.67 382.46 421.18 374.69 432.66 C 371.23 438.14 365.94 442.09 360.61 445.62 C 353.24 450.73 344.71 453.83 336.16 456.31 C 332.30 457.07 330.87 462.57 333.88 465.10 C 336.26 466.84 339.38 467.01 342.08 468.08 C 351.09 471.30 359.92 475.52 367.24 481.79 C 373.48 486.88 377.48 494.12 380.74 501.36 C 384.25 509.68 387.25 518.25 389.33 527.05 C 389.77 528.78 390.28 530.90 392.13 531.65 C 394.77 533.19 398.71 531.73 399.37 528.65 C 402.98 514.69 407.31 500.52 415.60 488.54 C 424.92 476.46 439.66 470.20 453.88 465.90 C 458.53 464.47 457.51 456.92 452.86 456.25 C 439.75 452.67 427.07 446.41 417.55 436.56 C 407.64 424.16 403.17 408.53 399.23 393.42 C 398.51 390.57 394.96 389.41 392.46 390.62 M 170.49 420.67 C 168.12 422.14 168.33 425.74 170.61 427.20 C 187.72 441.41 206.13 454.21 226.09 464.09 C 229.02 465.69 232.57 461.85 230.95 459.02 C 230.29 457.42 228.55 456.81 227.18 455.99 C 209.25 446.54 192.52 434.97 176.75 422.28 C 175.07 420.81 172.71 419.17 170.49 420.67 M 614.51 420.68 C 598.08 433.88 580.83 446.16 562.13 455.99 C 560.48 456.91 558.22 457.74 558.10 459.97 C 557.48 462.62 560.45 465.21 562.98 464.29 C 583.21 453.94 602.13 441.08 619.45 426.38 C 622.45 423.44 617.92 418.15 614.51 420.68 M 164.36 451.35 C 162.82 452.23 161.99 454.28 162.66 455.98 C 170.64 483.74 177.78 511.76 183.51 540.07 C 184.20 543.12 184.48 546.31 185.69 549.22 C 187.80 552.79 193.96 550.27 192.60 546.15 C 187.06 516.88 179.86 487.94 171.78 459.26 C 170.98 456.78 170.72 454.00 169.07 451.89 C 167.74 450.88 165.84 450.27 164.36 451.35 M 621.20 451.28 C 619.21 452.03 618.99 454.41 618.32 456.14 C 610.05 484.39 603.04 513.02 597.33 541.89 C 596.98 543.93 596.38 545.98 596.60 548.08 C 597.35 551.53 603.34 551.80 604.03 548.17 C 610.01 517.05 617.64 486.25 626.47 455.82 C 627.69 452.82 623.95 449.69 621.20 451.28 Z" style="fill: none !important;"/>
<path fill="#fefefe" opacity="1.00" d=" M 217.43 262.74 C 224.00 260.72 231.41 261.90 237.05 265.81 C 244.47 270.84 248.84 280.14 247.51 289.07 C 245.98 301.49 233.45 311.54 220.92 309.53 C 208.27 308.23 198.46 295.41 200.16 282.88 C 201.19 273.53 208.36 265.20 217.43 262.74 Z" style="fill: none !important;"/>
<path fill="#fefefe" opacity="1.00" d=" M 559.42 262.57 C 572.13 258.72 586.61 267.98 588.90 280.94 C 591.63 292.74 583.62 305.69 572.00 308.82 C 563.34 311.44 553.30 308.47 547.52 301.50 C 541.80 295.21 540.27 285.79 542.91 277.82 C 545.41 270.40 551.95 264.67 559.42 262.57 Z" style="fill: none !important;"/>
<path fill="#fefefe" opacity="1.00" d=" M 681.52 286.74 C 697.58 283.68 714.18 295.95 716.79 311.91 C 719.98 328.41 707.08 346.12 690.18 347.50 C 674.04 350.14 657.77 337.22 656.04 321.11 C 653.49 305.19 665.76 289.21 681.52 286.74 Z" style="fill: none !important;"/>
<path fill="#fefefe" opacity="1.00" d=" M 96.08 287.04 C 109.57 283.86 124.72 291.17 130.39 303.87 C 137.28 317.04 132.31 334.72 119.82 342.64 C 110.44 349.12 97.22 349.58 87.46 343.65 C 75.49 336.80 69.27 321.29 73.39 308.09 C 76.50 297.67 85.55 289.51 96.08 287.04 Z" style="fill: none !important;"/>
<path fill="#000201" opacity="1.00" d=" M 379.69 304.49 C 380.84 301.44 385.84 301.59 386.46 304.95 C 386.51 308.90 384.32 312.53 383.23 316.28 C 366.93 359.25 345.53 400.40 318.79 437.83 C 318.01 439.28 316.44 439.86 315.00 440.44 C 312.30 439.63 309.79 436.65 311.84 433.94 C 336.61 399.88 356.48 362.39 372.18 323.35 C 374.71 317.08 376.97 310.69 379.69 304.49 Z" style="fill: rgb(0, 0, 0) !important;"/>
<path fill="#010201" opacity="1.00" d=" M 404.56 302.66 C 406.99 301.32 409.64 303.23 410.21 305.68 C 426.23 348.71 446.83 390.19 473.08 427.92 C 474.72 430.57 477.48 432.77 477.99 435.98 C 478.25 439.69 472.65 441.57 470.79 438.29 C 452.12 412.57 436.44 384.79 422.80 356.11 C 415.44 340.35 408.53 324.35 402.84 307.91 C 401.95 306.01 402.63 303.58 404.56 302.66 Z" style="fill: rgb(0, 0, 0) !important;"/>
<path fill="#fefefe" opacity="1.00" d=" M 227.68 319.99 C 231.20 319.43 234.61 318.37 237.95 317.15 C 256.95 348.10 280.15 376.66 307.63 400.50 C 300.97 410.39 294.04 420.12 286.18 429.10 C 281.59 434.19 276.90 439.41 271.01 443.02 C 265.47 446.33 258.75 444.67 253.08 442.62 C 236.89 436.79 222.35 427.30 208.23 417.64 C 220.49 386.58 225.96 353.22 227.68 319.99 Z" style="fill: none !important;"/>
<path fill="#fefefe" opacity="1.00" d=" M 551.20 317.17 C 554.62 318.29 558.09 319.24 561.64 319.91 C 562.91 353.25 568.90 386.61 581.10 417.74 C 572.91 423.62 564.24 428.81 555.44 433.73 C 546.74 438.25 537.90 442.99 528.16 444.77 C 523.95 445.74 519.58 444.26 516.15 441.81 C 510.42 437.66 505.72 432.29 501.16 426.93 C 494.06 418.54 487.63 409.59 481.64 400.39 C 496.67 387.56 510.31 373.15 522.66 357.73 C 533.04 344.85 542.75 331.40 551.20 317.17 Z" style="fill: none !important;"/>
<path fill="#010201" opacity="1.00" d=" M 43.44 381.58 C 45.18 380.71 46.99 381.76 48.58 382.44 C 73.93 394.34 95.65 413.90 109.85 438.06 C 111.33 440.52 108.73 443.93 105.98 443.36 C 103.70 443.26 102.53 441.11 101.46 439.42 C 87.73 417.18 67.05 399.45 43.34 388.59 C 40.34 387.44 40.51 382.68 43.44 381.58 Z" style="fill: rgb(0, 0, 0) !important;"/>
<path fill="#010201" opacity="1.00" d=" M 742.51 381.63 C 744.87 380.32 748.07 382.19 747.95 384.92 C 748.23 387.14 746.29 388.53 744.50 389.27 C 721.83 399.73 702.29 416.86 688.81 437.85 C 687.22 440.08 686.17 443.63 682.88 443.65 C 679.80 443.77 677.92 439.88 679.71 437.44 C 694.33 413.06 716.42 393.06 742.51 381.63 Z" style="fill: rgb(0, 0, 0) !important;"/>
<path fill="#000201" opacity="1.00" d=" M 392.46 390.62 C 394.96 389.41 398.51 390.57 399.23 393.42 C 403.17 408.53 407.64 424.16 417.55 436.56 C 427.07 446.41 439.75 452.67 452.86 456.25 C 457.51 456.92 458.53 464.47 453.88 465.90 C 439.66 470.20 424.92 476.46 415.60 488.54 C 407.31 500.52 402.98 514.69 399.37 528.65 C 398.71 531.73 394.77 533.19 392.13 531.65 C 390.28 530.90 389.77 528.78 389.33 527.05 C 387.25 518.25 384.25 509.68 380.74 501.36 C 377.48 494.12 373.48 486.88 367.24 481.79 C 359.92 475.52 351.09 471.30 342.08 468.08 C 339.38 467.01 336.26 466.84 333.88 465.10 C 330.87 462.57 332.30 457.07 336.16 456.31 C 344.71 453.83 353.24 450.73 360.61 445.62 C 365.94 442.09 371.23 438.14 374.69 432.66 C 382.46 421.18 386.41 407.67 389.73 394.36 C 390.10 392.80 390.91 391.27 392.46 390.62 M 394.67 413.87 C 390.94 425.05 386.04 436.23 377.91 444.94 C 370.73 451.90 362.11 457.34 352.94 461.29 C 362.72 465.75 372.30 471.30 379.43 479.50 C 386.67 487.99 390.93 498.47 394.69 508.86 C 398.18 498.47 402.53 488.10 409.64 479.62 C 416.74 471.33 426.40 465.79 436.23 461.35 C 426.08 456.65 416.13 450.78 408.82 442.16 C 402.13 433.89 397.95 423.90 394.67 413.87 Z" style="fill: rgb(0, 0, 0) !important;"/>
<path fill="#ffffff" opacity="1.00" d=" M 394.67 413.87 C 397.95 423.90 402.13 433.89 408.82 442.16 C 416.13 450.78 426.08 456.65 436.23 461.35 C 426.40 465.79 416.74 471.33 409.64 479.62 C 402.53 488.10 398.18 498.47 394.69 508.86 C 390.93 498.47 386.67 487.99 379.43 479.50 C 372.30 471.30 362.72 465.75 352.94 461.29 C 362.11 457.34 370.73 451.90 377.91 444.94 C 386.04 436.23 390.94 425.05 394.67 413.87 Z" style="fill: none !important;"/>
<path fill="#010201" opacity="1.00" d=" M 170.49 420.67 C 172.71 419.17 175.07 420.81 176.75 422.28 C 192.52 434.97 209.25 446.54 227.18 455.99 C 228.55 456.81 230.29 457.42 230.95 459.02 C 232.57 461.85 229.02 465.69 226.09 464.09 C 206.13 454.21 187.72 441.41 170.61 427.20 C 168.33 425.74 168.12 422.14 170.49 420.67 Z" style="fill: rgb(0, 0, 0) !important;"/>
<path fill="#010201" opacity="1.00" d=" M 614.51 420.68 C 617.92 418.15 622.45 423.44 619.45 426.38 C 602.13 441.08 583.21 453.94 562.98 464.29 C 560.45 465.21 557.48 462.62 558.10 459.97 C 558.22 457.74 560.48 456.91 562.13 455.99 C 580.83 446.16 598.08 433.88 614.51 420.68 Z" style="fill: rgb(0, 0, 0) !important;"/>
<path fill="#000201" opacity="1.00" d=" M 66.16 445.06 C 68.39 444.35 71.13 445.77 71.77 448.06 C 74.63 456.03 76.17 464.50 80.00 472.11 C 80.84 473.83 82.49 474.92 84.13 475.79 C 91.06 479.43 98.71 481.30 106.07 483.81 C 109.82 485.09 110.36 490.98 106.72 492.71 C 99.02 495.75 90.68 497.30 83.42 501.44 C 80.73 502.91 79.45 505.88 78.37 508.60 C 76.07 514.63 74.14 520.80 72.63 527.08 C 72.16 528.82 71.69 531.00 69.80 531.75 C 67.03 533.36 63.07 531.67 62.43 528.50 C 60.20 520.66 58.20 512.68 54.70 505.28 C 53.63 502.79 51.28 501.24 48.90 500.14 C 42.43 497.15 35.46 495.48 28.74 493.18 C 24.79 491.85 24.54 485.83 28.12 483.92 C 36.65 480.69 46.37 479.38 53.62 473.52 C 58.26 465.71 59.93 456.58 62.89 448.08 C 63.32 446.55 64.68 445.50 66.16 445.06 M 60.81 480.78 C 56.87 484.52 51.70 486.62 46.63 488.33 C 51.46 490.20 56.62 491.93 60.34 495.72 C 64.07 499.51 65.58 504.76 67.29 509.65 C 69.27 503.83 71.35 497.41 76.64 493.72 C 79.84 491.19 83.96 490.37 87.35 488.18 C 82.84 486.48 78.22 484.66 74.55 481.45 C 70.73 477.75 69.07 472.55 67.28 467.70 C 65.73 472.30 64.11 477.11 60.81 480.78 Z" style="fill: rgb(0, 0, 0) !important;"/>
<path fill="#000201" opacity="1.00" d=" M 719.46 450.68 C 721.96 449.14 725.79 450.31 726.51 453.31 C 728.73 461.21 730.77 469.24 734.34 476.68 C 735.15 478.44 736.57 479.88 738.32 480.75 C 745.45 484.46 753.35 486.27 760.87 488.99 C 764.62 490.65 764.43 496.87 760.49 498.18 C 752.71 500.68 744.63 502.62 737.49 506.72 C 734.65 508.31 733.75 511.64 732.55 514.42 C 729.96 520.71 728.29 527.31 726.64 533.89 C 725.66 538.22 718.92 538.72 717.36 534.54 C 714.93 526.44 712.99 518.12 709.31 510.46 C 708.57 508.73 707.26 507.31 705.61 506.44 C 698.56 502.40 690.52 500.68 682.90 498.13 C 679.13 496.52 679.08 490.48 682.86 488.87 C 690.31 486.32 698.11 484.55 705.19 480.96 C 707.08 480.05 708.65 478.53 709.51 476.61 C 712.70 469.72 714.60 462.35 716.68 455.07 C 717.10 453.36 717.87 451.61 719.46 450.68 M 721.89 472.72 C 719.99 477.79 718.18 483.26 714.05 487.00 C 710.31 490.21 705.52 491.72 701.07 493.63 C 706.07 495.28 711.25 497.17 715.10 500.91 C 718.68 504.58 720.18 509.64 721.88 514.34 C 723.44 509.76 725.05 504.98 728.33 501.31 C 732.10 497.27 737.58 495.81 742.31 493.29 C 737.57 491.45 732.51 489.80 728.81 486.15 C 725.15 482.51 723.39 477.53 721.89 472.72 Z" style="fill: rgb(0, 0, 0) !important;"/>
<path fill="#000201" opacity="1.00" d=" M 164.36 451.35 C 165.84 450.27 167.74 450.88 169.07 451.89 C 170.72 454.00 170.98 456.78 171.78 459.26 C 179.86 487.94 187.06 516.88 192.60 546.15 C 193.96 550.27 187.80 552.79 185.69 549.22 C 184.48 546.31 184.20 543.12 183.51 540.07 C 177.78 511.76 170.64 483.74 162.66 455.98 C 161.99 454.28 162.82 452.23 164.36 451.35 Z" style="fill: rgb(0, 0, 0) !important;"/>
<path fill="#000201" opacity="1.00" d=" M 621.20 451.28 C 623.95 449.69 627.69 452.82 626.47 455.82 C 617.64 486.25 610.01 517.05 604.03 548.17 C 603.34 551.80 597.35 551.53 596.60 548.08 C 596.38 545.98 596.98 543.93 597.33 541.89 C 603.04 513.02 610.05 484.39 618.32 456.14 C 618.99 454.41 619.21 452.03 621.20 451.28 Z" style="fill: rgb(0, 0, 0) !important;"/>
<path fill="#fefefe" opacity="1.00" d=" M 60.81 480.78 C 64.11 477.11 65.73 472.30 67.28 467.70 C 69.07 472.55 70.73 477.75 74.55 481.45 C 78.22 484.66 82.84 486.48 87.35 488.18 C 83.96 490.37 79.84 491.19 76.64 493.72 C 71.35 497.41 69.27 503.83 67.29 509.65 C 65.58 504.76 64.07 499.51 60.34 495.72 C 56.62 491.93 51.46 490.20 46.63 488.33 C 51.70 486.62 56.87 484.52 60.81 480.78 Z" style="fill: none !important;"/>
<path fill="#ffffff" opacity="1.00" d=" M 721.89 472.72 C 723.39 477.53 725.15 482.51 728.81 486.15 C 732.51 489.80 737.57 491.45 742.31 493.29 C 737.58 495.81 732.10 497.27 728.33 501.31 C 725.05 504.98 723.44 509.76 721.88 514.34 C 720.18 509.64 718.68 504.58 715.10 500.91 C 711.25 497.17 706.07 495.28 701.07 493.63 C 705.52 491.72 710.31 490.21 714.05 487.00 C 718.18 483.26 719.99 477.79 721.89 472.72 Z" style="fill: none !important;"/>
<path fill="#000201" opacity="1.00" d=" M 114.17 535.02 C 118.84 533.30 124.71 536.21 125.90 541.11 C 127.60 546.30 123.59 552.52 118.07 552.83 C 113.62 553.36 109.12 550.22 108.19 545.82 C 106.94 541.37 109.82 536.39 114.17 535.02 Z" style="fill: rgb(0, 0, 0) !important;"/>
<path fill="#000201" opacity="1.00" d=" M 669.35 542.54 C 676.76 539.91 683.96 549.20 679.83 555.76 C 676.86 561.92 667.29 561.92 664.02 556.06 C 660.67 551.15 663.83 544.07 669.35 542.54 Z" style="fill: rgb(0, 0, 0) !important;"/>
<path fill="#ffffff" opacity="1.00" d=" M 287.10 569.46 C 363.63 563.58 440.64 564.19 517.11 570.68 C 541.89 572.89 566.63 575.98 591.00 581.11 C 597.67 582.62 604.39 584.16 610.75 586.74 C 610.39 590.25 610.10 593.77 609.81 597.30 C 603.42 600.00 599.33 606.28 597.99 612.91 C 595.45 623.64 599.14 636.90 609.75 641.83 C 610.04 645.98 610.42 650.13 611.02 654.26 C 590.89 648.03 569.89 645.34 549.04 642.79 C 495.64 636.44 441.82 634.23 388.06 634.54 C 337.99 634.64 287.90 637.13 238.17 643.08 C 217.98 645.38 197.73 648.28 178.24 654.19 C 178.88 650.06 179.20 645.90 179.39 641.74 C 187.80 638.13 192.12 628.74 191.93 619.96 C 192.07 610.97 188.17 600.90 179.39 597.19 C 179.10 593.67 178.79 590.15 178.48 586.64 C 190.58 582.01 203.43 579.84 216.15 577.63 C 239.62 573.57 263.36 571.32 287.10 569.46 M 387.38 578.60 C 381.03 580.76 375.40 585.67 373.31 592.16 C 370.47 600.11 372.34 609.62 378.39 615.61 C 386.13 623.76 400.02 624.75 408.85 617.78 C 419.28 610.08 420.26 593.09 411.05 584.07 C 404.96 578.08 395.48 575.78 387.38 578.60 M 269.49 585.71 C 260.61 587.95 254.06 596.87 254.40 606.01 C 254.52 615.39 261.78 624.18 271.12 625.68 C 281.26 628.02 292.14 620.95 294.65 610.96 C 297.36 601.77 292.47 591.25 283.94 587.06 C 279.47 584.95 274.27 584.37 269.49 585.71 M 509.42 585.59 C 500.70 587.62 494.11 596.07 494.06 604.99 C 493.70 613.21 498.88 621.39 506.53 624.47 C 510.48 626.04 514.92 626.63 519.08 625.56 C 528.02 623.70 534.97 615.08 534.95 605.96 C 535.19 599.22 531.67 592.62 526.26 588.71 C 521.46 585.23 515.13 584.29 509.42 585.59 Z" style="fill: none !important;"/>
<path fill="#000201" opacity="1.00" d=" M 387.38 578.60 C 395.48 575.78 404.96 578.08 411.05 584.07 C 420.26 593.09 419.28 610.08 408.85 617.78 C 400.02 624.75 386.13 623.76 378.39 615.61 C 372.34 609.62 370.47 600.11 373.31 592.16 C 375.40 585.67 381.03 580.76 387.38 578.60 M 391.14 588.05 C 384.86 589.81 380.87 596.98 382.81 603.23 C 384.44 609.63 391.71 613.85 398.07 611.94 C 404.11 610.50 408.05 603.87 406.86 597.85 C 405.83 590.83 397.94 585.75 391.14 588.05 Z" style="fill: rgb(0, 0, 0) !important;"/>
<path fill="#000201" opacity="1.00" d=" M 269.49 585.71 C 274.27 584.37 279.47 584.95 283.94 587.06 C 292.47 591.25 297.36 601.77 294.65 610.96 C 292.14 620.95 281.26 628.02 271.12 625.68 C 261.78 624.18 254.52 615.39 254.40 606.01 C 254.06 596.87 260.61 587.95 269.49 585.71 M 272.36 595.56 C 267.17 596.95 263.47 602.85 265.05 608.11 C 266.22 612.86 271.17 616.39 276.06 615.70 C 281.93 615.17 286.47 608.75 284.71 603.06 C 283.46 597.79 277.67 594.00 272.36 595.56 Z" style="fill: rgb(0, 0, 0) !important;"/>
<path fill="#000201" opacity="1.00" d=" M 509.42 585.59 C 515.13 584.29 521.46 585.23 526.26 588.71 C 531.67 592.62 535.19 599.22 534.95 605.96 C 534.97 615.08 528.02 623.70 519.08 625.56 C 514.92 626.63 510.48 626.04 506.53 624.47 C 498.88 621.39 493.70 613.21 494.06 604.99 C 494.11 596.07 500.70 587.62 509.42 585.59 M 511.49 595.69 C 507.20 597.06 503.97 601.43 504.33 605.99 C 504.50 611.43 509.60 616.14 515.05 615.76 C 520.86 615.65 525.56 609.71 524.50 604.04 C 523.80 598.10 517.21 593.72 511.49 595.69 Z" style="fill: rgb(0, 0, 0) !important;"/>
<path fill="#ffffff" opacity="1.00" d=" M 391.14 588.05 C 397.94 585.75 405.83 590.83 406.86 597.85 C 408.05 603.87 404.11 610.50 398.07 611.94 C 391.71 613.85 384.44 609.63 382.81 603.23 C 380.87 596.98 384.86 589.81 391.14 588.05 Z" style="fill: none !important;"/>
<path fill="#ffffff" opacity="1.00" d=" M 272.36 595.56 C 277.67 594.00 283.46 597.79 284.71 603.06 C 286.47 608.75 281.93 615.17 276.06 615.70 C 271.17 616.39 266.22 612.86 265.05 608.11 C 263.47 602.85 267.17 596.95 272.36 595.56 Z" style="fill: none !important;"/>
<path fill="#ffffff" opacity="1.00" d=" M 511.49 595.69 C 517.21 593.72 523.80 598.10 524.50 604.04 C 525.56 609.71 520.86 615.65 515.05 615.76 C 509.60 616.14 504.50 611.43 504.33 605.99 C 503.97 601.43 507.20 597.06 511.49 595.69 Z" style="fill: none !important;"/>
<path fill="#ffffff" opacity="1.00" d=" M 173.18 607.22 C 175.56 606.38 177.78 608.14 179.04 610.00 C 181.95 614.34 182.30 620.01 181.00 624.97 C 180.07 628.24 177.73 632.21 173.91 632.18 C 169.44 630.55 167.67 625.39 167.33 621.04 C 167.00 616.02 168.21 609.61 173.18 607.22 Z" style="fill: none !important;"/>
<path fill="#ffffff" opacity="1.00" d=" M 612.47 607.73 C 614.33 606.41 616.87 607.13 618.26 608.78 C 622.03 612.77 622.43 618.76 621.52 623.91 C 620.78 627.42 618.75 631.21 615.05 632.25 C 611.78 631.99 609.74 628.93 608.65 626.15 C 606.57 620.07 607.03 611.93 612.47 607.73 Z" style="fill: none !important;"/>
<path fill="#ffffff" opacity="1.00" d=" M 250.85 651.89 C 302.71 646.49 354.89 644.45 407.01 644.75 C 458.79 645.38 510.63 647.85 561.99 654.69 C 577.18 657.10 592.48 659.39 607.25 663.83 C 612.31 665.59 617.90 666.89 621.82 670.81 C 614.22 675.83 605.21 677.95 596.50 680.17 C 573.97 685.23 551.02 688.22 528.05 690.39 C 476.18 694.93 424.06 696.46 372.00 695.70 C 325.64 695.01 279.20 693.17 233.18 687.21 C 217.15 684.93 201.09 682.45 185.42 678.27 C 179.20 676.35 172.58 674.64 167.50 670.36 C 174.07 665.48 182.27 663.71 190.03 661.61 C 210.06 657.08 230.43 654.07 250.85 651.89 Z" style="fill: none !important;"/>
</svg>