<svg xmlns="http://www.w3.org/2000/svg" width="2000" height="2000" viewBox="0 0 1215 1215" version="1.1" style="">
<path fill="#ffffff" opacity="1.00" d=" M 0.00 0.00 L 1215.00 0.00 L 1215.00 1215.00 L 0.00 1215.00 L 0.00 0.00 M 875.68 121.49 C 873.59 125.53 871.67 129.65 869.64 133.72 C 868.32 136.20 867.07 138.72 866.24 141.41 C 859.00 142.68 851.63 143.12 844.45 144.62 C 840.71 145.46 840.54 150.83 843.18 152.97 C 847.89 157.69 852.65 162.38 857.49 166.98 C 856.68 172.13 855.45 177.24 855.28 182.47 L 854.66 182.51 C 854.53 185.00 854.19 187.51 854.40 190.01 C 854.91 192.02 857.17 192.56 858.80 193.36 C 865.87 190.57 872.20 186.18 879.22 183.31 C 886.62 185.43 892.80 190.76 900.06 193.44 C 901.80 192.78 903.34 191.74 904.62 190.38 C 904.53 188.10 904.42 185.82 904.32 183.55 L 903.67 183.47 C 903.55 181.48 903.41 179.49 903.33 177.51 L 902.73 177.48 C 902.63 173.88 901.52 170.42 901.17 166.85 C 906.22 162.33 911.13 157.64 915.93 152.85 C 917.41 151.57 917.47 149.58 917.62 147.78 C 916.46 146.19 915.25 144.27 913.07 144.17 C 906.36 143.04 899.57 142.36 892.87 141.14 C 892.59 140.62 892.05 139.57 891.78 139.05 C 891.26 137.99 890.74 136.94 890.26 135.88 C 889.40 134.29 888.57 132.68 887.77 131.06 C 887.13 129.71 886.48 128.37 885.79 127.06 C 885.29 125.99 884.81 124.92 884.38 123.84 C 882.95 120.28 878.70 119.27 875.68 121.49 M 540.20 178.06 C 539.68 179.34 539.18 180.62 538.66 181.89 C 538.54 182.42 538.28 183.48 538.16 184.02 C 537.15 186.81 536.54 189.72 535.71 192.57 C 535.53 194.20 535.38 195.84 535.27 197.49 L 534.67 197.56 C 534.22 207.34 533.62 217.31 536.13 226.89 C 536.44 228.22 536.76 229.56 537.14 230.88 C 537.44 231.92 537.77 232.95 538.10 233.98 C 538.45 234.97 538.81 235.95 539.18 236.94 C 539.99 239.00 540.84 241.05 541.72 243.08 C 541.97 243.58 542.45 244.58 542.69 245.08 C 542.94 245.59 543.45 246.59 543.70 247.10 C 549.90 258.90 561.61 267.13 565.79 280.09 C 566.68 282.71 567.41 285.37 568.22 288.01 C 568.73 293.99 569.61 299.94 569.28 305.96 C 569.55 312.92 568.58 320.03 570.07 326.89 C 570.44 327.88 570.82 328.88 571.20 329.89 C 573.39 334.62 577.75 337.89 582.60 339.56 C 583.03 341.71 583.49 343.87 584.13 345.98 C 588.95 359.51 603.86 368.13 617.99 366.05 C 628.92 364.84 638.69 357.20 642.80 347.05 C 643.26 345.72 643.71 344.39 644.23 343.08 C 644.35 341.97 644.49 340.86 644.62 339.76 C 650.44 338.11 654.83 333.55 656.96 327.99 C 657.48 326.21 657.62 324.35 657.76 322.52 L 658.32 322.50 C 658.11 317.58 658.49 312.65 658.12 307.74 L 657.23 307.01 L 658.09 306.24 C 658.42 300.34 658.08 294.42 658.68 288.53 L 659.26 288.44 C 659.38 286.94 659.57 285.45 660.01 284.01 C 660.39 282.69 660.77 281.37 661.15 280.06 C 662.95 274.95 665.94 270.38 669.21 266.10 C 673.91 260.75 678.62 255.35 682.28 249.20 C 684.29 245.54 686.20 241.81 687.67 237.90 C 688.15 236.59 688.63 235.29 689.13 233.99 C 690.11 230.19 691.46 226.45 691.70 222.50 L 692.28 222.40 C 692.80 213.92 693.07 205.39 692.20 196.92 C 691.02 190.76 689.46 184.69 687.23 178.82 C 686.37 176.92 685.55 175.00 684.69 173.11 C 671.72 146.95 643.34 128.78 613.96 129.29 C 582.55 128.65 551.92 148.93 540.20 178.06 M 359.64 175.76 C 359.03 178.54 359.36 181.41 359.50 184.22 C 361.00 187.23 363.04 190.16 366.15 191.66 C 372.09 194.97 379.89 192.70 383.53 187.07 C 383.53 186.84 383.55 186.37 383.56 186.13 C 384.56 184.22 384.80 182.05 385.34 179.99 C 384.80 178.02 384.34 176.04 383.78 174.08 C 381.93 171.65 379.91 169.11 376.95 168.02 C 370.37 165.34 362.14 169.20 359.64 175.76 M 501.44 228.59 C 488.47 232.62 475.43 236.57 463.00 242.10 C 424.92 258.09 389.27 279.91 358.04 306.95 C 344.41 319.08 331.63 332.17 319.67 345.94 C 317.36 349.84 318.16 355.37 322.03 357.99 C 325.93 361.18 331.90 359.51 334.69 355.65 C 341.10 347.81 348.23 340.60 355.49 333.55 C 396.92 292.95 448.47 262.95 504.00 246.32 C 506.88 245.59 509.80 243.98 510.81 241.00 C 513.86 234.93 508.16 226.96 501.44 228.59 M 715.96 234.98 C 714.38 239.78 717.79 245.13 722.65 246.14 C 747.75 254.09 772.34 263.98 795.20 277.12 C 832.33 297.50 865.32 325.03 893.38 356.65 C 896.31 360.19 902.19 360.80 905.55 357.53 C 908.64 355.09 909.59 350.29 907.56 346.91 C 907.55 346.69 907.53 346.24 907.52 346.02 C 860.24 291.27 797.20 250.35 728.01 229.30 C 723.21 227.19 717.39 229.98 715.96 234.98 M 206.28 246.10 C 202.19 255.36 196.89 264.08 193.10 273.46 C 189.21 275.03 184.94 275.07 180.85 275.77 C 174.12 276.86 167.32 277.53 160.63 278.84 C 158.57 279.20 157.58 281.13 156.58 282.74 C 156.57 283.58 156.56 284.43 156.54 285.28 C 157.60 286.91 158.76 288.49 160.15 289.86 C 166.89 296.72 173.98 303.23 180.83 309.98 C 180.70 312.34 180.51 314.70 180.17 317.04 C 179.60 318.67 179.42 320.38 179.18 322.09 C 178.31 325.72 177.66 329.40 177.18 333.10 C 176.34 336.74 175.57 340.42 175.36 344.16 C 176.74 346.05 178.44 347.96 180.94 348.18 C 183.53 347.76 185.77 346.29 188.05 345.09 C 194.99 341.16 202.13 337.60 209.09 333.70 C 210.17 333.12 211.46 332.25 212.68 333.09 C 221.75 337.72 230.78 342.44 239.77 347.23 C 242.34 348.67 245.95 347.92 247.38 345.24 C 248.42 340.78 246.55 336.40 246.08 332.00 C 245.62 330.34 245.37 328.63 245.11 326.94 C 244.62 325.30 244.40 323.60 244.16 321.92 C 243.61 319.97 243.38 317.96 243.11 315.97 C 242.50 314.11 242.38 312.16 242.34 310.23 C 250.01 302.91 257.62 295.53 265.07 287.99 C 268.24 285.30 266.86 279.41 262.62 278.71 C 252.40 276.94 242.04 275.87 231.83 274.05 C 230.21 273.77 229.58 272.30 229.27 270.87 C 226.54 265.56 223.99 260.16 221.32 254.81 C 220.09 252.26 218.85 249.71 217.69 247.12 C 216.69 244.64 215.11 241.62 212.05 241.53 C 209.23 241.33 207.07 243.58 206.28 246.10 M 931.24 267.15 C 928.79 270.58 929.14 275.05 929.91 278.98 C 932.40 285.17 939.63 288.71 946.06 286.82 C 952.36 285.13 956.07 278.27 955.33 271.99 C 954.23 269.19 953.10 266.22 950.61 264.34 C 945.00 259.28 935.29 260.90 931.24 267.15 M 1060.27 377.15 C 1056.90 383.88 1053.65 390.66 1050.46 397.48 C 1049.88 399.31 1047.70 399.36 1046.16 399.64 C 1037.11 400.90 1028.09 402.32 1019.04 403.55 C 1016.79 403.75 1014.83 405.00 1013.45 406.74 C 1013.42 408.24 1013.39 409.73 1013.41 411.24 C 1021.53 419.76 1030.16 427.78 1038.68 435.89 C 1037.17 437.60 1037.54 439.97 1037.20 442.05 C 1036.32 445.69 1035.69 449.39 1035.16 453.10 C 1034.58 455.04 1034.40 457.07 1034.16 459.08 C 1033.58 461.34 1033.38 463.69 1032.76 465.95 C 1032.68 466.79 1032.50 468.47 1032.42 469.32 C 1033.92 472.15 1037.32 474.39 1040.48 472.61 C 1049.63 468.16 1058.45 463.03 1067.56 458.50 C 1069.16 457.58 1070.75 458.98 1072.20 459.59 C 1079.40 463.51 1086.69 467.26 1093.92 471.14 C 1096.44 472.47 1099.61 474.33 1102.33 472.34 C 1105.52 470.80 1104.49 466.75 1104.27 463.94 C 1103.42 461.89 1103.39 459.66 1103.32 457.50 L 1102.70 457.45 C 1102.58 455.61 1102.39 453.77 1102.18 451.95 C 1101.40 449.91 1101.34 447.72 1101.27 445.58 L 1100.65 445.53 C 1100.51 443.98 1100.35 442.44 1100.19 440.91 C 1099.52 438.99 1099.39 436.95 1099.26 434.94 C 1107.57 427.31 1115.84 419.57 1123.54 411.31 C 1123.56 409.72 1123.57 408.12 1123.58 406.54 C 1122.23 405.25 1120.80 403.85 1118.87 403.63 C 1108.93 402.21 1099.00 400.78 1089.07 399.31 C 1087.29 399.15 1086.60 397.40 1086.16 395.95 C 1085.33 394.34 1084.51 392.73 1083.71 391.13 C 1082.48 388.38 1081.14 385.70 1079.77 383.03 C 1078.05 378.92 1075.78 375.05 1074.23 370.87 C 1072.91 368.10 1070.17 365.60 1066.87 366.70 C 1062.82 368.61 1062.23 373.59 1060.27 377.15 M 325.15 405.38 C 321.47 406.48 318.73 409.99 318.68 413.84 C 318.66 430.11 318.68 446.37 318.65 462.64 C 307.76 462.63 296.88 462.56 286.00 462.65 C 278.39 462.63 271.01 467.01 267.61 473.86 C 267.10 475.26 266.55 476.65 265.96 478.04 C 265.61 479.68 265.36 481.35 265.35 483.04 C 265.32 609.68 265.36 736.32 265.36 862.96 C 265.35 864.96 265.53 866.98 266.02 868.94 C 266.42 869.93 266.81 870.93 267.19 871.94 C 270.67 879.01 278.15 883.83 286.00 884.19 C 291.35 884.37 296.71 884.28 302.06 884.32 C 380.06 884.33 458.06 884.38 536.07 884.31 C 537.28 884.43 538.73 884.08 539.79 884.91 C 545.74 896.73 554.93 906.79 565.60 914.54 C 582.90 926.93 605.13 931.41 626.07 928.59 C 652.27 925.30 676.14 908.04 687.72 884.33 C 693.81 884.12 699.93 884.58 706.01 884.09 C 711.58 883.24 714.76 876.75 712.49 871.72 C 710.94 869.04 708.30 866.98 705.12 866.85 C 698.76 866.63 692.39 866.85 686.02 866.75 C 682.78 866.79 679.17 866.35 676.38 868.37 C 673.81 870.10 672.96 873.24 671.69 875.90 C 671.23 876.96 670.75 878.01 670.30 879.09 C 670.04 879.59 669.53 880.59 669.27 881.09 C 661.43 894.84 647.84 904.80 632.77 909.26 C 617.69 913.48 600.99 912.90 586.68 906.28 C 573.78 900.48 562.88 890.33 556.25 877.84 C 555.20 875.52 554.11 873.22 553.23 870.85 C 551.34 868.25 548.33 866.58 545.07 866.79 C 459.69 866.75 374.31 866.75 288.92 866.67 C 286.26 866.95 283.80 865.63 282.59 863.24 C 282.61 736.08 282.52 608.91 282.61 481.75 C 283.94 481.05 285.29 480.15 286.88 480.32 C 297.48 480.35 308.08 480.35 318.68 480.37 C 318.62 595.28 318.72 710.19 318.63 825.11 C 319.94 829.87 325.01 833.65 330.01 832.01 C 348.38 826.36 367.06 821.57 386.08 818.61 C 430.66 811.81 477.07 814.41 519.94 828.86 C 542.12 836.08 563.19 846.60 582.40 859.82 C 591.30 865.72 599.78 872.22 608.21 878.78 C 611.45 881.46 616.53 881.66 619.70 878.74 C 638.68 862.96 659.50 849.23 682.06 839.12 C 685.76 837.34 690.09 836.01 692.33 832.28 C 692.56 830.80 692.90 829.36 693.36 827.96 C 692.78 822.65 687.48 817.93 682.06 819.96 C 674.48 822.75 667.38 826.68 660.18 830.32 C 646.95 837.04 634.22 844.80 622.53 853.96 C 622.43 725.20 622.40 596.44 622.51 467.68 C 642.56 451.81 664.23 437.63 687.85 427.63 C 709.19 418.19 731.98 412.26 755.05 409.00 C 781.55 404.99 808.58 404.73 835.13 408.44 C 853.85 411.15 872.64 414.39 890.60 420.50 C 890.56 473.01 890.60 525.53 890.57 578.05 C 890.50 579.83 891.07 581.53 891.49 583.26 C 893.61 586.35 897.30 588.52 901.15 587.70 C 904.69 587.29 907.03 584.24 908.40 581.21 C 908.35 547.58 908.41 513.95 908.33 480.33 C 919.66 480.41 930.99 480.18 942.32 480.44 C 942.83 480.81 943.86 481.54 944.37 481.91 C 944.72 508.26 944.42 534.63 944.53 560.98 C 944.72 573.01 944.15 585.06 944.80 597.08 C 946.56 600.46 950.00 603.25 954.02 602.82 C 958.32 602.82 961.51 599.11 962.33 595.13 C 962.27 557.40 962.41 519.67 962.26 481.95 C 961.85 480.59 961.53 479.21 961.27 477.84 C 960.74 476.61 960.25 475.38 959.74 474.16 C 956.44 467.51 949.49 462.81 942.01 462.68 C 930.79 462.53 919.57 462.65 908.36 462.65 C 908.41 445.71 908.32 428.76 908.39 411.82 C 907.15 408.87 905.04 406.05 901.81 405.17 C 866.78 393.59 829.83 387.64 792.92 388.22 C 753.43 388.46 713.84 396.38 677.81 412.73 C 657.06 421.82 637.28 433.35 619.68 447.66 C 617.68 449.32 615.68 450.99 613.44 452.31 C 590.66 433.10 564.40 418.36 536.83 407.24 C 514.67 398.57 491.36 392.91 467.74 390.16 C 419.86 384.84 370.79 389.90 325.15 405.38 M 184.02 490.46 C 177.96 492.70 174.34 499.70 175.96 505.94 C 177.73 511.49 182.99 516.15 189.03 515.85 C 194.55 516.10 199.23 512.12 201.48 507.35 C 201.80 503.88 202.17 500.29 200.95 496.95 C 198.02 490.90 190.25 487.74 184.02 490.46 M 1080.97 611.95 C 1079.97 615.51 1079.79 619.47 1081.13 622.97 C 1082.80 626.54 1086.07 629.27 1089.90 630.25 C 1095.61 631.91 1101.77 628.88 1104.70 623.88 C 1105.21 622.59 1105.74 621.31 1106.33 620.06 C 1106.59 617.26 1106.25 614.48 1105.38 611.82 C 1103.06 607.72 1098.95 604.36 1094.08 604.22 C 1088.57 603.64 1083.40 607.16 1080.97 611.95 M 813.48 620.47 C 785.79 631.15 761.71 650.10 743.24 673.17 C 739.04 678.51 735.23 684.14 731.76 689.98 C 730.23 692.69 728.67 695.38 727.27 698.16 C 726.45 699.76 725.61 701.36 724.76 702.95 C 723.53 705.65 722.23 708.34 721.18 711.13 C 720.43 712.73 719.75 714.37 719.18 716.06 C 718.67 717.35 718.17 718.64 717.66 719.94 C 717.11 721.61 716.57 723.29 716.06 724.98 C 715.73 725.99 715.42 727.02 715.13 728.05 C 713.47 733.63 711.93 739.27 711.12 745.05 C 710.58 747.01 710.36 749.05 710.15 751.08 C 709.36 753.82 709.34 756.68 709.31 759.52 L 708.68 759.51 C 708.21 769.84 708.28 780.19 708.67 790.52 L 709.30 790.48 C 709.38 793.65 709.34 796.88 710.20 799.96 C 710.63 803.64 711.32 807.28 712.16 810.89 C 712.45 812.23 712.76 813.59 713.12 814.94 C 713.41 816.25 713.73 817.60 714.10 818.92 C 714.72 821.26 715.41 823.59 716.17 825.90 C 716.50 826.88 716.84 827.86 717.20 828.85 C 717.68 830.27 718.20 831.69 718.70 833.13 C 719.38 834.77 720.01 836.43 720.62 838.11 C 721.48 840.02 722.36 841.94 723.24 843.87 C 723.87 845.22 724.53 846.56 725.21 847.92 C 725.87 849.25 726.55 850.60 727.24 851.95 C 743.48 882.65 769.50 907.84 800.29 923.78 C 820.08 933.74 841.91 939.69 864.05 940.89 C 903.48 943.73 943.77 931.54 975.03 907.32 C 982.45 914.59 989.68 922.06 997.19 929.25 C 995.18 932.46 990.62 934.56 991.31 938.97 C 990.77 944.32 995.84 947.48 999.12 950.83 C 1027.62 978.31 1055.31 1006.63 1083.80 1034.13 C 1090.57 1040.78 1099.60 1045.22 1109.11 1045.95 C 1126.26 1047.99 1143.73 1037.60 1150.82 1021.99 C 1151.72 1019.74 1152.52 1017.46 1153.26 1015.16 C 1153.43 1013.43 1153.69 1011.71 1154.22 1010.07 C 1154.86 1003.63 1153.98 997.11 1151.73 991.06 C 1150.71 988.60 1149.53 986.22 1148.27 983.89 C 1144.49 978.06 1139.10 973.63 1134.17 968.84 C 1108.13 943.55 1082.02 918.33 1056.03 892.98 C 1052.57 889.80 1049.37 884.89 1044.03 885.43 C 1040.36 885.31 1038.20 888.58 1035.32 890.23 C 1028.07 883.04 1020.99 875.64 1013.34 868.89 C 1013.25 867.06 1014.16 865.52 1015.25 864.14 C 1016.21 862.42 1017.18 860.71 1018.24 859.06 C 1021.21 853.44 1024.23 847.85 1026.70 841.99 C 1027.91 839.02 1029.07 836.02 1030.34 833.07 C 1031.11 830.66 1031.94 828.28 1032.76 825.90 C 1033.28 824.31 1033.71 822.69 1034.22 821.11 C 1034.48 820.04 1034.79 818.98 1035.14 817.95 C 1035.33 816.91 1035.53 815.89 1035.74 814.88 C 1036.25 812.96 1036.66 811.03 1037.18 809.12 C 1037.40 807.41 1037.67 805.72 1038.21 804.09 C 1038.40 802.21 1038.57 800.35 1038.68 798.49 L 1039.28 798.48 C 1039.37 795.48 1039.60 792.50 1039.68 789.51 L 1040.31 789.49 C 1040.50 780.83 1040.52 772.18 1040.30 763.53 L 1039.73 763.45 C 1039.64 760.13 1039.40 756.84 1039.31 753.54 L 1038.72 753.42 C 1038.62 751.25 1038.43 749.07 1038.20 746.93 C 1037.63 745.29 1037.41 743.59 1037.20 741.91 C 1036.72 740.27 1036.41 738.60 1036.13 736.94 C 1035.75 735.62 1035.43 734.27 1035.14 732.95 C 1034.74 731.64 1034.40 730.31 1034.10 729.00 C 1033.77 727.97 1033.47 726.95 1033.20 725.94 C 1032.83 724.90 1032.49 723.87 1032.18 722.85 C 1031.85 721.86 1031.55 720.87 1031.27 719.88 C 1030.77 718.59 1030.30 717.31 1029.81 716.03 C 1028.49 712.68 1027.16 709.34 1025.64 706.09 C 1025.01 704.72 1024.35 703.38 1023.67 702.06 C 1023.43 701.56 1022.95 700.54 1022.71 700.03 C 1021.20 696.95 1019.45 694.01 1017.75 691.05 C 1006.50 671.86 991.63 654.68 973.60 641.58 C 956.03 628.45 936.00 618.43 914.52 613.64 C 881.20 605.81 845.41 607.99 813.48 620.47 M 104.17 693.07 C 103.37 694.70 102.59 696.33 101.78 697.96 C 100.88 700.00 99.94 702.02 99.20 704.13 C 98.50 705.03 98.32 706.69 96.95 706.83 C 90.50 708.09 83.94 708.69 77.45 709.68 C 75.92 709.84 74.61 710.66 73.51 711.70 C 73.21 712.87 72.89 714.04 72.55 715.21 C 77.41 721.75 84.20 726.56 89.61 732.65 C 89.53 733.63 89.38 735.59 89.30 736.57 L 88.70 736.48 C 88.57 738.02 88.42 739.55 88.25 741.11 C 87.25 744.69 86.72 748.37 86.13 752.04 C 85.85 753.38 85.61 754.74 85.42 756.12 C 87.29 758.18 90.12 759.77 92.90 758.37 C 99.22 755.48 105.20 751.87 111.38 748.67 C 118.10 751.68 124.26 755.86 131.08 758.64 C 133.96 759.78 136.25 757.55 137.50 755.23 C 136.86 752.83 136.48 750.40 136.11 747.97 C 135.11 742.70 133.78 737.46 133.33 732.11 C 139.07 727.21 144.23 721.66 149.65 716.42 C 149.63 714.92 149.84 713.37 149.37 711.94 C 148.43 710.37 146.54 709.92 144.88 709.60 C 138.14 708.60 131.39 707.59 124.65 706.59 C 122.86 703.15 121.32 699.59 119.64 696.10 C 118.79 694.41 117.95 692.71 117.23 690.96 C 116.10 688.10 114.53 684.45 110.81 684.74 C 106.64 685.28 105.74 689.94 104.17 693.07 M 400.57 933.82 C 399.82 935.56 398.99 937.26 398.19 939.00 C 396.82 941.67 395.46 944.36 394.24 947.11 C 393.54 948.40 392.86 949.72 392.24 951.07 C 391.74 952.02 391.24 952.98 390.74 953.94 C 389.13 956.99 388.12 960.39 386.03 963.15 C 374.69 965.49 362.97 965.80 351.73 968.57 C 350.53 970.32 350.29 972.39 350.37 974.48 C 357.87 983.24 366.39 991.08 374.62 999.13 C 374.50 1000.76 374.36 1002.40 374.19 1004.06 C 373.55 1005.99 373.37 1008.01 373.11 1010.02 C 372.28 1013.67 371.70 1017.38 371.16 1021.10 C 370.42 1025.67 368.41 1030.46 369.92 1035.07 C 371.66 1036.89 374.53 1037.81 376.90 1036.65 C 386.70 1031.92 396.04 1026.26 405.87 1021.60 C 414.87 1026.87 424.27 1031.47 433.49 1036.33 C 436.16 1038.08 439.23 1036.85 441.43 1034.97 C 441.71 1032.29 441.65 1029.59 441.18 1026.96 C 440.58 1025.33 440.40 1023.59 440.17 1021.91 C 439.58 1019.95 439.42 1017.90 439.19 1015.91 C 438.62 1013.95 438.40 1011.92 438.18 1009.92 C 437.30 1006.37 436.59 1002.77 436.35 999.13 C 444.22 992.09 451.58 984.50 459.06 977.05 C 462.00 974.64 461.42 968.40 457.10 967.98 C 446.37 966.14 435.53 964.93 424.78 963.19 C 423.32 960.52 422.04 957.77 420.70 955.05 C 420.06 953.71 419.40 952.38 418.74 951.06 C 417.61 948.65 416.35 946.30 415.27 943.87 C 414.26 941.86 413.24 939.86 412.30 937.83 C 411.06 935.56 410.41 932.41 407.62 931.58 C 405.04 930.53 402.29 931.84 400.57 933.82 M 228.52 938.55 C 223.58 942.73 222.84 951.01 227.00 955.98 C 231.75 962.45 242.41 962.58 247.52 956.49 C 250.49 953.36 250.79 948.90 250.39 944.83 C 249.08 942.19 247.83 939.26 245.19 937.68 C 240.29 934.17 233.04 934.57 228.52 938.55 M 544.59 983.89 C 543.04 987.39 543.09 991.31 543.90 995.00 C 545.91 998.97 549.45 1002.36 553.98 1003.09 C 560.20 1004.45 566.49 1000.67 569.00 994.99 C 569.69 992.01 569.73 988.89 568.96 985.94 C 567.64 982.82 565.57 979.94 562.41 978.52 C 556.18 975.21 548.09 977.90 544.59 983.89 Z" style="fill: none !important;"/>
<path fill="#020403" opacity="1.00" d=" M 875.68 121.49 C 878.70 119.27 882.95 120.28 884.38 123.84 C 884.81 124.92 885.29 125.99 885.79 127.06 C 886.48 128.37 887.13 129.71 887.77 131.06 C 888.57 132.68 889.40 134.29 890.26 135.88 C 890.74 136.94 891.26 137.99 891.78 139.05 C 892.05 139.57 892.59 140.62 892.87 141.14 C 899.57 142.36 906.36 143.04 913.07 144.17 C 915.25 144.27 916.46 146.19 917.62 147.78 C 917.47 149.58 917.41 151.57 915.93 152.85 C 911.13 157.64 906.22 162.33 901.17 166.85 C 901.52 170.42 902.63 173.88 902.73 177.48 L 903.33 177.51 C 903.41 179.49 903.55 181.48 903.67 183.47 L 904.32 183.55 C 904.42 185.82 904.53 188.10 904.62 190.38 C 903.34 191.74 901.80 192.78 900.06 193.44 C 892.80 190.76 886.62 185.43 879.22 183.31 C 872.20 186.18 865.87 190.57 858.80 193.36 C 857.17 192.56 854.91 192.02 854.40 190.01 C 854.19 187.51 854.53 185.00 854.66 182.51 L 855.28 182.47 C 855.45 177.24 856.68 172.13 857.49 166.98 C 852.65 162.38 847.89 157.69 843.18 152.97 C 840.54 150.83 840.71 145.46 844.45 144.62 C 851.63 143.12 859.00 142.68 866.24 141.41 C 867.07 138.72 868.32 136.20 869.64 133.72 C 871.67 129.65 873.59 125.53 875.68 121.49 M 878.78 137.34 C 878.49 137.98 877.92 139.25 877.63 139.88 C 875.90 143.10 874.67 146.69 872.26 149.46 C 867.48 151.67 861.98 151.42 856.91 152.54 C 860.21 155.46 863.33 158.61 866.25 161.93 C 868.51 164.18 867.13 167.68 867.36 170.49 L 866.72 170.57 C 866.57 172.39 866.41 174.22 866.26 176.04 C 866.02 176.87 865.54 178.52 865.30 179.35 C 869.95 177.28 874.24 174.43 879.01 172.59 C 884.38 173.17 888.49 177.32 893.57 178.87 C 892.82 176.62 892.40 174.29 892.11 171.95 C 891.39 169.29 891.31 166.54 891.27 163.81 C 894.63 159.80 898.26 156.02 902.15 152.53 C 897.61 151.72 892.97 151.44 888.53 150.15 C 885.58 149.44 884.50 146.25 883.27 143.85 C 882.77 142.91 882.26 141.96 881.76 141.02 C 881.22 139.78 880.69 138.54 880.20 137.29 C 879.84 137.30 879.13 137.33 878.78 137.34 Z" style="fill: rgb(0, 0, 0) !important;"/>
<path fill="#020403" opacity="1.00" d=" M 540.20 178.06 C 551.92 148.93 582.55 128.65 613.96 129.29 C 643.34 128.78 671.72 146.95 684.69 173.11 C 685.55 175.00 686.37 176.92 687.23 178.82 C 689.46 184.69 691.02 190.76 692.20 196.92 C 693.07 205.39 692.80 213.92 692.28 222.40 L 691.70 222.50 C 691.46 226.45 690.11 230.19 689.13 233.99 C 688.63 235.29 688.15 236.59 687.67 237.90 C 686.20 241.81 684.29 245.54 682.28 249.20 C 678.62 255.35 673.91 260.75 669.21 266.10 C 665.94 270.38 662.95 274.95 661.15 280.06 C 660.77 281.37 660.39 282.69 660.01 284.01 C 659.57 285.45 659.38 286.94 659.26 288.44 L 658.68 288.53 C 658.08 294.42 658.42 300.34 658.09 306.24 L 657.23 307.01 L 658.12 307.74 C 658.49 312.65 658.11 317.58 658.32 322.50 L 657.76 322.52 C 657.62 324.35 657.48 326.21 656.96 327.99 C 654.83 333.55 650.44 338.11 644.62 339.76 C 644.49 340.86 644.35 341.97 644.23 343.08 C 643.71 344.39 643.26 345.72 642.80 347.05 C 638.69 357.20 628.92 364.84 617.99 366.05 C 603.86 368.13 588.95 359.51 584.13 345.98 C 583.49 343.87 583.03 341.71 582.60 339.56 C 577.75 337.89 573.39 334.62 571.20 329.89 C 570.82 328.88 570.44 327.88 570.07 326.89 C 568.58 320.03 569.55 312.92 569.28 305.96 C 569.61 299.94 568.73 293.99 568.22 288.01 C 567.41 285.37 566.68 282.71 565.79 280.09 C 561.61 267.13 549.90 258.90 543.70 247.10 C 543.45 246.59 542.94 245.59 542.69 245.08 C 542.45 244.58 541.97 243.58 541.72 243.08 C 540.84 241.05 539.99 239.00 539.18 236.94 C 538.81 235.95 538.45 234.97 538.10 233.98 C 537.77 232.95 537.44 231.92 537.14 230.88 C 536.76 229.56 536.44 228.22 536.13 226.89 C 533.62 217.31 534.22 207.34 534.67 197.56 L 535.27 197.49 C 535.38 195.84 535.53 194.20 535.71 192.57 C 536.54 189.72 537.15 186.81 538.16 184.02 C 538.28 183.48 538.54 182.42 538.66 181.89 C 539.18 180.62 539.68 179.34 540.20 178.06 M 592.53 150.43 C 577.76 155.78 565.14 166.99 558.23 181.11 C 556.54 184.74 554.84 188.44 554.16 192.41 L 553.68 192.45 C 553.51 193.64 553.34 194.84 553.16 196.03 C 551.44 202.36 551.50 208.98 551.69 215.48 L 552.29 215.53 C 552.34 217.70 552.34 219.93 553.03 222.02 C 553.66 225.44 554.79 228.74 556.06 231.97 C 560.84 245.22 572.72 253.85 579.23 266.04 C 580.12 268.02 581.03 270.01 581.89 272.01 C 582.34 273.31 582.77 274.61 583.25 275.91 C 583.52 276.93 583.80 277.94 584.10 278.96 C 584.41 280.29 584.73 281.64 585.17 282.95 C 585.52 285.40 585.74 287.88 585.88 290.35 C 592.14 290.82 598.43 290.46 604.71 290.57 C 604.74 274.72 604.58 258.86 604.86 243.01 C 604.97 242.38 605.21 241.11 605.33 240.47 C 598.92 233.98 591.48 228.43 585.93 221.09 C 585.01 218.48 585.26 215.66 585.94 213.03 C 588.51 209.23 593.99 206.92 598.01 209.99 C 603.69 214.87 608.26 220.94 614.02 225.76 C 618.51 221.66 622.53 217.09 626.57 212.56 C 628.47 210.45 630.96 208.28 634.02 208.65 C 637.71 208.81 640.90 211.48 641.94 214.99 C 643.03 217.82 641.61 220.70 639.77 222.83 C 635.12 228.17 630.03 233.11 624.54 237.58 C 623.66 238.54 622.03 239.29 622.27 240.85 C 622.26 257.42 622.28 273.99 622.32 290.57 C 628.62 290.53 634.93 290.65 641.22 290.40 C 641.32 288.24 641.46 286.07 642.03 283.97 C 642.35 282.34 642.64 280.70 643.08 279.10 C 643.57 277.34 644.10 275.61 644.64 273.87 C 645.33 272.21 646.02 270.55 646.67 268.88 C 652.77 255.62 665.71 246.83 670.70 232.90 C 671.19 231.62 671.68 230.34 672.21 229.08 C 672.50 228.05 672.81 227.03 673.14 226.02 C 673.47 224.70 673.82 223.38 674.23 222.09 C 674.46 220.40 674.70 218.70 675.20 217.06 C 675.69 211.70 675.68 206.28 675.20 200.92 C 674.63 199.30 674.43 197.59 674.23 195.90 C 673.84 194.60 673.49 193.29 673.16 191.98 C 672.82 190.96 672.50 189.93 672.20 188.91 C 671.68 187.63 671.18 186.34 670.68 185.06 C 669.95 183.30 669.18 181.57 668.36 179.85 C 662.19 168.14 652.20 158.44 640.13 152.94 C 625.50 145.64 607.83 144.68 592.53 150.43 M 586.63 307.79 C 586.59 311.94 586.73 316.10 586.51 320.26 C 587.34 321.44 588.27 322.92 589.96 322.75 C 604.30 322.84 618.65 322.70 632.99 322.79 C 635.34 322.74 637.81 322.99 640.03 322.01 C 640.83 317.43 640.14 312.72 640.44 308.10 C 622.52 307.48 604.56 307.94 586.63 307.79 M 600.79 339.80 C 602.48 346.18 609.92 349.82 616.18 348.75 C 620.93 348.18 624.22 344.28 626.89 340.67 C 626.08 340.03 625.18 339.74 624.18 339.80 C 616.38 339.80 608.59 339.77 600.79 339.80 Z" style="fill: rgb(0, 0, 0) !important;"/>
<path fill="#ffffff" opacity="1.00" d=" M 878.78 137.34 C 879.13 137.33 879.84 137.30 880.20 137.29 C 880.69 138.54 881.22 139.78 881.76 141.02 C 882.26 141.96 882.77 142.91 883.27 143.85 C 884.50 146.25 885.58 149.44 888.53 150.15 C 892.97 151.44 897.61 151.72 902.15 152.53 C 898.26 156.02 894.63 159.80 891.27 163.81 C 891.31 166.54 891.39 169.29 892.11 171.95 C 892.40 174.29 892.82 176.62 893.57 178.87 C 888.49 177.32 884.38 173.17 879.01 172.59 C 874.24 174.43 869.95 177.28 865.30 179.35 C 865.54 178.52 866.02 176.87 866.26 176.04 C 866.41 174.22 866.57 172.39 866.72 170.57 L 867.36 170.49 C 867.13 167.68 868.51 164.18 866.25 161.93 C 863.33 158.61 860.21 155.46 856.91 152.54 C 861.98 151.42 867.48 151.67 872.26 149.46 C 874.67 146.69 875.90 143.10 877.63 139.88 C 877.92 139.25 878.49 137.98 878.78 137.34 Z" style="fill: none !important;"/>
<path fill="#ffffff" opacity="1.00" d=" M 592.53 150.43 C 607.83 144.68 625.50 145.64 640.13 152.94 C 652.20 158.44 662.19 168.14 668.36 179.85 C 669.18 181.57 669.95 183.30 670.68 185.06 C 671.18 186.34 671.68 187.63 672.20 188.91 C 672.50 189.93 672.82 190.96 673.16 191.98 C 673.49 193.29 673.84 194.60 674.23 195.90 C 674.43 197.59 674.63 199.30 675.20 200.92 C 675.68 206.28 675.69 211.70 675.20 217.06 C 674.70 218.70 674.46 220.40 674.23 222.09 C 673.82 223.38 673.47 224.70 673.14 226.02 C 672.81 227.03 672.50 228.05 672.21 229.08 C 671.68 230.34 671.19 231.62 670.70 232.90 C 665.71 246.83 652.77 255.62 646.67 268.88 C 646.02 270.55 645.33 272.21 644.64 273.87 C 644.10 275.61 643.57 277.34 643.08 279.10 C 642.64 280.70 642.35 282.34 642.03 283.97 C 641.46 286.07 641.32 288.24 641.22 290.40 C 634.93 290.65 628.62 290.53 622.32 290.57 C 622.28 273.99 622.26 257.42 622.27 240.85 C 622.03 239.29 623.66 238.54 624.54 237.58 C 630.03 233.11 635.12 228.17 639.77 222.83 C 641.61 220.70 643.03 217.82 641.94 214.99 C 640.90 211.48 637.71 208.81 634.02 208.65 C 630.96 208.28 628.47 210.45 626.57 212.56 C 622.53 217.09 618.51 221.66 614.02 225.76 C 608.26 220.94 603.69 214.87 598.01 209.99 C 593.99 206.92 588.51 209.23 585.94 213.03 C 585.26 215.66 585.01 218.48 585.93 221.09 C 591.48 228.43 598.92 233.98 605.33 240.47 C 605.21 241.11 604.97 242.38 604.86 243.01 C 604.58 258.86 604.74 274.72 604.71 290.57 C 598.43 290.46 592.14 290.82 585.88 290.35 C 585.74 287.88 585.52 285.40 585.17 282.95 C 584.73 281.64 584.41 280.29 584.10 278.96 C 583.80 277.94 583.52 276.93 583.25 275.91 C 582.77 274.61 582.34 273.31 581.89 272.01 C 581.03 270.01 580.12 268.02 579.23 266.04 C 572.72 253.85 560.84 245.22 556.06 231.97 C 554.79 228.74 553.66 225.44 553.03 222.02 C 552.34 219.93 552.34 217.70 552.29 215.53 L 551.69 215.48 C 551.50 208.98 551.44 202.36 553.16 196.03 C 553.34 194.84 553.51 193.64 553.68 192.45 L 554.16 192.41 C 554.84 188.44 556.54 184.74 558.23 181.11 C 565.14 166.99 577.76 155.78 592.53 150.43 Z" style="fill: none !important;"/>
<path fill="#020403" opacity="1.00" d=" M 359.64 175.76 C 362.14 169.20 370.37 165.34 376.95 168.02 C 379.91 169.11 381.93 171.65 383.78 174.08 C 384.34 176.04 384.80 178.02 385.34 179.99 C 384.80 182.05 384.56 184.22 383.56 186.13 C 383.55 186.37 383.53 186.84 383.53 187.07 C 379.89 192.70 372.09 194.97 366.15 191.66 C 363.04 190.16 361.00 187.23 359.50 184.22 C 359.36 181.41 359.03 178.54 359.64 175.76 Z" style="fill: rgb(0, 0, 0) !important;"/>
<path fill="#020403" opacity="1.00" d=" M 501.44 228.59 C 508.16 226.96 513.86 234.93 510.81 241.00 C 509.80 243.98 506.88 245.59 504.00 246.32 C 448.47 262.95 396.92 292.95 355.49 333.55 C 348.23 340.60 341.10 347.81 334.69 355.65 C 331.90 359.51 325.93 361.18 322.03 357.99 C 318.16 355.37 317.36 349.84 319.67 345.94 C 331.63 332.17 344.41 319.08 358.04 306.95 C 389.27 279.91 424.92 258.09 463.00 242.10 C 475.43 236.57 488.47 232.62 501.44 228.59 Z" style="fill: rgb(0, 0, 0) !important;"/>
<path fill="#020403" opacity="1.00" d=" M 715.96 234.98 C 717.39 229.98 723.21 227.19 728.01 229.30 C 797.20 250.35 860.24 291.27 907.52 346.02 C 907.53 346.24 907.55 346.69 907.56 346.91 C 909.59 350.29 908.64 355.09 905.55 357.53 C 902.19 360.80 896.31 360.19 893.38 356.65 C 865.32 325.03 832.33 297.50 795.20 277.12 C 772.34 263.98 747.75 254.09 722.65 246.14 C 717.79 245.13 714.38 239.78 715.96 234.98 Z" style="fill: rgb(0, 0, 0) !important;"/>
<path fill="#020403" opacity="1.00" d=" M 206.28 246.10 C 207.07 243.58 209.23 241.33 212.05 241.53 C 215.11 241.62 216.69 244.64 217.69 247.12 C 218.85 249.71 220.09 252.26 221.32 254.81 C 223.99 260.16 226.54 265.56 229.27 270.87 C 229.58 272.30 230.21 273.77 231.83 274.05 C 242.04 275.87 252.40 276.94 262.62 278.71 C 266.86 279.41 268.24 285.30 265.07 287.99 C 257.62 295.53 250.01 302.91 242.34 310.23 C 242.38 312.16 242.50 314.11 243.11 315.97 C 243.38 317.96 243.61 319.97 244.16 321.92 C 244.40 323.60 244.62 325.30 245.11 326.94 C 245.37 328.63 245.62 330.34 246.08 332.00 C 246.55 336.40 248.42 340.78 247.38 345.24 C 245.95 347.92 242.34 348.67 239.77 347.23 C 230.78 342.44 221.75 337.72 212.68 333.09 C 211.46 332.25 210.17 333.12 209.09 333.70 C 202.13 337.60 194.99 341.16 188.05 345.09 C 185.77 346.29 183.53 347.76 180.94 348.18 C 178.44 347.96 176.74 346.05 175.36 344.16 C 175.57 340.42 176.34 336.74 177.18 333.10 C 177.66 329.40 178.31 325.72 179.18 322.09 C 179.42 320.38 179.60 318.67 180.17 317.04 C 180.51 314.70 180.70 312.34 180.83 309.98 C 173.98 303.23 166.89 296.72 160.15 289.86 C 158.76 288.49 157.60 286.91 156.54 285.28 C 156.56 284.43 156.57 283.58 156.58 282.74 C 157.58 281.13 158.57 279.20 160.63 278.84 C 167.32 277.53 174.12 276.86 180.85 275.77 C 184.94 275.07 189.21 275.03 193.10 273.46 C 196.89 264.08 202.19 255.36 206.28 246.10 M 209.26 264.16 C 208.44 265.76 207.62 267.35 206.79 268.95 C 205.59 271.33 204.40 273.72 203.22 276.11 C 202.53 277.44 201.88 278.79 201.26 280.16 C 200.32 281.46 199.74 283.42 197.98 283.78 C 189.64 285.70 180.99 285.84 172.61 287.52 C 178.62 292.68 184.19 298.38 189.56 304.20 C 193.06 307.14 191.60 312.11 190.80 315.94 C 190.59 317.33 190.40 318.71 190.19 320.10 C 189.44 322.13 189.41 324.32 189.29 326.46 L 188.69 326.55 C 188.52 328.75 188.34 330.94 188.20 333.15 C 194.71 329.59 201.33 326.24 207.95 322.89 C 209.76 322.01 211.88 321.05 213.83 322.15 C 221.21 325.54 228.24 329.68 235.61 333.10 C 235.41 332.08 235.03 330.03 234.83 329.01 C 234.59 327.64 234.39 326.26 234.17 324.90 C 233.65 322.95 233.39 320.95 233.13 318.96 C 232.61 317.00 232.30 315.00 231.80 313.05 C 231.56 310.98 231.42 308.91 231.36 306.84 C 237.66 300.11 244.03 293.31 251.23 287.55 C 243.22 285.89 235.04 285.30 226.97 284.01 C 225.17 283.81 223.35 282.99 222.61 281.23 C 219.38 274.85 216.29 268.41 213.07 262.03 C 212.79 261.23 212.22 259.61 211.94 258.80 C 210.91 260.51 210.03 262.31 209.26 264.16 Z" style="fill: rgb(0, 0, 0) !important;"/>
<path fill="#ffffff" opacity="1.00" d=" M 209.26 264.16 C 210.03 262.31 210.91 260.51 211.94 258.80 C 212.22 259.61 212.79 261.23 213.07 262.03 C 216.29 268.41 219.38 274.85 222.61 281.23 C 223.35 282.99 225.17 283.81 226.97 284.01 C 235.04 285.30 243.22 285.89 251.23 287.55 C 244.03 293.31 237.66 300.11 231.36 306.84 C 231.42 308.91 231.56 310.98 231.80 313.05 C 232.30 315.00 232.61 317.00 233.13 318.96 C 233.39 320.95 233.65 322.95 234.17 324.90 C 234.39 326.26 234.59 327.64 234.83 329.01 C 235.03 330.03 235.41 332.08 235.61 333.10 C 228.24 329.68 221.21 325.54 213.83 322.15 C 211.88 321.05 209.76 322.01 207.95 322.89 C 201.33 326.24 194.71 329.59 188.20 333.15 C 188.34 330.94 188.52 328.75 188.69 326.55 L 189.29 326.46 C 189.41 324.32 189.44 322.13 190.19 320.10 C 190.40 318.71 190.59 317.33 190.80 315.94 C 191.60 312.11 193.06 307.14 189.56 304.20 C 184.19 298.38 178.62 292.68 172.61 287.52 C 180.99 285.84 189.64 285.70 197.98 283.78 C 199.74 283.42 200.32 281.46 201.26 280.16 C 201.88 278.79 202.53 277.44 203.22 276.11 C 204.40 273.72 205.59 271.33 206.79 268.95 C 207.62 267.35 208.44 265.76 209.26 264.16 Z" style="fill: none !important;"/>
<path fill="#020403" opacity="1.00" d=" M 931.24 267.15 C 935.29 260.90 945.00 259.28 950.61 264.34 C 953.10 266.22 954.23 269.19 955.33 271.99 C 956.07 278.27 952.36 285.13 946.06 286.82 C 939.63 288.71 932.40 285.17 929.91 278.98 C 929.14 275.05 928.79 270.58 931.24 267.15 Z" style="fill: rgb(0, 0, 0) !important;"/>
<path fill="#ffffff" opacity="1.00" d=" M 586.63 307.79 C 604.56 307.94 622.52 307.48 640.44 308.10 C 640.14 312.72 640.83 317.43 640.03 322.01 C 637.81 322.99 635.34 322.74 632.99 322.79 C 618.65 322.70 604.30 322.84 589.96 322.75 C 588.27 322.92 587.34 321.44 586.51 320.26 C 586.73 316.10 586.59 311.94 586.63 307.79 Z" style="fill: none !important;"/>
<path fill="#ffffff" opacity="1.00" d=" M 600.79 339.80 C 608.59 339.77 616.38 339.80 624.18 339.80 C 625.18 339.74 626.08 340.03 626.89 340.67 C 624.22 344.28 620.93 348.18 616.18 348.75 C 609.92 349.82 602.48 346.18 600.79 339.80 Z" style="fill: none !important;"/>
<path fill="#020403" opacity="1.00" d=" M 1060.27 377.15 C 1062.23 373.59 1062.82 368.61 1066.87 366.70 C 1070.17 365.60 1072.91 368.10 1074.23 370.87 C 1075.78 375.05 1078.05 378.92 1079.77 383.03 C 1081.14 385.70 1082.48 388.38 1083.71 391.13 C 1084.51 392.73 1085.33 394.34 1086.16 395.95 C 1086.60 397.40 1087.29 399.15 1089.07 399.31 C 1099.00 400.78 1108.93 402.21 1118.87 403.63 C 1120.80 403.85 1122.23 405.25 1123.58 406.54 C 1123.57 408.12 1123.56 409.72 1123.54 411.31 C 1115.84 419.57 1107.57 427.31 1099.26 434.94 C 1099.39 436.95 1099.52 438.99 1100.19 440.91 C 1100.35 442.44 1100.51 443.98 1100.65 445.53 L 1101.27 445.58 C 1101.34 447.72 1101.40 449.91 1102.18 451.95 C 1102.39 453.77 1102.58 455.61 1102.70 457.45 L 1103.32 457.50 C 1103.39 459.66 1103.42 461.89 1104.27 463.94 C 1104.49 466.75 1105.52 470.80 1102.33 472.34 C 1099.61 474.33 1096.44 472.47 1093.92 471.14 C 1086.69 467.26 1079.40 463.51 1072.20 459.59 C 1070.75 458.98 1069.16 457.58 1067.56 458.50 C 1058.45 463.03 1049.63 468.16 1040.48 472.61 C 1037.32 474.39 1033.92 472.15 1032.42 469.32 C 1032.50 468.47 1032.68 466.79 1032.76 465.95 C 1033.38 463.69 1033.58 461.34 1034.16 459.08 C 1034.40 457.07 1034.58 455.04 1035.16 453.10 C 1035.69 449.39 1036.32 445.69 1037.20 442.05 C 1037.54 439.97 1037.17 437.60 1038.68 435.89 C 1030.16 427.78 1021.53 419.76 1013.41 411.24 C 1013.39 409.73 1013.42 408.24 1013.45 406.74 C 1014.83 405.00 1016.79 403.75 1019.04 403.55 C 1028.09 402.32 1037.11 400.90 1046.16 399.64 C 1047.70 399.36 1049.88 399.31 1050.46 397.48 C 1053.65 390.66 1056.90 383.88 1060.27 377.15 M 1066.14 389.07 C 1065.64 390.01 1065.15 390.95 1064.66 391.89 C 1063.87 393.63 1063.08 395.36 1062.27 397.09 C 1061.57 398.44 1060.89 399.81 1060.24 401.18 C 1059.22 403.19 1058.24 405.23 1057.39 407.32 C 1056.07 408.60 1054.26 409.04 1052.50 409.28 C 1044.89 410.35 1037.26 411.24 1029.71 412.60 C 1035.94 418.76 1042.14 424.95 1048.46 431.02 C 1049.21 435.77 1047.67 440.41 1047.16 445.10 C 1046.52 447.34 1046.45 449.70 1045.81 451.96 C 1045.49 454.05 1045.28 456.16 1045.14 458.29 C 1051.73 454.71 1058.41 451.30 1065.14 447.99 C 1066.68 447.37 1068.43 446.23 1070.14 447.08 C 1077.78 450.35 1084.94 454.68 1092.47 458.20 C 1091.40 453.22 1090.85 448.13 1089.76 443.15 C 1089.54 441.74 1089.33 440.33 1089.14 438.94 C 1088.33 436.64 1088.36 434.18 1088.31 431.79 C 1094.69 425.31 1100.93 418.64 1107.87 412.76 C 1100.14 411.30 1092.31 410.42 1084.55 409.21 C 1082.69 408.92 1080.63 408.35 1079.71 406.55 C 1077.70 402.77 1075.99 398.83 1074.11 394.98 C 1073.25 393.35 1072.45 391.70 1071.71 390.03 C 1070.77 388.01 1069.83 385.99 1068.96 383.96 C 1067.52 385.34 1066.82 387.23 1066.14 389.07 Z" style="fill: rgb(0, 0, 0) !important;"/>
<path fill="#ffffff" opacity="1.00" d=" M 1066.14 389.07 C 1066.82 387.23 1067.52 385.34 1068.96 383.96 C 1069.83 385.99 1070.77 388.01 1071.71 390.03 C 1072.45 391.70 1073.25 393.35 1074.11 394.98 C 1075.99 398.83 1077.70 402.77 1079.71 406.55 C 1080.63 408.35 1082.69 408.92 1084.55 409.21 C 1092.31 410.42 1100.14 411.30 1107.87 412.76 C 1100.93 418.64 1094.69 425.31 1088.31 431.79 C 1088.36 434.18 1088.33 436.64 1089.14 438.94 C 1089.33 440.33 1089.54 441.74 1089.76 443.15 C 1090.85 448.13 1091.40 453.22 1092.47 458.20 C 1084.94 454.68 1077.78 450.35 1070.14 447.08 C 1068.43 446.23 1066.68 447.37 1065.14 447.99 C 1058.41 451.30 1051.73 454.71 1045.14 458.29 C 1045.28 456.16 1045.49 454.05 1045.81 451.96 C 1046.45 449.70 1046.52 447.34 1047.16 445.10 C 1047.67 440.41 1049.21 435.77 1048.46 431.02 C 1042.14 424.95 1035.94 418.76 1029.71 412.60 C 1037.26 411.24 1044.89 410.35 1052.50 409.28 C 1054.26 409.04 1056.07 408.60 1057.39 407.32 C 1058.24 405.23 1059.22 403.19 1060.24 401.18 C 1060.89 399.81 1061.57 398.44 1062.27 397.09 C 1063.08 395.36 1063.87 393.63 1064.66 391.89 C 1065.15 390.95 1065.64 390.01 1066.14 389.07 Z" style="fill: none !important;"/>
<path fill="#020403" opacity="1.00" d=" M 325.15 405.38 C 370.79 389.90 419.86 384.84 467.74 390.16 C 491.36 392.91 514.67 398.57 536.83 407.24 C 564.40 418.36 590.66 433.10 613.44 452.31 C 615.68 450.99 617.68 449.32 619.68 447.66 C 637.28 433.35 657.06 421.82 677.81 412.73 C 713.84 396.38 753.43 388.46 792.92 388.22 C 829.83 387.64 866.78 393.59 901.81 405.17 C 905.04 406.05 907.15 408.87 908.39 411.82 C 908.32 428.76 908.41 445.71 908.36 462.65 C 919.57 462.65 930.79 462.53 942.01 462.68 C 949.49 462.81 956.44 467.51 959.74 474.16 C 960.25 475.38 960.74 476.61 961.27 477.84 C 961.53 479.21 961.85 480.59 962.26 481.95 C 962.41 519.67 962.27 557.40 962.33 595.13 C 961.51 599.11 958.32 602.82 954.02 602.82 C 950.00 603.25 946.56 600.46 944.80 597.08 C 944.15 585.06 944.72 573.01 944.53 560.98 C 944.42 534.63 944.72 508.26 944.37 481.91 C 943.86 481.54 942.83 480.81 942.32 480.44 C 930.99 480.18 919.66 480.41 908.33 480.33 C 908.41 513.95 908.35 547.58 908.40 581.21 C 907.03 584.24 904.69 587.29 901.15 587.70 C 897.30 588.52 893.61 586.35 891.49 583.26 C 891.07 581.53 890.50 579.83 890.57 578.05 C 890.60 525.53 890.56 473.01 890.60 420.50 C 872.64 414.39 853.85 411.15 835.13 408.44 C 808.58 404.73 781.55 404.99 755.05 409.00 C 731.98 412.26 709.19 418.19 687.85 427.63 C 664.23 437.63 642.56 451.81 622.51 467.68 C 622.40 596.44 622.43 725.20 622.53 853.96 C 634.22 844.80 646.95 837.04 660.18 830.32 C 667.38 826.68 674.48 822.75 682.06 819.96 C 687.48 817.93 692.78 822.65 693.36 827.96 C 692.90 829.36 692.56 830.80 692.33 832.28 C 690.09 836.01 685.76 837.34 682.06 839.12 C 659.50 849.23 638.68 862.96 619.70 878.74 C 616.53 881.66 611.45 881.46 608.21 878.78 C 599.78 872.22 591.30 865.72 582.40 859.82 C 563.19 846.60 542.12 836.08 519.94 828.86 C 477.07 814.41 430.66 811.81 386.08 818.61 C 367.06 821.57 348.38 826.36 330.01 832.01 C 325.01 833.65 319.94 829.87 318.63 825.11 C 318.72 710.19 318.62 595.28 318.68 480.37 C 308.08 480.35 297.48 480.35 286.88 480.32 C 285.29 480.15 283.94 481.05 282.61 481.75 C 282.52 608.91 282.61 736.08 282.59 863.24 C 283.80 865.63 286.26 866.95 288.92 866.67 C 374.31 866.75 459.69 866.75 545.07 866.79 C 548.33 866.58 551.34 868.25 553.23 870.85 C 554.11 873.22 555.20 875.52 556.25 877.84 C 562.88 890.33 573.78 900.48 586.68 906.28 C 600.99 912.90 617.69 913.48 632.77 909.26 C 647.84 904.80 661.43 894.84 669.27 881.09 C 669.53 880.59 670.04 879.59 670.30 879.09 C 670.75 878.01 671.23 876.96 671.69 875.90 C 672.96 873.24 673.81 870.10 676.38 868.37 C 679.17 866.35 682.78 866.79 686.02 866.75 C 692.39 866.85 698.76 866.63 705.12 866.85 C 708.30 866.98 710.94 869.04 712.49 871.72 C 714.76 876.75 711.58 883.24 706.01 884.09 C 699.93 884.58 693.81 884.12 687.72 884.33 C 676.14 908.04 652.27 925.30 626.07 928.59 C 605.13 931.41 582.90 926.93 565.60 914.54 C 554.93 906.79 545.74 896.73 539.79 884.91 C 538.73 884.08 537.28 884.43 536.07 884.31 C 458.06 884.38 380.06 884.33 302.06 884.32 C 296.71 884.28 291.35 884.37 286.00 884.19 C 278.15 883.83 270.67 879.01 267.19 871.94 C 266.81 870.93 266.42 869.93 266.02 868.94 C 265.53 866.98 265.35 864.96 265.36 862.96 C 265.36 736.32 265.32 609.68 265.35 483.04 C 265.36 481.35 265.61 479.68 265.96 478.04 C 266.55 476.65 267.10 475.26 267.61 473.86 C 271.01 467.01 278.39 462.63 286.00 462.65 C 296.88 462.56 307.76 462.63 318.65 462.64 C 318.68 446.37 318.66 430.11 318.68 413.84 C 318.73 409.99 321.47 406.48 325.15 405.38 M 394.46 408.14 C 374.81 410.86 355.10 414.26 336.32 420.81 C 336.39 551.04 336.34 681.27 336.37 811.50 C 351.36 807.25 366.54 803.60 381.94 801.23 C 427.19 794.47 474.05 796.56 517.99 809.75 C 549.11 819.07 578.65 833.83 604.62 853.36 C 604.65 724.84 604.65 596.32 604.61 467.80 C 597.77 462.39 590.79 457.14 583.58 452.23 C 549.53 428.18 509.27 413.32 467.96 408.22 C 443.60 405.00 418.83 404.95 394.46 408.14 Z" style="fill: rgb(0, 0, 0) !important;"/>
<path fill="#ffffff" opacity="1.00" d=" M 394.46 408.14 C 418.83 404.95 443.60 405.00 467.96 408.22 C 509.27 413.32 549.53 428.18 583.58 452.23 C 590.79 457.14 597.77 462.39 604.61 467.80 C 604.65 596.32 604.65 724.84 604.62 853.36 C 578.65 833.83 549.11 819.07 517.99 809.75 C 474.05 796.56 427.19 794.47 381.94 801.23 C 366.54 803.60 351.36 807.25 336.37 811.50 C 336.34 681.27 336.39 551.04 336.32 420.81 C 355.10 414.26 374.81 410.86 394.46 408.14 Z" style="fill: none !important;"/>
<path fill="#030504" opacity="1.00" d=" M 184.02 490.46 C 190.25 487.74 198.02 490.90 200.95 496.95 C 202.17 500.29 201.80 503.88 201.48 507.35 C 199.23 512.12 194.55 516.10 189.03 515.85 C 182.99 516.15 177.73 511.49 175.96 505.94 C 174.34 499.70 177.96 492.70 184.02 490.46 Z" style="fill: rgb(0, 0, 0) !important;"/>
<path fill="#020403" opacity="1.00" d=" M 1080.97 611.95 C 1083.40 607.16 1088.57 603.64 1094.08 604.22 C 1098.95 604.36 1103.06 607.72 1105.38 611.82 C 1106.25 614.48 1106.59 617.26 1106.33 620.06 C 1105.74 621.31 1105.21 622.59 1104.70 623.88 C 1101.77 628.88 1095.61 631.91 1089.90 630.25 C 1086.07 629.27 1082.80 626.54 1081.13 622.97 C 1079.79 619.47 1079.97 615.51 1080.97 611.95 Z" style="fill: rgb(0, 0, 0) !important;"/>
<path fill="#020303" opacity="1.00" d=" M 813.48 620.47 C 845.41 607.99 881.20 605.81 914.52 613.64 C 936.00 618.43 956.03 628.45 973.60 641.58 C 991.63 654.68 1006.50 671.86 1017.75 691.05 C 1019.45 694.01 1021.20 696.95 1022.71 700.03 C 1022.95 700.54 1023.43 701.56 1023.67 702.06 C 1024.35 703.38 1025.01 704.72 1025.64 706.09 C 1027.16 709.34 1028.49 712.68 1029.81 716.03 C 1030.30 717.31 1030.77 718.59 1031.27 719.88 C 1031.55 720.87 1031.85 721.86 1032.18 722.85 C 1032.49 723.87 1032.83 724.90 1033.20 725.94 C 1033.47 726.95 1033.77 727.97 1034.10 729.00 C 1034.40 730.31 1034.74 731.64 1035.14 732.95 C 1035.43 734.27 1035.75 735.62 1036.13 736.94 C 1036.41 738.60 1036.72 740.27 1037.20 741.91 C 1037.41 743.59 1037.63 745.29 1038.20 746.93 C 1038.43 749.07 1038.62 751.25 1038.72 753.42 L 1039.31 753.54 C 1039.40 756.84 1039.64 760.13 1039.73 763.45 L 1040.30 763.53 C 1040.52 772.18 1040.50 780.83 1040.31 789.49 L 1039.68 789.51 C 1039.60 792.50 1039.37 795.48 1039.28 798.48 L 1038.68 798.49 C 1038.57 800.35 1038.40 802.21 1038.21 804.09 C 1037.67 805.72 1037.40 807.41 1037.18 809.12 C 1036.66 811.03 1036.25 812.96 1035.74 814.88 C 1035.53 815.89 1035.33 816.91 1035.14 817.95 C 1034.79 818.98 1034.48 820.04 1034.22 821.11 C 1033.71 822.69 1033.28 824.31 1032.76 825.90 C 1031.94 828.28 1031.11 830.66 1030.34 833.07 C 1029.07 836.02 1027.91 839.02 1026.70 841.99 C 1024.23 847.85 1021.21 853.44 1018.24 859.06 C 1017.18 860.71 1016.21 862.42 1015.25 864.14 C 1014.16 865.52 1013.25 867.06 1013.34 868.89 C 1020.99 875.64 1028.07 883.04 1035.32 890.23 C 1038.20 888.58 1040.36 885.31 1044.03 885.43 C 1049.37 884.89 1052.57 889.80 1056.03 892.98 C 1082.02 918.33 1108.13 943.55 1134.17 968.84 C 1139.10 973.63 1144.49 978.06 1148.27 983.89 C 1149.53 986.22 1150.71 988.60 1151.73 991.06 C 1153.98 997.11 1154.86 1003.63 1154.22 1010.07 C 1153.69 1011.71 1153.43 1013.43 1153.26 1015.16 C 1152.52 1017.46 1151.72 1019.74 1150.82 1021.99 C 1143.73 1037.60 1126.26 1047.99 1109.11 1045.95 C 1099.60 1045.22 1090.57 1040.78 1083.80 1034.13 C 1055.31 1006.63 1027.62 978.31 999.12 950.83 C 995.84 947.48 990.77 944.32 991.31 938.97 C 990.62 934.56 995.18 932.46 997.19 929.25 C 989.68 922.06 982.45 914.59 975.03 907.32 C 943.77 931.54 903.48 943.73 864.05 940.89 C 841.91 939.69 820.08 933.74 800.29 923.78 C 769.50 907.84 743.48 882.65 727.24 851.95 C 726.55 850.60 725.87 849.25 725.21 847.92 C 724.53 846.56 723.87 845.22 723.24 843.87 C 722.36 841.94 721.48 840.02 720.62 838.11 C 720.01 836.43 719.38 834.77 718.70 833.13 C 718.20 831.69 717.68 830.27 717.20 828.85 C 716.84 827.86 716.50 826.88 716.17 825.90 C 715.41 823.59 714.72 821.26 714.10 818.92 C 713.73 817.60 713.41 816.25 713.12 814.94 C 712.76 813.59 712.45 812.23 712.16 810.89 C 711.32 807.28 710.63 803.64 710.20 799.96 C 709.34 796.88 709.38 793.65 709.30 790.48 L 708.67 790.52 C 708.28 780.19 708.21 769.84 708.68 759.51 L 709.31 759.52 C 709.34 756.68 709.36 753.82 710.15 751.08 C 710.36 749.05 710.58 747.01 711.12 745.05 C 711.93 739.27 713.47 733.63 715.13 728.05 C 715.42 727.02 715.73 725.99 716.06 724.98 C 716.57 723.29 717.11 721.61 717.66 719.94 C 718.17 718.64 718.67 717.35 719.18 716.06 C 719.75 714.37 720.43 712.73 721.18 711.13 C 722.23 708.34 723.53 705.65 724.76 702.95 C 725.61 701.36 726.45 699.76 727.27 698.16 C 728.67 695.38 730.23 692.69 731.76 689.98 C 735.23 684.14 739.04 678.51 743.24 673.17 C 761.71 650.10 785.79 631.15 813.48 620.47 M 845.96 629.48 C 804.09 637.82 765.78 664.61 745.28 702.29 C 744.41 703.82 743.58 705.36 742.73 706.90 C 741.85 708.62 740.99 710.35 740.19 712.11 C 739.02 714.49 737.84 716.88 737.13 719.44 L 736.68 719.62 C 736.14 721.41 735.48 723.16 734.75 724.88 C 733.78 727.56 732.86 730.26 732.02 732.99 C 731.69 734.00 731.39 735.03 731.11 736.08 C 730.74 737.38 730.42 738.70 730.07 740.02 C 729.63 741.47 729.40 742.98 729.26 744.50 L 728.70 744.54 C 728.56 746.05 728.39 747.56 728.21 749.08 C 726.05 759.40 725.46 770.02 725.65 780.56 L 726.29 780.47 C 726.08 787.02 727.00 793.53 728.21 799.94 C 728.70 802.98 729.30 806.00 730.17 808.96 C 730.35 809.97 730.54 811.00 730.74 812.05 C 731.58 814.65 732.31 817.29 733.17 819.90 C 733.50 820.87 733.84 821.85 734.21 822.84 C 734.69 824.26 735.22 825.68 735.71 827.12 C 736.51 829.05 737.33 830.97 738.17 832.90 C 739.44 835.91 740.85 838.88 742.32 841.81 C 752.51 862.33 767.80 880.21 786.11 893.93 C 815.96 915.94 854.00 927.29 891.03 922.83 C 930.69 918.22 967.97 896.79 992.27 865.16 C 995.45 860.92 998.49 856.59 1001.23 852.05 C 1002.17 850.37 1003.15 848.70 1004.12 847.04 C 1004.78 845.69 1005.47 844.37 1006.20 843.07 C 1006.45 842.57 1006.95 841.58 1007.21 841.09 C 1007.84 839.73 1008.51 838.39 1009.20 837.07 C 1010.19 834.73 1011.22 832.41 1012.25 830.08 C 1012.87 828.40 1013.54 826.75 1014.26 825.12 C 1015.62 821.11 1016.95 817.09 1018.11 813.02 C 1018.39 811.67 1018.72 810.35 1019.12 809.04 C 1019.41 807.37 1019.72 805.72 1020.17 804.10 C 1020.39 802.38 1020.59 800.66 1021.15 799.02 C 1021.46 796.37 1021.47 793.67 1022.21 791.10 C 1022.82 781.06 1022.89 770.97 1022.16 760.94 C 1021.26 756.65 1021.01 752.24 1020.14 747.94 C 1019.68 746.31 1019.38 744.65 1019.07 743.01 C 1018.69 741.67 1018.39 740.31 1018.12 738.98 C 1017.40 736.64 1016.72 734.31 1016.10 731.96 C 1015.75 730.96 1015.43 729.96 1015.13 728.96 C 1014.80 727.96 1014.48 726.96 1014.19 725.97 C 1013.68 724.67 1013.21 723.36 1012.73 722.07 C 1012.23 720.66 1011.71 719.26 1011.23 717.86 C 1010.18 715.55 1009.18 713.21 1008.23 710.87 C 1006.59 707.54 1004.99 704.19 1003.24 700.91 C 987.64 674.46 964.10 652.52 935.97 639.96 C 908.14 626.71 876.08 623.99 845.96 629.48 M 1001.11 882.44 C 997.33 887.34 992.88 891.69 988.34 895.88 C 996.03 902.36 1002.70 909.97 1010.05 916.84 C 1014.80 912.40 1019.28 907.67 1023.87 903.07 C 1016.77 896.33 1009.44 889.79 1002.89 882.50 C 1002.28 882.46 1001.69 882.44 1001.11 882.44 M 1015.40 936.48 C 1014.59 937.53 1012.89 938.36 1013.15 939.90 C 1015.01 942.61 1017.73 944.62 1019.98 947.03 C 1041.70 968.65 1063.64 990.06 1085.46 1011.58 C 1091.34 1017.01 1096.52 1023.56 1103.85 1027.14 C 1115.46 1032.37 1130.32 1025.82 1134.87 1014.06 C 1135.32 1012.71 1135.77 1011.38 1136.31 1010.07 C 1136.59 1006.69 1136.60 1003.30 1136.31 999.94 C 1135.79 998.61 1135.34 997.28 1134.90 995.95 C 1133.42 992.11 1130.46 989.21 1127.56 986.44 C 1105.96 965.69 1084.28 945.02 1062.88 924.06 C 1057.25 918.55 1051.27 913.40 1045.97 907.57 C 1045.51 907.46 1044.61 907.23 1044.15 907.11 C 1034.62 916.96 1025.02 926.73 1015.40 936.48 Z" style="fill: rgb(0, 0, 0) !important;"/>
<path fill="#ffffff" opacity="1.00" d=" M 845.96 629.48 C 876.08 623.99 908.14 626.71 935.97 639.96 C 964.10 652.52 987.64 674.46 1003.24 700.91 C 1004.99 704.19 1006.59 707.54 1008.23 710.87 C 1009.18 713.21 1010.18 715.55 1011.23 717.86 C 1011.71 719.26 1012.23 720.66 1012.73 722.07 C 1013.21 723.36 1013.68 724.67 1014.19 725.97 C 1014.48 726.96 1014.80 727.96 1015.13 728.96 C 1015.43 729.96 1015.75 730.96 1016.10 731.96 C 1016.72 734.31 1017.40 736.64 1018.12 738.98 C 1018.39 740.31 1018.69 741.67 1019.07 743.01 C 1019.38 744.65 1019.68 746.31 1020.14 747.94 C 1021.01 752.24 1021.26 756.65 1022.16 760.94 C 1022.89 770.97 1022.82 781.06 1022.21 791.10 C 1021.47 793.67 1021.46 796.37 1021.15 799.02 C 1020.59 800.66 1020.39 802.38 1020.17 804.10 C 1019.72 805.72 1019.41 807.37 1019.12 809.04 C 1018.72 810.35 1018.39 811.67 1018.11 813.02 C 1016.95 817.09 1015.62 821.11 1014.26 825.12 C 1013.54 826.75 1012.87 828.40 1012.25 830.08 C 1011.22 832.41 1010.19 834.73 1009.20 837.07 C 1008.51 838.39 1007.84 839.73 1007.21 841.09 C 1006.95 841.58 1006.45 842.57 1006.20 843.07 C 1005.47 844.37 1004.78 845.69 1004.12 847.04 C 1003.15 848.70 1002.17 850.37 1001.23 852.05 C 998.49 856.59 995.45 860.92 992.27 865.16 C 967.97 896.79 930.69 918.22 891.03 922.83 C 854.00 927.29 815.96 915.94 786.11 893.93 C 767.80 880.21 752.51 862.33 742.32 841.81 C 740.85 838.88 739.44 835.91 738.17 832.90 C 737.33 830.97 736.51 829.05 735.71 827.12 C 735.22 825.68 734.69 824.26 734.21 822.84 C 733.84 821.85 733.50 820.87 733.17 819.90 C 732.31 817.29 731.58 814.65 730.74 812.05 C 730.54 811.00 730.35 809.97 730.17 808.96 C 729.30 806.00 728.70 802.98 728.21 799.94 C 727.00 793.53 726.08 787.02 726.29 780.47 L 725.65 780.56 C 725.46 770.02 726.05 759.40 728.21 749.08 C 728.39 747.56 728.56 746.05 728.70 744.54 L 729.26 744.50 C 729.40 742.98 729.63 741.47 730.07 740.02 C 730.42 738.70 730.74 737.38 731.11 736.08 C 731.39 735.03 731.69 734.00 732.02 732.99 C 732.86 730.26 733.78 727.56 734.75 724.88 C 735.48 723.16 736.14 721.41 736.68 719.62 L 737.13 719.44 C 737.84 716.88 739.02 714.49 740.19 712.11 C 740.99 710.35 741.85 708.62 742.73 706.90 C 743.58 705.36 744.41 703.82 745.28 702.29 C 765.78 664.61 804.09 637.82 845.96 629.48 M 837.41 652.62 C 808.65 660.88 783.40 680.16 767.34 705.35 C 764.88 709.06 762.80 712.99 760.61 716.86 C 760.13 717.91 759.66 718.98 759.22 720.06 C 758.71 720.99 758.22 721.94 757.73 722.90 C 756.89 724.96 756.04 727.02 755.24 729.11 C 754.73 730.38 754.22 731.65 753.70 732.93 C 753.58 733.46 753.35 734.52 753.23 735.05 C 752.85 736.04 752.49 737.05 752.15 738.07 C 751.76 739.37 751.40 740.68 751.04 742.00 C 750.69 743.34 750.38 744.67 750.08 746.03 C 749.63 747.68 749.38 749.38 749.14 751.08 C 746.84 761.21 747.21 771.66 747.27 781.98 C 747.44 785.61 747.15 789.35 748.20 792.89 C 748.38 794.73 748.54 796.59 748.67 798.46 L 749.28 798.52 C 749.37 800.34 749.45 802.22 750.07 803.98 C 750.60 806.67 751.26 809.35 752.09 811.99 C 752.39 812.98 752.70 813.99 753.02 815.00 C 754.55 820.16 756.55 825.16 758.75 830.06 C 775.57 863.98 807.51 890.41 844.47 899.25 C 880.93 908.33 921.13 899.74 951.05 877.13 C 966.15 866.12 978.21 851.34 987.10 834.98 C 987.75 833.65 988.42 832.34 989.15 831.05 C 989.61 829.97 990.09 828.90 990.59 827.84 C 991.36 826.22 992.10 824.59 992.78 822.93 C 993.47 821.27 994.14 819.60 994.74 817.91 C 995.20 816.61 995.65 815.31 996.15 814.03 C 996.76 811.71 997.47 809.42 998.18 807.13 C 998.45 805.76 998.76 804.40 999.20 803.09 C 999.40 801.70 999.61 800.33 999.85 798.96 C 1000.29 797.31 1000.55 795.63 1000.80 793.96 C 1001.67 790.56 1001.56 787.02 1001.71 783.56 L 1002.32 783.49 C 1002.32 778.16 1002.32 772.83 1002.30 767.51 L 1001.71 767.52 C 1001.63 764.18 1001.38 760.86 1001.30 757.53 L 1000.68 757.52 C 1000.56 755.65 1000.43 753.80 1000.20 751.96 C 999.58 750.34 999.40 748.61 999.17 746.93 C 998.44 744.26 997.81 741.59 997.16 738.92 C 996.80 737.91 996.48 736.90 996.19 735.90 C 995.84 734.88 995.51 733.87 995.21 732.86 C 994.15 729.87 993.05 726.90 991.75 724.02 C 987.63 714.15 982.11 704.91 975.60 696.44 C 963.35 680.10 946.52 667.60 928.20 658.82 C 900.05 645.59 867.15 644.17 837.41 652.62 Z" style="fill: none !important;"/>
<path fill="#020403" opacity="1.00" d=" M 837.41 652.62 C 867.15 644.17 900.05 645.59 928.20 658.82 C 946.52 667.60 963.35 680.10 975.60 696.44 C 982.11 704.91 987.63 714.15 991.75 724.02 C 993.05 726.90 994.15 729.87 995.21 732.86 C 995.51 733.87 995.84 734.88 996.19 735.90 C 996.48 736.90 996.80 737.91 997.16 738.92 C 997.81 741.59 998.44 744.26 999.17 746.93 C 999.40 748.61 999.58 750.34 1000.20 751.96 C 1000.43 753.80 1000.56 755.65 1000.68 757.52 L 1001.30 757.53 C 1001.38 760.86 1001.63 764.18 1001.71 767.52 L 1002.30 767.51 C 1002.32 772.83 1002.32 778.16 1002.32 783.49 L 1001.71 783.56 C 1001.56 787.02 1001.67 790.56 1000.80 793.96 C 1000.55 795.63 1000.29 797.31 999.85 798.96 C 999.61 800.33 999.40 801.70 999.20 803.09 C 998.76 804.40 998.45 805.76 998.18 807.13 C 997.47 809.42 996.76 811.71 996.15 814.03 C 995.65 815.31 995.20 816.61 994.74 817.91 C 994.14 819.60 993.47 821.27 992.78 822.93 C 992.10 824.59 991.36 826.22 990.59 827.84 C 990.09 828.90 989.61 829.97 989.15 831.05 C 988.42 832.34 987.75 833.65 987.10 834.98 C 978.21 851.34 966.15 866.12 951.05 877.13 C 921.13 899.74 880.93 908.33 844.47 899.25 C 807.51 890.41 775.57 863.98 758.75 830.06 C 756.55 825.16 754.55 820.16 753.02 815.00 C 752.70 813.99 752.39 812.98 752.09 811.99 C 751.26 809.35 750.60 806.67 750.07 803.98 C 749.45 802.22 749.37 800.34 749.28 798.52 L 748.67 798.46 C 748.54 796.59 748.38 794.73 748.20 792.89 C 747.15 789.35 747.44 785.61 747.27 781.98 C 747.21 771.66 746.84 761.21 749.14 751.08 C 749.38 749.38 749.63 747.68 750.08 746.03 C 750.38 744.67 750.69 743.34 751.04 742.00 C 751.40 740.68 751.76 739.37 752.15 738.07 C 752.49 737.05 752.85 736.04 753.23 735.05 C 753.35 734.52 753.58 733.46 753.70 732.93 C 754.22 731.65 754.73 730.38 755.24 729.11 C 756.04 727.02 756.89 724.96 757.73 722.90 C 758.22 721.94 758.71 720.99 759.22 720.06 C 759.66 718.98 760.13 717.91 760.61 716.86 C 762.80 712.99 764.88 709.06 767.34 705.35 C 783.40 680.16 808.65 660.88 837.41 652.62 M 846.11 668.97 C 817.73 675.87 792.81 695.35 778.73 720.86 C 778.04 722.19 777.33 723.52 776.64 724.86 C 776.00 726.20 775.36 727.55 774.72 728.90 C 773.32 732.19 771.86 735.45 770.69 738.83 C 769.78 741.57 768.83 744.29 768.10 747.09 C 767.74 748.42 767.44 749.75 767.15 751.11 C 764.22 762.65 764.09 774.62 764.69 786.45 L 765.31 786.50 C 765.34 788.98 765.39 791.52 766.14 793.93 C 766.40 795.59 766.65 797.28 767.13 798.90 C 767.42 800.23 767.73 801.59 768.09 802.93 C 768.73 805.26 769.41 807.59 770.18 809.90 C 770.50 810.88 770.83 811.86 771.17 812.85 C 771.81 814.56 772.52 816.25 773.27 817.93 C 776.66 826.24 781.19 834.06 786.71 841.14 C 794.66 851.49 804.25 860.60 815.21 867.72 C 834.63 880.11 857.95 886.41 880.98 884.93 C 898.77 884.21 916.08 878.22 931.30 869.14 C 948.08 859.02 961.65 844.08 971.29 827.11 C 971.93 825.75 972.59 824.42 973.26 823.10 C 974.46 820.38 975.70 817.68 976.73 814.90 C 977.20 813.61 977.68 812.34 978.19 811.07 C 978.48 810.04 978.80 809.03 979.14 808.03 C 979.44 807.01 979.77 806.01 980.12 805.02 C 980.43 803.69 980.78 802.39 981.18 801.11 C 981.87 797.76 982.32 794.36 983.18 791.05 C 983.51 788.20 983.64 785.33 983.71 782.47 L 984.31 782.53 C 984.63 774.62 984.10 766.77 983.20 758.93 C 982.55 757.01 982.37 754.98 982.09 753.00 C 981.71 751.67 981.38 750.31 981.09 748.98 C 980.71 747.66 980.38 746.32 980.06 745.01 C 979.75 743.98 979.46 742.96 979.20 741.94 C 978.84 740.92 978.52 739.90 978.22 738.89 C 977.72 737.62 977.25 736.35 976.79 735.09 C 976.16 733.38 975.49 731.69 974.78 730.03 C 973.19 726.19 971.20 722.54 969.26 718.87 C 964.66 711.31 959.49 704.03 953.19 697.80 C 938.86 682.86 919.69 673.14 899.73 668.20 C 882.18 663.75 863.58 664.61 846.11 668.97 Z" style="fill: rgb(0, 0, 0) !important;"/>
<path fill="#ffffff" opacity="1.00" d=" M 846.11 668.97 C 863.58 664.61 882.18 663.75 899.73 668.20 C 919.69 673.14 938.86 682.86 953.19 697.80 C 959.49 704.03 964.66 711.31 969.26 718.87 C 971.20 722.54 973.19 726.19 974.78 730.03 C 975.49 731.69 976.16 733.38 976.79 735.09 C 977.25 736.35 977.72 737.62 978.22 738.89 C 978.52 739.90 978.84 740.92 979.20 741.94 C 979.46 742.96 979.75 743.98 980.06 745.01 C 980.38 746.32 980.71 747.66 981.09 748.98 C 981.38 750.31 981.71 751.67 982.09 753.00 C 982.37 754.98 982.55 757.01 983.20 758.93 C 984.10 766.77 984.63 774.62 984.31 782.53 L 983.71 782.47 C 983.64 785.33 983.51 788.20 983.18 791.05 C 982.32 794.36 981.87 797.76 981.18 801.11 C 980.78 802.39 980.43 803.69 980.12 805.02 C 979.77 806.01 979.44 807.01 979.14 808.03 C 978.80 809.03 978.48 810.04 978.19 811.07 C 977.68 812.34 977.20 813.61 976.73 814.90 C 975.70 817.68 974.46 820.38 973.26 823.10 C 972.59 824.42 971.93 825.75 971.29 827.11 C 961.65 844.08 948.08 859.02 931.30 869.14 C 916.08 878.22 898.77 884.21 880.98 884.93 C 857.95 886.41 834.63 880.11 815.21 867.72 C 804.25 860.60 794.66 851.49 786.71 841.14 C 781.19 834.06 776.66 826.24 773.27 817.93 C 772.52 816.25 771.81 814.56 771.17 812.85 C 770.83 811.86 770.50 810.88 770.18 809.90 C 769.41 807.59 768.73 805.26 768.09 802.93 C 767.73 801.59 767.42 800.23 767.13 798.90 C 766.65 797.28 766.40 795.59 766.14 793.93 C 765.39 791.52 765.34 788.98 765.31 786.50 L 764.69 786.45 C 764.09 774.62 764.22 762.65 767.15 751.11 C 767.44 749.75 767.74 748.42 768.10 747.09 C 768.83 744.29 769.78 741.57 770.69 738.83 C 771.86 735.45 773.32 732.19 774.72 728.90 C 775.36 727.55 776.00 726.20 776.64 724.86 C 777.33 723.52 778.04 722.19 778.73 720.86 C 792.81 695.35 817.73 675.87 846.11 668.97 M 866.62 689.83 C 865.80 692.15 865.31 694.57 865.87 697.02 C 867.57 700.45 870.86 703.43 874.92 703.23 C 901.85 702.24 928.28 718.81 939.70 743.12 C 940.43 744.74 941.14 746.38 941.78 748.06 C 942.25 749.33 942.72 750.62 943.22 751.92 C 943.48 752.95 943.76 753.99 944.08 755.03 C 944.87 758.46 945.71 761.90 945.73 765.45 L 946.32 765.52 C 946.63 770.00 945.84 774.63 947.07 779.01 C 947.59 779.78 948.11 780.58 948.63 781.39 C 952.09 784.64 958.06 784.97 961.50 781.52 C 964.72 778.58 964.49 773.86 964.25 769.89 C 963.41 766.49 963.48 762.97 963.33 759.50 L 962.77 759.45 C 962.65 756.23 961.86 753.13 961.12 750.03 C 960.77 748.99 960.44 747.95 960.15 746.92 C 959.82 745.91 959.52 744.89 959.25 743.88 C 958.70 742.60 958.19 741.31 957.68 740.04 C 945.15 707.32 910.95 684.52 875.95 685.30 C 872.27 685.02 868.58 686.65 866.62 689.83 Z" style="fill: none !important;"/>
<path fill="#020403" opacity="1.00" d=" M 104.17 693.07 C 105.74 689.94 106.64 685.28 110.81 684.74 C 114.53 684.45 116.10 688.10 117.23 690.96 C 117.95 692.71 118.79 694.41 119.64 696.10 C 121.32 699.59 122.86 703.15 124.65 706.59 C 131.39 707.59 138.14 708.60 144.88 709.60 C 146.54 709.92 148.43 710.37 149.37 711.94 C 149.84 713.37 149.63 714.92 149.65 716.42 C 144.23 721.66 139.07 727.21 133.33 732.11 C 133.78 737.46 135.11 742.70 136.11 747.97 C 136.48 750.40 136.86 752.83 137.50 755.23 C 136.25 757.55 133.96 759.78 131.08 758.64 C 124.26 755.86 118.10 751.68 111.38 748.67 C 105.20 751.87 99.22 755.48 92.90 758.37 C 90.12 759.77 87.29 758.18 85.42 756.12 C 85.61 754.74 85.85 753.38 86.13 752.04 C 86.72 748.37 87.25 744.69 88.25 741.11 C 88.42 739.55 88.57 738.02 88.70 736.48 L 89.30 736.57 C 89.38 735.59 89.53 733.63 89.61 732.65 C 84.20 726.56 77.41 721.75 72.55 715.21 C 72.89 714.04 73.21 712.87 73.51 711.70 C 74.61 710.66 75.92 709.84 77.45 709.68 C 83.94 708.69 90.50 708.09 96.95 706.83 C 98.32 706.69 98.50 705.03 99.20 704.13 C 99.94 702.02 100.88 700.00 101.78 697.96 C 102.59 696.33 103.37 694.70 104.17 693.07 M 110.96 700.16 C 109.49 704.98 106.72 709.26 105.12 714.03 C 100.18 717.42 93.65 716.80 87.95 717.81 C 91.67 720.70 94.92 724.14 98.26 727.46 C 100.48 729.40 99.32 732.53 99.19 735.04 C 98.21 738.39 97.86 741.89 97.24 745.32 C 100.96 743.38 104.60 741.29 108.40 739.51 C 109.84 738.88 111.45 737.88 113.02 738.80 C 117.41 740.47 121.31 743.14 125.58 745.06 C 125.04 742.35 124.49 739.66 124.12 736.94 C 123.31 734.29 123.22 731.51 123.26 728.78 C 126.65 725.50 129.82 721.97 133.46 718.95 C 133.55 718.65 133.72 718.04 133.81 717.74 C 129.21 717.13 124.59 716.60 120.08 715.50 C 118.37 715.10 117.62 713.38 116.70 712.09 C 115.31 708.66 113.51 705.42 112.19 701.97 C 111.77 701.35 111.36 700.76 110.96 700.16 Z" style="fill: rgb(0, 0, 0) !important;"/>
<path fill="#020403" opacity="1.00" d=" M 866.62 689.83 C 868.58 686.65 872.27 685.02 875.95 685.30 C 910.95 684.52 945.15 707.32 957.68 740.04 C 958.19 741.31 958.70 742.60 959.25 743.88 C 959.52 744.89 959.82 745.91 960.15 746.92 C 960.44 747.95 960.77 748.99 961.12 750.03 C 961.86 753.13 962.65 756.23 962.77 759.45 L 963.33 759.50 C 963.48 762.97 963.41 766.49 964.25 769.89 C 964.49 773.86 964.72 778.58 961.50 781.52 C 958.06 784.97 952.09 784.64 948.63 781.39 C 948.11 780.58 947.59 779.78 947.07 779.01 C 945.84 774.63 946.63 770.00 946.32 765.52 L 945.73 765.45 C 945.71 761.90 944.87 758.46 944.08 755.03 C 943.76 753.99 943.48 752.95 943.22 751.92 C 942.72 750.62 942.25 749.33 941.78 748.06 C 941.14 746.38 940.43 744.74 939.70 743.12 C 928.28 718.81 901.85 702.24 874.92 703.23 C 870.86 703.43 867.57 700.45 865.87 697.02 C 865.31 694.57 865.80 692.15 866.62 689.83 Z" style="fill: rgb(0, 0, 0) !important;"/>
<path fill="#ffffff" opacity="1.00" d=" M 110.96 700.16 C 111.36 700.76 111.77 701.35 112.19 701.97 C 113.51 705.42 115.31 708.66 116.70 712.09 C 117.62 713.38 118.37 715.10 120.08 715.50 C 124.59 716.60 129.21 717.13 133.81 717.74 C 133.72 718.04 133.55 718.65 133.46 718.95 C 129.82 721.97 126.65 725.50 123.26 728.78 C 123.22 731.51 123.31 734.29 124.12 736.94 C 124.49 739.66 125.04 742.35 125.58 745.06 C 121.31 743.14 117.41 740.47 113.02 738.80 C 111.45 737.88 109.84 738.88 108.40 739.51 C 104.60 741.29 100.96 743.38 97.24 745.32 C 97.86 741.89 98.21 738.39 99.19 735.04 C 99.32 732.53 100.48 729.40 98.26 727.46 C 94.92 724.14 91.67 720.70 87.95 717.81 C 93.65 716.80 100.18 717.42 105.12 714.03 C 106.72 709.26 109.49 704.98 110.96 700.16 Z" style="fill: none !important;"/>
<path fill="#ffffff" opacity="1.00" d=" M 1001.11 882.44 C 1001.69 882.44 1002.28 882.46 1002.89 882.50 C 1009.44 889.79 1016.77 896.33 1023.87 903.07 C 1019.28 907.67 1014.80 912.40 1010.05 916.84 C 1002.70 909.97 996.03 902.36 988.34 895.88 C 992.88 891.69 997.33 887.34 1001.11 882.44 Z" style="fill: none !important;"/>
<path fill="#ffffff" opacity="1.00" d=" M 1015.40 936.48 C 1025.02 926.73 1034.62 916.96 1044.15 907.11 C 1044.61 907.23 1045.51 907.46 1045.97 907.57 C 1051.27 913.40 1057.25 918.55 1062.88 924.06 C 1084.28 945.02 1105.96 965.69 1127.56 986.44 C 1130.46 989.21 1133.42 992.11 1134.90 995.95 C 1135.34 997.28 1135.79 998.61 1136.31 999.94 C 1136.60 1003.30 1136.59 1006.69 1136.31 1010.07 C 1135.77 1011.38 1135.32 1012.71 1134.87 1014.06 C 1130.32 1025.82 1115.46 1032.37 1103.85 1027.14 C 1096.52 1023.56 1091.34 1017.01 1085.46 1011.58 C 1063.64 990.06 1041.70 968.65 1019.98 947.03 C 1017.73 944.62 1015.01 942.61 1013.15 939.90 C 1012.89 938.36 1014.59 937.53 1015.40 936.48 Z" style="fill: none !important;"/>
<path fill="#020303" opacity="1.00" d=" M 400.57 933.82 C 402.29 931.84 405.04 930.53 407.62 931.58 C 410.41 932.41 411.06 935.56 412.30 937.83 C 413.24 939.86 414.26 941.86 415.27 943.87 C 416.35 946.30 417.61 948.65 418.74 951.06 C 419.40 952.38 420.06 953.71 420.70 955.05 C 422.04 957.77 423.32 960.52 424.78 963.19 C 435.53 964.93 446.37 966.14 457.10 967.98 C 461.42 968.40 462.00 974.64 459.06 977.05 C 451.58 984.50 444.22 992.09 436.35 999.13 C 436.59 1002.77 437.30 1006.37 438.18 1009.92 C 438.40 1011.92 438.62 1013.95 439.19 1015.91 C 439.42 1017.90 439.58 1019.95 440.17 1021.91 C 440.40 1023.59 440.58 1025.33 441.18 1026.96 C 441.65 1029.59 441.71 1032.29 441.43 1034.97 C 439.23 1036.85 436.16 1038.08 433.49 1036.33 C 424.27 1031.47 414.87 1026.87 405.87 1021.60 C 396.04 1026.26 386.70 1031.92 376.90 1036.65 C 374.53 1037.81 371.66 1036.89 369.92 1035.07 C 368.41 1030.46 370.42 1025.67 371.16 1021.10 C 371.70 1017.38 372.28 1013.67 373.11 1010.02 C 373.37 1008.01 373.55 1005.99 374.19 1004.06 C 374.36 1002.40 374.50 1000.76 374.62 999.13 C 366.39 991.08 357.87 983.24 350.37 974.48 C 350.29 972.39 350.53 970.32 351.73 968.57 C 362.97 965.80 374.69 965.49 386.03 963.15 C 388.12 960.39 389.13 956.99 390.74 953.94 C 391.24 952.98 391.74 952.02 392.24 951.07 C 392.86 949.72 393.54 948.40 394.24 947.11 C 395.46 944.36 396.82 941.67 398.19 939.00 C 398.99 937.26 399.82 935.56 400.57 933.82 M 404.99 948.11 C 404.63 949.83 403.97 951.48 403.21 953.09 C 401.55 955.94 400.19 958.95 398.65 961.88 C 397.50 964.27 396.26 966.63 395.25 969.10 C 394.23 970.69 393.21 972.63 391.12 972.92 C 382.95 974.57 374.59 975.04 366.37 976.43 C 372.49 982.07 378.31 988.01 384.12 993.95 C 386.73 995.93 385.34 999.34 385.19 1002.06 C 383.46 1008.83 382.97 1015.85 381.35 1022.65 C 388.31 1018.83 395.42 1015.29 402.37 1011.45 C 404.25 1010.21 406.59 1010.29 408.51 1011.41 C 415.58 1015.02 422.51 1018.91 429.63 1022.43 C 429.44 1020.94 429.15 1019.48 428.77 1018.06 C 428.56 1016.68 428.38 1015.28 428.19 1013.92 C 427.48 1011.87 427.36 1009.70 427.27 1007.57 L 426.65 1007.47 C 426.54 1005.48 426.40 1003.49 426.32 1001.52 L 425.68 1001.49 C 425.56 999.60 425.43 997.73 425.32 995.87 C 431.60 989.28 437.93 982.72 444.72 976.67 C 436.85 975.58 429.01 974.33 421.13 973.28 C 419.12 972.97 417.11 971.82 416.31 969.88 C 413.14 963.10 409.71 956.46 406.34 949.78 C 406.00 949.36 405.33 948.53 404.99 948.11 Z" style="fill: rgb(0, 0, 0) !important;"/>
<path fill="#020403" opacity="1.00" d=" M 228.52 938.55 C 233.04 934.57 240.29 934.17 245.19 937.68 C 247.83 939.26 249.08 942.19 250.39 944.83 C 250.79 948.90 250.49 953.36 247.52 956.49 C 242.41 962.58 231.75 962.45 227.00 955.98 C 222.84 951.01 223.58 942.73 228.52 938.55 Z" style="fill: rgb(0, 0, 0) !important;"/>
<path fill="#ffffff" opacity="1.00" d=" M 404.99 948.11 C 405.33 948.53 406.00 949.36 406.34 949.78 C 409.71 956.46 413.14 963.10 416.31 969.88 C 417.11 971.82 419.12 972.97 421.13 973.28 C 429.01 974.33 436.85 975.58 444.72 976.67 C 437.93 982.72 431.60 989.28 425.32 995.87 C 425.43 997.73 425.56 999.60 425.68 1001.49 L 426.32 1001.52 C 426.40 1003.49 426.54 1005.48 426.65 1007.47 L 427.27 1007.57 C 427.36 1009.70 427.48 1011.87 428.19 1013.92 C 428.38 1015.28 428.56 1016.68 428.77 1018.06 C 429.15 1019.48 429.44 1020.94 429.63 1022.43 C 422.51 1018.91 415.58 1015.02 408.51 1011.41 C 406.59 1010.29 404.25 1010.21 402.37 1011.45 C 395.42 1015.29 388.31 1018.83 381.35 1022.65 C 382.97 1015.85 383.46 1008.83 385.19 1002.06 C 385.34 999.34 386.73 995.93 384.12 993.95 C 378.31 988.01 372.49 982.07 366.37 976.43 C 374.59 975.04 382.95 974.57 391.12 972.92 C 393.21 972.63 394.23 970.69 395.25 969.10 C 396.26 966.63 397.50 964.27 398.65 961.88 C 400.19 958.95 401.55 955.94 403.21 953.09 C 403.97 951.48 404.63 949.83 404.99 948.11 Z" style="fill: none !important;"/>
<path fill="#020303" opacity="1.00" d=" M 544.59 983.89 C 548.09 977.90 556.18 975.21 562.41 978.52 C 565.57 979.94 567.64 982.82 568.96 985.94 C 569.73 988.89 569.69 992.01 569.00 994.99 C 566.49 1000.67 560.20 1004.45 553.98 1003.09 C 549.45 1002.36 545.91 998.97 543.90 995.00 C 543.09 991.31 543.04 987.39 544.59 983.89 Z" style="fill: rgb(0, 0, 0) !important;"/>
</svg>